<?xml version="1.0" encoding="utf-8"?>
<!-- Generator: Adobe Illustrator 23.0.2, SVG Export Plug-In . SVG Version: 6.00 Build 0)  -->
<svg version="1.1" id="Layer_1" xmlns="http://www.w3.org/2000/svg" xmlns:xlink="http://www.w3.org/1999/xlink" x="0px" y="0px"
	 width="500px" height="500px" viewBox="0 0 500 500" style="enable-background:new 0 0 500 500;" xml:space="preserve">
<style type="text/css">
	.st0{fill:#FFFFFF;}
	.st1{fill:#E5869B;}
	.st2{fill:#E3B6CE;}
	.st3{fill:#F1CCDE;}
	.st4{fill:#F3B4CE;}
	.st5{fill:#583B2F;}
	.st6{fill:#695045;}
	.st7{fill:#FFBAD0;}
</style>
<g>
	<path class="st0" d="M192.8,259.7c2.6-0.8,5-2.1,7.7-2.3l-0.1,0.7c-0.4,0.1-0.9,0-1.3,0c-0.2,0.2-0.6,0.6-0.8,0.8
		c-0.1-0.1-0.3-0.3-0.4-0.4c-0.7,0.4-1.4,0.8-2.3,1c-2,1.8-4.8,2.7-6.6,4.8c-1.2,1.3-2.6,2.4-3.7,3.9c-1,1.7-2,3.3-3.3,4.9
		c-0.1,0.8-0.5,1.5-0.9,2.2c0.1,0.1,0.2,0.3,0.3,0.4c-0.4,0.5-1,1.1-0.7,1.8c-0.5,1.2-1,2.5-1.2,3.8c0,0.1,0.1,0.4,0.1,0.5
		c-0.2,0.6-0.4,1.2-0.7,1.8c0.1,0.2,0.4,0.5,0.5,0.6c-0.1,0.2-0.4,0.5-0.6,0.7c0.2,0.3,0.5,0.9,0.6,1.2c-0.5,1-0.4,2.1-0.4,3.1
		c0.1,0.6,0.3,1.2,0.4,1.8c0.2,1.5,0.7,2.9,0.9,4.4c0.5,0.9,0.7,1.9,1.1,2.8c0.6,1,1.5,1.9,1.6,3.1c0.3,0.5,0.7,1,1,1.5
		c0,0.2-0.1,0.5-0.1,0.6c2.3,2.5,4.7,5,7.3,7.2c1.6,0.3,2.7,1.7,4.3,2c0.8,0.5,1.4,1.4,2.5,1.3c0.7,0.3,1.4,0.7,2.1,1.2
		c0.9,0.1,1.8,0.2,2.6,0.4c1.1,0.7,2.4,0.2,3.5,0.9c1.7-0.1,3.4,0.2,5.1,0c0.8-0.1,1.6-0.2,2.4,0.1c1.1-0.9,2.6-0.4,3.8-1.2
		c0.4-0.1,0.8-0.2,1.2-0.3c0.2,0,0.5,0.1,0.7,0.1c1.9-1.5,4.3-1.9,6-3.7c0.2,0,0.5,0.1,0.6,0.1c2.6-2,5-4.2,7.1-6.8
		c0.5-0.6,1.1-1.3,1-2.1c0.8-0.9,1.4-1.9,2.2-2.8c0-0.2-0.1-0.5-0.2-0.6c1.1-1.9,1.4-4.1,2.5-6c-0.1-0.1-0.3-0.5-0.4-0.6
		c0.1-0.2,0.4-0.7,0.5-0.9c-0.3-1.8,0.7-3.6,0.5-5.4c-0.4-1.4-0.1-2.9-0.6-4.3c0-0.2,0.1-0.7,0.2-0.9c-0.3-0.5-0.6-0.9-0.9-1.4
		c0.1-0.1,0.4-0.4,0.5-0.5c-0.3-0.5-0.7-1-1-1.5c0-0.2,0-0.5,0-0.7c-0.1-0.5-0.1-0.9-0.1-1.3c-0.6-1.1-1.3-2.2-2.1-3.3
		c0-0.2,0.1-0.5,0.2-0.7c-1-1.2-2.1-2.3-2.8-3.7c-1.3-1.9-3.2-3.3-4.8-4.9c-0.2,0-0.5,0.1-0.6,0.1c-0.9-0.9-1.8-1.7-2.8-2.5
		c0-0.2-0.1-0.6-0.1-0.8c3.2,1.8,6.3,3.6,9.2,5.8c2.3,2.3,4.8,4.3,6.4,7.2c4.3,5.7,6.7,12.7,7.3,19.8c0.6,6.6-0.8,13.3-3.5,19.3
		c-1.6,3.1-3.5,6-5.6,8.8c-2,2-3.9,4.3-6.5,5.8c-6.1,4.7-13.6,7.2-21.3,7.8c-2.2-0.3-4.4-0.1-6.6-0.4c-1.9-0.2-3.7-0.9-5.5-1.2
		c-2.3-0.5-4.3-1.7-6.5-2.5c-1.7-0.7-3-2.1-4.7-2.8c-3.7-2.2-7.3-4.9-9.6-8.6c-4.8-6.1-7.5-13.8-7.9-21.6c-0.3-8.2,2-16.5,6.7-23.2
		c2-3.6,5.1-6.3,8.1-9C187,262.9,189.7,261,192.8,259.7z"/>
	<path class="st0" d="M304.9,257.4c2,0.2,3.9,0.7,5.7,1.6c3.8,1.1,7.1,3.5,10.4,5.6c2.5,2.1,4.8,4.5,7,7c1.9,3.3,4.3,6.4,5.4,10
		c4.5,10.9,3.2,23.9-3.1,33.9c-2.3,3.3-4.5,6.8-7.8,9.2c-1.4,0.8-2.7,2-4.2,2.7c-1.4,0.7-2.6,1.9-4,2.5c-2.6,1.1-5.2,2.6-8.1,3
		c-3,1-6.1,1.2-9.2,1.2c-1.7,0.3-3.3-0.1-5-0.2c-5.9-0.8-11.6-3-16.5-6.3c-1.4-1.2-3.2-2-4.5-3.4c-1.2-1.3-2.5-2.4-3.7-3.7
		c-1.9-2.7-3.7-5.4-5.3-8.3c-3.1-6.7-4.4-14.2-3.4-21.6c0.5-4.1,1.7-8.1,3.4-11.8c1.6-3,3.4-5.9,5.5-8.5c2.1-2.1,4-4.5,6.7-6
		c2.2-1.7,4.6-2.9,7-4.3c0,0.2,0.1,0.5,0.2,0.7c-1,0.8-2,1.6-2.9,2.5c-0.2,0-0.5-0.1-0.6-0.1c-1.6,1.6-3.4,3.1-4.7,4.9
		c-0.7,1.4-1.8,2.6-2.8,3.7c0,0.2,0.1,0.5,0.2,0.7c-1,1.4-2.2,2.8-2.2,4.6c0,0.2,0,0.5,0,0.7c-0.3,0.5-0.7,1-1,1.5
		c0.1,0.1,0.4,0.4,0.5,0.6c-0.3,0.5-0.6,0.9-0.9,1.4c0,0.2,0.1,0.7,0.2,0.9c-0.5,1.2-0.3,2.5-0.5,3.7c-0.6,2,0.7,4,0.4,6.1
		c0.1,0.2,0.4,0.7,0.5,0.9c-0.1,0.1-0.3,0.4-0.4,0.6c1,1.9,1.4,4.1,2.5,6c0,0.2-0.1,0.5-0.2,0.6c1,1.2,2.1,2.3,2.5,3.9
		c2.1,3,4.9,5.5,7.8,7.8c0.1,0,0.5-0.1,0.6-0.2c1.7,1.7,4.1,2.2,6,3.6c0.7,0,1.3,0.1,2,0.1c0.5,0.3,1,0.6,1.5,0.9
		c0.2-0.1,0.6-0.3,0.8-0.4c0.5,0.3,1,0.6,1.4,0.9c0.8-0.4,1.6-0.2,2.4-0.1c1.7,0.2,3.5-0.1,5.2,0.1c0.5-0.2,1-0.5,1.5-0.7
		c0.3,0.1,0.6,0.2,1,0.4c0.2-0.2,0.7-0.5,0.9-0.7c0.9-0.1,1.8-0.3,2.7-0.3c0.7-0.5,1.4-0.9,2.1-1.3c0.2,0.1,0.5,0.2,0.7,0.2
		c0.6-0.5,1.1-1,1.7-1.4c1.7-0.5,3-1.7,4.6-2.3c2.5-2.1,4.7-4.6,7-6.9c0-0.2-0.1-0.5-0.1-0.6c1-1.1,1.1-2.7,2-3.8
		c0.9-1,0.9-2.5,1.6-3.6c0.2-1.5,0.7-2.9,0.9-4.4c0.1-0.6,0.3-1.2,0.4-1.8c0.3-1.5-0.7-2.9,0.1-4.3c-0.3-1,0-2.2-0.5-3.2
		c0-1.5-0.5-3-1.3-4.4c0.1-0.2,0.3-0.5,0.3-0.7c-0.3-0.4-0.7-0.7-1-1.1c0.1-0.1,0.3-0.4,0.3-0.5c-0.3-0.6-0.6-1.1-0.9-1.6
		c0-0.1,0-0.4,0.1-0.6c-1.9-2-2.8-4.7-4.9-6.6c-1.4-1.2-2.5-2.7-4-3.8c-1.6-0.9-3.3-1.9-4.7-3.1c-1-0.1-1.8-0.9-2.8-0.8
		c-0.2-0.2-0.5-0.5-0.7-0.7c-0.4,0-0.8,0.1-1.3,0L304.9,257.4z"/>
	<path class="st0" d="M207.9,268.4c0.7-0.5,1.4-0.8,2.1-1.2c0.1,0.1,0.4,0.3,0.5,0.4c0.2-0.1,0.5-0.2,0.6-0.3c3.1,0.5,6,2.8,6.7,5.8
		c0.3,0.8,0.5,1.6,0.4,2.4c-0.2,1-0.5,1.9-0.7,2.9c-1,1.5-2.3,2.8-3.8,3.8c-0.1,0-0.4-0.1-0.6-0.1c-1.9,0.9-4.2,0.6-5.8-0.6
		c-1-0.4-1.8-1.2-2.2-2.2c-0.6-0.8-1.2-1.6-1.7-2.6c0.1-1,0.1-2.1-0.1-3.1c0.2-0.5,0.5-1,0.7-1.4c0.2-2.1,2.4-3.3,3.9-4.5
		L207.9,268.4z"/>
	<path class="st0" d="M291.1,268.4c0.9-0.8,2.2-0.6,3.2-1.2c0.1,0.1,0.4,0.3,0.6,0.4c1.1-0.8,2,0.8,3.1,0.6c1.3,0.8,2.4,1.8,3.2,3.1
		c0.3,0.8,0.4,1.7,0.9,2.4c-0.2,1-0.2,2-0.1,3.1c-0.5,0.9-1.1,1.7-1.6,2.6c-1.5,2.7-5.2,4.2-8,2.8c-0.1,0-0.4,0.1-0.6,0.1
		c-1.5-1.1-2.8-2.3-3.8-3.8c-0.2-1-0.5-2-0.7-3c-0.2-0.8,0.1-1.6,0.4-2.4C287.9,271.1,289.5,269.6,291.1,268.4z"/>
	<path class="st0" d="M204.2,295.2c0.7-1.4,2.5-2.7,4.1-2c1.3-0.4,2.7,0.6,3.5,1.6c0.1,1.2,0.7,2.4,0.6,3.6
		c-0.6,1.2-1.6,2.1-2.7,2.8c-0.1-0.1-0.4-0.3-0.5-0.4c-0.8,0.7-1.5-0.2-2.3-0.4c-1.2-0.2-2-1.2-2.7-2.1
		C204.1,297.4,203.6,296.3,204.2,295.2z"/>
	<path class="st0" d="M293.4,294.9c0.7-1.1,2-1.4,3.1-1.9c0.1,0.1,0.4,0.2,0.5,0.3c1.6-0.7,3.4,0.6,4.2,2c0.6,1,0.1,2.2-0.1,3.3
		c-0.7,0.8-1.4,1.8-2.5,2c-0.7,0.1-1.3,0.5-1.8,0.8c-0.2-0.1-0.5-0.3-0.6-0.4c-0.6,0.6-1.2-0.1-1.6-0.4c-0.7-0.6-1.2-1.3-1.6-2
		c0-1.1,0-2.2,0.6-3.1C293.5,295.3,293.4,295,293.4,294.9z"/>
</g>
<g>
	<path class="st1" d="M244.8,323.5c1.6-1.3,3.8-1,5.8-1.1c2.7,0.1,5.8-0.3,8.2,1.2c1.2,0.8,2.4,2.3,2,3.8c-1.2,3.6-3.8,6.5-6.8,8.7
		c-0.7,0.2-1.3,0.4-2,0.6c-2.1-0.1-3.6-1.7-4.8-3.2c-1.5-2-3.2-4-3.6-6.5C243.2,325.7,243.7,324.3,244.8,323.5z"/>
</g>
<g>
	<path class="st2" d="M234.2,215.9c0-1.5,0.2-2.9,0.5-4.4c0,1.3,0,2.7,0.1,4c4.2-0.3,8.4-0.5,12.7-0.9c0.1-0.2,0.2-0.6,0.3-0.8
		c0.1,0.3,0.2,0.9,0.3,1.2c2.9-0.4,5.9-0.2,8.8,0c0.1-0.1,0.3-0.3,0.4-0.4c3.6,0.8,7.3,0.6,11,1.3c4.6,0.7,9.1,1.3,13.6,2.4
		c3,0.5,5.8,1.6,8.8,2.4c0.3-0.4,0.5-0.8,0.8-1.2c-0.4,1.5,1.3,1.8,2.3,2.2c4.4,1.4,8.7,3.1,12.8,5.1c4,1.5,7.5,4,11.2,5.8
		c3.2,2.3,6.7,4.2,9.8,6.8c1.6,0.6,2.3,2.2,3.7,2.9c1.3,0.7,1.9,2.3,3.3,2.9c2.9,3,6.1,5.8,8.6,9.2c1.4,1.2,2.1,3,3.5,4.2
		c3.4,5.1,6.8,10.2,9.1,15.9c2.3,4.8,3.6,10,4.9,15.2c0.5,2.5,0.9,5,1,7.6c0.5,4.1,0.5,8.3,0,12.3c0.1,3.8-0.9,7.5-1.8,11.2
		c-0.5,3-1.8,5.8-2.6,8.7c-0.6,1.8-1.6,3.4-2.2,5.2c-0.3,1-1,1.8-1.5,2.7c-0.9,1.6-1.4,3.4-2.7,4.8c-0.7,0.7-0.5,1.9-1.4,2.5
		c-1.3,1-1.7,2.7-2.8,3.8c-2.3,3-4.8,5.9-7.5,8.7c-1.1,0.8-1.6,2.2-2.8,2.9c-1,0.6-1.4,1.8-2.5,2.4c-2,1.3-3.5,3.3-5.6,4.4
		c-0.6,0.4-1.1,0.9-1.6,1.4c-4.1,2.7-8,5.7-12.4,7.7c-5.7,3.2-11.7,5.8-17.9,7.9c-0.5,0.2-1.2,0.2-1.6,0.7c0.8,0,1.6,0.1,2.4,0.1
		c-1.7,0.4-3.5,0-5.1,0.5c-3.6,1.1-7.2,2.1-10.8,2.8c-15.1,3.3-30.6,3.8-45.9,2.1c-4.5-0.7-9.1-1.2-13.5-2.4c-2.3-0.4-4.6-1.3-7-1.2
		c-0.5-0.4-1-0.8-1.6-1c-6.7-1.7-13-4.4-19.2-7.4c-2-0.7-3.6-2.1-5.6-2.8c-3.2-1.9-6.3-3.7-9.3-5.8c-0.9-0.9-2.3-1.1-3.1-2.1
		c-0.7-0.8-1.6-1.4-2.5-1.9c-0.9-0.7-1.4-1.8-2.5-2.2c-1.2-0.5-1.6-1.9-2.7-2.5c-1.3-0.6-1.8-2.1-3-2.8c-1.2-0.7-1.7-2.1-2.9-2.8
		c-3-3.5-6.2-7-8.6-11c-4.9-7.4-8.9-15.5-10.9-24.2c-2.6-9.1-2.5-18.6-1.4-27.9c1.1-6.7,3-13.4,6-19.5c0.5-1.3,1.1-2.6,1.9-3.8
		c1.7-3.7,4.1-6.9,6.3-10.3c1.4-1.4,2.3-3.2,3.8-4.5c0.7-1.2,1.6-2.1,2.7-3c0.7-1.1,1.6-1.9,2.6-2.7c1.6-1.9,3.7-3.3,5.4-5.1
		c0.8-1,2.5-1.2,3-2.5c1.5-1,3-2,4.4-3.2c2.4-2.5,5.3-4.5,8.4-5.8c0-0.2,0.1-0.5,0.2-0.6c3-1,5.6-3,8.5-4.2
		c3.7-1.6,7.4-3.4,11.3-4.6c1.9-0.5,3.8-1.4,5.7-1.9c2.9-0.6,5.7-1.7,8.7-2.1c1.2-0.2,2.4-0.5,3.5-0.8
		C227.3,216.5,230.7,215.9,234.2,215.9z M195.5,244.1c-4.7,2.2-9.4,4.6-13.2,8.1c-1.4,1.3-2.9,2.9-2.9,4.9c1.6-0.9,2.8-2.4,4.3-3.6
		c3-2.5,6.6-4.4,10.1-6.1c3-1.5,6.1-2.8,9.3-3.7c1.6-0.5,3.2-0.6,4.7-1.5c-0.3-0.5-0.5-1.3-1.2-1.2
		C202.5,240.8,198.9,242.6,195.5,244.1z M298.7,242.4c-0.2,0.4-0.3,0.8-0.5,1.2c1.7,1,3.7,1.1,5.5,1.8c5.8,2,11.4,4.6,16.5,8
		c2.3,1.4,3.9,3.6,6.1,5.1c0.1-0.8-0.1-1.7-0.6-2.4c-1.3-1.9-3-3.4-4.8-4.8c-4.2-3-8.9-5.3-13.7-7.3
		C304.6,243,301.7,242,298.7,242.4z M202.3,257.2c-0.6,0.4-1.2,0.8-1.9,0.9l0.1-0.7c-2.7,0.2-5.2,1.4-7.7,2.3c-3,1.4-5.8,3.2-8.5,5
		c-3,2.7-6.1,5.4-8.1,9c-4.6,6.8-7,15-6.7,23.2c0.4,7.8,3,15.5,7.9,21.6c2.2,3.8,5.8,6.5,9.6,8.6c1.7,0.7,3,2.2,4.7,2.8
		c2.1,0.9,4.2,2.1,6.5,2.5c1.9,0.4,3.7,1,5.5,1.2c2.2,0.3,4.4,0.1,6.6,0.4c7.6-0.5,15.2-3.1,21.3-7.8c2.5-1.4,4.4-3.7,6.5-5.8
		c2.1-2.8,3.9-5.7,5.6-8.8c2.7-6,4.1-12.7,3.5-19.3c-0.5-7.1-3-14.1-7.3-19.8c-1.6-2.9-4.2-4.9-6.4-7.2c-2.9-2.2-6-4-9.2-5.8
		c0,0.2,0.1,0.6,0.1,0.8c-1.6,0-2.7-1.3-4-2c-0.8,0.2-1.5-0.6-2.3-0.1c-0.4-0.3-0.7-0.6-1.1-0.9c-1.3,0.4-2.3-0.8-3.6-0.7
		c-0.9,0-1.9-0.5-2.7,0.2c-0.2-0.2-0.6-0.5-0.8-0.6c-0.3,0.2-0.6,0.4-0.9,0.6c-0.6-0.4-1.3-0.3-2-0.3c-0.2,0.1-0.5,0.3-0.7,0.5
		l-0.5-0.4C204.6,257.1,203.5,257.4,202.3,257.2z M292.2,256.9c-1.3-0.1-2.3,1-3.6,0.6c-0.4,0.3-0.8,0.6-1.1,1
		c-0.1-0.1-0.3-0.3-0.5-0.4c-0.6,0.3-1.1,0.5-1.8,0.4c-1.3,0.7-2.4,2-4,2c0-0.2-0.1-0.5-0.2-0.7c-2.4,1.4-4.8,2.6-7,4.3
		c-2.6,1.5-4.5,3.9-6.7,6c-2.1,2.7-3.8,5.6-5.5,8.5c-1.7,3.8-2.9,7.7-3.4,11.8c-1,7.3,0.3,14.9,3.4,21.6c1.6,2.9,3.3,5.6,5.3,8.3
		c1.2,1.3,2.5,2.5,3.7,3.7c1.3,1.4,3.1,2.1,4.5,3.4c4.9,3.3,10.6,5.5,16.5,6.3c1.7,0.1,3.3,0.5,5,0.2c3.1,0,6.2-0.2,9.2-1.2
		c2.9-0.4,5.5-1.8,8.1-3c1.5-0.6,2.6-1.8,4-2.5c1.5-0.7,2.8-1.8,4.2-2.7c3.4-2.4,5.6-5.9,7.8-9.2c6.3-10,7.6-23,3.1-33.9
		c-1.1-3.7-3.5-6.8-5.4-10c-2.1-2.5-4.4-4.9-7-7c-3.3-2.1-6.6-4.5-10.4-5.6c-1.8-0.8-3.7-1.3-5.7-1.6l0.1,0.7
		c-0.7-0.1-1.3-0.5-1.9-0.9c-0.8,0-1.6,0.1-2.3-0.2c-0.5-0.1-1.2-0.7-1.6,0.1c-0.2-0.1-0.5-0.3-0.7-0.5c-0.7,0-1.4,0-2,0.3
		c-0.3-0.2-0.6-0.4-1-0.6c-0.2,0.2-0.6,0.5-0.7,0.6C294.2,256.4,293.1,256.9,292.2,256.9z M244.8,323.5c-1.1,0.8-1.6,2.2-1.3,3.5
		c0.5,2.5,2.1,4.6,3.6,6.5c1.2,1.5,2.7,3.1,4.8,3.2c-0.4,0.6-0.4,1.4-0.5,2.1c-0.4,2.8-1.6,5.4-3,7.8c-1.6,2.4-3.4,5-6.2,6.1
		c-2.1,0.9-4.6,0.4-6.5-0.7c-2.6-1.5-5.2-3.5-6.4-6.3c-0.4-0.8-0.7-1.9-1.8-2.1c-0.3,1.5-0.1,3.1,0.6,4.5c1.6,3,4.4,5.1,7.4,6.5
		c2.6,1.2,5.8,1.2,8.3-0.2c3.5-1.8,5.5-5.4,7.4-8.6c0.6,2.8,1.9,5.5,4.4,7.2c2.3,1.9,5.7,2.7,8.3,1c4.1-2.5,7.4-7.4,6.4-12.4
		c-0.2-0.8-0.9-0.2-0.8,0.3c-0.4,2.6-1.2,5.3-3,7.3c-1.5,1.7-3.5,3.7-6,3.2c-2.7-0.8-4.9-3-5.9-5.6c-1.1-3.5-0.6-7.1-0.8-10.7
		c3-2.2,5.6-5.1,6.8-8.7c0.4-1.6-0.8-3-2-3.8c-2.4-1.6-5.4-1.2-8.2-1.2C248.6,322.5,246.4,322.2,244.8,323.5z"/>
</g>
<path class="st2" d="M349,356c3.6-1.4,7.5-0.9,11.2,0c1.4,0.6,2.7,1.3,3.8,2.4c1.6,2.1,2.8,4.8,2.7,7.6c-0.5,2.1-1.3,4-1.7,6.1
	c-0.3,1.4-1.5,2.2-2.2,3.4c-1.2,2.8-3,5.4-5.4,7.3c-0.5,0.5-0.8,1.1-1.2,1.7c-1.9,1.1-2.9,3.4-4.9,4.5c-1.7,0.9-2.6,2.8-4.5,3.4
	c-1.6,0.5-2.7,2-4.4,2.6c-3.5,2.8-7.9,3.9-11.7,6.2c-1.5,1-3.3,1.2-4.9,2.1c-1.1,0.6-2.3,1.1-3.5,1.7c-0.2-0.1-0.7-0.3-1-0.4
	c-1.9,0.8-3.6,2-5.7,2.4c-2.3,0.3-4.4,1.7-6.8,1.6c0.9,3,2.6,5.8,3.1,9c0.6,3.1,1.8,6,2.4,9.1c0.2,4.5,0.5,9.1,0.4,13.6
	c-0.1,4.6,0.3,9.4-1.1,13.9c1.7-0.9,3.6-1.2,5.5-1.5c4.9-1.2,10-1.8,15-1.7c2.3,0.1,4.5,0.6,6.7,1.3c1.5,0.6,3.3,0.6,4.7,1.5
	c1.3,0.8,2.6,1.5,3.9,2.2c1,1,2,2,2.9,3.1c0.5,1.9,0.7,4.4-0.8,6c-0.9,1.1-2.1,1.7-3.2,2.4c-1.5,0.8-2.9,1.8-4.6,2
	c-1.7,0.3-3.3,1.1-5.1,1.5c-4.4,1-8.8,0.4-13.3,0.6c-1.7,0.1-3.4,0.4-5.2,0.3c-2.6-0.2-5.3,0.1-7.9,0.2c-2.2,0.1-4.4-0.3-6.6-0.1
	c-2.5,0-5,0.2-7.5-0.1c-2.7-0.3-5.4,0.2-8.1-0.3c-2.1-0.4-4.2,0.2-6.2,0.4c-6.1,0-12.2,0.4-18.3,0.5c-2.9,0.7-5.8,0-8.7,0.6
	c-1.5,0.3-2.9-0.2-4.4,0.1c-1.4,0.2-2.7,0.3-4.1,0.2c-1.9-0.2-3.7,0.5-5.6,0.3c-2-0.3-3.9,0.3-5.9,0.1c-1.7-0.2-3.3,0.1-4.9,0.2
	c-3.9-0.5-7.8,0.7-11.8,0.9c-6,0.1-12,0.3-17.9,0c-6.8,0.2-13.5-0.8-20.1-2.3c-1.5-0.3-3-0.3-4.5-0.7c-2.5-0.7-4.7-2-7.2-2.6
	c-2.6-1.2-5-3.2-6-6c-0.6-2.1,0.5-4.2,1.6-5.9c1.4-2.6,4-4.2,6.5-5.5c2.5-1.5,5.4-1.6,8.1-2.2c3.6-0.7,7.3-0.4,11-0.1
	c2.8,0.5,5.7,0.7,8.4,1.9c0.1-2.5-0.6-5-0.3-7.5c0.2-2.3,0.3-4.6,0.7-6.8c0.6-2.9,0.5-6,1.2-8.9c0.7-3.1,0.3-6.3,1.4-9.3
	c0.4-1.4,0.6-2.9,0.9-4.4c-2.9-0.9-5.7-2-8.6-2.4c-3.5-0.7-6.5-2.9-10.1-3.1c-2.1-0.5-4-1.8-6.1-2.4c-2.3-0.7-4.2-2.2-6.5-2.8
	c-2-0.6-3.6-2.1-5.5-2.8c-1.7-0.7-2.8-2.4-4.6-2.8c-1.4-0.4-2.4-1.7-3.7-2.4c-1.5-0.8-2.6-2.2-4.1-3c-1.1-0.6-1.7-1.8-2.8-2.5
	c-1.2-0.7-1.6-2.1-2.8-2.8c-1.4-0.8-1.8-2.5-3.1-3.5c-1.8-2-3.5-4.1-4.2-6.7c-1.3-2.7-2-5.8-1.2-8.7c0.8-2.9,3.1-5.6,6.2-6
	c3.1-1.1,6.4-0.5,9.5,0.2c3,0.2,5.5,2,8.3,2.9c1.4,0.4,2.7,1.4,3.9,2.1c1.3,0.8,2.9,1,4.1,2c1.5,1.2,3.5,1.6,5,2.9
	c1.3,1,2.9,1.4,4.1,2.4c1.4,1.1,3.2,1.7,4.6,2.8c1.6,1.4,3.7,2,5.4,3.4c4,2.2,8.3,3.8,12.7,5.2c3.2,1,6.7,1.1,10.1,0.5
	c-0.1,0.1-0.3,0.4-0.4,0.6c2.4,1.8,5.2,3,7.8,4.6c5.8,3.2,12.3,4.8,18.6,6.7l0.4,0.1c-3.6,2.4-7.1,5.1-9.6,8.7
	c-3.8,5.3-5.8,11.7-6.3,18.2c-0.4,5,0.9,10,2.8,14.7c1.6,2.9,3,5.9,5.2,8.3c3.1,3.2,6.6,6.3,10.8,8c1.8,1.1,3.8,1.7,5.8,2.1
	c5.3,1.4,10.9,1.6,16.2,0c3.2-0.4,6-2,8.8-3.6c2.4-1.7,4.8-3.3,6.7-5.5c2.1-2.3,3.8-5,5.3-7.8c1-2.9,2.4-5.8,3-8.8
	c1-5.5,0.5-11.4-1.7-16.6c-2.2-6.9-7.1-12.8-13.1-16.6c-1.4-1.2-3.2-2.1-5-2.3l0.5-0.1c8.9-1.5,17.7-4.1,25.4-8.9
	c2.9-1.8,6-3.4,8.5-5.7l0.1-0.1c0.7-0.1,1.5-0.2,2.1-0.7c1.8-1.3,4.1-1.9,5.8-3.3c1-0.9,2.4-1.1,3.5-1.7c1.6-1,3.4-1.7,4.8-3
	c0.8-0.8,2.1-0.6,2.9-1.5c1.2-1.4,2.9-2.1,4.4-3.2c1-1,1.9-2.1,3.2-2.9c1.5-0.9,2.1-3,4-3.2c1.3-1.9,3.5-2.6,5.3-3.8
	c0.9-0.6,2-0.8,2.8-1.5C344.5,356.7,346.9,356.6,349,356z"/>
<path class="st3" d="M260.6,398.9c3-0.4,6-0.4,8.9-1.2c1.9,0.3,3.6,1.1,5,2.3c6,3.8,10.9,9.7,13.1,16.6c2.2,5.2,2.7,11.1,1.7,16.6
	c-0.6,3.1-2,5.9-3,8.8c-1.5,2.8-3.2,5.4-5.3,7.8c-1.9,2.2-4.3,3.8-6.7,5.5c-2.8,1.6-5.6,3.1-8.8,3.6c-5.3,1.6-10.9,1.4-16.2,0
	c-2.1-0.3-4-1-5.8-2.1c-4.2-1.8-7.7-4.8-10.8-8c-2.3-2.4-3.7-5.4-5.2-8.3c-1.8-4.7-3.2-9.6-2.8-14.7c0.5-6.5,2.5-12.9,6.3-18.2
	c2.5-3.6,6-6.3,9.6-8.7c1.5,0.5,3.1,0.5,4.7,0.4C250.4,398.8,255.6,399.6,260.6,398.9z"/>
<path class="st3" d="M194,423.1c1.5-1.8,3.3-3.6,5.7-3.8c-1.4,2.6-2.1,5.5-2.9,8.4c-1.4,5.4-2.1,10.9-2.4,16.4
	c-3.6,0.5-7.2,0.5-10.8,1.4c-3.9,0.8-7.5,2.3-11.1,4c0.2-1.5,1.1-2.7,2.1-3.8c0.8-0.9,0.9-2.1,1.2-3.2c0.5-2.2,2.1-3.9,3.4-5.7
	c1-1.5,3-1.8,4.5-2.5c-0.5-2.3-1-4.7,0-7c0.8-2.2,2.7-4.1,5.1-4.6C190.6,422.2,192.4,422.7,194,423.1z"/>
<path class="st1" d="M297.4,384.9c2.3-0.3,4.3-1.5,6.6-1.9c-2.5,2.3-5.6,3.8-8.5,5.7c-7.7,4.8-16.5,7.5-25.4,8.9
	c-1.5-0.7-3-1.6-4.7-1.8c-2.9-0.4-5.8-1.1-8.7-1.1c-2.8-0.1-5.6,0.6-8.3,1.1c-2.9,0.5-5.3,2.4-8.1,3.1c-6.3-1.9-12.8-3.5-18.6-6.7
	c-2.6-1.5-5.4-2.8-7.8-4.6c0.1-0.1,0.3-0.4,0.4-0.6l0.7-0.3c2.4-0.1,4.7,0.8,7,1.2c4.4,1.2,9,1.7,13.5,2.4
	c15.3,1.7,30.9,1.1,45.9-2.1c3.7-0.6,7.3-1.7,10.8-2.8C293.9,384.8,295.7,385.2,297.4,384.9z"/>
<path class="st1" d="M227.7,119.6c-1.7-3.7-3.5-7.3-6.2-10.3c-1.8,5.2-3.9,10.3-6.5,15.2c-1.3,2.6-2.5,5.2-4.2,7.6
	c2.1,2.3,4,4.7,5.6,7.4c0.8-0.7,1.5-1.4,2.1-2.3C222,131.6,225.6,126,227.7,119.6z"/>
<path class="st2" d="M203.9,101.1c-10.1-0.8-20.2,1.6-30.1,3.1c-9.9,1.9-20.2,3.2-29.2,8c-5.3,2.8-9.4,7.5-12.4,12.6
	c-4,6.6-6.5,14-8.7,21.4c-2.9,10.3-5.5,20.8-6.5,31.5c-0.7,8.5-0.7,17.2,1.7,25.4c1.2,3.8,3,7.7,6.1,10.4c3.2,2.8,7.8,3.7,11.8,2.8
	c5.7-1.1,10.6-4.6,14.6-8.7c6.3-6.2,11.3-13.6,16.5-20.7c3.8-5,7.3-10.5,12.6-14c-0.2,0-0.7,0-0.9,0c2.8-3.6,6.1-6.9,8.7-10.6
	c2.6-3.7,5.8-7,8.4-10.7c1.5-2.2,3.3-4.3,4.9-6.5c3.2-4.2,6-8.8,9.4-12.9c1.7-2.4,2.9-5,4.2-7.6c2.5-4.9,4.6-10,6.5-15.2
	C217.1,104.3,210.5,101.6,203.9,101.1z"/>
<path class="st2" d="M236.9,158.5c-1.8-13.2-4-26.5-9.2-38.9c-2.1,6.3-5.8,12-9.3,17.6c-0.5,0.9-1.3,1.7-2.1,2.3
	c0.2,0.3,0.3,0.5,0.5,0.8c3.7,6.5,6.1,13.6,8.1,20.7c2.9,10.9,4.4,22.1,5.5,33.3c0.3,3.5,0.7,7,0.6,10.5c3.2-0.3,6.4-0.6,9.7-0.9
	c0-5.4-0.7-10.8-0.9-16.3C239.3,178,238.1,168.2,236.9,158.5z"/>
<path class="st2" d="M192.5,169.2c-0.1-0.1-0.2-0.3-0.3-0.4c-2,2.4-4.5,4.3-6.6,6.5c4.4,5.6,7.8,11.9,10.8,18.3
	c2.7,5.8,5.3,11.7,7.6,17.7c2.8-1.6,6.1-1.7,9.1-2.8c-2.7-6.6-5.7-13.1-9.2-19.3C200.5,182.3,196.3,175.8,192.5,169.2z"/>
<path class="st3" d="M216.9,140.4c-3.6,3.6-6.1,8.2-9.3,12.1c-2.7,3.2-5.5,6.5-8.3,9.6c-2.3,2.3-4.2,5-6.7,7
	c3.8,6.7,8,13.1,11.4,19.9c3.5,6.2,6.5,12.7,9.2,19.3c0.1,0.1,0.2,0.4,0.2,0.6c4.1-1.2,8.2-1.9,12.3-2.9c1.8-0.4,3.6-0.4,5.4-0.4
	c0-0.2,0-0.6,0-0.8c0.1-3.5-0.3-7-0.6-10.5c-1.1-11.2-2.6-22.4-5.5-33.3C223,154,220.5,146.9,216.9,140.4z"/>
<path class="st1" d="M192.2,168.7c-1.4-2.1-2.7-4.3-4.1-6.4c-2.7,3.7-5.9,7-8.7,10.6c0.2,0,0.7,0,0.9,0c2.1-0.6,3.9,0.9,5.3,2.3
	C187.8,173,190.3,171.1,192.2,168.7z"/>
<path class="st2" d="M240.8,204.1c-3.2,0.2-6.4,0.6-9.7,0.9c0,0.2,0,0.6,0,0.8c0.1,3.7,0.1,7.5,0,11.2c3.6-0.7,7.4-0.5,11-1.3
	c-0.1-2.3-1-4.5-0.9-6.8C241.2,207.2,241.1,205.6,240.8,204.1z"/>
<path class="st2" d="M213.2,208.4c-3,1.1-6.3,1.2-9.1,2.8c1.4,3.1,2.4,6.3,3.9,9.4c0.3,0.4,0.5,0.8,0.8,1.2c2.9-0.7,5.8-1.9,8.8-2.4
	c-1.4-3.5-2.7-7-4.1-10.4C213.4,208.8,213.2,208.5,213.2,208.4z"/>
<path class="st4" d="M210.8,132.2c-3.3,4.1-6.1,8.7-9.4,12.9c-1.6,2.2-3.4,4.2-4.9,6.5c-2.6,3.7-5.8,7-8.4,10.7
	c1.3,2.1,2.6,4.3,4.1,6.4c0.1,0.1,0.2,0.3,0.3,0.4c2.5-2.1,4.4-4.7,6.7-7c2.9-3.1,5.6-6.4,8.3-9.6c3.2-3.9,5.8-8.4,9.3-12.1
	c-0.2-0.3-0.3-0.6-0.5-0.8C214.8,136.9,212.9,134.5,210.8,132.2z"/>
<path class="st3" d="M231.1,205.7c-1.8-0.1-3.6-0.1-5.4,0.4c-4.1,1-8.3,1.7-12.3,2.9c1.4,3.4,2.7,6.9,4.1,10.4
	c4.5-1.1,9.1-1.7,13.6-2.4C231.2,213.2,231.2,209.4,231.1,205.7z"/>
<path class="st1" d="M282.2,137.2c0.6,0.9,1.3,1.6,2.1,2.3c1.6-2.7,3.5-5.1,5.6-7.4c-1.7-2.4-2.9-5-4.2-7.6
	c-2.6-4.9-4.7-10-6.5-15.2c-2.7,3-4.5,6.6-6.2,10.3C275.1,126,278.7,131.6,282.2,137.2z"/>
<path class="st2" d="M279.2,109.4c1.9,5.2,4,10.3,6.5,15.2c1.3,2.6,2.5,5.2,4.2,7.6c3.4,4.1,6.2,8.7,9.4,12.9
	c1.6,2.2,3.4,4.3,4.9,6.5c2.6,3.7,5.8,7,8.4,10.7s5.9,7,8.7,10.6c-0.2,0-0.7,0-0.9,0c5.3,3.5,8.8,9,12.6,14
	c5.2,7.1,10.2,14.5,16.5,20.7c4,4.1,8.9,7.6,14.6,8.7c4,0.9,8.6,0,11.8-2.8c3.1-2.7,4.9-6.6,6.1-10.4c2.4-8.2,2.4-16.9,1.7-25.4
	c-1-10.7-3.6-21.2-6.5-31.5c-2.2-7.4-4.7-14.8-8.7-21.4c-3-5.1-7.1-9.8-12.4-12.6c-9-4.8-19.3-6.1-29.2-8c-9.9-1.5-20-3.9-30.1-3.1
	C290.2,101.6,283.6,104.3,279.2,109.4z"/>
<path class="st2" d="M260.9,187.6c-0.2,5.5-0.9,10.9-0.9,16.3c3.3,0.3,6.5,0.6,9.7,0.9c-0.1-3.5,0.3-7,0.6-10.5
	c1.1-11.2,2.6-22.4,5.5-33.3c2-7.1,4.4-14.2,8.1-20.7c0.2-0.3,0.3-0.5,0.5-0.8c-0.8-0.6-1.6-1.4-2.1-2.3c-3.5-5.6-7.2-11.3-9.3-17.6
	c-5.2,12.4-7.4,25.7-9.2,38.9C262.6,168.2,261.4,178,260.9,187.6z"/>
<path class="st2" d="M296.8,189.2c-3.5,6.2-6.5,12.7-9.2,19.3c3,1.1,6.3,1.2,9.1,2.8c2.3-6,4.9-11.9,7.6-17.7
	c3-6.4,6.4-12.7,10.8-18.3c-2.1-2.2-4.6-4.1-6.6-6.5c-0.1,0.1-0.2,0.3-0.3,0.4C304.4,175.8,300.2,182.3,296.8,189.2z"/>
<path class="st3" d="M275.7,161c-2.9,10.9-4.4,22.1-5.5,33.3c-0.3,3.5-0.7,7-0.6,10.5c0,0.2,0,0.6,0,0.8c1.8,0,3.6,0,5.4,0.4
	c4.1,1,8.2,1.7,12.3,2.9c0-0.2,0.1-0.5,0.2-0.6c2.7-6.6,5.7-13.1,9.2-19.3c3.4-6.8,7.6-13.2,11.4-19.9c-2.5-2-4.4-4.7-6.7-7
	c-2.8-3.1-5.6-6.4-8.3-9.6c-3.2-3.9-5.7-8.5-9.3-12.1C280.2,146.9,277.7,154,275.7,161z"/>
<path class="st1" d="M315.1,175.2c1.4-1.4,3.2-2.9,5.3-2.3c0.2,0,0.7,0,0.9,0c-2.8-3.6-6-6.9-8.7-10.6c-1.4,2.1-2.7,4.3-4.1,6.4
	C310.4,171.1,312.9,173,315.1,175.2z"/>
<path class="st2" d="M259.5,208.9c0.1,2.3-0.8,4.5-0.9,6.8c3.6,0.8,7.4,0.6,11,1.3c-0.1-3.7-0.1-7.5,0-11.2c0-0.2,0-0.6,0-0.8
	c-3.3-0.3-6.5-0.7-9.7-0.9C259.6,205.6,259.5,207.2,259.5,208.9z"/>
<path class="st2" d="M287.2,209c-1.4,3.4-2.7,6.9-4.1,10.4c3,0.5,5.9,1.7,8.8,2.4c0.3-0.4,0.5-0.8,0.8-1.2c1.5-3.1,2.5-6.3,3.9-9.4
	c-2.8-1.6-6.1-1.7-9.1-2.8C287.5,208.5,287.3,208.8,287.2,209z"/>
<path class="st4" d="M284.4,139.6c-0.2,0.2-0.3,0.5-0.5,0.8c3.5,3.7,6.1,8.2,9.3,12.1c2.7,3.2,5.4,6.5,8.3,9.6
	c2.3,2.3,4.2,4.9,6.7,7c0.1-0.1,0.2-0.3,0.3-0.4c1.5-2.1,2.8-4.3,4.1-6.4c-2.6-3.7-5.8-7-8.4-10.7c-1.5-2.3-3.3-4.3-4.9-6.5
	c-3.3-4.2-6.1-8.8-9.4-12.9C287.8,134.5,285.9,136.9,284.4,139.6z"/>
<path class="st3" d="M269.6,217c4.5,0.7,9.1,1.3,13.6,2.4c1.4-3.5,2.7-7,4.1-10.4c-4-1.2-8.2-1.9-12.3-2.9c-1.8-0.5-3.6-0.5-5.4-0.4
	C269.5,209.4,269.5,213.2,269.6,217z"/>
<g>
	<path class="st1" d="M195.5,244.1c3.5-1.5,7.1-3.3,10.9-3c0.8-0.1,1,0.7,1.2,1.2c-1.4,0.9-3.1,1-4.7,1.5c-3.2,1-6.3,2.2-9.3,3.7
		c-3.5,1.7-7,3.6-10.1,6.1c-1.5,1.2-2.6,2.6-4.3,3.6c0-2,1.5-3.6,2.9-4.9C186.1,248.6,190.8,246.3,195.5,244.1z"/>
	<path class="st1" d="M298.7,242.4c3-0.4,5.9,0.6,8.6,1.7c4.8,2,9.5,4.2,13.7,7.3c1.8,1.4,3.6,2.9,4.8,4.8c0.5,0.7,0.7,1.5,0.6,2.4
		c-2.2-1.6-3.9-3.7-6.1-5.1c-5.1-3.4-10.7-6.1-16.5-8c-1.8-0.7-3.9-0.8-5.5-1.8C298.4,243.2,298.5,242.8,298.7,242.4z"/>
</g>
<g>
	<g>
		<path class="st5" d="M202.3,257.2c1.2,0.1,2.3-0.1,3.4-0.5l0.5,0.4c0.2-0.1,0.5-0.3,0.7-0.5c0.7,0,1.4,0,2,0.3
			c0.3-0.2,0.6-0.4,0.9-0.6c0.2,0.2,0.6,0.5,0.8,0.6c0.7-0.7,1.8-0.2,2.7-0.2c1.3-0.1,2.3,1,3.6,0.7c0.4,0.3,0.7,0.6,1.1,0.9
			c0.7-0.5,1.5,0.3,2.3,0.1c1.3,0.7,2.4,2,4,2c1,0.8,1.9,1.6,2.8,2.5c0.2,0,0.5-0.1,0.6-0.1c1.6,1.6,3.4,3.1,4.8,4.9
			c0.7,1.4,1.8,2.5,2.8,3.7c0,0.2-0.1,0.5-0.2,0.7c0.7,1.1,1.5,2.1,2.1,3.3c0,0.4,0.1,0.9,0.1,1.3c0,0.2,0,0.5,0,0.7
			c0.3,0.5,0.7,1,1,1.5c-0.1,0.1-0.4,0.4-0.5,0.5c0.3,0.5,0.6,0.9,0.9,1.4c0,0.2-0.1,0.7-0.2,0.9c0.6,1.4,0.2,2.9,0.6,4.3
			c0.2,1.8-0.8,3.6-0.5,5.4c-0.1,0.2-0.4,0.7-0.5,0.9c0.1,0.1,0.3,0.5,0.4,0.6c-1,1.9-1.4,4.1-2.5,6c0,0.2,0.1,0.5,0.2,0.6
			c-0.8,0.9-1.4,2-2.2,2.8c0.1,0.8-0.5,1.5-1,2.1c-2.1,2.5-4.5,4.8-7.1,6.8c-0.2,0-0.5-0.1-0.6-0.1c-1.7,1.8-4.1,2.2-6,3.7
			c-0.2,0-0.5-0.1-0.7-0.1c-0.4,0.1-0.8,0.2-1.2,0.3c-1.2,0.9-2.7,0.3-3.8,1.2c-0.8-0.3-1.6-0.2-2.4-0.1c-1.7,0.2-3.4-0.1-5.1,0
			c-1.1-0.7-2.4-0.2-3.5-0.9c-0.9-0.2-1.7-0.3-2.6-0.4c-0.7-0.5-1.4-0.9-2.1-1.2c-1,0.1-1.7-0.7-2.5-1.3c-1.6-0.3-2.7-1.7-4.3-2
			c-2.6-2.2-4.9-4.7-7.3-7.2c0-0.2,0.1-0.5,0.1-0.6c-0.4-0.5-0.7-1-1-1.5c0-1.2-1-2.1-1.6-3.1c-0.4-0.9-0.6-1.9-1.1-2.8
			c-0.2-1.5-0.7-2.9-0.9-4.4c-0.1-0.6-0.3-1.2-0.4-1.8c0-1.1-0.1-2.2,0.4-3.1c-0.2-0.3-0.5-0.9-0.6-1.2c0.1-0.2,0.4-0.5,0.6-0.7
			c-0.1-0.2-0.4-0.5-0.5-0.6c0.2-0.6,0.4-1.2,0.7-1.8c0-0.1-0.1-0.4-0.1-0.5c0.2-1.3,0.7-2.6,1.2-3.8c-0.3-0.7,0.3-1.3,0.7-1.8
			c-0.1-0.1-0.2-0.3-0.3-0.4c0.4-0.7,0.8-1.4,0.9-2.2c1.2-1.5,2.3-3.2,3.3-4.9c1.1-1.4,2.5-2.6,3.7-3.9c1.8-2.1,4.6-2.9,6.6-4.8
			c0.8-0.1,1.6-0.5,2.3-1c0.1,0.1,0.3,0.3,0.4,0.4c0.2-0.2,0.6-0.6,0.8-0.8c0.4,0,0.8,0.1,1.3,0C201.1,258,201.7,257.6,202.3,257.2z
			 M207.9,268.4v-0.6c-1.5,1.2-3.7,2.4-3.9,4.5c-0.2,0.5-0.5,0.9-0.7,1.4c0.2,1,0.2,2,0.1,3.1c0.4,0.9,1.1,1.7,1.7,2.6
			c-1.2,0-2.2,0.7-3,1.5c-1.5,1.5-3.3,2.9-4.2,4.9c-0.6,1.3-1.9,2.3-2.3,3.8c-0.5,2.7-2.1,5.4-1.4,8.2c0,6.4,5.6,12.3,12,12.5
			c2.3-0.2,4.5-0.6,6.8-1.1c1.5-0.5,2.9-1.2,4.3-1.8c2.2-1.9,5-3.1,6.5-5.6c1-1.8,2.7-3.2,3.1-5.3c1.1-1.9,1.3-4,1.7-6.1
			c0-2.8-0.1-5.9-1.7-8.3c-1.7-3.5-5.3-5.2-8.7-6.6c0.2-0.8-0.1-1.6-0.4-2.4c-0.7-3.1-3.7-5.4-6.7-5.8c-0.2,0.1-0.5,0.2-0.6,0.3
			c-0.1-0.1-0.4-0.3-0.5-0.4C209.2,267.5,208.5,267.9,207.9,268.4z"/>
	</g>
	<g>
		<path class="st5" d="M292.2,256.9c0.9,0,1.9-0.5,2.7,0.2c0.2-0.2,0.6-0.5,0.7-0.6c0.3,0.2,0.6,0.4,1,0.6c0.6-0.3,1.3-0.3,2-0.3
			c0.2,0.1,0.5,0.3,0.7,0.5c0.3-0.8,1-0.2,1.6-0.1c0.7,0.2,1.6,0.2,2.3,0.2c0.6,0.4,1.2,0.8,1.9,0.9c0.4,0.1,0.8-0.1,1.3,0
			c0.2,0.2,0.5,0.5,0.7,0.7c1-0.2,1.8,0.6,2.8,0.8c1.5,1.2,3.1,2.2,4.7,3.1c1.5,1.1,2.6,2.6,4,3.8c2.1,1.8,2.9,4.6,4.9,6.6
			c0,0.1,0,0.4-0.1,0.6c0.3,0.5,0.6,1.1,0.9,1.6c-0.1,0.1-0.3,0.4-0.3,0.5c0.3,0.3,0.7,0.7,1,1.1c-0.1,0.2-0.3,0.5-0.3,0.7
			c0.7,1.3,1.3,2.8,1.3,4.4c0.6,1,0.3,2.1,0.5,3.2c-0.7,1.4,0.2,2.8-0.1,4.3c-0.1,0.6-0.3,1.2-0.4,1.8c-0.2,1.5-0.7,2.9-0.9,4.4
			c-0.7,1.1-0.7,2.6-1.6,3.6c-0.9,1.1-1,2.7-2,3.8c0,0.2,0.1,0.5,0.1,0.6c-2.3,2.4-4.5,4.8-7,6.9c-1.6,0.6-2.9,1.9-4.6,2.3
			c-0.6,0.4-1.2,0.9-1.7,1.4c-0.2-0.1-0.5-0.2-0.7-0.2c-0.7,0.4-1.4,0.9-2.1,1.3c-0.9,0.1-1.8,0.2-2.7,0.3c-0.2,0.2-0.7,0.5-0.9,0.7
			c-0.3-0.1-0.6-0.3-1-0.4c-0.5,0.2-1,0.4-1.5,0.7c-1.7-0.2-3.5,0.2-5.2-0.1c-0.8-0.1-1.6-0.3-2.4,0.1c-0.5-0.3-1-0.6-1.4-0.9
			c-0.2,0.1-0.6,0.3-0.8,0.4c-0.5-0.3-1-0.6-1.5-0.9c-0.7-0.1-1.3-0.1-2-0.1c-1.9-1.4-4.3-1.9-6-3.6c-0.1,0-0.5,0.1-0.6,0.2
			c-2.9-2.3-5.7-4.8-7.8-7.8c-0.4-1.6-1.6-2.7-2.5-3.9c0-0.2,0.1-0.5,0.2-0.6c-1.1-1.9-1.5-4.1-2.5-6c0.1-0.1,0.3-0.4,0.4-0.6
			c-0.1-0.2-0.4-0.7-0.5-0.9c0.3-2-0.9-4-0.4-6.1c0.2-1.2,0-2.5,0.5-3.7c0-0.2-0.1-0.7-0.2-0.9c0.3-0.5,0.6-0.9,0.9-1.4
			c-0.1-0.1-0.4-0.4-0.5-0.6c0.3-0.5,0.7-1,1-1.5c0-0.2,0-0.5,0-0.7c0.1-1.8,1.3-3.2,2.2-4.6c0-0.2-0.1-0.5-0.2-0.7
			c1-1.2,2.1-2.3,2.8-3.7c1.3-1.9,3.2-3.3,4.7-4.9c0.2,0,0.5,0.1,0.6,0.1c0.9-0.9,1.9-1.7,2.9-2.5c1.6,0,2.6-1.3,4-2
			c0.6,0.1,1.2-0.1,1.8-0.4c0.1,0.1,0.3,0.3,0.5,0.4c0.4-0.3,0.7-0.7,1.1-1C289.9,257.9,290.9,256.8,292.2,256.9z M291.1,268.4
			c-1.6,1.1-3.2,2.7-3.5,4.7c-0.3,0.8-0.6,1.6-0.4,2.4c-2.5,1.1-5.2,2.1-7.1,4.2c-2,2.3-3.4,5.3-3.3,8.3c-0.3,2.2,0.2,4.4,0.7,6.5
			c0.7,1.2,1.1,2.6,1.7,3.8c2,2.5,3.5,5.5,6.4,7.1c1.2,0.5,1.9,1.7,3.1,2.2c1.1,0.5,2.3,1,3.4,1.4c2.2,0.6,4.5,0.7,6.7,1.2
			c6.4-0.1,12.2-5.7,12.3-12.1c0.2-1.5,0.3-3.1-0.2-4.6c-0.8-2.3-1-4.9-2.8-6.7c-1.4-2.7-3.6-4.8-5.9-6.8c-0.6-0.5-1.4-0.5-2-0.7
			c0.6-0.8,1.2-1.6,1.6-2.6c-0.1-1-0.1-2.1,0.1-3.1c-0.5-0.7-0.6-1.6-0.9-2.4c-0.8-1.3-1.9-2.3-3.2-3.1c-1.1,0.2-2.1-1.4-3.1-0.6
			c-0.1-0.1-0.4-0.3-0.6-0.4C293.3,267.8,292,267.6,291.1,268.4z"/>
	</g>
</g>
<g>
	<g>
		<path class="st6" d="M218.2,275.5c3.4,1.4,7.1,3,8.7,6.6c1.6,2.5,1.7,5.5,1.7,8.3c-0.3,2.1-0.5,4.3-1.7,6.1
			c-0.5,2.1-2.2,3.4-3.1,5.3c-1.6,2.5-4.4,3.8-6.5,5.6c-1.4,0.6-2.9,1.3-4.3,1.8c-2.2,0.4-4.5,0.8-6.8,1.1c-6.4-0.2-12.1-6-12-12.5
			c-0.7-2.9,0.9-5.5,1.4-8.2c0.4-1.5,1.7-2.4,2.3-3.8c0.9-2,2.7-3.4,4.2-4.9c0.8-0.9,1.8-1.6,3-1.5c0.5,1,1.2,1.8,2.2,2.2
			c1.6,1.2,3.9,1.5,5.8,0.6c0.1,0,0.4,0.1,0.6,0.1c1.5-1.1,2.8-2.3,3.8-3.8C217.7,277.5,218,276.5,218.2,275.5z M204.2,295.2
			c-0.6,1-0.1,2.2,0.1,3.3c0.7,0.9,1.5,1.9,2.7,2.1c0.8,0.1,1.5,1.1,2.3,0.4c0.1,0.1,0.4,0.3,0.5,0.4c1.1-0.7,2.1-1.6,2.7-2.8
			c0.2-1.3-0.5-2.4-0.6-3.6c-0.8-1-2.3-2-3.5-1.6C206.8,292.6,205,293.8,204.2,295.2z"/>
	</g>
	<g>
		<path class="st6" d="M280.1,279.7c1.8-2.1,4.6-3.1,7.1-4.2c0.2,1,0.5,2,0.7,3c1,1.5,2.3,2.8,3.8,3.8c0.1,0,0.4-0.1,0.6-0.1
			c2.9,1.3,6.6-0.2,8-2.8c0.7,0.2,1.5,0.1,2,0.7c2.2,2,4.5,4.1,5.9,6.8c1.8,1.8,1.9,4.4,2.8,6.7c0.5,1.5,0.4,3.1,0.2,4.6
			c-0.1,6.4-5.9,12.1-12.3,12.1c-2.2-0.4-4.5-0.6-6.7-1.2c-1.2-0.4-2.3-1-3.4-1.4c-1.2-0.5-2-1.6-3.1-2.2c-2.9-1.5-4.4-4.6-6.4-7.1
			c-0.6-1.3-1-2.6-1.7-3.8c-0.5-2.1-1-4.3-0.7-6.5C276.8,285,278.1,282,280.1,279.7z M293.4,294.9c0,0.1,0.1,0.4,0.2,0.5
			c-0.7,0.9-0.6,2-0.6,3.1c0.4,0.7,0.9,1.5,1.6,2c0.5,0.3,1.1,1,1.6,0.4c0.2,0.1,0.5,0.3,0.6,0.4c0.6-0.4,1.2-0.7,1.8-0.8
			c1.1-0.2,1.8-1.2,2.5-2c0.2-1.1,0.7-2.3,0.1-3.3c-0.8-1.4-2.6-2.7-4.2-2c-0.1-0.1-0.4-0.2-0.5-0.3
			C295.4,293.5,294.1,293.8,293.4,294.9z"/>
	</g>
</g>
<g>
	<path class="st1" d="M251.9,336.8c0.7-0.2,1.3-0.4,2-0.6c0.2,3.6-0.2,7.2,0.8,10.7c1,2.6,3.2,4.8,5.9,5.6c2.5,0.5,4.5-1.5,6-3.2
		c1.8-2,2.5-4.7,3-7.3c0-0.6,0.6-1.1,0.8-0.3c1,5-2.3,9.8-6.4,12.4c-2.6,1.7-6.1,0.9-8.3-1c-2.4-1.6-3.7-4.4-4.4-7.2
		c-1.9,3.3-3.9,6.9-7.4,8.6c-2.5,1.5-5.7,1.5-8.3,0.2c-3-1.5-5.9-3.5-7.4-6.5c-0.8-1.4-1-3-0.6-4.5c1,0.2,1.3,1.3,1.8,2.1
		c1.2,2.8,3.8,4.8,6.4,6.3c1.9,1.1,4.4,1.6,6.5,0.7c2.8-1.1,4.6-3.7,6.2-6.1c1.4-2.4,2.7-5,3-7.8
		C251.5,338.2,251.4,337.4,251.9,336.8z"/>
</g>
<g>
	<path class="st3" d="M248.3,395.7c2.8-0.5,5.5-1.1,8.3-1.1c3-0.1,5.8,0.7,8.7,1.1c1.7,0.2,3.2,1.1,4.7,1.8l-0.5,0.1
		c-2.9,0.8-5.9,0.8-8.9,1.2c-5.1,0.7-10.2-0.1-15.3,0.4c-1.6,0.1-3.2,0.1-4.7-0.4l-0.4-0.1C243.1,398.1,245.4,396.2,248.3,395.7z"/>
	<path class="st7" d="M199.8,419.3c1-0.1,2-0.2,3-0.3c-1.1,3-0.7,6.2-1.4,9.3c-0.7,2.9-0.6,5.9-1.2,8.9c-0.4,2.2-0.5,4.5-0.7,6.8
		c-0.2,2.5,0.4,5,0.3,7.5c-2.6-1.2-5.6-1.4-8.4-1.9c-3.7-0.3-7.4-0.5-11,0.1c-2.8,0.5-5.7,0.7-8.1,2.2c-0.2-0.8,0-1.6,0.3-2.4
		c3.5-1.7,7.2-3.2,11.1-4c3.5-0.8,7.2-0.9,10.8-1.4c0.4-5.5,1-11,2.4-16.4C197.7,424.8,198.4,421.9,199.8,419.3z"/>
</g>
</svg>
