<?xml version="1.0" encoding="utf-8"?>
<!-- Generator: Adobe Illustrator 23.0.2, SVG Export Plug-In . SVG Version: 6.00 Build 0)  -->
<svg version="1.1" id="Layer_1" xmlns="http://www.w3.org/2000/svg" xmlns:xlink="http://www.w3.org/1999/xlink" x="0px" y="0px"
	 width="500px" height="500px" viewBox="0 0 500 500" style="enable-background:new 0 0 500 500;" xml:space="preserve">
<style type="text/css">
	.st0{fill:#FFFFFF;}
	.st1{fill:#F7BBBB;}
	.st2{fill:#BFDFEB;}
	.st3{fill:#DBEDF5;}
	.st4{fill:#96C8D9;}
	.st5{fill:#C2E5F3;}
	.st6{fill:#98C1CF;}
	.st7{fill:#583B2F;}
	.st8{fill:#695045;}
	.st9{fill:#9FC5D2;}
	.st10{fill:#C2E5F1;}
</style>
<g>
	<g>
		<path class="st0" d="M193.4,261.1c2.5-0.8,5-2,7.7-2.2l-0.1,0.7c-0.4,0.1-0.9,0-1.3,0c-0.2,0.2-0.6,0.6-0.8,0.8
			c-0.1-0.1-0.3-0.3-0.4-0.4c-0.7,0.4-1.4,0.8-2.3,1c-2,1.8-4.7,2.7-6.5,4.8c-1.2,1.3-2.6,2.4-3.7,3.9c-1,1.7-2,3.3-3.3,4.8
			c-0.1,0.8-0.5,1.5-0.9,2.2c0.1,0.1,0.2,0.3,0.3,0.4c-0.4,0.5-1,1.1-0.7,1.8c-0.5,1.2-1,2.5-1.2,3.8c0,0.1,0.1,0.4,0.1,0.5
			c-0.2,0.6-0.4,1.2-0.7,1.8c0.1,0.2,0.4,0.5,0.5,0.6c-0.1,0.2-0.4,0.5-0.6,0.7c0.2,0.3,0.5,0.9,0.6,1.2c-0.5,1-0.4,2.1-0.4,3.1
			c0.1,0.6,0.3,1.2,0.4,1.8c0.2,1.5,0.7,2.9,0.9,4.4c0.5,0.9,0.7,1.9,1.1,2.8c0.6,1,1.5,1.8,1.5,3.1c0.3,0.5,0.7,1,1,1.5
			c0,0.2-0.1,0.5-0.1,0.6c2.3,2.5,4.6,5,7.2,7.2c1.6,0.3,2.7,1.7,4.3,2c0.8,0.5,1.4,1.4,2.5,1.2c0.7,0.3,1.4,0.7,2.1,1.2
			c0.9,0.1,1.7,0.2,2.6,0.4c1,0.7,2.4,0.2,3.4,0.9c1.7-0.1,3.4,0.2,5.1,0c0.8-0.1,1.6-0.2,2.3,0.1c1.1-0.9,2.6-0.4,3.8-1.2
			c0.4-0.1,0.8-0.2,1.2-0.3c0.2,0,0.5,0.1,0.7,0.1c1.9-1.5,4.3-1.9,6-3.6c0.2,0,0.5,0.1,0.6,0.1c2.6-2,5-4.2,7.1-6.7
			c0.5-0.6,1.1-1.3,1-2.1c0.8-0.9,1.4-1.9,2.2-2.8c0-0.2-0.1-0.5-0.2-0.6c1.1-1.9,1.4-4.1,2.5-6c-0.1-0.1-0.3-0.4-0.4-0.6
			c0.1-0.2,0.4-0.7,0.5-0.9c-0.3-1.8,0.7-3.6,0.5-5.4c-0.4-1.4-0.1-2.9-0.6-4.3c0-0.2,0.1-0.7,0.2-0.9c-0.3-0.5-0.6-0.9-0.9-1.4
			c0.1-0.1,0.4-0.4,0.5-0.5c-0.3-0.5-0.7-1-1-1.5c0-0.2,0-0.5,0-0.7c-0.1-0.4-0.1-0.9-0.1-1.3c-0.6-1.1-1.3-2.2-2.1-3.3
			c0-0.2,0.1-0.5,0.2-0.7c-1-1.2-2.1-2.3-2.8-3.7c-1.3-1.9-3.2-3.3-4.7-4.9c-0.2,0-0.5,0.1-0.6,0.1c-0.9-0.9-1.8-1.7-2.8-2.5
			c0-0.2-0.1-0.6-0.1-0.8c3.2,1.8,6.3,3.6,9.2,5.8c2.2,2.3,4.8,4.3,6.4,7.1c4.2,5.7,6.7,12.6,7.2,19.7c0.6,6.6-0.8,13.2-3.5,19.2
			c-1.6,3.1-3.5,6-5.5,8.7c-2,2-3.9,4.3-6.4,5.7c-6,4.7-13.6,7.2-21.1,7.7c-2.2-0.3-4.4-0.1-6.5-0.4c-1.9-0.2-3.7-0.9-5.5-1.2
			c-2.3-0.5-4.3-1.7-6.5-2.5c-1.7-0.7-3-2.1-4.7-2.8c-3.7-2.2-7.3-4.8-9.5-8.6c-4.8-6.1-7.5-13.8-7.8-21.5c-0.3-8.1,2-16.4,6.7-23.1
			c2-3.5,5.1-6.3,8-9C187.7,264.3,190.4,262.4,193.4,261.1z"/>
		<path class="st0" d="M304.9,258.8c2,0.2,3.9,0.7,5.6,1.5c3.8,1.1,7,3.5,10.3,5.5c2.5,2.1,4.8,4.4,6.9,6.9c1.9,3.2,4.3,6.3,5.4,10
			c4.4,10.9,3.1,23.8-3.1,33.8c-2.3,3.3-4.5,6.8-7.8,9.1c-1.4,0.8-2.7,2-4.2,2.7c-1.4,0.7-2.5,1.8-4,2.5c-2.6,1.1-5.2,2.5-8.1,3
			c-3,1-6.1,1.2-9.1,1.2c-1.7,0.3-3.3-0.1-4.9-0.2c-5.8-0.8-11.5-3-16.4-6.2c-1.4-1.2-3.2-2-4.5-3.4c-1.2-1.3-2.5-2.4-3.7-3.7
			c-1.9-2.6-3.7-5.4-5.2-8.2c-3-6.7-4.4-14.2-3.4-21.5c0.5-4.1,1.7-8,3.4-11.8c1.6-2.9,3.4-5.8,5.4-8.5c2.1-2.1,4-4.5,6.6-6
			c2.2-1.7,4.6-2.9,6.9-4.3c0,0.2,0.1,0.5,0.2,0.7c-1,0.8-2,1.6-2.9,2.5c-0.2,0-0.5-0.1-0.6-0.1c-1.6,1.6-3.4,3-4.7,4.9
			c-0.7,1.4-1.8,2.5-2.8,3.7c0,0.2,0.1,0.5,0.2,0.7c-1,1.4-2.1,2.8-2.2,4.6c0,0.2,0,0.5,0,0.7c-0.3,0.5-0.7,1-1,1.5
			c0.1,0.1,0.4,0.4,0.5,0.6c-0.3,0.5-0.6,0.9-0.9,1.4c0,0.2,0.1,0.7,0.2,0.9c-0.5,1.2-0.3,2.4-0.5,3.7c-0.6,2,0.7,4,0.4,6
			c0.1,0.2,0.4,0.6,0.5,0.9c-0.1,0.1-0.3,0.4-0.4,0.6c1,1.9,1.4,4.1,2.5,6c0,0.2-0.1,0.5-0.2,0.6c1,1.2,2.1,2.3,2.5,3.9
			c2.1,3,4.9,5.5,7.8,7.8c0.1,0,0.5-0.1,0.6-0.2c1.7,1.7,4.1,2.2,5.9,3.6c0.6,0,1.3,0.1,2,0.1c0.5,0.3,1,0.6,1.5,0.9
			c0.2-0.1,0.6-0.3,0.8-0.4c0.5,0.3,1,0.5,1.4,0.9c0.7-0.4,1.6-0.2,2.3-0.1c1.7,0.2,3.5-0.1,5.2,0.1c0.5-0.2,1-0.5,1.5-0.7
			c0.3,0.1,0.6,0.2,1,0.4c0.2-0.2,0.7-0.5,0.9-0.7c0.9-0.1,1.8-0.3,2.7-0.3c0.7-0.4,1.4-0.9,2.1-1.3c0.2,0.1,0.5,0.2,0.7,0.2
			c0.6-0.5,1.1-0.9,1.7-1.4c1.7-0.4,3-1.7,4.6-2.3c2.5-2.1,4.7-4.5,6.9-6.9c0-0.2-0.1-0.5-0.1-0.6c1-1.1,1.1-2.6,2-3.8
			c0.9-1,0.9-2.4,1.6-3.6c0.2-1.5,0.7-2.9,0.9-4.4c0.1-0.6,0.3-1.2,0.4-1.7c0.3-1.5-0.7-2.9,0.1-4.3c-0.3-1,0-2.2-0.5-3.1
			c0-1.5-0.5-3-1.3-4.3c0.1-0.2,0.3-0.5,0.3-0.7c-0.3-0.4-0.7-0.7-1-1.1c0.1-0.1,0.3-0.4,0.3-0.5c-0.3-0.5-0.6-1.1-0.9-1.6
			c0-0.1,0-0.4,0.1-0.6c-1.9-2-2.8-4.7-4.9-6.5c-1.4-1.2-2.5-2.7-4-3.8c-1.6-0.9-3.2-1.9-4.7-3.1c-1-0.1-1.8-0.9-2.8-0.8
			c-0.2-0.2-0.5-0.5-0.7-0.7c-0.4,0-0.8,0.1-1.3,0L304.9,258.8z"/>
		<path class="st0" d="M208.4,269.7c0.7-0.5,1.4-0.8,2.1-1.2c0.1,0.1,0.4,0.3,0.5,0.4c0.2-0.1,0.5-0.2,0.6-0.3c3,0.5,6,2.7,6.7,5.8
			c0.3,0.8,0.5,1.6,0.4,2.4c-0.2,1-0.5,1.9-0.7,2.9c-1,1.5-2.3,2.7-3.8,3.8c-0.1,0-0.4-0.1-0.6-0.1c-1.9,0.9-4.1,0.6-5.8-0.6
			c-1-0.4-1.8-1.2-2.2-2.2c-0.6-0.8-1.2-1.6-1.6-2.5c0.1-1,0.1-2-0.1-3.1c0.2-0.5,0.5-1,0.7-1.4c0.2-2.1,2.4-3.2,3.8-4.5
			L208.4,269.7z"/>
		<path class="st0" d="M291.2,269.8c0.9-0.8,2.2-0.6,3.2-1.2c0.1,0.1,0.4,0.3,0.6,0.4c1.1-0.8,2,0.8,3.1,0.6
			c1.3,0.8,2.4,1.8,3.2,3.1c0.3,0.8,0.4,1.7,0.9,2.4c-0.2,1-0.2,2-0.1,3.1c-0.5,0.9-1.1,1.7-1.6,2.5c-1.4,2.7-5.2,4.2-8,2.8
			c-0.1,0-0.4,0.1-0.6,0.1c-1.5-1.1-2.8-2.3-3.8-3.8c-0.2-1-0.5-2-0.7-3c-0.2-0.8,0.1-1.6,0.4-2.4
			C288,272.4,289.6,270.9,291.2,269.8z"/>
		<path class="st0" d="M204.8,296.4c0.7-1.4,2.5-2.7,4.1-2c1.3-0.4,2.7,0.6,3.5,1.6c0.1,1.2,0.7,2.3,0.6,3.6
			c-0.6,1.2-1.6,2.1-2.7,2.8c-0.1-0.1-0.4-0.3-0.5-0.4c-0.8,0.7-1.5-0.2-2.3-0.4c-1.2-0.2-2-1.2-2.7-2.1
			C204.7,298.6,204.2,297.5,204.8,296.4z"/>
		<path class="st0" d="M293.5,296.1c0.7-1.1,2-1.4,3.1-1.9c0.1,0.1,0.4,0.2,0.5,0.3c1.6-0.7,3.4,0.5,4.1,2c0.6,1,0.1,2.2-0.1,3.3
			c-0.7,0.8-1.4,1.8-2.5,2c-0.7,0.1-1.3,0.4-1.8,0.8c-0.2-0.1-0.5-0.3-0.6-0.4c-0.6,0.6-1.2-0.1-1.6-0.4c-0.7-0.5-1.2-1.3-1.6-2
			c0-1.1,0-2.2,0.6-3.1C293.6,296.5,293.6,296.2,293.5,296.1z"/>
	</g>
	<g>
		<path class="st1" d="M245.1,324.6c1.6-1.3,3.8-1,5.7-1.1c2.7,0.1,5.7-0.3,8.1,1.2c1.2,0.8,2.4,2.2,2,3.8c-1.2,3.6-3.8,6.5-6.8,8.6
			c-0.7,0.2-1.3,0.4-2,0.6c-2.1-0.1-3.6-1.7-4.8-3.2c-1.5-2-3.2-4-3.6-6.5C243.5,326.8,244,325.4,245.1,324.6z"/>
	</g>
	<g>
		<path class="st2" d="M171.6,23.7c4.6-3.9,10.8-5.6,16.8-4.9c6,0.6,11.7,3.1,16.6,6.6c7.4,5.3,13.4,12.2,18.7,19.5
			c9.3,12.8,15.6,27.6,19.1,43c4.9,21,7,42.6,8.1,64.2c0.1,5.8,0.1,11.6,0,17.4c0.1,4.4-0.5,8.7-0.5,13.1c-0.4,5.6-0.6,11.3-1,16.9
			c-0.4,2.6-0.1,5.3-0.6,7.9c0-0.8,0-1.6,0-2.4c-4.5-0.2-8.9,0.7-13.4,1c0.3-5.8,0-11.6,0.5-17.3c0.1-5.7,0.1-11.3-0.2-17
			c0-10.2-0.9-20.3-1.9-30.4c-1.8-16.3-4.5-32.9-11.7-47.8c-3.6-7.6-7.9-15.3-14.6-20.7c-2.9-2.2-6.8-3.9-10.5-2.6
			c-3.6,1.4-5.6,5.1-6.7,8.5c-1.7,6.1-1.6,12.4-1.3,18.7c1.4,17.4,7.1,34,13.2,50.2c3.8,9.7,6.3,19.7,9.6,29.6
			c3.1,10.5,6.6,20.9,9.5,31.4c-2.5,0.6-5,1.2-7.5,1.8c-1.6,0.4-3.3,0.5-4.6,1.5c-2.4-8.2-5.6-16.2-8.8-24.2
			c-6.1-15.2-12.7-30.3-18.9-45.4c-7.1-17.4-14.2-34.9-18.7-53.1c-2.5-9.9-4.2-20.2-4.3-30.5c0.3-4.7,0.5-9.3,1.5-13.9
			C161.8,36.8,165.3,28.9,171.6,23.7z"/>
		<path class="st2" d="M337,23.7c-4.6-3.9-10.8-5.6-16.8-4.9c-6,0.6-11.7,3.1-16.6,6.6c-7.4,5.3-13.4,12.2-18.7,19.5
			c-9.3,12.8-15.6,27.6-19.1,43c-4.9,21-7,42.6-8.1,64.2c-0.1,5.8-0.1,11.6,0,17.4c-0.1,4.4,0.5,8.7,0.5,13.1
			c0.4,5.6,0.6,11.3,1,16.9c0.4,2.6,0.1,5.3,0.6,7.9c0-0.8,2.9,2.5,2.9,1.7c4.5-0.2,5.3,1.1,9.8,1.3c-0.3-5.8,0.7-16,0.2-21.8
			c-0.1-5.7-0.1-11.3,0.2-17c0-10.2,0.9-20.3,1.9-30.4c1.8-16.3,4.5-32.9,11.7-47.8c3.6-7.6,7.9-15.3,14.6-20.7
			c2.9-2.2,6.8-3.9,10.5-2.6c3.6,1.4,5.6,5.1,6.7,8.5c1.7,6.1,1.6,12.4,1.3,18.7c-1.4,17.4-7.1,34-13.2,50.2
			c-3.8,9.7-6.3,19.7-9.6,29.6c-3.1,10.5-10.5,25.5-13.4,36c2.5,0.6,4.7,1.4,7.2,2c1.6,0.4,1.2,1.6,2.6,2.6
			c2.4-8.2,11.9-22.2,15.1-30.2c6.1-15.2,12.7-30.3,18.9-45.4c7.1-17.4,14.2-34.9,18.7-53.1c2.5-9.9,4.2-20.2,4.3-30.5
			c-0.3-4.7-0.5-9.3-1.5-13.9C346.8,36.8,343.3,28.9,337,23.7z"/>
		<g>
			<path class="st2" d="M234.6,217.5c0-1.5,0.2-2.9,0.5-4.3c0,1.3,0,2.7,0.1,4c4.2-0.3,8.4-0.5,12.6-0.9c0.1-0.2,0.2-0.6,0.3-0.8
				c0.1,0.3,0.2,0.9,0.3,1.2c2.9-0.4,5.9-0.2,8.8,0c0.1-0.1,0.3-0.3,0.4-0.4c3.6,0.8,7.3,0.6,10.9,1.3c4.5,0.7,9.1,1.3,13.6,2.4
				c3,0.5,5.8,1.6,8.7,2.4c0.3-0.4,0.5-0.8,0.8-1.2c-0.4,1.5,1.2,1.8,2.3,2.2c4.4,1.4,8.6,3.1,12.8,5.1c3.9,1.5,7.4,3.9,11.2,5.8
				c3.2,2.3,6.7,4.2,9.7,6.7c1.5,0.6,2.3,2.2,3.7,2.9c1.3,0.7,1.9,2.3,3.3,2.9c2.9,3,6.1,5.8,8.6,9.2c1.4,1.2,2.1,2.9,3.5,4.2
				c3.4,5,6.8,10.2,9.1,15.8c2.3,4.8,3.6,9.9,4.9,15.1c0.5,2.5,0.9,5,1,7.5c0.5,4.1,0.5,8.2,0,12.3c0.1,3.8-0.9,7.5-1.8,11.2
				c-0.4,3-1.8,5.8-2.6,8.7c-0.6,1.8-1.6,3.4-2.2,5.2c-0.3,1-1,1.7-1.5,2.6c-0.9,1.6-1.4,3.4-2.7,4.8c-0.7,0.7-0.5,1.9-1.4,2.5
				c-1.3,1-1.7,2.6-2.8,3.8c-2.3,3-4.8,5.9-7.4,8.6c-1.1,0.8-1.6,2.2-2.8,2.9c-1,0.6-1.4,1.8-2.4,2.4c-2,1.3-3.5,3.2-5.6,4.4
				c-0.6,0.4-1.1,0.9-1.6,1.4c-4.1,2.7-7.9,5.6-12.4,7.7c-5.7,3.2-11.6,5.8-17.8,7.9c-0.5,0.2-1.2,0.2-1.5,0.7
				c0.8,0,1.6,0.1,2.4,0.1c-1.7,0.4-3.4,0-5.1,0.5c-3.5,1.1-7.1,2.1-10.8,2.7c-15,3.2-30.5,3.8-45.7,2.1c-4.5-0.7-9-1.2-13.5-2.4
				c-2.3-0.4-4.6-1.3-7-1.2c-0.5-0.4-1-0.8-1.6-1c-6.6-1.7-13-4.4-19.1-7.3c-2-0.7-3.6-2.1-5.6-2.8c-3.1-1.9-6.3-3.7-9.3-5.8
				c-0.9-0.9-2.3-1.1-3.1-2.1c-0.7-0.8-1.6-1.4-2.5-1.9c-0.9-0.7-1.4-1.8-2.5-2.2c-1.2-0.5-1.6-1.9-2.7-2.5c-1.3-0.6-1.8-2.1-3-2.8
				c-1.2-0.7-1.7-2.1-2.9-2.8c-3-3.5-6.2-7-8.6-10.9c-4.9-7.3-8.8-15.4-10.8-24.1c-2.6-9-2.5-18.5-1.4-27.8c1.1-6.7,3-13.3,5.9-19.4
				c0.5-1.3,1.1-2.6,1.9-3.8c1.6-3.7,4.1-6.9,6.2-10.3c1.4-1.4,2.3-3.2,3.8-4.5c0.7-1.2,1.6-2.1,2.7-3c0.7-1.1,1.5-1.9,2.6-2.7
				c1.6-1.9,3.7-3.3,5.3-5.1c0.8-1,2.5-1.2,3-2.5c1.5-1,3-2,4.4-3.2c2.4-2.5,5.2-4.5,8.4-5.8c0-0.2,0.1-0.5,0.2-0.6
				c3-1,5.6-3,8.5-4.2c3.7-1.6,7.4-3.4,11.2-4.6c1.9-0.5,3.8-1.4,5.7-1.9c2.9-0.6,5.7-1.7,8.6-2.1c1.2-0.2,2.3-0.5,3.5-0.8
				C227.7,218.2,231.1,217.5,234.6,217.5z M196.1,245.6c-4.7,2.2-9.4,4.5-13.1,8.1c-1.4,1.3-2.9,2.8-2.9,4.9
				c1.6-0.9,2.8-2.4,4.2-3.5c3-2.5,6.5-4.3,10-6.1c3-1.5,6.1-2.7,9.2-3.7c1.5-0.5,3.2-0.6,4.6-1.5c-0.3-0.5-0.5-1.3-1.2-1.2
				C203.1,242.3,199.6,244.1,196.1,245.6z M298.8,243.9c-0.2,0.4-0.3,0.8-0.5,1.2c1.7,1,3.7,1.1,5.5,1.8c5.8,2,11.3,4.6,16.4,8
				c2.2,1.4,3.9,3.5,6.1,5.1c0.1-0.8-0.1-1.7-0.6-2.4c-1.3-1.9-3-3.4-4.8-4.7c-4.2-3-8.8-5.3-13.6-7.2
				C304.6,244.4,301.7,243.5,298.8,243.9z M202.9,258.6c-0.6,0.4-1.2,0.8-1.9,0.9l0.1-0.7c-2.7,0.2-5.1,1.4-7.7,2.2
				c-3,1.3-5.7,3.2-8.5,5c-3,2.7-6.1,5.4-8,9c-4.6,6.7-7,14.9-6.7,23.1c0.4,7.7,3,15.4,7.8,21.5c2.2,3.7,5.8,6.4,9.5,8.6
				c1.7,0.7,3,2.1,4.7,2.8c2.1,0.9,4.2,2.1,6.5,2.5c1.8,0.4,3.6,1,5.5,1.2c2.2,0.3,4.4,0.1,6.5,0.4c7.6-0.5,15.1-3.1,21.1-7.7
				c2.5-1.4,4.4-3.7,6.4-5.7c2.1-2.8,3.9-5.7,5.5-8.7c2.7-6,4-12.6,3.5-19.2c-0.5-7.1-3-14-7.2-19.7c-1.6-2.8-4.1-4.9-6.4-7.1
				c-2.9-2.2-6-4-9.2-5.8c0,0.2,0.1,0.6,0.1,0.8c-1.6,0-2.7-1.3-4-2c-0.8,0.2-1.5-0.6-2.3-0.1c-0.4-0.3-0.7-0.6-1.1-0.9
				c-1.3,0.4-2.3-0.7-3.6-0.7c-0.9,0-1.9-0.5-2.7,0.2c-0.2-0.2-0.6-0.5-0.8-0.6c-0.3,0.2-0.6,0.4-0.9,0.6c-0.6-0.4-1.3-0.3-2-0.3
				c-0.2,0.1-0.5,0.3-0.7,0.5l-0.5-0.4C205.2,258.5,204,258.8,202.9,258.6z M292.3,258.3c-1.3-0.1-2.3,1-3.6,0.6
				c-0.4,0.3-0.8,0.6-1.1,1c-0.1-0.1-0.3-0.3-0.5-0.4c-0.6,0.3-1.1,0.5-1.8,0.4c-1.3,0.7-2.3,2-3.9,2c0-0.2-0.1-0.5-0.2-0.7
				c-2.4,1.4-4.8,2.6-6.9,4.3c-2.6,1.5-4.5,3.9-6.6,6c-2.1,2.7-3.8,5.5-5.4,8.5c-1.7,3.8-2.9,7.7-3.4,11.8c-1,7.3,0.3,14.8,3.4,21.5
				c1.6,2.9,3.3,5.6,5.2,8.2c1.2,1.3,2.5,2.5,3.7,3.7c1.3,1.4,3.1,2.1,4.5,3.4c4.9,3.3,10.5,5.4,16.4,6.2c1.6,0.1,3.3,0.5,4.9,0.2
				c3.1,0,6.2-0.2,9.1-1.2c2.9-0.4,5.4-1.8,8.1-3c1.4-0.6,2.6-1.8,4-2.5c1.5-0.7,2.8-1.8,4.2-2.7c3.3-2.3,5.5-5.8,7.8-9.1
				c6.2-9.9,7.5-22.9,3.1-33.8c-1.1-3.6-3.5-6.7-5.4-10c-2.1-2.5-4.4-4.9-6.9-6.9c-3.3-2.1-6.5-4.4-10.3-5.5
				c-1.8-0.8-3.7-1.3-5.6-1.5l0.1,0.7c-0.7-0.1-1.3-0.5-1.9-0.9c-0.8,0-1.6,0.1-2.3-0.2c-0.5-0.1-1.2-0.7-1.5,0.1
				c-0.2-0.1-0.5-0.3-0.7-0.5c-0.7,0-1.4,0-2,0.3c-0.3-0.2-0.6-0.4-1-0.5c-0.2,0.2-0.5,0.5-0.7,0.6
				C294.3,257.8,293.2,258.3,292.3,258.3z M245.1,324.6c-1.1,0.8-1.6,2.2-1.3,3.5c0.5,2.5,2.1,4.5,3.6,6.5c1.2,1.5,2.7,3.1,4.8,3.2
				c-0.4,0.6-0.4,1.4-0.5,2.1c-0.4,2.8-1.6,5.4-3,7.7c-1.6,2.4-3.4,4.9-6.1,6.1c-2.1,0.9-4.5,0.4-6.5-0.7c-2.6-1.5-5.1-3.5-6.3-6.3
				c-0.4-0.8-0.7-1.9-1.7-2.1c-0.3,1.5-0.1,3.1,0.6,4.5c1.6,3,4.4,5.1,7.4,6.5c2.6,1.2,5.8,1.2,8.3-0.2c3.5-1.8,5.5-5.3,7.4-8.6
				c0.6,2.8,1.9,5.5,4.3,7.1c2.3,1.9,5.7,2.7,8.3,1c4.1-2.5,7.4-7.3,6.4-12.3c-0.2-0.8-0.9-0.2-0.8,0.3c-0.4,2.6-1.2,5.3-3,7.3
				c-1.5,1.7-3.5,3.7-6,3.2c-2.7-0.8-4.9-2.9-5.9-5.5c-1.1-3.5-0.6-7.1-0.8-10.7c3-2.2,5.6-5.1,6.8-8.6c0.4-1.5-0.8-3-2-3.8
				c-2.4-1.6-5.4-1.2-8.1-1.2C248.9,323.6,246.8,323.3,245.1,324.6z"/>
		</g>
		<path class="st2" d="M348.8,356.9c3.6-1.4,7.5-0.9,11.1,0c1.4,0.6,2.7,1.3,3.8,2.3c1.6,2.1,2.8,4.8,2.7,7.5c-0.5,2-1.3,4-1.7,6.1
			c-0.3,1.4-1.5,2.2-2.2,3.4c-1.2,2.8-3,5.3-5.4,7.2c-0.5,0.5-0.8,1.1-1.2,1.7c-1.9,1.1-2.9,3.3-4.9,4.5c-1.7,0.9-2.6,2.8-4.5,3.4
			c-1.6,0.5-2.7,2-4.3,2.6c-3.4,2.8-7.9,3.9-11.7,6.2c-1.5,1-3.3,1.2-4.9,2.1c-1.1,0.6-2.3,1.1-3.5,1.7c-0.2-0.1-0.7-0.3-1-0.4
			c-1.9,0.8-3.6,2-5.7,2.4c-2.3,0.3-4.4,1.7-6.8,1.6c0.9,3,2.6,5.8,3,9c0.6,3.1,1.8,6,2.4,9.1c0.2,4.5,0.5,9,0.4,13.5
			c-0.1,4.6,0.3,9.4-1.1,13.8c1.7-0.9,3.6-1.2,5.5-1.5c4.9-1.2,9.9-1.8,15-1.6c2.3,0.1,4.5,0.6,6.7,1.3c1.5,0.6,3.2,0.6,4.6,1.5
			c1.3,0.8,2.5,1.5,3.9,2.2c1,1,2,2,2.9,3.1c0.5,1.9,0.7,4.3-0.8,5.9c-0.9,1.1-2.1,1.7-3.2,2.4c-1.4,0.8-2.9,1.7-4.6,2
			c-1.7,0.3-3.3,1.1-5,1.5c-4.3,1-8.8,0.4-13.2,0.6c-1.7,0.1-3.4,0.4-5.1,0.3c-2.6-0.2-5.3,0.1-7.9,0.2c-2.2,0.1-4.3-0.3-6.5-0.1
			c-2.5,0-5,0.2-7.5-0.1c-2.7-0.3-5.4,0.2-8.1-0.3c-2.1-0.4-4.1,0.2-6.2,0.4c-6.1,0-12.2,0.4-18.2,0.4c-2.9,0.7-5.8,0-8.7,0.6
			c-1.5,0.3-2.9-0.2-4.4,0.1c-1.4,0.2-2.7,0.3-4.1,0.2c-1.9-0.2-3.7,0.5-5.6,0.3c-2-0.3-3.9,0.3-5.9,0.1c-1.6-0.2-3.3,0.1-4.9,0.2
			c-3.9-0.5-7.8,0.7-11.7,0.9c-6,0.1-11.9,0.3-17.9,0c-6.7,0.2-13.4-0.8-20-2.2c-1.5-0.3-3-0.3-4.4-0.7c-2.5-0.7-4.7-2-7.2-2.5
			c-2.6-1.2-5-3.2-6-6c-0.6-2.1,0.5-4.2,1.6-5.9c1.3-2.6,4-4.2,6.5-5.5c2.5-1.5,5.4-1.6,8.1-2.1c3.6-0.7,7.3-0.4,10.9-0.1
			c2.8,0.5,5.7,0.7,8.3,1.9c0.1-2.5-0.6-5-0.3-7.4c0.2-2.3,0.3-4.6,0.7-6.8c0.6-2.9,0.5-5.9,1.2-8.8c0.7-3.1,0.3-6.3,1.4-9.3
			c0.4-1.4,0.6-2.9,0.8-4.4c-2.8-0.9-5.6-1.9-8.6-2.4c-3.5-0.7-6.5-2.9-10-3.1c-2.1-0.5-4-1.7-6.1-2.4c-2.3-0.7-4.2-2.2-6.4-2.8
			c-2-0.6-3.5-2.1-5.5-2.8c-1.7-0.7-2.8-2.4-4.6-2.8c-1.4-0.4-2.4-1.7-3.7-2.4c-1.5-0.8-2.6-2.2-4-3c-1.1-0.6-1.7-1.8-2.8-2.4
			c-1.2-0.7-1.6-2.1-2.7-2.8c-1.4-0.8-1.8-2.5-3.1-3.4c-1.8-2-3.5-4.1-4.2-6.7c-1.2-2.7-2-5.8-1.2-8.7c0.8-2.9,3-5.6,6.2-6
			c3.1-1.1,6.3-0.5,9.4,0.2c3,0.2,5.4,2,8.2,2.9c1.4,0.4,2.6,1.4,3.9,2.1c1.3,0.8,2.9,1,4.1,2c1.5,1.2,3.5,1.6,5,2.9
			c1.2,1,2.8,1.4,4.1,2.4c1.4,1.1,3.2,1.7,4.5,2.8c1.6,1.4,3.7,2,5.3,3.4c4,2.2,8.3,3.8,12.6,5.2c3.2,1,6.7,1.1,10,0.5
			c-0.1,0.1-0.3,0.4-0.4,0.6c2.4,1.8,5.2,3,7.7,4.5c5.8,3.2,12.2,4.8,18.5,6.7l0.4,0.1c-3.6,2.4-7,5.1-9.6,8.6
			c-3.7,5.3-5.8,11.7-6.3,18.1c-0.4,5,0.9,10,2.8,14.6c1.5,2.9,3,5.8,5.2,8.2c3.1,3.2,6.6,6.2,10.7,8c1.8,1,3.8,1.7,5.8,2.1
			c5.2,1.4,10.9,1.5,16.1,0c3.2-0.4,6-2,8.8-3.5c2.3-1.7,4.7-3.3,6.7-5.5c2.1-2.3,3.8-5,5.3-7.7c1-2.9,2.4-5.7,3-8.8
			c1-5.5,0.5-11.3-1.7-16.5c-2.2-6.9-7-12.7-13-16.5c-1.4-1.2-3.1-2-5-2.3l0.5-0.1c8.9-1.5,17.7-4.1,25.3-8.9c2.8-1.8,6-3.3,8.4-5.7
			l0.1-0.1c0.7-0.1,1.5-0.2,2-0.7c1.8-1.3,4.1-1.9,5.8-3.3c1-0.9,2.4-1,3.5-1.7c1.6-1,3.4-1.7,4.8-3c0.8-0.8,2.1-0.6,2.8-1.5
			c1.2-1.4,2.9-2.1,4.4-3.1c1-1,1.9-2.1,3.1-2.9c1.5-0.9,2.1-2.9,4-3.2c1.3-1.9,3.4-2.5,5.2-3.8c0.9-0.6,2-0.8,2.8-1.5
			C344.3,357.5,346.7,357.4,348.8,356.9z"/>
	</g>
	<path class="st3" d="M197.1,70.1c3.7-1.3,7.6,0.4,10.5,2.6c6.7,5.4,10.9,13,14.6,20.7c7.1,15,9.9,31.5,11.7,47.8
		c1,10.1,1.9,20.3,1.9,30.4c0.3,5.7,0.3,11.3,0.2,17c-0.4,5.8-0.1,11.6-0.5,17.3c0,0.1-0.1,0.3-0.1,0.4c-2.9,0-5.7,0.8-8.5,1.3
		c-1.8,0.3-3.6,0.8-5.4,1.4c0-0.1-0.1-0.4-0.2-0.5c-2.9-10.5-6.4-20.9-9.5-31.4c-3.2-9.8-5.8-19.9-9.6-29.6
		c-6.1-16.2-11.7-32.9-13.2-50.2c-0.3-6.2-0.4-12.6,1.3-18.7C191.6,75.2,193.5,71.5,197.1,70.1z"/>
	<path class="st3" d="M314.7,68.2c-4.4-1.3-9,0.4-12.5,2.6c-7.9,5.4-13,13-17.3,20.7c-8.5,15-11.8,31.5-13.9,47.8
		c-1.2,10.1-2.2,20.3-2.2,30.4c-0.4,5.7-0.4,11.3-0.2,17c0.5,5.8-0.3,13.1,0.1,18.9c0,0.1,0-0.1,0,0c3.2,1.9,6.9,1.7,10.3,2.3
		c2.2,0.3,3.8,0.8,5.9,1.4c0-0.1,1.3,0.5,1.4,0.4c5-8.7,8.4-23.8,12.1-34.3c3.8-9.8,5.7-19.9,10.2-29.6c7.3-16.2,14-32.9,15.7-50.2
		c0.3-6.2,0.4-12.6-1.5-18.7C321.4,73.3,319,69.6,314.7,68.2z"/>
	<path class="st3" d="M260.9,399.6c3-0.4,6-0.4,8.9-1.2c1.9,0.3,3.6,1.1,5,2.3c6,3.8,10.9,9.7,13,16.5c2.2,5.2,2.7,11,1.7,16.5
		c-0.6,3-2,5.8-3,8.8c-1.5,2.8-3.2,5.4-5.3,7.7c-1.9,2.2-4.3,3.8-6.7,5.5c-2.8,1.5-5.6,3.1-8.8,3.5c-5.2,1.6-10.9,1.4-16.1,0
		c-2.1-0.3-4-1-5.8-2.1c-4.1-1.8-7.6-4.8-10.7-8c-2.2-2.4-3.7-5.4-5.2-8.2c-1.8-4.6-3.2-9.6-2.8-14.6c0.5-6.4,2.5-12.8,6.3-18.1
		c2.5-3.5,6-6.3,9.6-8.6c1.5,0.5,3.1,0.5,4.6,0.4C250.7,399.5,255.9,400.2,260.9,399.6z"/>
	<path class="st3" d="M194.7,423.6c1.5-1.8,3.3-3.6,5.7-3.8c-1.4,2.6-2.1,5.5-2.9,8.3c-1.4,5.3-2.1,10.8-2.4,16.3
		c-3.6,0.5-7.2,0.5-10.7,1.4c-3.9,0.8-7.5,2.3-11,4c0.2-1.5,1.1-2.7,2.1-3.8c0.8-0.9,0.9-2.1,1.2-3.2c0.5-2.2,2.1-3.9,3.4-5.7
		c1-1.5,2.9-1.8,4.5-2.5c-0.5-2.3-1-4.7,0-6.9c0.8-2.2,2.7-4.1,5.1-4.5C191.3,422.7,193,423.2,194.7,423.6z"/>
	<g>
		<path class="st4" d="M235.5,205.9c4.5-0.3,8.9-1.2,13.4-1c0,0.8,0,1.6,0,2.4c-0.2,2.7-0.4,5.5-0.7,8.2c-0.1,0.2-0.2,0.6-0.3,0.8
			c-4.2,0.4-8.4,0.6-12.6,0.9c0-1.3-0.1-2.7-0.1-4c0.3-2.3,0.1-4.6,0.3-6.8C235.4,206.2,235.5,206,235.5,205.9z"/>
		<path class="st4" d="M259,204.7c3.2,0.2,6.4,0.6,9.6,0.9c0,0.2,0,0.6,0,0.8c-0.1,3.7-0.1,7.4,0,11.1c-3.6-0.7-7.3-0.5-10.9-1.3
			c0.1-2.3,1-4.5,0.9-6.8C258.5,207.9,258.7,206.3,259,204.7z"/>
		<path class="st4" d="M213.9,210.3c2.5-0.6,5-1.1,7.5-1.8c0,0.1,0.1,0.4,0.2,0.5c1,3.3,1.7,6.6,2.8,9.9c-1.2,0.3-2.3,0.7-3.5,0.8
			c-2.9,0.4-5.7,1.5-8.6,2.1c-1.2-3.3-1.7-6.8-2.9-10C210.6,210.8,212.3,210.7,213.9,210.3z"/>
		<path class="st4" d="M287.3,209c3,1.1,5.5,1.2,8.2,2.8c-1.4,3.1-2.4,6.3-3.9,9.3c-0.3,0.4-0.5,0.8-0.8,1.2
			c-2.9-0.7-5.7-1.9-8.7-2.4c1.4-3.4,2.7-6.9,4.1-10.3C286.2,209.4,287.2,209.2,287.3,209z"/>
		<path class="st4" d="M297.5,385.6c2.3-0.3,4.3-1.5,6.6-1.9c-2.5,2.3-5.6,3.8-8.4,5.7c-7.7,4.8-16.5,7.4-25.3,8.9
			c-1.5-0.7-3-1.6-4.6-1.8c-2.9-0.4-5.8-1.1-8.7-1.1c-2.8-0.1-5.6,0.6-8.3,1.1c-2.9,0.5-5.2,2.4-8,3.1c-6.3-1.9-12.7-3.5-18.5-6.7
			c-2.6-1.5-5.3-2.8-7.7-4.5c0.1-0.1,0.3-0.4,0.4-0.6l0.7-0.3c2.4-0.1,4.7,0.8,7,1.2c4.4,1.2,9,1.7,13.5,2.4
			c15.2,1.7,30.7,1.1,45.7-2.1c3.7-0.6,7.2-1.7,10.8-2.7C294,385.6,295.8,386,297.5,385.6z"/>
	</g>
	<g>
		<path class="st5" d="M226.9,207.6c2.8-0.5,5.6-1.3,8.5-1.3c-0.2,2.3,0.1,4.6-0.3,6.8c-0.3,1.4-0.5,2.9-0.5,4.3
			c-3.5,0-6.9,0.6-10.2,1.4c-1.1-3.3-1.8-6.6-2.8-9.9C223.3,208.5,225.1,208,226.9,207.6z"/>
		<path class="st5" d="M268.6,206.4c1.8-0.1,3.6-0.1,5.4,0.4c4.1,1,8.2,1.7,12.2,2.8c-1.4,3.4-2.7,6.9-4.1,10.3
			c-4.5-1.1-9-1.7-13.6-2.4C268.5,213.8,268.5,210.1,268.6,206.4z"/>
	</g>
	<g>
		<path class="st6" d="M196.1,245.6c3.5-1.5,7-3.2,10.9-3c0.8-0.1,0.9,0.7,1.2,1.2c-1.4,0.9-3.1,1-4.6,1.5c-3.2,1-6.3,2.2-9.2,3.7
			c-3.5,1.7-7,3.6-10,6.1c-1.4,1.1-2.6,2.6-4.2,3.5c0-2,1.5-3.6,2.9-4.9C186.7,250.1,191.4,247.7,196.1,245.6z"/>
		<path class="st6" d="M298.8,243.9c3-0.4,5.9,0.5,8.6,1.6c4.8,1.9,9.4,4.2,13.6,7.2c1.8,1.4,3.5,2.9,4.8,4.7
			c0.5,0.7,0.7,1.5,0.6,2.4c-2.2-1.5-3.8-3.7-6.1-5.1c-5.1-3.4-10.6-6-16.4-8c-1.8-0.7-3.8-0.8-5.5-1.8
			C298.5,244.7,298.6,244.3,298.8,243.9z"/>
	</g>
	<g>
		<g>
			<path class="st7" d="M202.9,258.6c1.2,0.1,2.3-0.1,3.4-0.5l0.5,0.4c0.2-0.1,0.5-0.3,0.7-0.5c0.7,0,1.4,0,2,0.3
				c0.3-0.2,0.6-0.4,0.9-0.6c0.2,0.2,0.6,0.5,0.8,0.6c0.7-0.7,1.8-0.2,2.7-0.2c1.3-0.1,2.3,1,3.6,0.7c0.4,0.3,0.7,0.6,1.1,0.9
				c0.7-0.5,1.5,0.3,2.3,0.1c1.3,0.7,2.4,2,4,2c1,0.8,1.9,1.6,2.8,2.5c0.2,0,0.5-0.1,0.6-0.1c1.6,1.6,3.4,3.1,4.7,4.9
				c0.7,1.4,1.8,2.5,2.8,3.7c0,0.2-0.1,0.5-0.2,0.7c0.7,1.1,1.4,2.1,2.1,3.3c0,0.4,0.1,0.9,0.1,1.3c0,0.2,0,0.5,0,0.7
				c0.3,0.5,0.7,1,1,1.5c-0.1,0.1-0.4,0.4-0.5,0.5c0.3,0.5,0.6,0.9,0.9,1.4c0,0.2-0.1,0.7-0.2,0.9c0.6,1.4,0.2,2.9,0.6,4.3
				c0.2,1.8-0.8,3.6-0.5,5.4c-0.1,0.2-0.4,0.7-0.5,0.9c0.1,0.1,0.3,0.4,0.4,0.6c-1,1.9-1.4,4.1-2.5,6c0,0.2,0.1,0.5,0.2,0.6
				c-0.8,0.9-1.4,2-2.2,2.8c0.1,0.8-0.5,1.5-1,2.1c-2.1,2.5-4.5,4.8-7.1,6.7c-0.2,0-0.5-0.1-0.6-0.1c-1.7,1.7-4.1,2.2-6,3.6
				c-0.2,0-0.5-0.1-0.7-0.1c-0.4,0.1-0.8,0.2-1.2,0.3c-1.1,0.9-2.7,0.3-3.8,1.2c-0.8-0.3-1.6-0.2-2.3-0.1c-1.7,0.2-3.4-0.1-5.1,0
				c-1.1-0.7-2.4-0.2-3.4-0.9c-0.9-0.2-1.7-0.3-2.6-0.4c-0.7-0.5-1.3-0.9-2.1-1.2c-1,0.1-1.7-0.7-2.5-1.2c-1.6-0.3-2.7-1.7-4.3-2
				c-2.6-2.2-4.9-4.7-7.2-7.2c0-0.2,0.1-0.5,0.1-0.6c-0.4-0.5-0.7-1-1-1.5c0-1.2-1-2.1-1.5-3.1c-0.4-0.9-0.6-1.9-1.1-2.8
				c-0.2-1.5-0.7-2.9-0.9-4.4c-0.1-0.6-0.3-1.2-0.4-1.8c0-1.1-0.1-2.2,0.4-3.1c-0.2-0.3-0.5-0.9-0.6-1.2c0.1-0.2,0.4-0.5,0.6-0.7
				c-0.1-0.2-0.4-0.5-0.5-0.6c0.2-0.6,0.4-1.2,0.7-1.8c0-0.1-0.1-0.4-0.1-0.5c0.2-1.3,0.7-2.6,1.2-3.8c-0.3-0.7,0.3-1.3,0.7-1.8
				c-0.1-0.1-0.2-0.3-0.3-0.4c0.4-0.7,0.8-1.4,0.9-2.2c1.2-1.5,2.3-3.2,3.3-4.8c1.1-1.4,2.5-2.5,3.7-3.9c1.8-2.1,4.5-2.9,6.5-4.8
				c0.8-0.1,1.6-0.5,2.3-1c0.1,0.1,0.3,0.3,0.4,0.4c0.2-0.2,0.6-0.6,0.8-0.8c0.4,0,0.8,0.1,1.3,0C201.7,259.4,202.3,259,202.9,258.6
				z M208.4,269.7l0-0.6c-1.5,1.2-3.7,2.4-3.8,4.5c-0.2,0.5-0.5,0.9-0.7,1.4c0.2,1,0.2,2,0.1,3.1c0.4,0.9,1.1,1.7,1.6,2.5
				c-1.2,0-2.2,0.7-3,1.5c-1.5,1.5-3.3,2.9-4.2,4.9c-0.6,1.3-1.9,2.3-2.3,3.7c-0.5,2.7-2,5.3-1.3,8.2c0,6.4,5.6,12.2,12,12.4
				c2.3-0.2,4.5-0.6,6.7-1.1c1.5-0.5,2.9-1.2,4.3-1.8c2.2-1.9,4.9-3.1,6.5-5.6c1-1.8,2.7-3.2,3.1-5.2c1.1-1.8,1.3-4,1.7-6.1
				c0-2.8-0.1-5.8-1.7-8.3c-1.6-3.5-5.3-5.2-8.7-6.5c0.2-0.8-0.1-1.6-0.4-2.4c-0.7-3.1-3.7-5.3-6.7-5.8c-0.2,0.1-0.5,0.2-0.6,0.3
				c-0.1-0.1-0.4-0.3-0.5-0.4C209.8,268.9,209.1,269.3,208.4,269.7z"/>
		</g>
		<g>
			<path class="st7" d="M292.3,258.3c0.9,0,1.9-0.5,2.7,0.2c0.2-0.2,0.5-0.5,0.7-0.6c0.3,0.2,0.6,0.4,1,0.5c0.6-0.3,1.3-0.3,2-0.3
				c0.2,0.1,0.5,0.3,0.7,0.5c0.3-0.8,1-0.2,1.5-0.1c0.7,0.2,1.5,0.2,2.3,0.2c0.6,0.4,1.2,0.8,1.9,0.9c0.4,0.1,0.8-0.1,1.3,0
				c0.2,0.2,0.5,0.5,0.7,0.7c1-0.2,1.8,0.6,2.8,0.8c1.5,1.2,3.1,2.2,4.7,3.1c1.5,1.1,2.6,2.5,4,3.8c2.1,1.8,2.9,4.6,4.9,6.5
				c0,0.1,0,0.4-0.1,0.6c0.3,0.5,0.6,1.1,0.9,1.6c-0.1,0.1-0.3,0.4-0.3,0.5c0.3,0.3,0.7,0.7,1,1.1c-0.1,0.2-0.3,0.5-0.3,0.7
				c0.7,1.3,1.3,2.8,1.3,4.3c0.6,1,0.3,2.1,0.5,3.1c-0.7,1.4,0.2,2.8-0.1,4.3c-0.1,0.6-0.3,1.2-0.4,1.7c-0.2,1.5-0.7,2.9-0.9,4.4
				c-0.7,1.1-0.7,2.5-1.6,3.6c-0.9,1.1-1,2.7-2,3.8c0,0.2,0.1,0.5,0.1,0.6c-2.2,2.4-4.4,4.8-6.9,6.9c-1.6,0.6-2.9,1.8-4.6,2.3
				c-0.6,0.4-1.2,0.9-1.7,1.4c-0.2-0.1-0.5-0.2-0.7-0.2c-0.7,0.4-1.4,0.9-2.1,1.3c-0.9,0.1-1.8,0.2-2.7,0.3
				c-0.2,0.2-0.7,0.5-0.9,0.7c-0.3-0.1-0.6-0.3-1-0.4c-0.5,0.2-1,0.4-1.5,0.7c-1.7-0.2-3.5,0.2-5.2-0.1c-0.8-0.1-1.6-0.3-2.3,0.1
				c-0.5-0.3-1-0.6-1.4-0.9c-0.2,0.1-0.6,0.3-0.8,0.4c-0.5-0.3-1-0.6-1.5-0.9c-0.7-0.1-1.3-0.1-2-0.1c-1.9-1.4-4.3-1.9-5.9-3.6
				c-0.1,0-0.5,0.1-0.6,0.2c-2.9-2.3-5.7-4.7-7.8-7.8c-0.4-1.6-1.6-2.7-2.5-3.9c0-0.2,0.1-0.5,0.2-0.6c-1.1-1.9-1.4-4.1-2.5-6
				c0.1-0.1,0.3-0.4,0.4-0.6c-0.1-0.2-0.4-0.7-0.5-0.9c0.3-2-0.9-4-0.4-6c0.2-1.2,0-2.5,0.5-3.7c0-0.2-0.1-0.7-0.2-0.9
				c0.3-0.5,0.6-0.9,0.9-1.4c-0.1-0.1-0.4-0.4-0.5-0.6c0.3-0.5,0.7-1,1-1.5c0-0.2,0-0.5,0-0.7c0.1-1.8,1.3-3.2,2.2-4.6
				c0-0.2-0.1-0.5-0.2-0.7c1-1.2,2.1-2.3,2.8-3.7c1.3-1.8,3.1-3.3,4.7-4.9c0.2,0,0.5,0.1,0.6,0.1c0.9-0.9,1.9-1.7,2.9-2.5
				c1.6,0,2.6-1.3,3.9-2c0.6,0.1,1.2-0.1,1.8-0.4c0.1,0.1,0.3,0.3,0.5,0.4c0.4-0.3,0.7-0.7,1.1-1C290,259.3,291,258.2,292.3,258.3z
				 M291.2,269.8c-1.6,1.1-3.2,2.7-3.5,4.7c-0.3,0.8-0.6,1.6-0.4,2.4c-2.5,1.1-5.2,2.1-7,4.2c-2,2.2-3.3,5.2-3.3,8.3
				c-0.3,2.2,0.2,4.4,0.7,6.5c0.7,1.2,1.1,2.6,1.7,3.8c2,2.5,3.4,5.5,6.4,7c1.2,0.5,1.9,1.7,3.1,2.2c1.1,0.5,2.3,1,3.4,1.4
				c2.2,0.6,4.5,0.7,6.7,1.2c6.3-0.1,12.2-5.7,12.2-12.1c0.2-1.5,0.3-3.1-0.2-4.6c-0.8-2.3-1-4.8-2.7-6.6c-1.3-2.7-3.6-4.8-5.8-6.8
				c-0.5-0.5-1.4-0.5-2-0.7c0.6-0.8,1.2-1.6,1.6-2.5c-0.1-1-0.1-2,0.1-3.1c-0.5-0.7-0.6-1.6-0.9-2.4c-0.8-1.3-1.9-2.3-3.2-3.1
				c-1.1,0.2-2-1.4-3.1-0.6c-0.1-0.1-0.4-0.3-0.6-0.4C293.4,269.1,292.1,268.9,291.2,269.8z"/>
		</g>
	</g>
	<g>
		<g>
			<path class="st8" d="M218.7,276.8c3.4,1.4,7,3,8.7,6.5c1.6,2.4,1.7,5.4,1.7,8.3c-0.3,2.1-0.5,4.3-1.7,6.1
				c-0.5,2.1-2.2,3.4-3.1,5.2c-1.6,2.5-4.3,3.7-6.5,5.6c-1.4,0.6-2.8,1.3-4.3,1.8c-2.2,0.4-4.5,0.8-6.7,1.1c-6.4-0.2-12-6-12-12.4
				c-0.7-2.9,0.8-5.5,1.3-8.2c0.4-1.4,1.7-2.4,2.3-3.7c0.9-2,2.7-3.4,4.2-4.9c0.8-0.9,1.8-1.6,3-1.5c0.5,1,1.2,1.8,2.2,2.2
				c1.6,1.2,3.9,1.5,5.8,0.6c0.1,0,0.4,0.1,0.6,0.1c1.5-1.1,2.8-2.3,3.8-3.8C218.2,278.7,218.5,277.8,218.7,276.8z M204.8,296.4
				c-0.6,1-0.1,2.2,0.1,3.2c0.7,0.9,1.5,1.9,2.7,2.1c0.8,0.1,1.5,1,2.3,0.4c0.1,0.1,0.4,0.3,0.5,0.4c1.1-0.7,2.1-1.6,2.7-2.8
				c0.2-1.3-0.5-2.4-0.6-3.6c-0.8-1-2.2-2-3.5-1.6C207.3,293.8,205.6,295,204.8,296.4z"/>
		</g>
		<g>
			<path class="st8" d="M280.3,281c1.8-2.1,4.6-3.1,7-4.2c0.2,1,0.5,2,0.7,3c1,1.5,2.3,2.7,3.8,3.8c0.1,0,0.4-0.1,0.6-0.1
				c2.8,1.3,6.6-0.2,8-2.8c0.7,0.2,1.5,0.1,2,0.7c2.2,2,4.5,4.1,5.8,6.8c1.8,1.8,1.9,4.4,2.7,6.6c0.5,1.5,0.4,3,0.2,4.6
				c-0.1,6.4-5.9,12-12.2,12.1c-2.2-0.4-4.5-0.6-6.7-1.2c-1.2-0.4-2.3-1-3.4-1.4c-1.2-0.4-1.9-1.6-3.1-2.2c-2.9-1.5-4.4-4.6-6.4-7
				c-0.6-1.3-1-2.6-1.7-3.8c-0.5-2.1-1-4.3-0.7-6.5C277,286.2,278.3,283.2,280.3,281z M293.5,296.1c0,0.1,0.1,0.4,0.2,0.5
				c-0.7,0.9-0.6,2-0.6,3.1c0.4,0.7,0.9,1.5,1.6,2c0.5,0.3,1,1,1.6,0.4c0.2,0.1,0.5,0.3,0.6,0.4c0.6-0.4,1.2-0.7,1.8-0.8
				c1.1-0.2,1.8-1.2,2.5-2c0.2-1.1,0.7-2.2,0.1-3.3c-0.8-1.4-2.5-2.7-4.1-2c-0.1-0.1-0.4-0.2-0.5-0.3
				C295.5,294.7,294.3,295,293.5,296.1z"/>
		</g>
	</g>
	<g>
		<path class="st9" d="M252.2,337.8c0.7-0.2,1.3-0.4,2-0.6c0.2,3.6-0.2,7.2,0.8,10.7c1,2.6,3.2,4.8,5.9,5.5c2.5,0.5,4.5-1.5,6-3.2
			c1.8-2,2.5-4.7,3-7.3c0-0.6,0.6-1.1,0.8-0.3c1,5-2.3,9.8-6.4,12.3c-2.6,1.7-6,0.9-8.3-1c-2.4-1.6-3.7-4.4-4.3-7.1
			c-1.9,3.3-3.8,6.8-7.4,8.6c-2.5,1.5-5.7,1.5-8.3,0.2c-3-1.4-5.8-3.5-7.4-6.5c-0.8-1.4-1-3-0.6-4.5c1,0.2,1.3,1.3,1.7,2.1
			c1.2,2.8,3.7,4.8,6.3,6.3c1.9,1.1,4.4,1.6,6.5,0.7c2.8-1.1,4.6-3.6,6.1-6.1c1.4-2.4,2.7-5,3-7.7
			C251.8,339.1,251.8,338.4,252.2,337.8z"/>
	</g>
	<g>
		<path class="st10" d="M248.7,396.4c2.8-0.5,5.5-1.1,8.3-1.1c2.9-0.1,5.8,0.7,8.7,1.1c1.7,0.2,3.1,1.1,4.6,1.8l-0.5,0.1
			c-2.9,0.8-5.9,0.8-8.9,1.2c-5.1,0.7-10.2-0.1-15.2,0.4c-1.6,0.1-3.2,0.1-4.6-0.4l-0.4-0.1C243.4,398.7,245.8,396.8,248.7,396.4z"
			/>
		<path class="st10" d="M200.4,419.8c1-0.1,2-0.2,3-0.3c-1.1,3-0.7,6.2-1.4,9.3c-0.7,2.9-0.6,5.9-1.2,8.8c-0.4,2.2-0.5,4.5-0.7,6.8
			c-0.2,2.5,0.4,4.9,0.3,7.4c-2.6-1.2-5.5-1.4-8.3-1.9c-3.6-0.3-7.3-0.5-10.9,0.1c-2.7,0.5-5.6,0.7-8.1,2.1c-0.2-0.8,0-1.6,0.3-2.4
			c3.5-1.7,7.2-3.2,11-4c3.5-0.8,7.2-0.8,10.7-1.4c0.4-5.5,1-11,2.4-16.3C198.3,425.3,199,422.4,200.4,419.8z"/>
	</g>
</g>
</svg>
