<?xml version="1.0" encoding="utf-8"?>
<!-- Generator: Adobe Illustrator 23.0.2, SVG Export Plug-In . SVG Version: 6.00 Build 0)  -->
<svg version="1.1" id="Layer_1" xmlns="http://www.w3.org/2000/svg" xmlns:xlink="http://www.w3.org/1999/xlink" x="0px" y="0px"
	 width="500px" height="500px" viewBox="0 0 500 500" style="enable-background:new 0 0 500 500;" xml:space="preserve">
<style type="text/css">
	.st0{fill:#FFFFFF;}
	.st1{fill:#F7BBBB;}
	.st2{fill:#BFDFEB;}
	.st3{fill:#DBEDF5;}
	.st4{fill:#96C8D9;}
	.st5{fill:#C2E5F3;}
	.st6{fill:#98C1CF;}
	.st7{fill:#583B2F;}
	.st8{fill:#695045;}
	.st9{fill:#9FC5D2;}
	.st10{fill:#C2E5F1;}
</style>
<g>
	<g>
		<path class="st0" d="M193.8,260.7c2.6-0.8,5-2.1,7.7-2.3l-0.1,0.7c-0.4,0.1-0.9,0-1.3,0c-0.2,0.2-0.6,0.6-0.8,0.8
			c-0.1-0.1-0.3-0.3-0.4-0.4c-0.7,0.4-1.4,0.8-2.3,1c-2,1.8-4.8,2.7-6.6,4.8c-1.2,1.3-2.6,2.4-3.7,3.9c-1,1.7-2,3.3-3.3,4.9
			c-0.1,0.8-0.5,1.5-0.9,2.2c0.1,0.1,0.2,0.3,0.3,0.4c-0.4,0.5-1,1.1-0.7,1.8c-0.5,1.2-1,2.5-1.2,3.8c0,0.1,0.1,0.4,0.1,0.5
			c-0.2,0.6-0.5,1.2-0.7,1.8c0.1,0.2,0.4,0.5,0.5,0.6c-0.1,0.2-0.4,0.5-0.6,0.7c0.2,0.3,0.5,0.9,0.6,1.2c-0.5,1-0.4,2.1-0.4,3.1
			c0.1,0.6,0.3,1.2,0.4,1.8c0.2,1.5,0.7,2.9,0.9,4.4c0.5,0.9,0.7,1.9,1.1,2.8c0.6,1,1.5,1.9,1.6,3.1c0.3,0.5,0.7,1,1,1.5
			c0,0.2-0.1,0.5-0.1,0.6c2.3,2.5,4.7,5,7.3,7.2c1.6,0.3,2.7,1.7,4.3,2c0.8,0.5,1.4,1.4,2.5,1.3c0.7,0.3,1.4,0.7,2.1,1.2
			c0.9,0.1,1.8,0.2,2.6,0.4c1.1,0.7,2.4,0.2,3.5,0.9c1.7-0.1,3.4,0.2,5.1,0c0.8-0.1,1.6-0.2,2.4,0.1c1.1-0.9,2.6-0.4,3.8-1.2
			c0.4-0.1,0.8-0.2,1.2-0.3c0.2,0,0.5,0.1,0.7,0.1c1.9-1.5,4.3-1.9,6-3.7c0.2,0,0.5,0.1,0.6,0.1c2.6-2,5-4.2,7.1-6.8
			c0.5-0.6,1.1-1.3,1-2.1c0.8-0.9,1.4-1.9,2.2-2.8c0-0.2-0.1-0.5-0.2-0.6c1.1-1.9,1.4-4.1,2.5-6c-0.1-0.1-0.3-0.5-0.4-0.6
			c0.1-0.2,0.4-0.7,0.5-0.9c-0.3-1.8,0.7-3.6,0.5-5.4c-0.4-1.4-0.1-2.9-0.6-4.3c0-0.2,0.1-0.7,0.2-0.9c-0.3-0.5-0.6-0.9-0.9-1.4
			c0.1-0.1,0.4-0.4,0.5-0.5c-0.3-0.5-0.7-1-1-1.5c0-0.2,0-0.5,0-0.7c-0.1-0.5-0.1-0.9-0.1-1.3c-0.6-1.1-1.3-2.2-2.1-3.3
			c0-0.2,0.1-0.5,0.2-0.7c-1-1.2-2.1-2.3-2.8-3.7c-1.3-1.9-3.2-3.3-4.8-4.9c-0.2,0-0.5,0.1-0.6,0.1c-0.9-0.9-1.8-1.7-2.8-2.5
			c0-0.2-0.1-0.6-0.1-0.8c3.2,1.8,6.3,3.6,9.2,5.8c2.3,2.3,4.8,4.3,6.4,7.2c4.3,5.7,6.7,12.7,7.3,19.8c0.6,6.6-0.8,13.3-3.5,19.3
			c-1.6,3.1-3.5,6-5.6,8.8c-2,2-3.9,4.3-6.5,5.8c-6.1,4.7-13.6,7.2-21.3,7.8c-2.2-0.3-4.4-0.1-6.6-0.4c-1.9-0.2-3.7-0.9-5.6-1.2
			c-2.3-0.5-4.3-1.7-6.5-2.5c-1.7-0.7-3-2.1-4.7-2.8c-3.7-2.2-7.3-4.9-9.6-8.6c-4.8-6.1-7.5-13.8-7.9-21.6c-0.3-8.2,2-16.5,6.7-23.2
			c2-3.6,5.1-6.3,8.1-9C188,263.9,190.8,262,193.8,260.7z"/>
		<path class="st0" d="M306,258.4c2,0.2,3.9,0.7,5.7,1.6c3.8,1.1,7.1,3.5,10.4,5.6c2.5,2.1,4.8,4.5,7,7c1.9,3.3,4.3,6.4,5.4,10
			c4.5,11,3.2,24-3.1,34c-2.3,3.3-4.5,6.8-7.9,9.2c-1.4,0.8-2.7,2-4.2,2.7c-1.4,0.7-2.6,1.9-4,2.5c-2.6,1.1-5.2,2.6-8.1,3
			c-3,1-6.1,1.2-9.2,1.2c-1.7,0.3-3.3-0.1-5-0.2c-5.9-0.8-11.6-3-16.5-6.3c-1.4-1.2-3.2-2-4.5-3.4c-1.2-1.3-2.5-2.4-3.7-3.7
			c-1.9-2.7-3.7-5.4-5.3-8.3c-3.1-6.7-4.4-14.3-3.4-21.6c0.5-4.1,1.7-8.1,3.4-11.8c1.6-3,3.4-5.9,5.5-8.5c2.1-2.1,4-4.5,6.7-6
			c2.2-1.7,4.6-2.9,7-4.3c0,0.2,0.1,0.5,0.2,0.7c-1,0.8-2,1.6-2.9,2.5c-0.2,0-0.5-0.1-0.6-0.1c-1.6,1.6-3.4,3.1-4.8,4.9
			c-0.7,1.4-1.8,2.6-2.8,3.7c0,0.2,0.1,0.5,0.2,0.7c-1,1.4-2.2,2.8-2.2,4.6c0,0.2,0,0.5,0,0.7c-0.3,0.5-0.7,1-1,1.5
			c0.1,0.1,0.4,0.4,0.5,0.6c-0.3,0.5-0.6,0.9-0.9,1.4c0,0.2,0.1,0.7,0.2,0.9c-0.5,1.2-0.3,2.5-0.5,3.7c-0.6,2,0.7,4,0.4,6.1
			c0.1,0.2,0.4,0.7,0.5,0.9c-0.1,0.1-0.3,0.4-0.4,0.6c1,1.9,1.4,4.1,2.5,6c0,0.2-0.1,0.5-0.2,0.6c1,1.2,2.1,2.3,2.5,3.9
			c2.1,3.1,4.9,5.5,7.8,7.8c0.1,0,0.5-0.1,0.6-0.2c1.7,1.7,4.1,2.2,6,3.6c0.7,0,1.3,0.1,2,0.1c0.5,0.3,1,0.6,1.5,0.9
			c0.2-0.1,0.6-0.3,0.8-0.4c0.5,0.3,1,0.6,1.4,0.9c0.8-0.4,1.6-0.2,2.4-0.1c1.7,0.2,3.5-0.1,5.2,0.1c0.5-0.2,1-0.5,1.5-0.7
			c0.3,0.1,0.6,0.2,1,0.4c0.2-0.2,0.7-0.5,0.9-0.7c0.9-0.1,1.8-0.3,2.7-0.3c0.7-0.5,1.4-0.9,2.1-1.3c0.2,0.1,0.5,0.2,0.7,0.2
			c0.6-0.5,1.1-1,1.7-1.4c1.7-0.5,3-1.7,4.6-2.3c2.5-2.1,4.7-4.6,7-6.9c0-0.2-0.1-0.5-0.1-0.6c1-1.1,1.1-2.7,2-3.8
			c0.9-1,0.9-2.5,1.6-3.6c0.2-1.5,0.7-2.9,0.9-4.4c0.1-0.6,0.3-1.2,0.4-1.8c0.3-1.5-0.7-2.9,0.1-4.3c-0.3-1,0-2.2-0.5-3.2
			c0-1.5-0.5-3-1.3-4.4c0.1-0.2,0.3-0.5,0.3-0.7c-0.3-0.4-0.7-0.7-1-1.1c0.1-0.1,0.3-0.4,0.3-0.5c-0.3-0.6-0.6-1.1-0.9-1.6
			c0-0.1,0-0.4,0.1-0.6c-1.9-2-2.8-4.8-4.9-6.6c-1.4-1.2-2.5-2.7-4-3.8c-1.6-0.9-3.3-1.9-4.7-3.1c-1-0.1-1.8-0.9-2.8-0.8
			c-0.2-0.2-0.5-0.5-0.7-0.7c-0.4,0-0.8,0.1-1.3,0L306,258.4z"/>
		<path class="st0" d="M208.9,269.4c0.7-0.5,1.4-0.8,2.1-1.2c0.1,0.1,0.4,0.3,0.5,0.4c0.2-0.1,0.5-0.2,0.6-0.3
			c3.1,0.5,6,2.8,6.7,5.8c0.3,0.8,0.5,1.6,0.4,2.4c-0.2,1-0.5,1.9-0.7,2.9c-1,1.5-2.3,2.8-3.8,3.8c-0.1,0-0.4-0.1-0.6-0.1
			c-1.9,0.9-4.2,0.6-5.8-0.6c-1-0.4-1.8-1.2-2.2-2.2c-0.6-0.8-1.2-1.6-1.7-2.6c0.1-1,0.1-2.1-0.1-3.1c0.2-0.5,0.5-1,0.7-1.4
			c0.2-2.1,2.4-3.3,3.9-4.5L208.9,269.4z"/>
		<path class="st0" d="M292.2,269.4c0.9-0.8,2.2-0.6,3.2-1.2c0.1,0.1,0.4,0.3,0.6,0.4c1.1-0.8,2,0.8,3.1,0.6
			c1.3,0.8,2.4,1.8,3.2,3.1c0.3,0.8,0.4,1.7,0.9,2.4c-0.2,1-0.2,2-0.1,3.1c-0.5,0.9-1.1,1.7-1.6,2.6c-1.5,2.7-5.2,4.2-8,2.9
			c-0.1,0-0.4,0.1-0.6,0.1c-1.5-1.1-2.8-2.3-3.8-3.8c-0.2-1-0.5-2-0.7-3c-0.2-0.8,0.1-1.6,0.4-2.4
			C288.9,272.1,290.6,270.6,292.2,269.4z"/>
		<path class="st0" d="M205.3,296.3c0.7-1.4,2.5-2.7,4.1-2c1.3-0.4,2.7,0.6,3.5,1.6c0.1,1.2,0.7,2.4,0.6,3.7
			c-0.6,1.2-1.6,2.1-2.7,2.8c-0.1-0.1-0.4-0.3-0.5-0.4c-0.8,0.7-1.5-0.2-2.3-0.4c-1.2-0.2-2-1.2-2.7-2.1
			C205.2,298.5,204.7,297.3,205.3,296.3z"/>
		<path class="st0" d="M294.5,295.9c0.7-1.1,2-1.4,3.1-1.9c0.1,0.1,0.4,0.2,0.5,0.3c1.6-0.7,3.4,0.6,4.2,2c0.6,1,0.1,2.2-0.1,3.3
			c-0.7,0.8-1.4,1.8-2.5,2c-0.7,0.1-1.3,0.5-1.8,0.8c-0.2-0.1-0.5-0.3-0.6-0.4c-0.6,0.6-1.2-0.1-1.6-0.4c-0.7-0.6-1.2-1.3-1.6-2
			c0-1.1,0-2.2,0.6-3.1C294.6,296.3,294.5,296,294.5,295.9z"/>
	</g>
	<g>
		<path class="st1" d="M245.8,324.6c1.6-1.3,3.8-1,5.8-1.1c2.7,0.1,5.8-0.3,8.2,1.2c1.2,0.8,2.4,2.3,2,3.8c-1.2,3.6-3.8,6.5-6.8,8.7
			c-0.7,0.2-1.3,0.4-2,0.6c-2.1-0.1-3.6-1.7-4.8-3.2c-1.5-2-3.2-4-3.6-6.5C244.2,326.8,244.7,325.3,245.8,324.6z"/>
	</g>
	<g>
		<path class="st2" d="M171.9,21.9c4.6-3.9,10.9-5.6,16.9-4.9c6.1,0.6,11.7,3.2,16.7,6.6c7.4,5.3,13.5,12.3,18.8,19.6
			c9.3,12.9,15.7,27.8,19.3,43.2c4.9,21.2,7,42.9,8.1,64.5c0.1,5.8,0.1,11.6,0,17.5c0.1,4.4-0.5,8.8-0.5,13.2
			c-0.4,5.7-0.7,11.4-1,17c-0.4,2.6-0.1,5.3-0.7,7.9c0-0.8,0-1.6,0-2.4c-4.5-0.2-9,0.7-13.4,1c0.3-5.8,0-11.6,0.5-17.4
			c0.1-5.7,0.1-11.4-0.2-17.1c0-10.2-0.9-20.4-1.9-30.6c-1.8-16.4-4.6-33.1-11.7-48.1c-3.7-7.7-7.9-15.3-14.6-20.8
			c-3-2.2-6.9-3.9-10.6-2.6c-3.6,1.4-5.6,5.1-6.7,8.6c-1.7,6.1-1.6,12.5-1.3,18.8c1.4,17.5,7.1,34.2,13.3,50.5
			c3.8,9.7,6.4,19.8,9.6,29.7c3.2,10.5,6.6,21,9.6,31.6c-2.5,0.6-5,1.2-7.5,1.8c-1.6,0.4-3.3,0.5-4.7,1.5
			c-2.4-8.3-5.6-16.3-8.8-24.3c-6.1-15.3-12.7-30.4-19-45.7c-7.1-17.5-14.3-35.1-18.8-53.4c-2.6-10-4.2-20.3-4.3-30.6
			c0.3-4.7,0.5-9.4,1.5-14C162,35.1,165.5,27.2,171.9,21.9z"/>
		<path class="st2" d="M296.6,101.1c10.2-0.8,20.2,1.6,30.1,3.1c9.9,1.9,20.2,3.2,29.2,8c5.3,2.8,9.4,7.5,12.4,12.6
			c4,6.6,6.5,14,8.7,21.4c2.9,10.3,5.5,20.8,6.5,31.5c0.7,8.5,0.7,17.2-1.7,25.4c-1.2,3.8-3,7.7-6.1,10.4c-3.2,2.9-7.8,3.7-11.8,2.8
			c-5.7-1.1-10.6-4.6-14.6-8.7c-6.3-6.2-11.3-13.6-16.5-20.7c-3.8-5-7.3-10.5-12.7-14c0.2,0,0.7,0,0.9,0c-2.8-3.6-6.1-6.9-8.8-10.6
			c-2.6-3.7-5.8-7-8.4-10.7c-1.5-2.2-3.3-4.3-4.9-6.5c-3.2-4.2-6-8.8-9.4-12.9c-1.7-2.4-2.9-5-4.2-7.6c-2.5-4.9-4.6-10-6.5-15.3
			C283.4,104.2,290,101.5,296.6,101.1z"/>
		<path class="st2" d="M263.6,158.5c1.8-13.2,4-26.5,9.2-38.9c2.1,6.3,5.8,12,9.3,17.6c0.5,0.9,1.3,1.7,2.1,2.3
			c-0.2,0.3-0.3,0.5-0.5,0.8c-3.7,6.5-6.1,13.6-8.1,20.7c-2.9,10.9-4.4,22.1-5.5,33.3c-0.3,3.5-0.7,7-0.6,10.5
			c-3.2-0.3-6.4-0.6-9.7-0.9c0-5.4,0.7-10.8,0.9-16.3C261.3,178,262.4,168.2,263.6,158.5z"/>
		<path class="st2" d="M308,169.1c0.1-0.1,0.2-0.3,0.3-0.4c2,2.4,4.5,4.3,6.6,6.5c-4.4,5.6-7.8,11.9-10.9,18.3
			c-2.7,5.8-5.3,11.7-7.6,17.7c-2.8-1.6-6.1-1.7-9.1-2.8c2.7-6.6,5.7-13.1,9.2-19.3C300.1,182.2,304.2,175.8,308,169.1z"/>
		<g>
			<path class="st2" d="M235.2,216.9c0-1.5,0.2-2.9,0.5-4.4c0,1.3,0,2.7,0.1,4c4.2-0.3,8.5-0.5,12.7-0.9c0.1-0.2,0.2-0.6,0.3-0.8
				c0.1,0.3,0.2,0.9,0.3,1.2c2.9-0.4,5.9-0.2,8.8,0c0.1-0.1,0.3-0.3,0.4-0.4c3.6,0.8,7.3,0.6,11,1.3c4.6,0.7,9.1,1.3,13.6,2.4
				c3,0.5,5.8,1.6,8.8,2.4c0.3-0.4,0.5-0.8,0.8-1.2c-0.4,1.5,1.3,1.8,2.3,2.2c4.4,1.4,8.7,3.1,12.8,5.1c4,1.5,7.5,4,11.3,5.8
				c3.2,2.3,6.7,4.2,9.8,6.8c1.6,0.6,2.3,2.2,3.7,2.9c1.3,0.7,1.9,2.3,3.3,2.9c2.9,3,6.1,5.8,8.6,9.2c1.4,1.2,2.1,3,3.5,4.2
				c3.4,5.1,6.8,10.2,9.1,15.9c2.3,4.8,3.6,10,4.9,15.2c0.5,2.5,0.9,5,1,7.6c0.5,4.1,0.5,8.3,0,12.3c0.1,3.8-0.9,7.5-1.8,11.2
				c-0.5,3-1.8,5.8-2.6,8.7c-0.6,1.8-1.6,3.4-2.2,5.2c-0.3,1-1,1.8-1.5,2.7c-0.9,1.6-1.4,3.4-2.7,4.8c-0.7,0.7-0.5,1.9-1.4,2.5
				c-1.3,1-1.7,2.7-2.8,3.8c-2.3,3-4.8,5.9-7.5,8.7c-1.1,0.8-1.6,2.2-2.8,2.9c-1,0.6-1.4,1.8-2.5,2.4c-2,1.3-3.5,3.3-5.6,4.4
				c-0.6,0.4-1.1,0.9-1.6,1.4c-4.1,2.7-8,5.7-12.4,7.7c-5.7,3.2-11.7,5.8-17.9,8c-0.5,0.2-1.2,0.2-1.6,0.7c0.8,0,1.6,0.1,2.4,0.1
				c-1.7,0.4-3.5,0-5.1,0.5c-3.6,1.1-7.2,2.1-10.8,2.8c-15.1,3.3-30.6,3.8-45.9,2.1c-4.5-0.7-9.1-1.2-13.5-2.4
				c-2.3-0.4-4.6-1.3-7-1.2c-0.5-0.4-1-0.8-1.6-1c-6.7-1.7-13-4.4-19.2-7.4c-2-0.7-3.6-2.1-5.6-2.8c-3.2-1.9-6.3-3.7-9.3-5.8
				c-0.9-0.9-2.3-1.1-3.1-2.2c-0.7-0.8-1.6-1.4-2.5-1.9c-0.9-0.7-1.4-1.8-2.5-2.2c-1.2-0.5-1.6-1.9-2.7-2.5c-1.3-0.6-1.8-2.1-3-2.8
				c-1.2-0.7-1.7-2.1-2.9-2.8c-3-3.5-6.2-7-8.6-11c-4.9-7.4-8.9-15.5-10.9-24.2c-2.6-9.1-2.5-18.7-1.4-28c1.1-6.7,3-13.4,6-19.5
				c0.5-1.3,1.1-2.6,1.9-3.8c1.7-3.7,4.1-7,6.3-10.3c1.4-1.4,2.3-3.2,3.8-4.5c0.7-1.2,1.6-2.1,2.7-3c0.7-1.1,1.6-1.9,2.6-2.7
				c1.6-1.9,3.7-3.3,5.4-5.1c0.8-1,2.5-1.2,3-2.5c1.5-1,3-2,4.4-3.2c2.4-2.5,5.3-4.5,8.4-5.8c0-0.2,0.1-0.5,0.2-0.6
				c3-1,5.6-3,8.5-4.2c3.7-1.6,7.4-3.4,11.3-4.6c1.9-0.5,3.8-1.4,5.7-1.9c2.9-0.6,5.7-1.7,8.7-2.1c1.2-0.2,2.4-0.5,3.5-0.8
				C228.3,217.5,231.8,216.9,235.2,216.9z M196.5,245.1c-4.7,2.2-9.4,4.6-13.2,8.1c-1.4,1.3-2.9,2.9-2.9,4.9
				c1.6-0.9,2.8-2.4,4.3-3.6c3.1-2.5,6.6-4.4,10.1-6.1c3-1.5,6.1-2.8,9.3-3.7c1.6-0.5,3.2-0.6,4.7-1.5c-0.3-0.5-0.5-1.3-1.3-1.2
				C203.6,241.8,200,243.6,196.5,245.1z M299.8,243.4c-0.2,0.4-0.3,0.8-0.5,1.2c1.7,1,3.7,1.1,5.6,1.8c5.8,2,11.4,4.6,16.5,8
				c2.3,1.4,4,3.6,6.1,5.1c0.1-0.8-0.1-1.7-0.6-2.4c-1.3-1.9-3-3.4-4.8-4.8c-4.2-3-8.9-5.3-13.7-7.3
				C305.7,244,302.7,243,299.8,243.4z M203.3,258.2c-0.6,0.4-1.2,0.8-1.9,0.9l0.1-0.7c-2.7,0.2-5.2,1.4-7.7,2.3
				c-3,1.4-5.8,3.2-8.5,5c-3,2.7-6.1,5.4-8.1,9c-4.7,6.8-7,15-6.7,23.2c0.4,7.8,3,15.5,7.9,21.6c2.2,3.8,5.8,6.5,9.6,8.6
				c1.7,0.7,3,2.2,4.7,2.8c2.1,0.9,4.2,2.1,6.5,2.5c1.9,0.4,3.7,1,5.6,1.2c2.2,0.3,4.4,0.1,6.6,0.4c7.6-0.5,15.2-3.1,21.3-7.8
				c2.5-1.4,4.4-3.7,6.5-5.8c2.1-2.8,4-5.7,5.6-8.8c2.7-6,4.1-12.7,3.5-19.3c-0.5-7.1-3-14.1-7.3-19.8c-1.6-2.9-4.2-4.9-6.4-7.2
				c-2.9-2.2-6-4-9.2-5.8c0,0.2,0.1,0.6,0.1,0.8c-1.6,0-2.7-1.3-4-2c-0.8,0.2-1.5-0.6-2.3-0.1c-0.4-0.3-0.7-0.6-1.1-0.9
				c-1.3,0.4-2.3-0.8-3.6-0.7c-0.9,0-1.9-0.5-2.7,0.2c-0.2-0.2-0.6-0.5-0.8-0.6c-0.3,0.2-0.6,0.4-0.9,0.6c-0.6-0.4-1.3-0.3-2-0.3
				c-0.2,0.1-0.5,0.3-0.7,0.5l-0.5-0.4C205.6,258.1,204.5,258.4,203.3,258.2z M293.3,257.9c-1.3-0.1-2.3,1-3.6,0.6
				c-0.4,0.3-0.8,0.6-1.1,1c-0.1-0.1-0.3-0.3-0.5-0.4c-0.6,0.3-1.1,0.5-1.8,0.4c-1.3,0.7-2.4,2-4,2c0-0.2-0.1-0.5-0.2-0.7
				c-2.4,1.4-4.8,2.6-7,4.3c-2.6,1.5-4.5,3.9-6.7,6c-2.1,2.7-3.8,5.6-5.5,8.5c-1.7,3.8-2.9,7.7-3.4,11.8c-1,7.3,0.3,14.9,3.4,21.6
				c1.6,2.9,3.3,5.6,5.3,8.3c1.2,1.3,2.5,2.5,3.7,3.7c1.3,1.4,3.1,2.1,4.5,3.4c4.9,3.3,10.6,5.5,16.5,6.3c1.7,0.1,3.3,0.5,5,0.2
				c3.1,0,6.2-0.2,9.2-1.2c2.9-0.4,5.5-1.8,8.1-3c1.5-0.6,2.6-1.8,4-2.5c1.5-0.7,2.8-1.8,4.2-2.7c3.4-2.4,5.6-5.9,7.9-9.2
				c6.3-10,7.6-23,3.1-34c-1.1-3.7-3.5-6.8-5.4-10c-2.1-2.5-4.4-4.9-7-7c-3.3-2.1-6.6-4.5-10.4-5.6c-1.8-0.8-3.7-1.3-5.7-1.6
				l0.1,0.7c-0.7-0.1-1.3-0.5-1.9-0.9c-0.8,0-1.6,0.1-2.3-0.2c-0.5-0.1-1.2-0.7-1.6,0.1c-0.2-0.1-0.5-0.3-0.7-0.5
				c-0.7,0-1.4,0-2,0.3c-0.3-0.2-0.6-0.4-1-0.6c-0.2,0.2-0.6,0.5-0.7,0.6C295.2,257.4,294.2,257.9,293.3,257.9z M245.8,324.6
				c-1.1,0.8-1.6,2.2-1.3,3.5c0.5,2.5,2.1,4.6,3.6,6.5c1.2,1.5,2.7,3.1,4.8,3.2c-0.4,0.6-0.4,1.4-0.5,2.1c-0.4,2.8-1.6,5.4-3,7.8
				c-1.6,2.4-3.4,5-6.2,6.1c-2.1,0.9-4.6,0.4-6.5-0.7c-2.6-1.5-5.2-3.5-6.4-6.3c-0.4-0.8-0.7-1.9-1.8-2.1c-0.3,1.5-0.1,3.1,0.6,4.5
				c1.6,3,4.4,5.1,7.4,6.5c2.6,1.2,5.8,1.2,8.3-0.2c3.5-1.8,5.5-5.4,7.4-8.6c0.6,2.8,1.9,5.5,4.4,7.2c2.3,1.9,5.7,2.7,8.3,1
				c4.1-2.5,7.4-7.4,6.4-12.4c-0.2-0.8-0.9-0.2-0.8,0.3c-0.4,2.6-1.2,5.3-3,7.3c-1.5,1.7-3.5,3.7-6,3.2c-2.7-0.8-4.9-3-5.9-5.6
				c-1.1-3.5-0.6-7.1-0.8-10.7c3-2.2,5.6-5.1,6.8-8.7c0.4-1.6-0.8-3-2-3.8c-2.4-1.6-5.4-1.2-8.2-1.2
				C249.7,323.6,247.5,323.3,245.8,324.6z"/>
		</g>
		<path class="st2" d="M350.1,357c3.6-1.4,7.5-0.9,11.2,0c1.4,0.6,2.7,1.3,3.8,2.4c1.6,2.1,2.8,4.8,2.7,7.6c-0.5,2.1-1.3,4-1.7,6.1
			c-0.3,1.4-1.5,2.2-2.2,3.4c-1.2,2.8-3,5.4-5.4,7.3c-0.5,0.5-0.8,1.1-1.2,1.7c-1.9,1.1-2.9,3.4-4.9,4.5c-1.7,0.9-2.6,2.8-4.5,3.4
			c-1.6,0.5-2.7,2-4.4,2.6c-3.5,2.9-7.9,3.9-11.7,6.2c-1.5,1-3.3,1.2-4.9,2.1c-1.1,0.6-2.3,1.1-3.5,1.7c-0.2-0.1-0.7-0.3-1-0.4
			c-1.9,0.8-3.7,2-5.7,2.4c-2.3,0.3-4.4,1.7-6.8,1.6c0.9,3,2.6,5.8,3.1,9c0.6,3.1,1.8,6,2.4,9.1c0.2,4.5,0.5,9.1,0.4,13.6
			c-0.1,4.6,0.3,9.4-1.1,13.9c1.7-0.9,3.6-1.2,5.5-1.5c4.9-1.2,10-1.8,15-1.7c2.3,0.1,4.5,0.6,6.7,1.3c1.5,0.6,3.3,0.6,4.7,1.5
			c1.3,0.8,2.6,1.5,3.9,2.2c1,1,2,2,2.9,3.1c0.5,1.9,0.7,4.4-0.8,6c-0.9,1.1-2.1,1.7-3.2,2.4c-1.5,0.8-2.9,1.8-4.6,2.1
			c-1.7,0.3-3.3,1.1-5.1,1.5c-4.4,1-8.8,0.4-13.3,0.6c-1.7,0.1-3.4,0.4-5.2,0.3c-2.6-0.2-5.3,0.1-7.9,0.2c-2.2,0.1-4.4-0.3-6.6-0.1
			c-2.5,0-5,0.2-7.5-0.1c-2.7-0.3-5.5,0.2-8.1-0.3c-2.1-0.4-4.2,0.2-6.2,0.4c-6.1,0-12.2,0.4-18.4,0.5c-2.9,0.7-5.8,0-8.7,0.6
			c-1.5,0.3-2.9-0.2-4.4,0.1c-1.4,0.2-2.7,0.3-4.1,0.2c-1.9-0.2-3.7,0.5-5.6,0.3c-2-0.3-3.9,0.3-5.9,0.1c-1.7-0.2-3.3,0.1-4.9,0.2
			c-3.9-0.5-7.8,0.7-11.8,0.9c-6,0.1-12,0.3-18,0c-6.8,0.2-13.5-0.8-20.1-2.3c-1.5-0.3-3-0.3-4.5-0.7c-2.5-0.7-4.7-2-7.2-2.6
			c-2.6-1.2-5-3.2-6-6c-0.6-2.1,0.5-4.2,1.6-5.9c1.4-2.6,4-4.2,6.5-5.5c2.5-1.5,5.4-1.6,8.1-2.2c3.6-0.7,7.3-0.4,11-0.1
			c2.8,0.5,5.7,0.7,8.4,1.9c0.1-2.5-0.6-5-0.3-7.5c0.2-2.3,0.3-4.6,0.7-6.8c0.6-2.9,0.5-6,1.2-8.9c0.7-3.1,0.3-6.3,1.4-9.3
			c0.4-1.4,0.6-2.9,0.9-4.4c-2.9-0.9-5.7-2-8.6-2.4c-3.5-0.7-6.5-3-10.1-3.1c-2.1-0.5-4-1.8-6.1-2.4c-2.3-0.7-4.2-2.2-6.5-2.8
			c-2-0.6-3.6-2.1-5.5-2.8c-1.7-0.7-2.8-2.4-4.6-2.8c-1.4-0.4-2.4-1.7-3.7-2.4c-1.5-0.8-2.6-2.2-4.1-3c-1.1-0.6-1.7-1.8-2.8-2.5
			c-1.2-0.7-1.6-2.1-2.8-2.8c-1.4-0.8-1.8-2.5-3.1-3.5c-1.8-2-3.5-4.1-4.2-6.7c-1.3-2.7-2-5.8-1.2-8.7c0.8-2.9,3.1-5.6,6.2-6
			c3.1-1.1,6.4-0.5,9.5,0.2c3,0.2,5.5,2,8.3,2.9c1.4,0.4,2.7,1.4,3.9,2.1c1.3,0.8,2.9,1,4.1,2c1.5,1.2,3.5,1.6,5,2.9
			c1.3,1,2.9,1.4,4.1,2.4c1.4,1.1,3.2,1.7,4.6,2.8c1.6,1.4,3.8,2,5.4,3.4c4,2.2,8.3,3.8,12.7,5.2c3.2,1,6.7,1.1,10.1,0.5
			c-0.1,0.1-0.3,0.4-0.4,0.6c2.4,1.8,5.2,3,7.8,4.6c5.8,3.2,12.3,4.8,18.6,6.7l0.4,0.1c-3.6,2.4-7.1,5.1-9.6,8.7
			c-3.8,5.3-5.8,11.7-6.3,18.2c-0.4,5,0.9,10,2.8,14.7c1.6,2.9,3,5.9,5.2,8.3c3.1,3.2,6.6,6.3,10.8,8.1c1.8,1.1,3.8,1.7,5.8,2.1
			c5.3,1.4,11,1.6,16.2,0c3.2-0.4,6-2,8.8-3.6c2.4-1.7,4.8-3.3,6.7-5.5c2.1-2.3,3.8-5,5.3-7.8c1-2.9,2.4-5.8,3-8.8
			c1-5.6,0.5-11.4-1.7-16.6c-2.2-6.9-7.1-12.8-13.1-16.6c-1.4-1.2-3.2-2.1-5-2.3l0.5-0.1c8.9-1.5,17.8-4.1,25.5-8.9
			c2.9-1.8,6-3.4,8.5-5.7l0.1-0.1c0.7-0.1,1.5-0.2,2.1-0.7c1.8-1.3,4.1-1.9,5.8-3.3c1-0.9,2.4-1.1,3.5-1.7c1.6-1,3.4-1.7,4.8-3
			c0.8-0.8,2.1-0.6,2.9-1.5c1.2-1.4,2.9-2.1,4.4-3.2c1-1,1.9-2.1,3.2-2.9c1.5-0.9,2.1-3,4-3.2c1.3-1.9,3.5-2.6,5.3-3.8
			c0.9-0.6,2-0.8,2.8-1.5C345.6,357.7,348,357.6,350.1,357z"/>
	</g>
	<path class="st3" d="M197.6,68.6c3.7-1.3,7.6,0.4,10.6,2.6c6.7,5.4,11,13.1,14.6,20.8c7.2,15,10,31.7,11.7,48.1
		c1,10.2,1.9,20.4,1.9,30.6c0.3,5.7,0.3,11.4,0.2,17.1c-0.4,5.8-0.1,11.6-0.5,17.4c0,0.1-0.1,0.3-0.1,0.4c-2.9,0-5.7,0.8-8.5,1.3
		c-1.8,0.3-3.6,0.8-5.4,1.4c0-0.1-0.1-0.4-0.2-0.5c-3-10.6-6.4-21-9.6-31.6c-3.2-9.9-5.8-20-9.6-29.7c-6.1-16.3-11.8-33.1-13.3-50.5
		c-0.3-6.3-0.4-12.7,1.3-18.8C191.9,73.7,193.9,70,197.6,68.6z"/>
	<path class="st3" d="M283.7,140.4c3.6,3.6,6.1,8.2,9.3,12.1c2.7,3.2,5.5,6.5,8.3,9.6c2.3,2.3,4.2,5,6.7,7.1
		c-3.8,6.7-8,13.1-11.4,19.9c-3.5,6.2-6.5,12.7-9.2,19.3c-0.1,0.1-0.2,0.4-0.2,0.6c-4.1-1.2-8.2-1.9-12.3-2.9
		c-1.8-0.4-3.6-0.4-5.4-0.4c0-0.2,0-0.6,0-0.8c-0.1-3.5,0.3-7,0.6-10.5c1.1-11.2,2.6-22.4,5.5-33.3
		C277.6,153.9,280,146.8,283.7,140.4z"/>
	<path class="st3" d="M261.7,400c3-0.4,6-0.4,8.9-1.2c1.9,0.3,3.6,1.1,5,2.3c6.1,3.9,10.9,9.7,13.1,16.6c2.2,5.2,2.7,11.1,1.7,16.6
		c-0.6,3.1-2,5.9-3,8.8c-1.5,2.8-3.2,5.4-5.3,7.8c-1.9,2.2-4.3,3.8-6.7,5.5c-2.8,1.6-5.6,3.1-8.8,3.6c-5.3,1.6-10.9,1.4-16.2,0
		c-2.1-0.3-4-1-5.8-2.1c-4.2-1.8-7.7-4.8-10.8-8.1c-2.3-2.4-3.7-5.4-5.2-8.3c-1.8-4.7-3.2-9.6-2.8-14.7c0.5-6.5,2.5-12.9,6.3-18.2
		c2.5-3.6,6-6.3,9.6-8.7c1.5,0.5,3.1,0.5,4.7,0.4C251.5,399.9,256.6,400.7,261.7,400z"/>
	<path class="st3" d="M195.1,424.2c1.5-1.8,3.3-3.6,5.7-3.8c-1.4,2.6-2.1,5.5-2.9,8.4c-1.4,5.4-2.1,10.9-2.4,16.4
		c-3.6,0.5-7.2,0.5-10.8,1.4c-3.9,0.8-7.5,2.3-11.1,4c0.2-1.5,1.1-2.7,2.1-3.8c0.8-0.9,0.9-2.1,1.2-3.2c0.5-2.2,2.1-3.9,3.4-5.7
		c1-1.5,3-1.8,4.5-2.5c-0.5-2.3-1-4.7,0-7c0.8-2.2,2.7-4.1,5.1-4.6C191.7,423.3,193.4,423.8,195.1,424.2z"/>
	<g>
		<path class="st4" d="M272.8,119.6c1.7-3.7,3.5-7.3,6.2-10.3c1.8,5.2,3.9,10.3,6.5,15.3c1.3,2.6,2.5,5.3,4.2,7.6
			c-2.1,2.3-4,4.7-5.6,7.4c-0.8-0.7-1.5-1.4-2.1-2.3C278.6,131.6,274.9,125.9,272.8,119.6z"/>
		<path class="st4" d="M308.3,168.7c1.4-2.1,2.7-4.3,4.1-6.4c2.7,3.7,5.9,7,8.8,10.6c-0.2,0-0.7,0-0.9,0c-2.1-0.6-3.9,0.9-5.3,2.3
			C312.8,172.9,310.3,171.1,308.3,168.7z"/>
		<path class="st4" d="M236.1,205.2c4.5-0.3,8.9-1.2,13.4-1c0,0.8,0,1.6,0,2.4c-0.2,2.7-0.4,5.5-0.7,8.2c-0.1,0.2-0.2,0.6-0.3,0.8
			c-4.2,0.4-8.4,0.6-12.7,0.9c0-1.3-0.1-2.7-0.1-4c0.3-2.3,0.1-4.6,0.3-6.9C236,205.5,236.1,205.3,236.1,205.2z"/>
		<path class="st4" d="M259.7,204c3.2,0.2,6.4,0.6,9.7,0.9c0,0.2,0,0.6,0,0.8c-0.1,3.7-0.1,7.5,0,11.2c-3.6-0.7-7.4-0.5-11-1.3
			c0.1-2.3,1-4.5,0.9-6.8C259.3,207.2,259.4,205.6,259.7,204z"/>
		<path class="st4" d="M214.4,209.6c2.5-0.6,5-1.1,7.5-1.8c0,0.1,0.1,0.4,0.2,0.5c1,3.3,1.7,6.7,2.8,9.9c-1.2,0.3-2.3,0.7-3.5,0.8
			c-3,0.4-5.8,1.5-8.7,2.1c-1.2-3.3-1.7-6.8-3-10.1C211.1,210.1,212.8,210,214.4,209.6z"/>
		<path class="st4" d="M287.4,208.3c3,1.1,6.3,1.2,9.1,2.8c-1.4,3.1-2.4,6.3-3.9,9.4c-0.3,0.4-0.5,0.8-0.8,1.2
			c-2.9-0.7-5.8-1.9-8.8-2.4c1.4-3.5,2.7-7,4.1-10.4C287.2,208.8,287.3,208.5,287.4,208.3z"/>
		<path class="st4" d="M298.5,385.9c2.3-0.3,4.3-1.5,6.6-1.9c-2.5,2.3-5.6,3.8-8.5,5.7c-7.7,4.8-16.6,7.5-25.5,8.9
			c-1.5-0.7-3-1.6-4.7-1.8c-2.9-0.4-5.8-1.1-8.8-1.1c-2.8-0.1-5.6,0.6-8.3,1.1c-2.9,0.5-5.3,2.4-8.1,3.1c-6.3-1.9-12.8-3.5-18.6-6.7
			c-2.6-1.5-5.4-2.8-7.8-4.6c0.1-0.1,0.3-0.4,0.4-0.6l0.7-0.3c2.4-0.1,4.7,0.8,7,1.2c4.4,1.2,9,1.7,13.5,2.4
			c15.3,1.7,30.9,1.1,45.9-2.1c3.7-0.6,7.3-1.7,10.8-2.8C295,385.9,296.8,386.3,298.5,385.9z"/>
	</g>
	<g>
		<path class="st5" d="M289.8,132.2c3.3,4.1,6.1,8.7,9.4,12.9c1.6,2.2,3.4,4.2,4.9,6.5c2.6,3.8,5.8,7,8.4,10.7
			c-1.3,2.2-2.6,4.3-4.1,6.4c-0.1,0.1-0.2,0.3-0.3,0.4c-2.5-2.1-4.4-4.7-6.7-7.1c-2.9-3.1-5.6-6.4-8.3-9.6
			c-3.2-3.9-5.8-8.4-9.3-12.1c0.2-0.3,0.3-0.6,0.5-0.8C285.7,136.9,287.7,134.4,289.8,132.2z"/>
		<path class="st5" d="M227.5,207c2.8-0.5,5.6-1.3,8.5-1.3c-0.2,2.3,0.1,4.6-0.3,6.9c-0.3,1.4-0.5,2.9-0.5,4.4
			c-3.5,0-6.9,0.6-10.3,1.4c-1.1-3.3-1.8-6.6-2.8-9.9C223.9,207.8,225.7,207.3,227.5,207z"/>
		<path class="st5" d="M269.4,205.7c1.8-0.1,3.6-0.1,5.4,0.4c4.1,1,8.3,1.7,12.3,2.9c-1.4,3.4-2.7,6.9-4.1,10.4
			c-4.5-1.1-9.1-1.7-13.6-2.4C269.3,213.2,269.3,209.4,269.4,205.7z"/>
	</g>
	<g>
		<path class="st6" d="M196.5,245.1c3.5-1.5,7.1-3.3,11-3.1c0.8-0.1,1,0.7,1.3,1.2c-1.4,0.9-3.1,1-4.7,1.5c-3.2,1-6.3,2.2-9.3,3.7
			c-3.5,1.7-7,3.6-10.1,6.1c-1.5,1.2-2.6,2.6-4.3,3.6c0-2.1,1.5-3.6,2.9-4.9C187.1,249.6,191.8,247.3,196.5,245.1z"/>
		<path class="st6" d="M299.8,243.4c3-0.4,5.9,0.6,8.6,1.7c4.8,2,9.5,4.2,13.7,7.3c1.8,1.4,3.6,2.9,4.8,4.8c0.5,0.7,0.7,1.5,0.6,2.4
			c-2.2-1.6-3.9-3.7-6.1-5.1c-5.1-3.4-10.7-6.1-16.5-8c-1.8-0.7-3.9-0.8-5.6-1.8C299.5,244.2,299.6,243.8,299.8,243.4z"/>
	</g>
	<g>
		<g>
			<path class="st7" d="M203.3,258.2c1.2,0.1,2.3-0.1,3.4-0.5l0.5,0.4c0.2-0.1,0.5-0.3,0.7-0.5c0.7,0,1.4,0,2,0.3
				c0.3-0.2,0.6-0.4,0.9-0.6c0.2,0.2,0.6,0.5,0.8,0.6c0.7-0.7,1.8-0.2,2.7-0.2c1.3-0.1,2.3,1,3.6,0.7c0.4,0.3,0.7,0.6,1.1,0.9
				c0.7-0.5,1.5,0.3,2.3,0.1c1.3,0.7,2.4,2,4,2c1,0.8,1.9,1.6,2.8,2.5c0.2,0,0.5-0.1,0.6-0.1c1.6,1.6,3.4,3.1,4.8,4.9
				c0.7,1.4,1.8,2.5,2.8,3.7c0,0.2-0.1,0.5-0.2,0.7c0.7,1.1,1.5,2.1,2.1,3.3c0,0.4,0.1,0.9,0.1,1.3c0,0.2,0,0.5,0,0.7
				c0.3,0.5,0.7,1,1,1.5c-0.1,0.1-0.4,0.4-0.5,0.5c0.3,0.5,0.6,0.9,0.9,1.4c0,0.2-0.1,0.7-0.2,0.9c0.6,1.4,0.2,2.9,0.6,4.3
				c0.2,1.8-0.8,3.6-0.5,5.4c-0.1,0.2-0.4,0.7-0.5,0.9c0.1,0.1,0.3,0.5,0.4,0.6c-1,1.9-1.4,4.1-2.5,6c0,0.2,0.1,0.5,0.2,0.6
				c-0.8,0.9-1.4,2-2.2,2.8c0.1,0.8-0.5,1.5-1,2.1c-2.1,2.5-4.5,4.8-7.1,6.8c-0.2,0-0.5-0.1-0.6-0.1c-1.7,1.8-4.1,2.2-6,3.7
				c-0.2,0-0.5-0.1-0.7-0.1c-0.4,0.1-0.8,0.2-1.2,0.3c-1.2,0.9-2.7,0.3-3.8,1.2c-0.8-0.3-1.6-0.2-2.4-0.1c-1.7,0.2-3.4-0.1-5.1,0
				c-1.1-0.7-2.4-0.2-3.5-0.9c-0.9-0.2-1.7-0.3-2.6-0.4c-0.7-0.5-1.4-0.9-2.1-1.2c-1,0.1-1.7-0.7-2.5-1.3c-1.6-0.3-2.7-1.7-4.3-2
				c-2.6-2.2-4.9-4.7-7.3-7.2c0-0.2,0.1-0.5,0.1-0.6c-0.4-0.5-0.7-1-1-1.5c0-1.2-1-2.1-1.6-3.1c-0.4-0.9-0.6-1.9-1.1-2.8
				c-0.2-1.5-0.7-2.9-0.9-4.4c-0.1-0.6-0.3-1.2-0.4-1.8c0-1.1-0.1-2.2,0.4-3.1c-0.2-0.3-0.5-0.9-0.6-1.2c0.1-0.2,0.4-0.5,0.6-0.7
				c-0.1-0.2-0.4-0.5-0.5-0.6c0.2-0.6,0.4-1.2,0.7-1.8c0-0.1-0.1-0.4-0.1-0.5c0.2-1.3,0.7-2.6,1.2-3.8c-0.3-0.7,0.3-1.3,0.7-1.8
				c-0.1-0.1-0.2-0.3-0.3-0.4c0.4-0.7,0.8-1.4,0.9-2.2c1.2-1.5,2.3-3.2,3.3-4.9c1.1-1.4,2.5-2.6,3.7-3.9c1.8-2.1,4.6-2.9,6.6-4.8
				c0.8-0.1,1.6-0.5,2.3-1c0.1,0.1,0.3,0.3,0.4,0.4c0.2-0.2,0.6-0.6,0.8-0.8c0.4,0,0.8,0.1,1.3,0C202.1,259,202.7,258.6,203.3,258.2
				z M208.9,269.4l0-0.6c-1.5,1.2-3.7,2.4-3.9,4.5c-0.2,0.5-0.5,0.9-0.7,1.4c0.2,1,0.2,2,0.1,3.1c0.4,0.9,1.1,1.7,1.7,2.6
				c-1.2,0-2.2,0.7-3,1.5c-1.5,1.5-3.3,2.9-4.2,4.9c-0.6,1.3-1.9,2.3-2.3,3.8c-0.5,2.7-2.1,5.4-1.4,8.2c0,6.4,5.6,12.3,12,12.5
				c2.3-0.2,4.5-0.6,6.8-1.1c1.5-0.5,2.9-1.2,4.3-1.8c2.2-1.9,5-3.1,6.5-5.6c1-1.8,2.7-3.2,3.1-5.3c1.1-1.9,1.3-4,1.7-6.1
				c0-2.8-0.1-5.9-1.7-8.3c-1.7-3.5-5.4-5.2-8.7-6.6c0.2-0.8-0.1-1.6-0.4-2.4c-0.7-3.1-3.7-5.4-6.7-5.8c-0.2,0.1-0.5,0.2-0.6,0.3
				c-0.1-0.1-0.4-0.3-0.5-0.4C210.3,268.5,209.6,268.9,208.9,269.4z"/>
		</g>
		<g>
			<path class="st7" d="M293.3,257.9c0.9,0,1.9-0.5,2.7,0.2c0.2-0.2,0.6-0.5,0.7-0.6c0.3,0.2,0.6,0.4,1,0.6c0.6-0.3,1.3-0.3,2-0.3
				c0.2,0.1,0.5,0.3,0.7,0.5c0.3-0.8,1-0.2,1.6-0.1c0.7,0.2,1.6,0.2,2.3,0.2c0.6,0.4,1.2,0.8,1.9,0.9c0.4,0.1,0.8-0.1,1.3,0
				c0.2,0.2,0.5,0.5,0.7,0.7c1-0.2,1.8,0.6,2.8,0.8c1.5,1.2,3.1,2.2,4.7,3.1c1.5,1.1,2.6,2.6,4,3.8c2.1,1.8,2.9,4.6,4.9,6.6
				c0,0.1,0,0.4-0.1,0.6c0.3,0.5,0.6,1.1,0.9,1.6c-0.1,0.1-0.3,0.4-0.3,0.5c0.3,0.3,0.7,0.7,1,1.1c-0.1,0.2-0.3,0.5-0.3,0.7
				c0.7,1.3,1.3,2.8,1.3,4.4c0.6,1,0.3,2.1,0.5,3.2c-0.7,1.4,0.2,2.8-0.1,4.3c-0.1,0.6-0.3,1.2-0.4,1.8c-0.2,1.5-0.7,2.9-0.9,4.4
				c-0.7,1.1-0.7,2.6-1.6,3.6c-0.9,1.1-1,2.7-2,3.8c0,0.2,0.1,0.5,0.1,0.6c-2.3,2.4-4.5,4.8-7,6.9c-1.6,0.6-2.9,1.9-4.6,2.3
				c-0.6,0.4-1.2,0.9-1.7,1.4c-0.2-0.1-0.5-0.2-0.7-0.2c-0.7,0.4-1.4,0.9-2.1,1.3c-0.9,0.1-1.8,0.2-2.7,0.3
				c-0.2,0.2-0.7,0.5-0.9,0.7c-0.3-0.1-0.6-0.3-1-0.4c-0.5,0.2-1,0.4-1.5,0.7c-1.7-0.2-3.5,0.2-5.2-0.1c-0.8-0.1-1.6-0.3-2.4,0.1
				c-0.5-0.3-1-0.6-1.4-0.9c-0.2,0.1-0.6,0.3-0.8,0.4c-0.5-0.3-1-0.6-1.5-0.9c-0.7-0.1-1.3-0.1-2-0.1c-1.9-1.4-4.3-1.9-6-3.6
				c-0.1,0-0.5,0.1-0.6,0.2c-2.9-2.3-5.7-4.8-7.8-7.8c-0.4-1.6-1.6-2.7-2.5-3.9c0-0.2,0.1-0.5,0.2-0.6c-1.1-1.9-1.5-4.1-2.5-6
				c0.1-0.1,0.3-0.4,0.4-0.6c-0.1-0.2-0.4-0.7-0.5-0.9c0.3-2.1-0.9-4-0.4-6.1c0.2-1.2,0-2.5,0.5-3.7c0-0.2-0.1-0.7-0.2-0.9
				c0.3-0.5,0.6-0.9,0.9-1.4c-0.1-0.1-0.4-0.4-0.5-0.6c0.3-0.5,0.7-1,1-1.5c0-0.2,0-0.5,0-0.7c0.1-1.8,1.3-3.2,2.2-4.6
				c0-0.2-0.1-0.5-0.2-0.7c1-1.2,2.1-2.3,2.8-3.7c1.3-1.9,3.2-3.3,4.8-4.9c0.2,0,0.5,0.1,0.6,0.1c0.9-0.9,1.9-1.7,2.9-2.5
				c1.6,0,2.6-1.3,4-2c0.6,0.1,1.2-0.1,1.8-0.4c0.1,0.1,0.3,0.3,0.5,0.4c0.4-0.3,0.7-0.7,1.1-1C291,258.9,292,257.8,293.3,257.9z
				 M292.2,269.4c-1.6,1.1-3.2,2.7-3.5,4.7c-0.3,0.8-0.6,1.6-0.4,2.4c-2.5,1.1-5.2,2.1-7.1,4.2c-2,2.3-3.4,5.3-3.3,8.3
				c-0.3,2.2,0.2,4.4,0.7,6.5c0.7,1.2,1.1,2.6,1.7,3.8c2,2.5,3.5,5.5,6.4,7.1c1.2,0.5,1.9,1.7,3.1,2.2c1.1,0.5,2.3,1,3.4,1.4
				c2.2,0.6,4.5,0.7,6.7,1.2c6.4-0.1,12.2-5.7,12.3-12.1c0.2-1.5,0.3-3.1-0.2-4.6c-0.8-2.3-1-4.9-2.8-6.7c-1.4-2.7-3.6-4.8-5.9-6.9
				c-0.6-0.5-1.4-0.5-2.1-0.7c0.6-0.8,1.2-1.6,1.6-2.6c-0.1-1-0.1-2.1,0.1-3.1c-0.5-0.7-0.6-1.6-0.9-2.4c-0.8-1.3-1.9-2.3-3.2-3.1
				c-1.1,0.2-2.1-1.4-3.1-0.6c-0.1-0.1-0.4-0.3-0.6-0.4C294.4,268.8,293.1,268.6,292.2,269.4z"/>
		</g>
	</g>
	<g>
		<g>
			<path class="st8" d="M219.3,276.5c3.4,1.4,7.1,3.1,8.7,6.6c1.6,2.5,1.7,5.5,1.7,8.3c-0.3,2.1-0.5,4.3-1.7,6.1
				c-0.5,2.1-2.2,3.4-3.1,5.3c-1.6,2.5-4.4,3.8-6.5,5.6c-1.4,0.6-2.9,1.3-4.3,1.8c-2.2,0.4-4.5,0.8-6.8,1.1
				c-6.4-0.2-12.1-6.1-12-12.5c-0.7-2.9,0.9-5.5,1.4-8.2c0.4-1.5,1.7-2.4,2.3-3.8c0.9-2,2.7-3.4,4.2-4.9c0.8-0.9,1.8-1.6,3-1.5
				c0.5,1,1.2,1.8,2.2,2.2c1.6,1.2,3.9,1.5,5.8,0.6c0.1,0,0.4,0.1,0.6,0.1c1.5-1.1,2.8-2.3,3.8-3.8
				C218.7,278.5,219,277.5,219.3,276.5z M205.3,296.3c-0.6,1-0.1,2.2,0.1,3.3c0.7,0.9,1.5,1.9,2.7,2.1c0.8,0.1,1.5,1.1,2.3,0.4
				c0.1,0.1,0.4,0.3,0.5,0.4c1.1-0.7,2.1-1.6,2.7-2.8c0.2-1.3-0.5-2.4-0.6-3.7c-0.8-1-2.3-2-3.5-1.6
				C207.8,293.6,206,294.9,205.3,296.3z"/>
		</g>
		<g>
			<path class="st8" d="M281.2,280.7c1.8-2.1,4.6-3.1,7.1-4.2c0.2,1,0.5,2,0.7,3c1,1.5,2.3,2.8,3.8,3.8c0.1,0,0.4-0.1,0.6-0.1
				c2.9,1.3,6.6-0.2,8-2.9c0.7,0.2,1.5,0.1,2.1,0.7c2.2,2,4.5,4.1,5.9,6.9c1.8,1.8,1.9,4.4,2.8,6.7c0.5,1.5,0.4,3.1,0.2,4.6
				c-0.1,6.4-5.9,12.1-12.3,12.1c-2.2-0.4-4.5-0.6-6.7-1.2c-1.2-0.4-2.3-1-3.4-1.4c-1.2-0.5-2-1.6-3.1-2.2c-2.9-1.5-4.4-4.6-6.4-7.1
				c-0.6-1.3-1-2.6-1.7-3.8c-0.5-2.1-1-4.3-0.7-6.5C277.8,286,279.1,283,281.2,280.7z M294.5,295.9c0,0.1,0.1,0.4,0.2,0.5
				c-0.7,0.9-0.6,2-0.6,3.1c0.4,0.7,0.9,1.5,1.6,2c0.5,0.3,1.1,1,1.6,0.4c0.2,0.1,0.5,0.3,0.6,0.4c0.6-0.4,1.2-0.7,1.8-0.8
				c1.1-0.2,1.8-1.2,2.5-2c0.2-1.1,0.7-2.3,0.1-3.3c-0.8-1.4-2.6-2.7-4.2-2c-0.1-0.1-0.4-0.2-0.5-0.3
				C296.5,294.5,295.2,294.8,294.5,295.9z"/>
		</g>
	</g>
	<g>
		<path class="st9" d="M252.9,337.8c0.7-0.2,1.3-0.4,2-0.6c0.2,3.6-0.2,7.2,0.8,10.7c1,2.6,3.2,4.8,5.9,5.6c2.5,0.5,4.5-1.5,6-3.2
			c1.8-2,2.5-4.7,3-7.3c0-0.6,0.6-1.1,0.8-0.3c1,5-2.3,9.8-6.4,12.4c-2.6,1.7-6.1,0.9-8.3-1c-2.4-1.6-3.7-4.4-4.4-7.2
			c-1.9,3.3-3.9,6.9-7.4,8.6c-2.5,1.5-5.7,1.5-8.3,0.2c-3-1.5-5.9-3.5-7.4-6.5c-0.8-1.4-1-3-0.6-4.5c1,0.2,1.3,1.3,1.8,2.1
			c1.2,2.8,3.8,4.8,6.4,6.3c1.9,1.1,4.4,1.6,6.5,0.7c2.8-1.1,4.6-3.7,6.2-6.1c1.4-2.4,2.7-5,3-7.8
			C252.6,339.2,252.5,338.4,252.9,337.8z"/>
	</g>
	<g>
		<path class="st10" d="M249.4,396.8c2.8-0.5,5.5-1.1,8.3-1.1c3-0.1,5.8,0.7,8.8,1.1c1.7,0.2,3.2,1.1,4.7,1.8l-0.5,0.1
			c-2.9,0.8-5.9,0.8-8.9,1.2c-5.1,0.7-10.2-0.1-15.3,0.4c-1.6,0.1-3.2,0.1-4.7-0.4l-0.4-0.1C244.1,399.2,246.5,397.3,249.4,396.8z"
			/>
		<path class="st10" d="M200.8,420.4c1-0.1,2-0.2,3-0.3c-1.1,3-0.7,6.2-1.4,9.3c-0.7,2.9-0.6,5.9-1.2,8.9c-0.4,2.2-0.5,4.5-0.7,6.8
			c-0.2,2.5,0.4,5,0.3,7.5c-2.6-1.2-5.6-1.4-8.4-1.9c-3.7-0.3-7.4-0.5-11,0.1c-2.8,0.5-5.7,0.7-8.1,2.2c-0.2-0.8,0-1.6,0.3-2.4
			c3.5-1.7,7.2-3.2,11.1-4c3.5-0.8,7.2-0.9,10.8-1.4c0.4-5.5,1-11.1,2.4-16.4C198.7,425.9,199.4,423,200.8,420.4z"/>
	</g>
</g>
</svg>
