<?xml version="1.0" standalone="no"?>
<!DOCTYPE svg PUBLIC "-//W3C//DTD SVG 20010904//EN"
 "http://www.w3.org/TR/2001/REC-SVG-20010904/DTD/svg10.dtd">
<svg version="1.0" xmlns="http://www.w3.org/2000/svg"
 width="700.000000pt" height="700.000000pt" viewBox="0 0 700.000000 700.000000"
 preserveAspectRatio="xMidYMid meet">
<metadata>
Created by potrace 1.11, written by Peter Selinger 2001-2013
</metadata>
<g transform="translate(0.000000,700.000000) scale(0.100000,-0.100000)"
fill="#000000" stroke="none">
<path d="M5658 5471 c-77 -49 -171 -171 -227 -292 -108 -238 -250 -679 -361
-1119 -28 -113 -54 -210 -58 -216 -84 -134 -155 -214 -263 -295 -37 -27 -69
-49 -71 -49 -3 0 3 30 14 68 11 37 26 90 33 117 7 28 32 117 54 200 23 82 58
211 77 285 21 84 44 149 60 172 54 77 -14 97 -85 26 -79 -80 -143 -211 -241
-494 -62 -179 -170 -355 -285 -462 -74 -69 -118 -84 -148 -49 -26 30 -19 81
52 371 33 133 62 253 64 266 3 14 13 54 22 90 9 36 19 74 21 85 2 11 12 54 21
95 22 93 19 128 -11 142 -50 22 -83 -19 -160 -200 -64 -153 -92 -235 -127
-379 -72 -300 -196 -498 -322 -518 -25 -4 -40 -1 -52 11 -23 23 -16 59 45 242
58 175 104 387 97 454 -2 27 -22 84 -47 135 -23 48 -55 127 -70 175 -26 83
-27 89 -13 133 19 56 11 104 -22 138 -76 75 -189 5 -188 -116 0 -49 16 -87 66
-159 17 -25 5 -54 -157 -393 -95 -197 -149 -293 -222 -390 -103 -139 -186
-204 -241 -190 -25 6 -34 28 -34 82 -1 126 119 554 238 847 24 60 42 115 39
123 -13 32 -95 4 -146 -51 -19 -20 -52 -62 -72 -93 l-37 -56 -6 29 c-13 57
-28 84 -66 118 -70 64 -163 69 -277 15 -130 -62 -271 -240 -339 -429 -15 -41
-32 -78 -39 -83 -7 -4 -22 -31 -32 -60 -37 -99 -164 -337 -242 -455 -83 -125
-153 -202 -208 -228 -52 -25 -66 -13 -59 49 6 58 67 247 129 401 52 130 179
495 228 656 60 194 90 317 115 463 11 66 8 241 -6 287 -32 113 -113 135 -216
61 -89 -65 -275 -349 -430 -657 -48 -95 -88 -172 -89 -171 -2 1 4 29 12 62
104 447 85 778 -49 813 -79 21 -150 -27 -278 -188 -129 -163 -286 -456 -445
-833 -31 -73 -62 -145 -69 -162 -7 -16 -24 -59 -38 -95 -35 -87 -33 -64 4 83
17 67 32 129 34 137 2 8 27 105 55 215 28 110 53 207 55 215 2 12 104 414 132
525 3 11 7 43 10 72 5 47 2 54 -22 78 -30 27 -55 31 -86 15 -21 -12 -48 -59
-55 -97 -3 -14 -11 -53 -19 -87 -8 -33 -16 -72 -19 -86 -4 -22 -71 -329 -81
-370 -2 -8 -11 -46 -19 -85 -9 -38 -18 -79 -20 -90 -3 -11 -26 -114 -51 -230
-51 -238 -54 -252 -60 -280 -3 -11 -27 -121 -54 -245 -27 -124 -52 -237 -55
-250 -3 -14 -7 -34 -9 -45 -44 -194 -49 -228 -36 -236 47 -29 79 14 104 141
11 53 24 94 82 255 139 381 249 645 404 960 155 315 244 463 337 553 92 90
160 108 189 51 15 -29 16 -139 2 -194 -5 -22 -12 -51 -15 -65 -3 -14 -32 -128
-64 -255 -60 -231 -78 -293 -190 -660 -33 -110 -62 -207 -65 -215 -2 -8 -17
-58 -33 -110 -42 -136 -122 -425 -122 -442 0 -38 47 -65 81 -47 42 21 180 354
309 739 91 274 230 571 444 950 86 152 165 247 241 291 62 36 81 36 92 2 20
-57 -9 -163 -193 -723 -177 -539 -250 -843 -252 -1047 -1 -90 2 -115 18 -140
58 -96 195 -5 358 239 52 78 192 321 192 335 0 4 6 15 13 24 10 14 13 2 13
-66 0 -46 7 -105 14 -131 17 -64 73 -149 108 -163 115 -48 269 51 411 267 30
45 55 82 56 82 1 0 1 -33 0 -72 -2 -194 57 -318 152 -318 42 0 143 64 219 140
36 36 96 112 134 170 38 58 76 112 84 120 7 8 25 42 39 75 14 33 62 137 106
230 44 94 89 187 99 208 l17 38 38 -37 c51 -51 91 -135 84 -177 -3 -17 -18
-61 -35 -97 -88 -194 -133 -353 -135 -480 -2 -162 45 -229 153 -220 86 7 199
117 274 265 20 39 36 66 36 60 1 -5 2 -39 4 -75 4 -80 37 -161 79 -196 41 -34
97 -29 172 17 57 34 165 136 210 198 30 42 31 37 4 -59 -31 -111 -33 -115 -86
-145 -180 -105 -340 -230 -437 -344 -40 -47 -89 -137 -117 -212 -32 -89 -32
-216 -1 -276 44 -84 127 -127 216 -110 104 19 186 83 271 212 99 151 153 276
265 613 l78 234 69 46 c39 26 91 65 118 87 26 22 50 42 54 45 4 3 24 26 45 53
21 26 40 46 42 44 2 -2 -8 -66 -21 -142 -26 -146 -32 -240 -15 -250 6 -3 23 8
39 26 30 33 42 55 175 331 81 169 100 191 141 164 40 -26 55 -69 60 -169 6
-114 12 -156 36 -224 22 -66 64 -122 103 -138 37 -16 100 1 151 39 46 36 148
162 195 242 l39 66 6 -38 c25 -149 94 -254 192 -293 57 -23 171 -16 265 16
178 62 305 186 420 413 38 76 44 116 15 105 -7 -3 -32 -45 -56 -93 -60 -121
-100 -178 -181 -260 -50 -49 -93 -81 -148 -108 -71 -36 -83 -39 -162 -39 -73
0 -90 3 -118 23 -50 36 -66 75 -66 167 -1 88 9 172 25 223 l11 33 34 -31 c55
-48 99 -62 184 -58 92 4 152 32 224 103 165 164 186 420 44 540 -43 36 -73 47
-134 47 -106 1 -232 -59 -320 -153 -113 -119 -179 -247 -215 -412 -43 -198
-221 -459 -326 -480 -43 -8 -47 3 -48 155 0 133 -2 147 -26 199 -24 51 -91
129 -111 129 -4 0 -8 4 -8 9 0 4 21 11 48 14 159 21 261 63 335 140 109 113
128 285 42 372 -44 44 -91 53 -150 30 -99 -37 -287 -263 -415 -497 -23 -43
-44 -78 -46 -78 -8 0 28 160 77 335 28 103 44 141 114 270 96 177 290 569 332
670 67 160 87 229 87 297 0 69 -13 86 -71 92 -34 3 -52 -2 -85 -23z m117 -84
c-9 -66 -49 -205 -80 -272 -7 -16 -22 -52 -33 -80 -11 -27 -30 -72 -43 -100
-12 -27 -23 -52 -24 -55 -5 -22 -223 -440 -236 -454 -17 -19 97 331 183 559
49 132 96 260 105 283 20 61 61 133 86 155 19 17 22 17 33 3 6 -9 10 -26 9
-39z m746 -1046 c60 -29 75 -112 39 -217 -57 -169 -134 -285 -213 -323 -79
-38 -183 -22 -224 34 l-20 28 22 56 c65 162 151 314 213 374 60 59 125 76 183
48z m-3719 -13 c68 -48 85 -151 43 -253 -14 -33 -39 -109 -56 -170 -35 -126
-56 -171 -147 -310 -142 -217 -297 -312 -348 -213 -27 53 -3 191 70 406 100
294 216 498 311 550 33 19 94 14 127 -10z m2906 -4 c20 -13 22 -21 16 -62 -9
-71 -70 -177 -144 -252 -77 -77 -158 -120 -242 -128 l-59 -5 26 49 c60 113
192 303 244 351 66 61 118 76 159 47z m-1288 -1057 c0 -6 -5 -28 -11 -47 -5
-19 -12 -44 -14 -56 -10 -48 -105 -366 -133 -447 -52 -150 -109 -229 -193
-271 -174 -86 -287 114 -187 332 74 161 187 277 423 434 106 71 115 75 115 55z"/>
<path d="M4445 5138 c-55 -31 -63 -110 -16 -152 40 -36 112 -22 137 26 42 81
-43 170 -121 126z"/>
<path d="M5114 5138 c-25 -12 -44 -48 -44 -84 0 -89 125 -122 165 -43 23 43
18 77 -14 110 -31 31 -68 37 -107 17z"/>
<path d="M222 2192 c-25 -3 -32 -7 -28 -20 3 -9 26 -98 51 -197 26 -99 63
-245 84 -325 l37 -145 55 -3 54 -3 86 343 c93 372 92 362 25 349 -33 -7 -26
14 -105 -326 -22 -99 -46 -198 -52 -220 l-12 -40 -28 125 c-85 371 -106 452
-120 459 -7 4 -29 5 -47 3z"/>
<path d="M1292 2186 c-6 -11 -10 -654 -4 -673 3 -10 45 -13 163 -13 l159 0 0
35 c0 39 13 36 -157 37 l-73 0 0 122 0 121 92 0 92 0 4 37 3 36 -68 0 c-37 0
-80 0 -95 1 l-28 1 0 115 0 115 110 0 c81 0 110 3 111 13 0 6 2 22 3 35 2 12
-2 22 -8 23 -107 5 -299 2 -304 -5z"/>
<path d="M2255 2192 c-3 -3 -5 -160 -5 -349 l0 -343 45 0 c29 0 45 4 46 13 0
6 1 73 2 147 l2 135 40 1 c40 1 40 0 69 -65 17 -36 47 -103 68 -148 l37 -83
50 0 c44 0 49 2 43 18 -32 70 -50 109 -93 193 l-48 97 39 27 c49 34 80 98 80
166 0 90 -49 157 -131 179 -41 11 -235 20 -244 12z m226 -92 c34 -16 49 -49
49 -108 0 -89 -46 -130 -145 -127 l-40 1 -1 128 -1 128 56 -5 c31 -2 68 -10
82 -17z"/>
<path d="M3305 2192 c-3 -3 -5 -160 -5 -349 l0 -343 45 0 c29 0 45 4 46 13 0
6 0 71 0 143 -1 142 -1 141 54 140 28 -1 33 -7 96 -146 l66 -145 51 -3 52 -3
-12 28 c-7 15 -41 86 -75 156 -35 70 -63 130 -63 133 0 2 6 4 14 4 25 0 85 70
97 113 17 63 5 142 -27 184 -42 55 -95 73 -223 77 -61 2 -113 1 -116 -2z m227
-92 c65 -31 68 -173 5 -215 -23 -15 -110 -27 -133 -18 -8 3 -12 46 -12 129 l0
125 57 -4 c31 -2 68 -10 83 -17z"/>
<path d="M4354 2191 c-2 -2 -4 -159 -4 -348 l0 -343 164 0 163 0 -3 32 c-2 17
-6 33 -9 36 -2 2 -53 5 -112 6 l-108 1 -2 120 -1 120 91 0 92 0 3 37 3 37 -68
0 c-37 -1 -80 -1 -94 0 l-27 1 2 113 1 112 106 3 107 3 5 32 c2 18 4 33 3 34
-3 4 -308 8 -312 4z"/>
<path d="M5363 2192 c-53 -3 -53 -3 -53 -36 0 -40 5 -42 93 -41 l67 2 0 -309
0 -308 45 0 c36 0 45 4 46 18 0 9 1 148 2 307 l2 290 70 1 c39 1 73 2 76 3 4
1 9 17 11 36 l4 34 -156 3 c-85 2 -179 2 -207 0z"/>
<path d="M6365 1845 l0 -346 45 3 45 3 0 158 0 157 30 1 c35 1 164 1 183 0 9
-1 12 -40 12 -161 l0 -160 45 0 45 0 0 345 0 345 -45 0 -45 0 0 -145 0 -145
-50 -1 c-27 0 -66 -1 -85 -1 -19 0 -47 1 -63 1 l-27 1 1 145 1 145 -46 0 -46
0 0 -345z"/>
</g>
</svg>
