<?xml version="1.0" encoding="utf-8"?>
<!-- Generator: Adobe Illustrator 23.0.2, SVG Export Plug-In . SVG Version: 6.00 Build 0)  -->
<svg version="1.1" id="Layer_1" xmlns="http://www.w3.org/2000/svg" xmlns:xlink="http://www.w3.org/1999/xlink" x="0px" y="0px"
	 width="1400px" height="1400px" viewBox="0 0 1400 1400" style="enable-background:new 0 0 1400 1400;" xml:space="preserve">
<style type="text/css">
	.st0{fill:#F39200;}
	.st1{fill:#FFFFFF;}
	.st2{fill:#EE7796;}
	.st3{fill:#43271B;}
	.st4{fill:#3F2619;}
	.st5{fill:#332F2D;}
	.st6{fill:#271F1F;}
</style>
<g id="Voorpoot_voor">
	<path class="st0" d="M768.5,1193.9l63.4-383.7c0,0,165.9-67.4,171.7,81.8c1.2,31.3-5.5,62.2-18.6,90.6
		c-50.6,107.8-135,213.7-135,213.7l-5.3,172.6c0,0,25.8-8.6,33.5,11s7.7,19.6,7.7,19.6l-105.7-0.2L768.5,1193.9z"/>
</g>
<g id="Achterpoot_achter">
	<path id="Achterpoot" class="st0" d="M342,1193.9l50.4-336.4c0,0,200.6-136,206.1,75.6c-46.4,118.3-175,263.2-175,263.2l-5.3,172.6
		c0,0,25.8-8.6,33.5,11s7.7,19.6,7.7,19.6l-105.7-0.2L342,1193.9z"/>
</g>
<g id="Staart">
	<path class="st0" d="M313,918.2c0,0-88.9-113.1-75.8-202c9.1-61.9,57.9-118.8,86.3-147.5c3.3-3.3,9.1,0.7,6.7,5
		c-26.1,47.1-84.2,192.7,28.5,245.1C357.3,868,313,918.2,313,918.2z"/>
</g>
<g id="Lijf">
	<path class="st0" d="M268.1,767.6c-25.3,30.4-50.9,79.9-50.7,155.2c0.2,57.6,37.8,108.8,92.5,126.5
		c153.7,49.7,473.6,138.7,648.2-66.5c160-234.1-32.5-334.7-32.5-334.7s-97.1,152.3-566.2,84.4C325,727.4,290.3,740.6,268.1,767.6z"
		/>
</g>
<g id="Onderbuik">
	<g>
		<path class="st1" d="M968.7,830.7c0,0-26.6,86.3-120.7,110.2c-78.4,20.1-261.5,17.5-319.7,15.8c-11.9-0.2-23.7-1.4-35.3-3.8
			l-82.7-15.5c-34.6-6.5-70.4-6.9-105-0.7c-36.8,6.7-75.2,19.8-73.8,45.2c1,2.2,1.9,4.3,2.9,6.5c28.1,61,67.7,110.9,400.5,124.1
			c45,1.7,90.2-4.3,134-14.3c214.5-49,246.5-201.8,246.5-201.8l14.8-60.3l-2.7-58.1l-47.6-11.7L968.7,830.7z"/>
	</g>
</g>
<g id="Achterpoot_voor">
	<path class="st0" d="M169.8,1193.9l54-326.6c0,0,222.8-94.2,204.9,36.3c-41.8,138-177.4,292.6-177.4,292.6l-5.3,172.6
		c0,0,25.8-8.6,33.5,11c7.7,19.6,7.7,19.6,7.7,19.6l-105.7-0.2L169.8,1193.9z"/>
</g>
<g id="Voorppot_voor">
	<path class="st0" d="M652.6,1193.9L716,810.2c0,0,165.9-67.4,171.7,81.8c1.2,31.3-5.5,62.2-18.6,90.6
		c-50.4,107.8-134.8,213.7-134.8,213.7l-5.3,172.6c0,0,25.8-8.6,33.5,11s7.7,19.6,7.7,19.6l-105.7-0.2L652.6,1193.9z"/>
</g>
<g id="Hoofd">
	<g>
		<g>
			<path class="st0" d="M1112.6,506c0,0,61.9-37.1,77.7-39c15.8-1.7,70.5,37.1,76,43.3c5.3,6.2,42.3,82,42.3,105.9
				c0,14.3-23.2-2.9-27.3-5.7c-12.2-8.8-24.4-29.9-41.1-25.3c-12.4,3.3-25.6,12.4-37.3,17.9c-20.6,9.8-47.8,18.2-65.7,32.5
				C1132.9,639.5,1112.6,506,1112.6,506z"/>
			<path class="st2" d="M1130.3,513l-7.9,53.3c6,34.7,12.7,71.2,15.1,69.3c17.9-14.3,45.2-22.7,65.7-32.5
				c11.7-5.5,24.9-14.6,37.3-17.9c3.6-1,6.9-0.7,10,0.2C1212.3,465.2,1130.3,513,1130.3,513z"/>
			<path class="st0" d="M902.4,506c0,0-61.9-37.1-77.7-39c-15.8-1.7-70.5,37.1-76,43.3c-5.3,6.2-42.3,82-42.3,105.9
				c0,14.3,23.2-2.9,27.3-5.7c12.2-8.8,24.4-29.9,41.1-25.3c12.4,3.3,25.6,12.4,37.3,17.9c20.6,9.8,47.8,18.2,65.7,32.5
				C882.1,639.5,902.4,506,902.4,506z"/>
			<path class="st2" d="M884.7,513l7.9,53.3c-6,34.7-12.7,71.2-15.1,69.3c-17.9-14.3-45.2-22.7-65.7-32.5
				c-11.7-5.5-24.9-14.6-37.3-17.9c-3.6-1-6.9-0.7-10,0.2C802.5,465.2,884.7,513,884.7,513z"/>
		</g>
		<path class="st0" d="M1133.8,500.5c-0.2-0.2-0.5-0.5-0.7-0.5c-41.4-37.5-118.1-45.7-170.9-39.2c-37.5,4.5-76.7,18.9-99.2,51.2
			c-57.6,83.7,6.7,258.7,85.8,308.4c16.7,10.5,35.6,17,55.7,17c96.4,0,152.3-132,161.9-211.6C1171.4,583,1167.3,531.6,1133.8,500.5z
			"/>
		<path class="st1" d="M1038,677c0,0-12.9-104.2-33.5-107.1C983.9,573,971,677,971,677c-117.6,14.6-80.8,85.4-80.8,85.4
			c54,82.7,97.3,76.5,97.3,76.5l17-1.4l17,1.4c0,0,43.3,6.2,97.3-76.5C1118.8,762.3,1155.6,691.6,1038,677z"/>
		<path class="st3" d="M1050.2,723.4c-5.7-13.1-31.8-9.3-42.8-8.8c-12,0.7-43-4.1-48.5,8.8c-5.7,13.1,32.5,44.9,45.7,42.8
			C1017.6,768.3,1055.9,736.5,1050.2,723.4z"/>
		<path class="st4" d="M1051.8,790.3c-1,2.9-3.8,8.1-12.7,8.1c-8.6,0-18.4-4.1-25.3-9.8c-1.9-1.7-4.1-2.4-6.5-2.4s-4.5,0.7-6.5,2.4
			c-6.9,6-16.7,9.8-25.3,9.8s-11.7-5.3-12.7-8.1c-0.5-1.2-1.7-1.9-2.9-1.9c0,0,1.7,13.4,18.6,13.4c17,0,24.4-7.9,28.7-7.9
			s11.7,7.9,28.7,7.9c17,0,18.6-13.4,18.6-13.4C1053.3,788.4,1052.1,789.1,1051.8,790.3z"/>
		<g>
			<g>
				<g>
					<circle class="st5" cx="921.3" cy="637.5" r="27.5"/>
				</g>
				<ellipse class="st6" cx="921.3" cy="637.5" rx="17.7" ry="17.7"/>
				<path class="st1" d="M923.4,629.9c0,4.3-3.6,7.9-7.9,7.9s-7.9-3.6-7.9-7.9s3.6-7.9,7.9-7.9S923.4,625.6,923.4,629.9z"/>
			</g>
			<g>
				<g>
					<circle class="st5" cx="1092.5" cy="637.5" r="27.5"/>
				</g>
				<ellipse class="st6" cx="1092.4" cy="637.6" rx="17.7" ry="17.7"/>
				<circle class="st1" cx="1087" cy="629.9" r="7.9"/>
			</g>
		</g>
	</g>
</g>
</svg>
