<?xml version="1.0" encoding="utf-8"?>
<!-- Generator: Adobe Illustrator 23.0.2, SVG Export Plug-In . SVG Version: 6.00 Build 0)  -->
<svg version="1.1" id="Layer_1" xmlns="http://www.w3.org/2000/svg" xmlns:xlink="http://www.w3.org/1999/xlink" x="0px" y="0px"
	 width="1000px" height="600px" viewBox="0 0 1000 600" style="enable-background:new 0 0 1000 600;" xml:space="preserve">
<style type="text/css">
	.st0{fill:#4CB8C1;}
	.st1{fill:#FFFFFF;}
	.st2{fill:#DF2E5A;}
	.st3{fill:#231F20;}
	.st4{fill:#3F6562;stroke:#3F6562;stroke-width:1.4826;stroke-miterlimit:10;}
	.st5{fill:#B06376;}
	.st6{fill:#642637;}
	.st7{fill:#77C7C8;}
	.st8{fill:#3F6562;}
</style>
<g id="Design">
	<circle class="st0" cx="500" cy="360.2" r="126.9"/>
	<circle class="st1" cx="500" cy="360.2" r="110.2"/>
	<path class="st2" d="M556.5,401.6c-13.8-6-27.9-6.8-56.5-6.8c-28.7,0-42.8,0.8-56.5,6.8c-12.7,5.5-23.7,19.5-19.9,43.2
		c2.7-27.6,36.8-33.1,76.6-33.1c39.6,0,73.8,5.5,76.6,33.1C580.3,421.1,569.3,407,556.5,401.6z"/>
	<path class="st3" d="M535.6,389.3c3.2-8.1,4.2-16.5-3.6-16.5c-6.2,0-11.8,7.4-15.2,15.3C523.8,388.4,530,388.7,535.6,389.3z"/>
	<path class="st0" d="M583.8,437.6c3.6-4.3,6.9-9.1,9.5-14.4c-2.6-15.3-13.5-28.1-28.2-33.9c-0.9,2.3-1.9,4.8-3.4,7.5
		C578.5,405.2,584.2,422,583.8,437.6z"/>
	<path class="st4" d="M596.3,416.5c4.9-12.5,7.9-27.6,8.7-45.5c1.4-30.5-28.2-28.2-34.4-1.8c-1.7,7.3-2.7,12.2-4.3,17
		C580.8,391,592.1,402.3,596.3,416.5z"/>
	<path class="st3" d="M516.1,267c0-8.2-5.7-12.1-16.1-12.1c-10,0-16.1,3.9-16.1,12.1c0,7.5,7.1,13.5,16.1,13.5
		C508.8,280.6,516.1,274.6,516.1,267z"/>
	<path class="st2" d="M500,273.9c-5.2,0-9.4-3-9.4-6.8c0-1.9,0-5.5,9.4-5.5c9.4,0,9.4,3.2,9.4,5.5
		C509.3,270.8,505.2,273.9,500,273.9z"/>
	<path class="st5" d="M592,466.4l42.8,18.3c5.7,2.5,13.5,0.3,17-4.8l28.1-39.8c3.6-5.1,3-13-1.4-17.4l-47.1-48
		c3,13.6,0.9,33.4-0.4,42.9c-0.4,3.4,0.6,6.9,3,9.4l21.6,22.9L631.6,439c-4.7-2.1-10.1-0.9-13.4,3C612.1,449,601.4,460.6,592,466.4z
		"/>
	<path class="st5" d="M658.3,541.4L658.3,541.4c-7.4,0-14.8-1.7-21.2-4.9l-50.7-25.2L575.1,558c-3.4,14.2-13.4,25.7-26.4,31.6h25.3
		c10.3,0,20.8-8.2,23.3-18.2l6.1-25.1l27.9,13.3c11.3,5.5,26.4,1.3,33.5-9.1l7.7-11.2C667.8,540.6,663.1,541.4,658.3,541.4z"/>
	<path class="st0" d="M933.1,191.9c-2.5-3.9-7.9-5.3-12-3.2L775,262.4c-1.3,0.6-1.4,0.5-0.1-0.3l133.6-92.7
		c3.8-2.6,4.8-7.9,2.3-11.7l-19.2-29.5c-2.5-3.9-7.8-5.2-11.8-3l-143.9,79.4c-1.3,0.6-1.3,0.5-0.1-0.3l133-96.2
		c3.8-2.7,4.7-8.1,2.2-11.8l-20.7-31.3c-2.3-3.6-7.3-4.8-11-2.7c-56.8,32.1-133.6,76.2-159.6,93.2c-65.9,43-79,110.1-46.7,159.7
		c32.4,49.7,86.3,48.9,156.5,13.4c56.9-28.9,116.7-65.1,161.7-93.7c1.8-1.2,3.2-3.1,3.6-5.3c0.5-2.2,0-4.4-1.2-6.4L933.1,191.9z"/>
	
		<ellipse transform="matrix(0.8374 -0.5466 0.5466 0.8374 59.1469 452.3991)" class="st1" cx="789.9" cy="126.8" rx="22.7" ry="23.7"/>
	
		<ellipse transform="matrix(0.8374 -0.5466 0.5466 0.8374 59.1469 452.3991)" class="st2" cx="789.9" cy="126.8" rx="12.7" ry="13.1"/>
	
		<ellipse transform="matrix(0.8374 -0.5466 0.5466 0.8374 32.2867 484.0478)" class="st1" cx="829.7" cy="187.8" rx="22.7" ry="23.7"/>
	
		<ellipse transform="matrix(0.8374 -0.5466 0.5466 0.8374 32.2867 484.0478)" class="st2" cx="829.7" cy="187.8" rx="12.7" ry="13.1"/>
	
		<ellipse transform="matrix(0.8374 -0.5466 0.5466 0.8374 5.2725 515.9156)" class="st1" cx="869.8" cy="249.1" rx="22.7" ry="23.7"/>
	
		<ellipse transform="matrix(0.8374 -0.5466 0.5466 0.8374 5.2725 515.9156)" class="st2" cx="869.8" cy="249.1" rx="12.7" ry="13.1"/>
	<path class="st6" d="M818.4,108.3c6.6,10.1,6.4,19.6,0.9,28.1c10.7-11.3,8.6-21.6,12.2-30.3c3-7.3,9.4-10,19.8-19.2
		c-12.9,5.8-18.6,10-26.6,9.6c-9.2-0.4-16.9-5.8-30.9-0.8C804.1,94,812,98.7,818.4,108.3z"/>
	<path class="st1" d="M670.5,193c9-7,20.8-7.1,30.8,4c17,19.1,55.9,77.6,63.3,92.5c7.4,15.1,3.6,22.2-3.2,29
		c-6.5,6.4-28.3,24.8-52,12.9c-19.1-9.6-23.7-20.7-33.5-30.2c-9.9-9.4-25.3-2.6-25.3-2.6s12.7-11.3,5.5-26
		c-7.3-14.7-15.1-32-10-48.4C651.8,204.7,670.5,193,670.5,193z"/>
	<path class="st6" d="M678.6,212.2c6.8-5.2,12.3-4,17.7,2.2c5.3,6.2,42.5,55.2,48.7,65.6c6.2,10.3,0,15.6-4,18.5
		c-6.9,4.9-17.5,10.8-30.5,3.9c-13-6.9-40.9-43.3-45.2-58.1C661.1,230,672.3,217,678.6,212.2z"/>
	<path class="st1" d="M685.1,220.6c3.9,10.9,40.8,58.5,52.5,68.6c0,0-4.3,2.1-9.5-4c-11-13.1-17.9-24.7-37.7-11.3
		c14-15.5,10.7-22.5-4.3-42.4C681.4,225.1,685.1,220.6,685.1,220.6z"/>
	<path class="st6" d="M850.9,369.3c-6.8,4.3-17.7,3.9-24.2-0.8l-29.1-21.4l6.6,31.3c1.7,7.9-2.6,17.7-9.6,21.7L764,418.1
		c-6.9,4-17.5,3-23.4-2.5l-52.2-47.7c7,0.5,17.4,4.3,23.1,8.3l35.9,25.6c1.9,1.4,5.5,1.6,7.5,0.4l31.6-18.3c2.1-1.3,3.9-4.3,3.8-6.8
		l-0.6-27.9c0-2.2,1.6-4.8,3.5-5.8l3.8-1.8c1.9-1,5.2-0.9,7,0.3l26.9,16.2c2.1,1.3,5.6,1.2,7.7-0.1l28.6-18.7c2.1-1.3,3.6-4.5,3.5-7
		l-1.9-27.2c-0.1-1.6,0.6-3,1.9-3.8c1.9-1.2,3.9-2.2,5.8-3.4c1.4-0.8,3.1-0.6,4.4,0.3l18.5,14c1.9,1.6,5.3,1.6,7.4,0.3l19.9-13
		c2.1-1.3,3.4-4.4,3-6.9l-3.6-21.6c-0.3-1.6,0.4-3.2,1.8-4c7.5-4.7,23.5-14.8,33.3-21.1c4.8-3.1,11-2.6,15.3,1.3l10.3,9.1
		c0,0-7.8-4.5-15.7,0.6c-7.9,5.2-11,7.1-20.7,13.4c-9.6,6.2-17.5-2.2-17.5-2.2l8.7,24.4c2.7,7.5-0.5,17.4-7.3,21.8l-15.6,10.1
		c-6.8,4.4-17,3.4-22.7-2.2L877.2,304l5.5,29c1.4,7.9-2.9,17.9-9.6,22.2L850.9,369.3z"/>
	<path class="st5" d="M861,306.8l1.3,22.4c0.1,2.6-1.4,5.8-3.6,7.1l-20.4,13.4c-2.1,1.4-5.7,1.4-7.9,0.1l-22.6-13.8l17.5-9.4
		c3.1-1.7,7.8-1,10.3,1.4l9,9l-4-11.4c-1.2-3.4,0.4-7.5,3.5-9.2L861,306.8z"/>
	<path class="st5" d="M777.3,381.3c2.2-1.2,4-4.3,3.9-6.9l-1.2-24.8l-0.3,0.1c-7,3.1-13.9,5.8-20.5,8.2c-1.6,0.5-3,1.8-3.6,3.4
		c-0.8,1.6-0.8,3.4-0.3,4.9l6,16.4l-14.7-16c-2.1-2.2-5.2-3.2-8.2-2.5c-7.3,1.8-14.3,3.1-21.2,3.8l-0.4,0.1l30.2,25
		c1.9,1.7,5.5,1.9,7.7,0.8L777.3,381.3z"/>
	<path class="st2" d="M895.4,381.5c4.8-3.1,7.9-10.3,6.9-16l-4.4-25.2c-1.3,10.9-7.5,21.7-16.6,27.4L859,381.9
		c-11.2,7.1-27.2,7-38.6,0.3c-0.1-0.1-0.4-0.1-0.5,0c-0.1,0.1-0.3,0.3-0.3,0.4c-0.3,12.1-7,24.3-17.3,30.4l-30.7,17.9
		c-9.1,5.3-20.8,5.8-30.8,2.1l15.1,13.1c8.2,7.1,22.4,8.1,31.5,2.1l32.1-20.9c4.8-3.1,8.3-10.4,7.8-16.1l-1.7-19.4l17.8,12
		c4.8,3.2,12.6,3.2,17.4,0.1L895.4,381.5z"/>
	<path class="st5" d="M601.1,187.1c1.8-11.8,11.4-26.5,21.6-32.9l38.6-24c5.6-3.5,15.5-4.8,21.7-2.7l17.3,5.5c0.8,0.3,1.8-0.3,2.1-1
		l4-12.2c1.8-5.5,7.4-12.2,12.3-15.2l61.5-35.9c6-3.5,10.7-12,10.5-18.8l-0.5-21.6l-3.5,4.5c-4.2,5.5-12.5,12.7-18.5,16.1
		l-51.6,29.4c-6.4,3.6-12.7,12.3-14.3,19.5l-5.6,25.2l-22.1-13.6c-9.4-5.8-24.6-5.6-33.8,0.4l-37.3,24.3c-9.2,6-16,19.9-14.9,30.9
		l6,65.9L601.1,187.1z"/>
	<path class="st6" d="M688.1,105.7c0.8,0.4,1.6,0.1,1.7-0.8l2.6-10.7c2.1-8.6,10.1-19.2,17.8-23.5l28.6-16.1
		c5.8-3.2,9.9-11.4,9.1-18.1l-2.7-22.2l-4.9,8.2c-3.5,5.7-11,13.1-16.9,16.2l-27.7,15.3c-7.1,4-13.6,13.9-14.4,22.1l-1.3,14.9
		L659.7,77c-8.6-6.1-23-6.4-31.8-0.5L612.1,87c-3.9,2.5-8.3,8.1-10,12.3L591,129l49.4-32.2c8.7-5.7,23.1-6,32-0.5L688.1,105.7z"/>
	
		<ellipse transform="matrix(0.8374 -0.5466 0.5466 0.8374 117.3912 457.1385)" class="st7" cx="827" cy="31.3" rx="16.2" ry="14.9"/>
	
		<ellipse transform="matrix(0.8374 -0.5466 0.5466 0.8374 132.5196 473.8801)" class="st8" cx="862.7" cy="14.2" rx="10.5" ry="10.1"/>
	
		<ellipse transform="matrix(0.5018 -0.865 0.865 0.5018 -43.8135 880.6484)" class="st7" cx="742.6" cy="478.4" rx="16.2" ry="14.9"/>
	
		<ellipse transform="matrix(0.5018 -0.865 0.865 0.5018 -82.9759 875.3635)" class="st8" cx="718.4" cy="509.7" rx="10.5" ry="10.1"/>
	<path class="st8" d="M703.6,168.3c10.9,9,39.3-11.6,39.3-11.6s-27.4,21.8-19.2,36.3l0,0c1.7,3,4.4,6.9,6.2,8.6l32.4-35
		c2.7-3,3.1-8.1,0.8-11.4L752,139c-2.3-3.4-7.3-4.8-10.9-3.2l-56.3,23.4l0,0C690.1,159.5,696.8,162.7,703.6,168.3z"/>
	<path class="st8" d="M744.6,222.6c1.7,2.5,4.4,4.2,7.5,4.4c13.3,1.3,34.6-10.8,34.6-10.8s-23.9,19-24.3,29.5
		c-0.1,5.1,6.6,13.4,6.6,13.4l33.8-31.7c3-2.7,3.6-7.8,1.4-11.3L794,199.8c-2.2-3.4-7-5.1-10.8-3.6L738,212.8
		C740,216,742.2,219.2,744.6,222.6z"/>
	<path class="st8" d="M779.8,276.7c7.1,12.1,28.5,5.3,44.6-2.1c0,0-32.1,16.1-31.3,29.5c0.3,4.8,1.6,11.3-1.6,15.9l46.7-32.6
		c3.2-2.3,4.4-7.1,2.3-10.7l-9.7-17.3c-1.9-3.5-6.8-5.3-10.5-3.9l-43.9,15.5C777,272,778.9,275.2,779.8,276.7z"/>
	<path class="st6" d="M858.7,170.1c6.4,10.4,5.8,19.8,0.1,28.1c10.9-11,9.1-21.3,13-29.9c3.1-7.1,9.6-9.7,20.3-18.7
		c-13,5.6-18.8,9.5-26.9,9c-9.2-0.6-16.8-6.2-30.9-1.7C844.8,155.5,852.6,160.2,858.7,170.1z"/>
	<path class="st6" d="M899.3,232.5c6,10.5,5.2,20-0.8,28.1c11.3-10.7,9.9-20.9,14-29.4c3.4-7,10-9.5,20.9-18.1
		c-13.3,5.1-19.1,8.8-27.2,7.9c-9.2-1-16.5-6.9-30.8-2.7C886,217.4,893.7,222.5,899.3,232.5z"/>
	<path class="st2" d="M910,78.2c5.7-4.2,7.1-12.2,3.4-18.1l-12.5-19c-3.6-5.6-11-7.4-16.9-4.2c-8.3,4.7-18.8,10.7-30.7,17.3
		c2.1,1.3,3.9,3.1,5.2,5.2l3,4.5c3.6,5.5,11.4,6.6,17.5,2.6l13.9-9.1c0.8-0.5,1.8-0.3,2.3,0.5c0.5,0.8,0.3,1.8-0.5,2.3l-13.9,9.1
		c-6.1,4-8.2,11.7-4.7,17.2l2.6,4c1.6,2.3,2.5,4.9,2.9,7.7L910,78.2z"/>
	<path class="st2" d="M608.1,229.9c8.7-32.9,31.2-62,65-84.1c3.2-2.1,7.3-4.7,12-7.5c-0.6-0.1-1.3-0.4-2.1-0.5
		c-4.3-1-8.8-0.4-12.7,1.8c-18.2,10.1-36.1,22.9-47.1,30.9c-5.5,3.9-8.8,9.7-10.9,16.1c-7.3,21.8-9.4,42.9-7.5,63.3
		C605.3,243.1,606.4,236.5,608.1,229.9z"/>
	<path class="st2" d="M449.2,141.1h29.8c10,0,18.5-9,21.1-21.2c2.5,12.2,10.9,21.2,21.1,21.2h29.8c6.8,0,13.1,2.1,18.6,5.7
		l-6.4-40.9c-1.3-8.6-8.1-15.3-16.6-16.6c-14.9-2.2-30.4-3.4-46.3-3.4c-15.9,0-31.3,1.2-46.3,3.4c-8.6,1.3-15.3,8.1-16.6,16.6
		l-6.4,40.9C436,143.2,442.5,141.1,449.2,141.1z"/>
	<path class="st5" d="M418.5,246.8c7.9-4.8,14-12.1,17.3-20.7l15.2-40c1.9-5.2,8.2-9.5,13.8-9.5h35.1h35.1c5.6,0,11.8,4.3,13.8,9.5
		l15.2,40c3.2,8.6,9.4,15.9,17.3,20.7c1.3,0.8,2.7,1.7,4,2.5L573.2,172c-1.7-10.5-11.8-19.2-22.5-19.2H449
		c-10.7,0-20.8,8.7-22.5,19.2l-12.1,77.2C415.9,248.5,417.2,247.5,418.5,246.8z"/>
	<path class="st6" d="M542,189.3c-1.2-3.1-4.2-5.1-7.4-5.1h-69.3c-3.2,0-6.2,2.1-7.4,5.1c-4.9,13-12.1,32-15.2,40
		c8.6-8.8,23-10.9,37.8-13.8c14.7-2.9,19.5-12.7,19.5-21.2c0,8.4,4.7,18.3,19.5,21.2c14.7,2.9,29.2,4.9,37.8,13.8
		C554.2,221.3,546.9,202.3,542,189.3z"/>
	<ellipse class="st7" cx="500" cy="54.1" rx="20.4" ry="18.7"/>
	<ellipse class="st8" cx="544.3" cy="59.3" rx="14.6" ry="13.4"/>
	<ellipse class="st2" cx="574.5" cy="77.3" rx="11.7" ry="10.8"/>
	<ellipse class="st8" cx="455.7" cy="59.3" rx="14.6" ry="13.4"/>
	<ellipse class="st2" cx="425.4" cy="77.3" rx="11.7" ry="10.8"/>
	<path class="st1" d="M446.2,123.3c4.5-8.8,17.9-7.3,34.7-8.1c17.8-0.9,19.1-9.4,19.1-9.4s1.3,8.4,19.1,9.4
		c16.8,0.8,30.2-0.8,34.7,8.1l0,0c-0.5-3.6-1-6.8-1.4-9.4c-1.2-7.4-7.1-13.3-14.6-14.2c-12.5-1.6-25.1-2.3-37.8-2.3
		c-12.7,0-25.3,0.8-37.8,2.3c-7.5,0.9-13.4,6.8-14.6,14.2L446.2,123.3C446,123.4,446,123.3,446.2,123.3z"/>
	<path class="st3" d="M454,422.9c5.5-1.6,12-2.7,19.5-3.5v24.3c-6.6-0.3-13.1-0.8-19.5-1.3V422.9z M497.6,418.3
		c-7,0-13.5,0.3-19.5,0.8v24.8c6.4,0.3,12.9,0.4,19.5,0.4V418.3z M550.7,442c6.1-0.5,12.2-1.3,18.1-2.1c-2.5-6.9-8.3-12.1-18.1-15.6
		V442z M449.3,424.4c-9.7,3.5-15.6,8.7-18.1,15.6c5.8,0.8,11.8,1.4,18.1,2.1V424.4z M546,422.9c-5.5-1.6-12-2.7-19.5-3.5v24.3
		c6.6-0.3,13.1-0.8,19.5-1.3V422.9z M521.8,419c-5.8-0.4-12.3-0.6-19.5-0.8v26c6.6,0,13.1-0.1,19.5-0.4V419z"/>
	<path class="st6" d="M481.7,314c-0.6-14.6-10.1-23.3-24.3-24.6c-14.3-1.3-29.9,0.3-41.5,7.9c-12.9,8.6-13.4,26.4-12.5,33.5
		c0.9,7.3,4,12.1,13,13.6c11.2,1.9,31.6,1.6,47.6-0.6C475.4,342.2,482.3,330.6,481.7,314z"/>
	<path class="st1" d="M479.2,318.8c-5.8,0.1-16.1,1.7-20.4,5.8c-2.3,2.3-2.5,4.5-3.9,8.2c-1.9,4.8-3.9,7.3-8.8,7.4
		c-4.8,0.3-7.3,0.4-11.8,0.4c-4.5,0-7.4-1.6-9-7c-1.2-4-1.8-6-3.8-7.9c-4.2-4.2-9.4-5.6-14.6-5.2c4.7-0.8,11.2-2.9,14.3-6.1
		c2.5-2.5,2.3-5.3,4.4-11.3c2.5-7,7.3-8.3,14.9-9c7.7-0.6,12.7-0.4,15.6,5.5c2.2,4.7,4.2,10.3,7.8,13.9
		C467.5,317.1,474.5,317.9,479.2,318.8z"/>
	<path class="st2" d="M428,317.7c0,6,6,5.8,13.3,5.8c7.4,0,13.3,0.1,13.3-5.8c0-7.5-4.5-13.3-13.3-13.3
		C432.9,304.5,428,309.7,428,317.7z"/>
	<path class="st0" d="M512.5,318.8c0-8.3-5.6-14.2-12.5-14.2s-12.5,5.8-12.5,14.2c0,19.8-11,33.7-11,33.7l0,0
		c6.6-3.6,14.8-5.7,23.5-5.7c8.7,0,16.9,2.1,23.5,5.7l0,0C523.5,352.4,512.5,338.5,512.5,318.8z"/>
	<path class="st4" d="M557.7,357.1c-7.7-8.8-27.9-10.1-41.7-1c-11.6,7.5-15.9,22.5-15.9,22.5s-4.3-14.9-15.9-22.5
		c-13.9-9.1-34.1-7.8-41.7,1c-7.3,8.3-4.9,26.8,2.3,36.7c3.8-1.4,7.5-2.5,11.6-3.2c-1.8-5.7-2.5-13.1-1-18.8
		c2.6-10.3,16.5-10,27.4,1.6c4.3,4.5,7.3,10.4,9,14.7c2.6,0,5.3,0,8.2,0s5.6,0,8.2,0c1.7-4.2,4.7-10,9-14.7
		c10.9-11.7,24.8-11.8,27.4-1.6c1.4,5.7,0.8,13.1-1,18.8c4,0.8,7.8,1.8,11.6,3.2C562.5,384,565,365.6,557.7,357.1z"/>
	<path class="st3" d="M464.4,389.3c-3.2-8.1-4.2-16.5,3.6-16.5c6.2,0,11.8,7.4,15.2,15.3C476.2,388.4,470,388.7,464.4,389.3z"/>
	<path class="st0" d="M416.1,437.6c-3.6-4.3-6.9-9.1-9.5-14.4c2.6-15.3,13.5-28.1,28.2-33.9c0.9,2.3,1.9,4.8,3.4,7.5
		C421.5,405.2,415.8,422,416.1,437.6z"/>
	<path class="st2" d="M517.8,450.8c-10.7,0.4-15.2,4.8-17.8,10.4c-2.7-5.6-7.1-10-17.8-10.4c-20.1-0.6-39.4-2.3-57.2-4.9
		c16.6,13.1,41.3,19.5,75,19.5s58.4-6.4,75-19.5C557.2,448.5,537.9,450.2,517.8,450.8z"/>
	<path class="st6" d="M713.3,420.5l-81.8-74.6c0,1,0.1,1.9,0.1,3c0.4,9.6,4.4,18.8,11,25.9l49,50.9c5.2,5.3,5.8,14.7,1.6,20.8
		l-30.5,43.3c-4.3,6.1-13.4,8.7-20.3,5.8l-51.7-21.4c-3.6-1.6-7.8-1.3-11.3,0.6c-5.2,3-10.8,5.6-16.9,7.8c-3.9,1.4-6.8,4.5-7.9,8.4
		L539,544.3c-2.1,7.1-9.9,13-17.3,13h-43.2c-7.4,0-15.2-5.8-17.3-13l-15.6-53.2c-1.2-3.9-4.2-7-7.9-8.4c-6-2.2-11.7-4.8-16.9-7.8
		c-3.5-1.9-7.7-2.2-11.3-0.6l-51.7,21.4c-6.9,2.9-16,0.3-20.3-5.8l-30.8-43.4c-4.3-6.1-3.6-15.5,1.6-20.8l49-50.9
		c6.8-7,10.7-16.1,11-25.9c0-0.9,0.1-1.9,0.1-3l-81.8,74.6c-10.1,9.2-12.1,26.3-4.3,37.6l35,50.9c7.8,11.3,24.3,15.6,36.7,9.5
		l73-36.4l19.9,82.3c2.6,10.7,11.4,18.7,22.4,20.1c9.9,1.3,20.1,1.9,30.7,1.9l0,0l0,0c10.5,0,20.8-0.6,30.7-1.9
		c10.9-1.4,19.8-9.4,22.4-20.1l19.9-82.3l73,36.4c12.3,6.1,28.9,1.8,36.7-9.5l35-50.9C725.4,446.8,723.4,429.9,713.3,420.5z"/>
	<path class="st5" d="M516,499.8c-4.2,0.8-7.7,3.9-8.8,8.1l-7.1,24.6l-7.1-24.6c-1.2-4.2-4.7-7.3-8.8-8.1
		c-8.4-1.6-22.6-5.2-31.2-12.5l13.4,49.3c1.7,6.1,8.1,11,14.4,11h38.7c6.2,0,12.7-4.9,14.4-11l13.4-49.3
		C538.6,494.5,524.3,498.1,516,499.8z"/>
	<path class="st5" d="M408,466.4l-42.8,18.2c-5.7,2.5-13.5,0.3-17-4.8L320.1,440c-3.6-5.1-3-13,1.4-17.4l47.1-48
		c-3,13.6-0.9,33.4,0.4,42.9c0.4,3.4-0.6,6.9-3,9.4l-21.6,22.9l23.9-10.9c4.7-2.1,10.1-0.9,13.4,3C387.8,449,398.6,460.6,408,466.4z
		"/>
	<path class="st5" d="M341.7,541.4L341.7,541.4c7.4,0,14.8-1.7,21.2-4.9l50.7-25.2l11.3,46.8c3.4,14.2,13.4,25.7,26.4,31.6h-25.3
		c-10.3,0-20.8-8.2-23.3-18.2l-6.1-25.1l-27.9,13.3c-11.3,5.5-26.4,1.3-33.5-9.1l-7.7-11.2C332.2,540.6,336.9,541.4,341.7,541.4z"/>
	<path class="st2" d="M591,358.7c-5.7-1.2-10.4,3.2-12.3,12.5c-1,4.8-1.9,8.7-2.9,12.2c0.9,0.1,1.7,0.4,2.6,0.8
		c1.4,0.5,3.1,0.4,4.5-0.4c1.4-0.6,2.5-1.9,2.9-3.5l3.2-10.5l-1.6,16.1c-0.1,1.8,0.5,3.6,1.9,4.9c1.8,1.7,3.5,3.5,4.9,5.6
		c1.4-6,2.6-12.3,3-19.8C597.7,370.4,597.8,360.1,591,358.7z"/>
	<path class="st4" d="M500,298.1c4.8,0,9.1,1.9,12.5,5.1c9.1-30.8,67.7-24.4,80.8-6C566.5,244.3,511.3,265.2,500,298.1z"/>
	<path class="st8" d="M403.7,416.5c-4.9-12.5-7.9-27.6-8.7-45.5c-1.4-30.5,28.2-28.2,34.4-1.8c1.7,7.3,2.7,12.2,4.3,17
		C419.1,391,407.8,402.3,403.7,416.5z"/>
	<path class="st2" d="M409,358.7c5.7-1.2,10.4,3.2,12.3,12.5c1,4.8,1.9,8.7,2.9,12.2c-0.9,0.1-1.7,0.4-2.6,0.8
		c-1.4,0.5-3.1,0.4-4.5-0.4c-1.4-0.6-2.5-1.9-2.9-3.5l-3.2-10.5l1.6,16.1c0.1,1.8-0.5,3.6-1.9,4.9c-1.8,1.7-3.5,3.5-4.9,5.6
		c-1.4-6-2.6-12.3-3-19.8C402.1,370.4,402,360.1,409,358.7z"/>
	<path class="st4" d="M500,298.1c-4.8,0-9.1,1.9-12.5,5.1c-9.1-30.8-67.7-24.4-80.8-6C433.4,244.3,488.7,265.2,500,298.1z"/>
	<path class="st5" d="M544.8,260.1c-8.3-2.2-17.7-3.8-28.1-4.5c3.6,3.8,4.3,8.7,4.3,11.6l0,0C528.4,263.1,536.5,260.5,544.8,260.1z"
		/>
	<path class="st5" d="M455.1,260.1c8.3-2.2,17.7-3.8,28.1-4.5c-3.6,3.8-4.3,8.7-4.3,11.6l0,0C471.5,263.1,463.3,260.5,455.1,260.1z"
		/>
	<path class="st0" d="M66.9,191.9c2.5-3.9,7.9-5.3,12-3.2L225,262.4c1.3,0.6,1.4,0.5,0.1-0.3L91.5,169.4c-3.8-2.6-4.8-7.9-2.3-11.7
		l19.2-29.5c2.5-3.9,7.8-5.2,11.8-3l143.9,79.4c1.3,0.6,1.3,0.5,0.1-0.3l-133-96.2c-3.8-2.7-4.7-8.1-2.2-11.8l20.7-31.3
		c2.3-3.6,7.3-4.8,11-2.7c56.8,32.1,133.6,76.2,159.6,93.2c65.9,43,79,110.1,46.7,159.7s-86.3,48.7-156.5,13.3
		c-56.9-28.9-116.7-65.1-161.7-93.7c-1.8-1.2-3.2-3.1-3.6-5.3c-0.5-2.2,0-4.4,1.2-6.4L66.9,191.9z"/>
	
		<ellipse transform="matrix(0.5466 -0.8374 0.8374 0.5466 -11.0039 233.3299)" class="st1" cx="210" cy="126.8" rx="23.7" ry="22.7"/>
	
		<ellipse transform="matrix(0.5466 -0.8374 0.8374 0.5466 -11.0039 233.3299)" class="st2" cx="210" cy="126.8" rx="13.1" ry="12.7"/>
	
		<ellipse transform="matrix(0.5466 -0.8374 0.8374 0.5466 -80.0931 227.7558)" class="st1" cx="170.3" cy="187.8" rx="23.7" ry="22.7"/>
	
		<ellipse transform="matrix(0.5466 -0.8374 0.8374 0.5466 -80.094 227.7555)" class="st2" cx="170.3" cy="187.8" rx="13.1" ry="12.7"/>
	
		<ellipse transform="matrix(0.5466 -0.8374 0.8374 0.5466 -149.5828 221.9449)" class="st1" cx="130.2" cy="249.1" rx="23.7" ry="22.7"/>
	
		<ellipse transform="matrix(0.5466 -0.8374 0.8374 0.5466 -149.5828 221.9449)" class="st2" cx="130.2" cy="249.1" rx="13.1" ry="12.7"/>
	<path class="st6" d="M181.5,108.3c-6.6,10.1-6.4,19.6-0.9,28.1c-10.7-11.3-8.6-21.6-12.2-30.3c-3-7.3-9.4-10-19.8-19.2
		c12.9,5.8,18.6,10,26.6,9.6c9.2-0.4,16.9-5.8,30.9-0.8C195.8,94,187.9,98.7,181.5,108.3z"/>
	<path class="st1" d="M329.5,193c-9-7-20.8-7.1-30.8,4c-17,19.1-55.9,77.6-63.3,92.5c-7.4,15.1-3.6,22.2,3.2,29
		c6.5,6.4,28.3,24.8,52,12.9c19.1-9.6,23.7-20.7,33.5-30.2c9.9-9.4,25.3-2.6,25.3-2.6s-12.7-11.3-5.5-26c7.3-14.7,15.1-32,10-48.4
		C348.2,204.7,329.5,193,329.5,193z"/>
	<path class="st6" d="M321.3,212.2c-6.8-5.2-12.3-4-17.7,2.2s-42.5,55.2-48.7,65.6c-6.2,10.3,0,15.6,4,18.5
		c6.9,4.9,17.5,10.8,30.5,3.9c13-6.9,40.9-43.3,45.2-58.1C338.8,230,327.6,217,321.3,212.2z"/>
	<path class="st1" d="M314.9,220.6c-3.9,10.9-40.8,58.5-52.5,68.6c0,0,4.3,2.1,9.5-4c11-13.1,17.9-24.7,37.7-11.3
		c-14-15.5-10.7-22.5,4.3-42.4C318.5,225.1,314.9,220.6,314.9,220.6z"/>
	<path class="st6" d="M126.8,355.2c-6.8-4.3-11.2-14.3-9.6-22.2l5.5-29l-18.7,18.2c-5.7,5.6-16,6.6-22.7,2.2l-15.6-10.1
		c-6.8-4.4-10-14.2-7.3-21.8l8.7-24.4c0,0-7.9,8.4-17.5,2.2c-9.6-6.2-12.7-8.3-20.7-13.4c-7.9-5.2-15.7-0.6-15.7-0.6l10.3-9.1
		c4.3-3.8,10.5-4.3,15.3-1.3c9.7,6.2,25.7,16.4,33.3,21.1c1.4,0.9,2.1,2.5,1.8,4l-3.6,21.6c-0.4,2.5,0.9,5.6,3,6.9l19.9,13
		c2.1,1.3,5.3,1.2,7.4-0.3l18.5-14c1.3-1,3.1-1,4.4-0.3c1.9,1.2,3.9,2.2,5.8,3.4c1.3,0.8,2.1,2.2,1.9,3.8l-1.9,27.2
		c-0.1,2.5,1.4,5.6,3.5,7l28.6,18.7c2.1,1.3,5.5,1.4,7.7,0.1l26.9-16.2c1.9-1.2,5.1-1.3,7-0.3l3.8,1.8c1.9,1,3.5,3.6,3.5,5.8
		l-0.6,27.9c0,2.5,1.7,5.6,3.8,6.8l31.6,18.3c2.1,1.3,5.6,1,7.5-0.4l35.9-25.6c5.7-4,16.1-7.8,23.1-8.3L259,415.5
		c-6,5.5-16.5,6.5-23.4,2.5l-30.3-17.8c-6.9-4-11.3-13.9-9.6-21.7l6.6-31.3l-29.1,21.3c-6.5,4.8-17.4,5.1-24.2,0.8L126.8,355.2z"/>
	<path class="st5" d="M80.3,272l-3.8,17.9c-0.5,2.5,0.8,5.7,3,7.1l12.7,8.4c2.1,1.4,5.6,1.3,7.5-0.3l15.6-12l-7.8-4.7
		c-3-1.8-7.7-1.4-10.4,0.9l-8.3,7.3l3.4-10.1c1.2-3.4-0.4-7.7-3.5-9.5L80.3,272z"/>
	<path class="st5" d="M138.9,306.8l-1.3,22.4c-0.1,2.6,1.4,5.8,3.6,7.1l20.4,13.4c2.1,1.4,5.7,1.4,7.9,0.1l22.6-13.8l-17.5-9.4
		c-3.1-1.7-7.8-1-10.3,1.4l-9,9l4-11.4c1.2-3.4-0.4-7.5-3.5-9.2L138.9,306.8z"/>
	<path class="st5" d="M222.6,381.3c-2.2-1.2-4-4.3-3.9-6.9l1.2-24.8l0.3,0.1c7,3.1,13.9,5.8,20.5,8.2c1.6,0.5,3,1.8,3.6,3.4
		c0.8,1.6,0.8,3.4,0.3,4.9l-6,16.4l14.6-16c2.1-2.2,5.2-3.2,8.2-2.5c7.3,1.8,14.3,3.1,21.2,3.8l0.4,0.1l-30.2,25
		c-1.9,1.7-5.5,1.9-7.7,0.8L222.6,381.3z"/>
	<path class="st2" d="M104.6,381.5c-4.8-3.1-7.9-10.3-6.9-16l4.4-25.2c1.3,10.9,7.5,21.7,16.6,27.4l22.2,14.2
		c11.2,7.1,27.2,7,38.6,0.3c0.1-0.1,0.4-0.1,0.5,0c0.1,0.1,0.3,0.3,0.3,0.4c0.3,12.1,7,24.3,17.3,30.4l30.7,17.9
		c9.1,5.3,20.8,5.8,30.8,2.1l-15.1,13.1c-8.2,7.1-22.4,8.1-31.5,2.1l-32.1-20.9c-4.8-3.1-8.3-10.4-7.9-16.1l1.7-19.4l-17.8,12
		c-4.8,3.2-12.6,3.2-17.4,0.1L104.6,381.5z"/>
	<path class="st5" d="M398.9,187.1c-1.8-11.8-11.4-26.5-21.6-32.9l-38.6-24c-5.6-3.5-15.5-4.8-21.7-2.7l-17.3,5.5
		c-0.8,0.3-1.8-0.3-2.1-1l-4-12.2c-1.8-5.5-7.4-12.2-12.3-15.2l-61.5-35.9c-6-3.5-10.7-12-10.5-18.8l0.5-21.6l3.5,4.5
		c4.2,5.5,12.5,12.7,18.5,16.1l51.6,29.4c6.4,3.6,12.7,12.3,14.3,19.5l5.6,25.2l22.1-13.6c9.4-5.8,24.6-5.6,33.8,0.4l37.3,24.3
		c9.2,6,16,19.9,14.9,30.9l-6,65.9L398.9,187.1z"/>
	<path class="st6" d="M311.9,105.7c-0.8,0.4-1.6,0.1-1.7-0.8l-2.6-10.7c-2.1-8.6-10.1-19.2-17.8-23.5l-28.6-16.1
		c-5.8-3.2-9.9-11.4-9.1-18.1l2.6-22l4.9,8.2c3.5,5.7,11,13.1,16.9,16.2l27.7,15.3c7.1,4,13.6,13.9,14.4,22.1l1.3,14.9l20.1-14.2
		c8.6-6.1,23-6.4,31.8-0.5L387.8,87c3.9,2.5,8.3,8.1,10,12.3L409,129l-49.4-32.2c-8.7-5.7-23.1-6-32-0.5L311.9,105.7z"/>
	<ellipse transform="matrix(0.5466 -0.8374 0.8374 0.5466 52.284 158.9958)" class="st7" cx="173" cy="31.2" rx="14.9" ry="16.2"/>
	
		<ellipse transform="matrix(0.5466 -0.8374 0.8374 0.5466 50.2618 121.3776)" class="st8" cx="137.2" cy="14.3" rx="10.1" ry="10.5"/>
	
		<ellipse transform="matrix(0.865 -0.5018 0.5018 0.865 -205.322 193.7077)" class="st7" cx="257.3" cy="478.4" rx="14.9" ry="16.2"/>
	
		<ellipse transform="matrix(0.865 -0.5018 0.5018 0.865 -217.6758 210.0976)" class="st8" cx="281.6" cy="509.6" rx="10.1" ry="10.5"/>
	<path class="st8" d="M296.3,168.3c-10.9,9-39.3-11.6-39.3-11.6s27.4,21.8,19.2,36.3l0,0c-1.7,3-4.4,6.9-6.2,8.6l-32.4-35
		c-2.7-3-3.1-8.1-0.8-11.4l11-16.1c2.3-3.4,7.3-4.8,10.9-3.2l56.3,23.4l0,0C309.8,159.5,303.2,162.7,296.3,168.3z"/>
	<path class="st8" d="M255.4,222.6c-1.7,2.5-4.4,4.2-7.5,4.4c-13.3,1.3-34.6-10.8-34.6-10.8s23.9,19,24.3,29.5
		c0.1,5.1-6.6,13.4-6.6,13.4l-33.8-31.7c-3-2.7-3.6-7.8-1.4-11.3l10.3-16.2c2.2-3.4,7-5.1,10.8-3.6l45.2,16.6
		C259.9,216,257.7,219.2,255.4,222.6z"/>
	<path class="st8" d="M220.1,276.7c-7.1,12.1-28.5,5.3-44.6-2.1c0,0,32.1,16.1,31.3,29.5c-0.3,4.8-1.6,11.3,1.6,15.9l-46.7-32.6
		c-3.2-2.3-4.4-7.1-2.3-10.7l9.7-17.3c1.9-3.5,6.8-5.3,10.5-3.9l43.9,15.5C223,272,221.1,275.2,220.1,276.7z"/>
	<path class="st6" d="M141.3,170.1c-6.4,10.4-5.8,19.8-0.1,28.1c-10.9-11-9.1-21.3-13-29.9c-3.1-7.1-9.6-9.7-20.3-18.7
		c13,5.6,18.8,9.5,26.9,9c9.2-0.6,16.8-6.2,30.9-1.7C155.2,155.5,147.4,160.2,141.3,170.1z"/>
	<path class="st6" d="M100.6,232.5c-6,10.5-5.2,20,0.8,28.1c-11.3-10.7-9.9-20.9-14-29.4c-3.4-7-10-9.5-20.9-18.1
		c13.3,5.1,19.1,8.8,27.2,7.9c9.2-1,16.5-6.9,30.8-2.7C114,217.4,106.3,222.5,100.6,232.5z"/>
	<path class="st2" d="M89.9,78.2C84.2,74,82.8,66,86.5,60.1l12.5-19c3.6-5.6,11-7.4,16.9-4.2c8.3,4.7,18.8,10.7,30.7,17.3
		c-2.1,1.3-3.9,3.1-5.2,5.2l-3,4.5c-3.6,5.5-11.4,6.6-17.5,2.6l-13.9-9.1c-0.8-0.5-1.8-0.3-2.3,0.5c-0.5,0.8-0.3,1.8,0.5,2.3
		l13.9,9.1c6.1,4,8.2,11.7,4.7,17.2l-2.6,4c-1.6,2.3-2.5,4.9-2.9,7.7L89.9,78.2z"/>
	<path class="st2" d="M49.2,140.2c-5.7-4-7.3-12.1-3.5-17.9L57.2,105c3.9-5.8,12-7.9,18.1-4.5l30.4,16.8c-2.2,1.4-4.2,3.2-5.6,5.6
		l-2.9,4.3c-3.6,5.5-11.4,6.6-17.5,2.6l-13.9-9.1c-0.8-0.5-1.8-0.3-2.3,0.5c-0.5,0.8-0.3,1.8,0.5,2.3l13.9,9.1
		c6.1,4,8.2,11.7,4.7,17.2l-1.6,2.5c-1.6,2.5-2.5,5.1-2.9,7.8L49.2,140.2z"/>
	<path class="st3" d="M572,317.7c0,6-6,5.8-13.3,5.8s-13.3,0.1-13.3-5.8c0-7.5,4.5-13.3,13.3-13.3C567,304.5,572,309.7,572,317.7z"
		/>
	<path class="st2" d="M5.7,206.7c-5.8-3.9-7.4-11.7-3.6-17.5l12.3-18.8c3.9-5.8,12.1-8.1,18.3-4.9l31.1,15.7
		c-2.1,1.4-3.9,3.1-5.3,5.3l-3.8,5.8c-3.6,5.5-11.4,6.6-17.5,2.6l-13.9-9.1c-0.8-0.5-1.8-0.3-2.3,0.5c-0.5,0.8-0.3,1.8,0.5,2.3
		l13.9,9.1c6.1,4,8.2,11.7,4.7,17.2l-1.8,2.7c-1.6,2.5-2.6,5.3-2.9,8.2C24,218.8,14,212.3,5.7,206.7z"/>
	<path class="st5" d="M80.3,272l-3.8,17.9c-0.5,2.5,0.8,5.7,3,7.1l12.7,8.4c2.1,1.4,5.6,1.3,7.5-0.3l15.6-12l-7.8-4.7
		c-3-1.8-7.7-1.4-10.4,0.9l-8.3,7.3l3.4-10.1c1.2-3.4-0.4-7.7-3.5-9.5L80.3,272z"/>
	<path class="st2" d="M49.2,140.2c-5.7-4-7.3-12.1-3.5-17.9L57.2,105c3.9-5.8,12-7.9,18.1-4.5l30.4,16.8c-2.2,1.4-4.2,3.2-5.6,5.6
		l-2.9,4.3c-3.6,5.5-11.4,6.6-17.5,2.6l-13.9-9.1c-0.8-0.5-1.8-0.3-2.3,0.5c-0.5,0.8-0.3,1.8,0.5,2.3l13.9,9.1
		c6.1,4,8.2,11.7,4.7,17.2l-1.6,2.5c-1.6,2.5-2.5,5.1-2.9,7.8L49.2,140.2z"/>
	<path class="st2" d="M5.7,206.7c-5.8-3.9-7.4-11.7-3.6-17.5l12.3-18.8c3.9-5.8,12.1-8.1,18.3-4.9l31.1,15.7
		c-2.1,1.4-3.9,3.1-5.3,5.3l-3.8,5.8c-3.6,5.5-11.4,6.6-17.5,2.6l-13.9-9.1c-0.8-0.5-1.8-0.3-2.3,0.5c-0.5,0.8-0.3,1.8,0.5,2.3
		l13.9,9.1c6.1,4,8.2,11.7,4.7,17.2l-1.8,2.7c-1.6,2.5-2.6,5.3-2.9,8.2C24,218.8,14,212.3,5.7,206.7z"/>
	<path class="st5" d="M911.1,276.3c-3,1.8-4.5,6.1-3.5,9.5l3.4,10.1l-8.3-7.3c-2.7-2.3-7.4-2.7-10.4-0.9l-7.8,4.7l15.6,12
		c2.1,1.6,5.5,1.7,7.5,0.3l12.9-8.3c2.1-1.4,3.5-4.5,3-7.1l-3.8-17.9L911.1,276.3z"/>
	<path class="st2" d="M922,159c-0.3-2.7-1.3-5.5-2.9-7.8l-1.6-2.5c-3.5-5.5-1.4-13.1,4.7-17.2l13.9-9.1c0.8-0.5,1-1.6,0.5-2.3
		c-0.5-0.8-1.6-1-2.3-0.5l-13.9,9.1c-6.1,4-14,2.9-17.5-2.6l-2.9-4.3c-1.4-2.3-3.4-4.2-5.6-5.6l30.4-16.8c6.1-3.4,14.3-1.3,18.1,4.5
		l11.4,17.4c3.9,5.8,2.2,13.9-3.5,17.9L922,159z"/>
	<path class="st2" d="M964.8,224.9c-0.3-2.9-1.3-5.7-2.9-8.2l-1.8-2.7c-3.5-5.5-1.4-13.1,4.7-17.2l13.9-9.1c0.8-0.5,1-1.6,0.5-2.3
		c-0.5-0.8-1.6-1-2.3-0.5l-13.9,9.1c-6.1,4-14,2.9-17.5-2.6l-3.8-5.8c-1.4-2.2-3.2-3.9-5.3-5.3l31.1-15.7c6.2-3.1,14.6-0.9,18.3,4.9
		l12.3,18.8c3.9,5.8,2.2,13.8-3.6,17.5C986,211.1,975.9,217.8,964.8,224.9z"/>
	<path class="st2" d="M391.8,229.9c-8.7-32.9-31.2-62-65-84.1c-3.2-2.1-7.3-4.7-12-7.5c0.6-0.1,1.3-0.4,2.1-0.5
		c4.3-1,8.8-0.4,12.7,1.8c18.2,10.1,36.1,22.9,47.1,30.9c5.5,3.9,8.8,9.7,10.9,16.1c7.3,21.8,9.4,42.9,7.5,63.3
		C394.7,243.1,393.5,236.5,391.8,229.9z"/>
	<path class="st6" d="M518.3,314c0.6-14.6,10.1-23.3,24.3-24.6c14.3-1.3,29.9,0.3,41.5,7.9c12.9,8.6,13.4,26.4,12.5,33.5
		c-0.9,7.3-4,12.1-13,13.6c-11.2,1.9-31.6,1.6-47.6-0.6C524.5,342.2,517.5,330.6,518.3,314z"/>
	<path class="st1" d="M536.1,313.6c3.6-3.6,5.5-9.2,7.8-13.9c2.9-6,7.9-6.1,15.6-5.5s12.5,1.9,14.9,9c2.1,6,2.1,8.8,4.4,11.3
		c3.2,3.2,9.7,5.2,14.3,6.1c-5.2-0.4-10.4,1-14.6,5.2c-1.9,1.9-2.6,3.9-3.8,7.9c-1.6,5.5-4.4,7-9,7c-4.7,0-7-0.3-11.8-0.4
		c-4.8-0.3-6.8-2.6-8.8-7.4c-1.4-3.6-1.7-5.8-3.9-8.2c-4.3-4.3-14.6-5.7-20.4-5.8C525.5,317.9,532.5,317.1,536.1,313.6z"/>
	<path class="st2" d="M544.8,317.7c0,6,6,5.8,13.3,5.8s13.3,0.1,13.3-5.8c0-7.5-4.5-13.3-13.3-13.3
		C549.9,304.5,544.8,309.7,544.8,317.7z"/>
</g>
<g id="_x2A__x2A__x2A_Copyright_Warning_x2A__x2A__x2A_">
</g>
</svg>
