<?xml version="1.0" encoding="utf-8"?>
<!-- Generator: Adobe Illustrator 23.0.2, SVG Export Plug-In . SVG Version: 6.00 Build 0)  -->
<svg version="1.1" id="Layer_1" xmlns="http://www.w3.org/2000/svg" xmlns:xlink="http://www.w3.org/1999/xlink" x="0px" y="0px"
	 width="800px" height="800px" viewBox="0 0 800 800" style="enable-background:new 0 0 800 800;" xml:space="preserve">
<style type="text/css">
	.st0{fill:#FFFFFF;}
	.st1{fill:#F7BBBB;}
	.st2{fill:#BFDFEB;}
	.st3{fill:#DBEDF5;}
	.st4{fill:#96C8D9;}
	.st5{fill:#C2E5F3;}
	.st6{fill:#98C1CF;}
	.st7{fill:#583B2F;}
	.st8{fill:#695045;}
	.st9{fill:#9FC5D2;}
	.st10{fill:#C2E5F1;}
</style>
<g>
	<g>
		<path class="st0" d="M282.5,424.3c4.4-1.4,8.5-3.6,13.2-3.9l-0.2,1.2c-0.7,0.2-1.5,0-2.2,0c-0.3,0.3-1,1-1.4,1.4
			c-0.2-0.2-0.5-0.5-0.7-0.7c-1.2,0.7-2.4,1.4-3.9,1.7c-3.4,3.1-8.2,4.6-11.3,8.2c-2.1,2.2-4.4,4.1-6.3,6.7
			c-1.7,2.9-3.4,5.6-5.6,8.4c-0.2,1.4-0.9,2.6-1.5,3.8c0.2,0.2,0.3,0.5,0.5,0.7c-0.7,0.9-1.7,1.9-1.2,3.1c-0.9,2.1-1.7,4.3-2.1,6.5
			c0,0.2,0.2,0.7,0.2,0.9c-0.3,1-0.9,2.1-1.2,3.1c0.2,0.3,0.7,0.9,0.9,1c-0.2,0.3-0.7,0.9-1,1.2c0.3,0.5,0.9,1.5,1,2.1
			c-0.9,1.7-0.7,3.6-0.7,5.3c0.2,1,0.5,2.1,0.7,3.1c0.3,2.6,1.2,5,1.5,7.5c0.9,1.5,1.2,3.2,1.9,4.8c1,1.7,2.6,3.2,2.7,5.3
			c0.5,0.9,1.2,1.7,1.7,2.6c0,0.3-0.2,0.9-0.2,1c3.9,4.3,8,8.5,12.5,12.3c2.7,0.5,4.6,2.9,7.3,3.4c1.4,0.9,2.4,2.4,4.3,2.2
			c1.2,0.5,2.4,1.2,3.6,2.1c1.5,0.2,3.1,0.3,4.4,0.7c1.9,1.2,4.1,0.3,6,1.5c2.9-0.2,5.8,0.3,8.7,0c1.4-0.2,2.7-0.3,4.1,0.2
			c1.9-1.5,4.4-0.7,6.5-2.1c0.7-0.2,1.4-0.3,2.1-0.5c0.3,0,0.9,0.2,1.2,0.2c3.2-2.6,7.3-3.2,10.3-6.3c0.3,0,0.9,0.2,1,0.2
			c4.4-3.4,8.5-7.2,12.1-11.6c0.9-1,1.9-2.2,1.7-3.6c1.4-1.5,2.4-3.2,3.8-4.8c0-0.3-0.2-0.9-0.3-1c1.9-3.2,2.4-7,4.3-10.3
			c-0.2-0.2-0.5-0.9-0.7-1c0.2-0.3,0.7-1.2,0.9-1.5c-0.5-3.1,1.2-6.2,0.9-9.2c-0.7-2.4-0.2-5-1-7.3c0-0.3,0.2-1.2,0.3-1.5
			c-0.5-0.9-1-1.5-1.5-2.4c0.2-0.2,0.7-0.7,0.9-0.9c-0.5-0.9-1.2-1.7-1.7-2.6c0-0.3,0-0.9,0-1.2c-0.2-0.9-0.2-1.5-0.2-2.2
			c-1-1.9-2.2-3.8-3.6-5.6c0-0.3,0.2-0.9,0.3-1.2c-1.7-2.1-3.6-3.9-4.8-6.3c-2.2-3.2-5.5-5.6-8.2-8.4c-0.3,0-0.9,0.2-1,0.2
			c-1.5-1.5-3.1-2.9-4.8-4.3c0-0.3-0.2-1-0.2-1.4c5.5,3.1,10.8,6.2,15.7,9.9c3.9,3.9,8.2,7.3,10.9,12.3c7.3,9.7,11.5,21.7,12.5,33.8
			c1,11.3-1.4,22.7-6,33c-2.7,5.3-6,10.3-9.6,15c-3.4,3.4-6.7,7.3-11.1,9.9c-10.4,8-23.2,12.3-36.4,13.3c-3.8-0.5-7.5-0.2-11.3-0.7
			c-3.2-0.3-6.3-1.5-9.6-2.1c-3.9-0.9-7.3-2.9-11.1-4.3c-2.9-1.2-5.1-3.6-8-4.8c-6.3-3.8-12.5-8.4-16.4-14.7
			c-8.2-10.4-12.8-23.6-13.5-36.9c-0.5-14,3.4-28.2,11.5-39.7c3.4-6.2,8.7-10.8,13.8-15.4C272.6,429.7,277.4,426.5,282.5,424.3z"/>
		<path class="st0" d="M474.3,420.3c3.4,0.3,6.7,1.2,9.7,2.7c6.5,1.9,12.1,6,17.8,9.6c4.3,3.6,8.2,7.7,12,12
			c3.2,5.6,7.3,10.9,9.2,17.1c7.7,18.8,5.5,41-5.3,58.1c-3.9,5.6-7.7,11.6-13.5,15.7c-2.4,1.4-4.6,3.4-7.2,4.6
			c-2.4,1.2-4.4,3.2-6.8,4.3c-4.4,1.9-8.9,4.4-13.8,5.1c-5.1,1.7-10.4,2.1-15.7,2.1c-2.9,0.5-5.6-0.2-8.5-0.3
			c-10.1-1.4-19.8-5.1-28.2-10.8c-2.4-2.1-5.5-3.4-7.7-5.8c-2.1-2.2-4.3-4.1-6.3-6.3c-3.2-4.6-6.3-9.2-9.1-14.2
			c-5.3-11.5-7.5-24.4-5.8-36.9c0.9-7,2.9-13.8,5.8-20.2c2.7-5.1,5.8-10.1,9.4-14.5c3.6-3.6,6.8-7.7,11.5-10.3c3.8-2.9,7.9-5,12-7.3
			c0,0.3,0.2,0.9,0.3,1.2c-1.7,1.4-3.4,2.7-5,4.3c-0.3,0-0.9-0.2-1-0.2c-2.7,2.7-5.8,5.3-8.2,8.4c-1.2,2.4-3.1,4.4-4.8,6.3
			c0,0.3,0.2,0.9,0.3,1.2c-1.7,2.4-3.8,4.8-3.8,7.9c0,0.3,0,0.9,0,1.2c-0.5,0.9-1.2,1.7-1.7,2.6c0.2,0.2,0.7,0.7,0.9,1
			c-0.5,0.9-1,1.5-1.5,2.4c0,0.3,0.2,1.2,0.3,1.5c-0.9,2.1-0.5,4.3-0.9,6.3c-1,3.4,1.2,6.8,0.7,10.4c0.2,0.3,0.7,1.2,0.9,1.5
			c-0.2,0.2-0.5,0.7-0.7,1c1.7,3.2,2.4,7,4.3,10.3c0,0.3-0.2,0.9-0.3,1c1.7,2.1,3.6,3.9,4.3,6.7c3.6,5.3,8.4,9.4,13.3,13.3
			c0.2,0,0.9-0.2,1-0.3c2.9,2.9,7,3.8,10.3,6.2c1.2,0,2.2,0.2,3.4,0.2c0.9,0.5,1.7,1,2.6,1.5c0.3-0.2,1-0.5,1.4-0.7
			c0.9,0.5,1.7,1,2.4,1.5c1.4-0.7,2.7-0.3,4.1-0.2c2.9,0.3,6-0.2,8.9,0.2c0.9-0.3,1.7-0.9,2.6-1.2c0.5,0.2,1,0.3,1.7,0.7
			c0.3-0.3,1.2-0.9,1.5-1.2c1.5-0.2,3.1-0.5,4.6-0.5c1.2-0.9,2.4-1.5,3.6-2.2c0.3,0.2,0.9,0.3,1.2,0.3c1-0.9,1.9-1.7,2.9-2.4
			c2.9-0.9,5.1-2.9,7.9-3.9c4.3-3.6,8-7.9,12-11.8c0-0.3-0.2-0.9-0.2-1c1.7-1.9,1.9-4.6,3.4-6.5c1.5-1.7,1.5-4.3,2.7-6.2
			c0.3-2.6,1.2-5,1.5-7.5c0.2-1,0.5-2.1,0.7-3.1c0.5-2.6-1.2-5,0.2-7.3c-0.5-1.7,0-3.8-0.9-5.5c0-2.6-0.9-5.1-2.2-7.5
			c0.2-0.3,0.5-0.9,0.5-1.2c-0.5-0.7-1.2-1.2-1.7-1.9c0.2-0.2,0.5-0.7,0.5-0.9c-0.5-1-1-1.9-1.5-2.7c0-0.2,0-0.7,0.2-1
			c-3.2-3.4-4.8-8.2-8.4-11.3c-2.4-2.1-4.3-4.6-6.8-6.5c-2.7-1.5-5.6-3.2-8-5.3c-1.7-0.2-3.1-1.5-4.8-1.4c-0.3-0.3-0.9-0.9-1.2-1.2
			c-0.7,0-1.4,0.2-2.2,0L474.3,420.3z"/>
		<path class="st0" d="M308.3,439.1c1.2-0.9,2.4-1.4,3.6-2.1c0.2,0.2,0.7,0.5,0.9,0.7c0.3-0.2,0.9-0.3,1-0.5
			c5.3,0.9,10.3,4.8,11.5,9.9c0.5,1.4,0.9,2.7,0.7,4.1c-0.3,1.7-0.9,3.2-1.2,5c-1.7,2.6-3.9,4.8-6.5,6.5c-0.2,0-0.7-0.2-1-0.2
			c-3.2,1.5-7.2,1-9.9-1c-1.7-0.7-3.1-2.1-3.8-3.8c-1-1.4-2.1-2.7-2.9-4.4c0.2-1.7,0.2-3.6-0.2-5.3c0.3-0.9,0.9-1.7,1.2-2.4
			c0.3-3.6,4.1-5.6,6.7-7.7L308.3,439.1z"/>
		<path class="st0" d="M450.7,439.1c1.5-1.4,3.8-1,5.5-2.1c0.2,0.2,0.7,0.5,1,0.7c1.9-1.4,3.4,1.4,5.3,1c2.2,1.4,4.1,3.1,5.5,5.3
			c0.5,1.4,0.7,2.9,1.5,4.1c-0.3,1.7-0.3,3.4-0.2,5.3c-0.9,1.5-1.9,2.9-2.7,4.4c-2.6,4.6-8.9,7.2-13.7,5c-0.2,0-0.7,0.2-1,0.2
			c-2.6-1.9-4.8-3.9-6.5-6.5c-0.3-1.7-0.9-3.4-1.2-5.1c-0.3-1.4,0.2-2.7,0.7-4.1C445.1,443.7,448,441.2,450.7,439.1z"/>
		<path class="st0" d="M302.2,485.1c1.2-2.4,4.3-4.6,7-3.4c2.2-0.7,4.6,1,6,2.7c0.2,2.1,1.2,4.1,1,6.3c-1,2.1-2.7,3.6-4.6,4.8
			c-0.2-0.2-0.7-0.5-0.9-0.7c-1.4,1.2-2.6-0.3-3.9-0.7c-2.1-0.3-3.4-2.1-4.6-3.6C302,488.9,301.2,486.8,302.2,485.1z"/>
		<path class="st0" d="M454.6,484.4c1.2-1.9,3.4-2.4,5.3-3.2c0.2,0.2,0.7,0.3,0.9,0.5c2.7-1.2,5.8,1,7.2,3.4c1,1.7,0.2,3.8-0.2,5.6
			c-1.2,1.4-2.4,3.1-4.3,3.4c-1.2,0.2-2.2,0.9-3.1,1.4c-0.3-0.2-0.9-0.5-1-0.7c-1,1-2.1-0.2-2.7-0.7c-1.2-1-2.1-2.2-2.7-3.4
			c0-1.9,0-3.8,1-5.3C454.8,485.1,454.6,484.6,454.6,484.4z"/>
	</g>
	<g>
		<path class="st1" d="M371.4,533.5c2.7-2.2,6.5-1.7,9.9-1.9c4.6,0.2,9.9-0.5,14,2.1c2.1,1.4,4.1,3.9,3.4,6.5
			c-2.1,6.2-6.5,11.1-11.6,14.9c-1.2,0.3-2.2,0.7-3.4,1c-3.6-0.2-6.2-2.9-8.2-5.5c-2.6-3.4-5.5-6.8-6.2-11.1
			C368.7,537.2,369.5,534.7,371.4,533.5z"/>
	</g>
	<g>
		<path class="st2" d="M245.1,16.1c7.9-6.7,18.6-9.6,28.9-8.4c10.4,1,20,5.5,28.5,11.3c12.6,9.1,23.1,21,32.1,33.5
			c15.9,22,26.8,47.5,33,73.8c8.4,36.2,12,73.3,13.8,110.2c0.2,9.9,0.2,19.8,0,29.9c0.2,7.5-0.9,15-0.9,22.6
			c-0.7,9.7-1.2,19.5-1.7,29.1c-0.7,4.4-0.2,9.1-1.2,13.5c0-1.4,0-2.7,0-4.1c-7.7-0.3-15.4,1.2-22.9,1.7c0.5-9.9,0-19.8,0.9-29.7
			c0.2-9.7,0.2-19.5-0.3-29.2c0-17.4-1.5-34.9-3.2-52.3c-3.1-28-7.9-56.6-20-82.2c-6.3-13.2-13.5-26.1-25-35.5
			c-5.1-3.8-11.8-6.7-18.1-4.4c-6.2,2.4-9.6,8.7-11.5,14.7c-2.9,10.4-2.7,21.4-2.2,32.1c2.4,29.9,12.1,58.5,22.7,86.3
			c6.5,16.6,10.9,33.8,16.4,50.8c5.5,17.9,11.3,35.9,16.4,54c-4.3,1-8.5,2.1-12.8,3.1c-2.7,0.7-5.6,0.9-8,2.6
			c-4.1-14.2-9.6-27.9-15-41.5c-10.4-26.1-21.7-52-32.5-78.1c-12.1-29.9-24.4-60-32.1-91.3c-4.4-17.1-7.2-34.7-7.3-52.3
			c0.5-8,0.9-16.1,2.6-23.9C228.2,38.7,234.2,25.2,245.1,16.1z"/>
		<path class="st2" d="M458.2,151.5c17.4-1.4,34.5,2.7,51.4,5.3c16.9,3.2,34.5,5.5,49.9,13.7c9.1,4.8,16.1,12.8,21.2,21.5
			c6.8,11.3,11.1,23.9,14.9,36.6c5,17.6,9.4,35.5,11.1,53.8c1.2,14.5,1.2,29.4-2.9,43.4c-2.1,6.5-5.1,13.2-10.4,17.8
			c-5.5,5-13.3,6.3-20.2,4.8c-9.7-1.9-18.1-7.9-25-14.9c-10.8-10.6-19.3-23.2-28.2-35.4c-6.5-8.5-12.5-17.9-21.7-23.9
			c0.3,0,1.2,0,1.5,0c-4.8-6.2-10.4-11.8-15-18.1c-4.4-6.3-9.9-12-14.4-18.3c-2.6-3.8-5.6-7.3-8.4-11.1c-5.5-7.2-10.3-15-16.1-22
			c-2.9-4.1-5-8.5-7.2-13c-4.3-8.4-7.9-17.1-11.1-26.1C435.7,156.8,446.9,152.2,458.2,151.5z"/>
		<path class="st2" d="M401.8,249.6c3.1-22.6,6.8-45.3,15.7-66.5c3.6,10.8,9.9,20.5,15.9,30.1c0.9,1.5,2.2,2.9,3.6,3.9
			c-0.3,0.5-0.5,0.9-0.9,1.4c-6.3,11.1-10.4,23.2-13.8,35.4c-5,18.6-7.5,37.8-9.4,56.9c-0.5,6-1.2,12-1,17.9
			c-5.5-0.5-10.9-1-16.6-1.5c0-9.2,1.2-18.5,1.5-27.9C397.9,282.9,399.8,266.2,401.8,249.6z"/>
		<path class="st2" d="M477.7,267.7c0.2-0.2,0.3-0.5,0.5-0.7c3.4,4.1,7.7,7.3,11.3,11.1c-7.5,9.6-13.3,20.3-18.6,31.3
			c-4.6,9.9-9.1,20-13,30.3c-4.8-2.7-10.4-2.9-15.6-4.8c4.6-11.3,9.7-22.4,15.7-33C464.2,290.1,471.2,279.2,477.7,267.7z"/>
		<g>
			<path class="st2" d="M353.3,349.4c0-2.6,0.3-5,0.9-7.5c0,2.2,0,4.6,0.2,6.8c7.2-0.5,14.5-0.9,21.7-1.5c0.2-0.3,0.3-1,0.5-1.4
				c0.2,0.5,0.3,1.5,0.5,2.1c5-0.7,10.1-0.3,15,0c0.2-0.2,0.5-0.5,0.7-0.7c6.2,1.4,12.5,1,18.8,2.2c7.9,1.2,15.6,2.2,23.2,4.1
				c5.1,0.9,9.9,2.7,15,4.1c0.5-0.7,0.9-1.4,1.4-2.1c-0.7,2.6,2.2,3.1,3.9,3.8c7.5,2.4,14.9,5.3,21.9,8.7c6.8,2.6,12.8,6.8,19.3,9.9
				c5.5,3.9,11.5,7.2,16.7,11.6c2.7,1,3.9,3.8,6.3,5c2.2,1.2,3.2,3.9,5.6,5c5,5.1,10.4,9.9,14.7,15.7c2.4,2.1,3.6,5.1,6,7.2
				c5.8,8.7,11.6,17.4,15.6,27.2c3.9,8.2,6.2,17.1,8.4,26c0.9,4.3,1.5,8.5,1.7,13c0.9,7,0.9,14.2,0,21c0.2,6.5-1.5,12.8-3.1,19.1
				c-0.9,5.1-3.1,9.9-4.4,14.9c-1,3.1-2.7,5.8-3.8,8.9c-0.5,1.7-1.7,3.1-2.6,4.6c-1.5,2.7-2.4,5.8-4.6,8.2c-1.2,1.2-0.9,3.2-2.4,4.3
				c-2.2,1.7-2.9,4.6-4.8,6.5c-3.9,5.1-8.2,10.1-12.8,14.9c-1.9,1.4-2.7,3.8-4.8,5c-1.7,1-2.4,3.1-4.3,4.1c-3.4,2.2-6,5.6-9.6,7.5
				c-1,0.7-1.9,1.5-2.7,2.4c-7,4.6-13.7,9.7-21.2,13.2c-9.7,5.5-20,9.9-30.6,13.7c-0.9,0.3-2.1,0.3-2.7,1.2c1.4,0,2.7,0.2,4.1,0.2
				c-2.9,0.7-6,0-8.7,0.9c-6.2,1.9-12.3,3.6-18.5,4.8c-25.8,5.6-52.3,6.5-78.4,3.6c-7.7-1.2-15.6-2.1-23.1-4.1
				c-3.9-0.7-7.9-2.2-12-2.1c-0.9-0.7-1.7-1.4-2.7-1.7c-11.5-2.9-22.2-7.5-32.8-12.6c-3.4-1.2-6.2-3.6-9.6-4.8
				c-5.5-3.2-10.8-6.3-15.9-9.9c-1.5-1.5-3.9-1.9-5.3-3.8c-1.2-1.4-2.7-2.4-4.3-3.2c-1.5-1.2-2.4-3.1-4.3-3.8
				c-2.1-0.9-2.7-3.2-4.6-4.3c-2.2-1-3.1-3.6-5.1-4.8c-2.1-1.2-2.9-3.6-5-4.8c-5.1-6-10.6-12-14.7-18.8
				c-8.4-12.6-15.2-26.5-18.6-41.4c-4.4-15.6-4.3-32-2.4-47.9c1.9-11.5,5.1-22.9,10.3-33.3c0.9-2.2,1.9-4.4,3.2-6.5
				c2.9-6.3,7-12,10.8-17.6c2.4-2.4,3.9-5.5,6.5-7.7c1.2-2.1,2.7-3.6,4.6-5.1c1.2-1.9,2.7-3.2,4.4-4.6c2.7-3.2,6.3-5.6,9.2-8.7
				c1.4-1.7,4.3-2.1,5.1-4.3c2.6-1.7,5.1-3.4,7.5-5.5c4.1-4.3,9.1-7.7,14.4-9.9c0-0.3,0.2-0.9,0.3-1c5.1-1.7,9.6-5.1,14.5-7.2
				c6.3-2.7,12.6-5.8,19.3-7.9c3.2-0.9,6.5-2.4,9.7-3.2c5-1,9.7-2.9,14.9-3.6c2.1-0.3,4.1-0.9,6-1.4
				C341.5,350.4,347.5,349.4,353.3,349.4z M287.1,397.6c-8,3.8-16.1,7.9-22.6,13.8c-2.4,2.2-5,5-5,8.4c2.7-1.5,4.8-4.1,7.3-6.2
				c5.3-4.3,11.3-7.5,17.3-10.4c5.1-2.6,10.4-4.8,15.9-6.3c2.7-0.9,5.5-1,8-2.6c-0.5-0.9-0.9-2.2-2.2-2.1
				C299.3,392,293.1,395,287.1,397.6z M463.7,394.7c-0.3,0.7-0.5,1.4-0.9,2.1c2.9,1.7,6.3,1.9,9.6,3.1c9.9,3.4,19.5,7.9,28.2,13.7
				c3.9,2.4,6.8,6.2,10.4,8.7c0.2-1.4-0.2-2.9-1-4.1c-2.2-3.2-5.1-5.8-8.2-8.2c-7.2-5.1-15.2-9.1-23.4-12.5
				C473.8,395.7,468.6,394,463.7,394.7z M298.8,420c-1,0.7-2.1,1.4-3.2,1.5l0.2-1.2c-4.6,0.3-8.9,2.4-13.2,3.9
				c-5.1,2.4-9.9,5.5-14.5,8.5c-5.1,4.6-10.4,9.2-13.8,15.4c-8,11.6-12,25.6-11.5,39.7c0.7,13.3,5.1,26.5,13.5,36.9
				c3.8,6.5,9.9,11.1,16.4,14.7c2.9,1.2,5.1,3.8,8,4.8c3.6,1.5,7.2,3.6,11.1,4.3c3.2,0.7,6.3,1.7,9.6,2.1c3.8,0.5,7.5,0.2,11.3,0.7
				c13-0.9,26-5.3,36.4-13.3c4.3-2.4,7.5-6.3,11.1-9.9c3.6-4.8,6.8-9.7,9.6-15c4.6-10.3,7-21.7,6-33c-0.9-12.1-5.1-24.1-12.5-33.8
				c-2.7-5-7.2-8.4-10.9-12.3c-5-3.8-10.3-6.8-15.7-9.9c0,0.3,0.2,1,0.2,1.4c-2.7,0-4.6-2.2-6.8-3.4c-1.4,0.3-2.6-1-3.9-0.2
				c-0.7-0.5-1.2-1-1.9-1.5c-2.2,0.7-3.9-1.4-6.2-1.2c-1.5,0-3.2-0.9-4.6,0.3c-0.3-0.3-1-0.9-1.4-1c-0.5,0.3-1,0.7-1.5,1
				c-1-0.7-2.2-0.5-3.4-0.5c-0.3,0.2-0.9,0.5-1.2,0.9l-0.9-0.7C302.7,419.8,300.8,420.3,298.8,420z M452.6,419.5
				c-2.2-0.2-3.9,1.7-6.2,1c-0.7,0.5-1.4,1-1.9,1.7c-0.2-0.2-0.5-0.5-0.9-0.7c-1,0.5-1.9,0.9-3.1,0.7c-2.2,1.2-4.1,3.4-6.8,3.4
				c0-0.3-0.2-0.9-0.3-1.2c-4.1,2.4-8.2,4.4-12,7.3c-4.4,2.6-7.7,6.7-11.5,10.3c-3.6,4.6-6.5,9.6-9.4,14.5c-2.9,6.5-5,13.2-5.8,20.2
				c-1.7,12.5,0.5,25.5,5.8,36.9c2.7,5,5.6,9.6,9.1,14.2c2.1,2.2,4.3,4.3,6.3,6.3c2.2,2.4,5.3,3.6,7.7,5.8
				c8.4,5.6,18.1,9.4,28.2,10.8c2.9,0.2,5.6,0.9,8.5,0.3c5.3,0,10.6-0.3,15.7-2.1c5-0.7,9.4-3.1,13.8-5.1c2.6-1,4.4-3.1,6.8-4.3
				c2.6-1.2,4.8-3.1,7.2-4.6c5.8-4.1,9.6-10.1,13.5-15.7c10.8-17.1,13-39.3,5.3-58.1c-1.9-6.3-6-11.6-9.2-17.1
				c-3.6-4.3-7.5-8.4-12-12c-5.6-3.6-11.3-7.7-17.8-9.6c-3.1-1.4-6.3-2.2-9.7-2.7l0.2,1.2c-1.2-0.2-2.2-0.9-3.2-1.5
				c-1.4,0-2.7,0.2-3.9-0.3c-0.9-0.2-2.1-1.2-2.7,0.2c-0.3-0.2-0.9-0.5-1.2-0.9c-1.2,0-2.4,0-3.4,0.5c-0.5-0.3-1-0.7-1.7-1
				c-0.3,0.3-1,0.9-1.2,1C455.8,418.6,454.1,419.5,452.6,419.5z M371.4,533.5c-1.9,1.4-2.7,3.8-2.2,6c0.9,4.3,3.6,7.9,6.2,11.1
				c2.1,2.6,4.6,5.3,8.2,5.5c-0.7,1-0.7,2.4-0.9,3.6c-0.7,4.8-2.7,9.2-5.1,13.3c-2.7,4.1-5.8,8.5-10.6,10.4
				c-3.6,1.5-7.9,0.7-11.1-1.2c-4.4-2.6-8.9-6-10.9-10.8c-0.7-1.4-1.2-3.2-3.1-3.6c-0.5,2.6-0.2,5.3,1,7.7
				c2.7,5.1,7.5,8.7,12.6,11.1c4.4,2.1,9.9,2.1,14.2-0.3c6-3.1,9.4-9.2,12.6-14.7c1,4.8,3.2,9.4,7.5,12.3c3.9,3.2,9.7,4.6,14.2,1.7
				c7-4.3,12.6-12.6,10.9-21.2c-0.3-1.4-1.5-0.3-1.4,0.5c-0.7,4.4-2.1,9.1-5.1,12.5c-2.6,2.9-6,6.3-10.3,5.5
				c-4.6-1.4-8.4-5.1-10.1-9.6c-1.9-6-1-12.1-1.4-18.3c5.1-3.8,9.6-8.7,11.6-14.9c0.7-2.7-1.4-5.1-3.4-6.5c-4.1-2.7-9.2-2.1-14-2.1
				C378.1,531.8,374.3,531.3,371.4,533.5z"/>
		</g>
		<path class="st2" d="M549.7,588.8c6.2-2.4,12.8-1.5,19.1,0c2.4,1,4.6,2.2,6.5,4.1c2.7,3.6,4.8,8.2,4.6,13
			c-0.9,3.6-2.2,6.8-2.9,10.4c-0.5,2.4-2.6,3.8-3.8,5.8c-2.1,4.8-5.1,9.2-9.2,12.5c-0.9,0.9-1.4,1.9-2.1,2.9c-3.2,1.9-5,5.8-8.4,7.7
			c-2.9,1.5-4.4,4.8-7.7,5.8c-2.7,0.9-4.6,3.4-7.5,4.4c-6,5-13.5,6.7-20,10.6c-2.6,1.7-5.6,2.1-8.4,3.6c-1.9,1-3.9,1.9-6,2.9
			c-0.3-0.2-1.2-0.5-1.7-0.7c-3.2,1.4-6.3,3.4-9.7,4.1c-3.9,0.5-7.5,2.9-11.6,2.7c1.5,5.1,4.4,9.9,5.3,15.4c1,5.3,3.1,10.3,4.1,15.6
			c0.3,7.7,0.9,15.6,0.7,23.2c-0.2,7.9,0.5,16.1-1.9,23.8c2.9-1.5,6.2-2.1,9.4-2.6c8.4-2.1,17.1-3.1,25.6-2.9
			c3.9,0.2,7.7,1,11.5,2.2c2.6,1,5.6,1,8,2.6c2.2,1.4,4.4,2.6,6.7,3.8c1.7,1.7,3.4,3.4,5,5.3c0.9,3.2,1.2,7.5-1.4,10.3
			c-1.5,1.9-3.6,2.9-5.5,4.1c-2.6,1.4-5,3.1-7.9,3.6s-5.6,1.9-8.7,2.6c-7.5,1.7-15,0.7-22.7,1c-2.9,0.2-5.8,0.7-8.9,0.5
			c-4.4-0.3-9.1,0.2-13.5,0.3c-3.8,0.2-7.5-0.5-11.3-0.2c-4.3,0-8.5,0.3-12.8-0.2c-4.6-0.5-9.4,0.3-13.8-0.5
			c-3.6-0.7-7.2,0.3-10.6,0.7c-10.4,0-20.9,0.7-31.4,0.9c-5,1.2-9.9,0-14.9,1c-2.6,0.5-5-0.3-7.5,0.2c-2.4,0.3-4.6,0.5-7,0.3
			c-3.2-0.3-6.3,0.9-9.6,0.5c-3.4-0.5-6.7,0.5-10.1,0.2c-2.9-0.3-5.6,0.2-8.4,0.3c-6.7-0.9-13.3,1.2-20.2,1.5
			c-10.3,0.2-20.5,0.5-30.8,0c-11.6,0.3-23.1-1.4-34.4-3.9c-2.6-0.5-5.1-0.5-7.7-1.2c-4.3-1.2-8-3.4-12.3-4.4
			c-4.4-2.1-8.5-5.5-10.3-10.3c-1-3.6,0.9-7.2,2.7-10.1c2.4-4.4,6.8-7.2,11.1-9.4c4.3-2.6,9.2-2.7,13.8-3.8
			c6.2-1.2,12.5-0.7,18.8-0.2c4.8,0.9,9.7,1.2,14.4,3.2c0.2-4.3-1-8.5-0.5-12.8c0.3-3.9,0.5-7.9,1.2-11.6c1-5,0.9-10.3,2.1-15.2
			c1.2-5.3,0.5-10.8,2.4-15.9c0.7-2.4,1-5,1.5-7.5c-5-1.5-9.7-3.4-14.7-4.1c-6-1.2-11.1-5.1-17.3-5.3c-3.6-0.9-6.8-3.1-10.4-4.1
			c-3.9-1.2-7.2-3.8-11.1-4.8c-3.4-1-6.2-3.6-9.4-4.8c-2.9-1.2-4.8-4.1-7.9-4.8c-2.4-0.7-4.1-2.9-6.3-4.1c-2.6-1.4-4.4-3.8-7-5.1
			c-1.9-1-2.9-3.1-4.8-4.3c-2.1-1.2-2.7-3.6-4.8-4.8c-2.4-1.4-3.1-4.3-5.3-6c-3.1-3.4-6-7-7.2-11.5c-2.2-4.6-3.4-9.9-2.1-14.9
			s5.3-9.6,10.6-10.3c5.3-1.9,10.9-0.9,16.2,0.3c5.1,0.3,9.4,3.4,14.2,5c2.4,0.7,4.6,2.4,6.7,3.6c2.2,1.4,5,1.7,7,3.4
			c2.6,2.1,6,2.7,8.5,5c2.2,1.7,5,2.4,7,4.1c2.4,1.9,5.5,2.9,7.9,4.8c2.7,2.4,6.5,3.4,9.2,5.8c6.8,3.8,14.2,6.5,21.7,8.9
			c5.5,1.7,11.5,1.9,17.3,0.9c-0.2,0.2-0.5,0.7-0.7,1c4.1,3.1,8.9,5.1,13.3,7.9c9.9,5.5,21,8.2,31.8,11.5l0.7,0.2
			c-6.2,4.1-12.1,8.7-16.4,14.9c-6.5,9.1-9.9,20-10.8,31.1c-0.7,8.5,1.5,17.1,4.8,25.1c2.7,5,5.1,10.1,8.9,14.2
			c5.3,5.5,11.3,10.8,18.5,13.8c3.1,1.9,6.5,2.9,9.9,3.6c9.1,2.4,18.8,2.7,27.7,0c5.5-0.7,10.3-3.4,15-6.2c4.1-2.9,8.2-5.6,11.5-9.4
			c3.6-3.9,6.5-8.5,9.1-13.3c1.7-5,4.1-9.9,5.1-15c1.7-9.6,0.9-19.5-2.9-28.4c-3.8-11.8-12.1-21.9-22.4-28.4
			c-2.4-2.1-5.5-3.6-8.5-3.9l0.9-0.2c15.2-2.6,30.4-7,43.6-15.2c5-3.1,10.3-5.8,14.5-9.7l0.2-0.2c1.2-0.2,2.6-0.3,3.6-1.2
			c3.1-2.2,7-3.2,9.9-5.6c1.7-1.5,4.1-1.9,6-2.9c2.7-1.7,5.8-2.9,8.2-5.1c1.4-1.4,3.6-1,5-2.6c2.1-2.4,5-3.6,7.5-5.5
			c1.7-1.7,3.2-3.6,5.5-5c2.6-1.5,3.6-5.1,6.8-5.5c2.2-3.2,6-4.4,9.1-6.5c1.5-1,3.4-1.4,4.8-2.6C542,590,546.1,589.9,549.7,588.8z"
			/>
	</g>
	<path class="st3" d="M289,95.9c6.3-2.2,13,0.7,18.1,4.4c11.5,9.2,18.8,22.4,25,35.5c12.3,25.6,17.1,54.2,20,82.2
		c1.7,17.4,3.2,34.9,3.2,52.3c0.5,9.7,0.5,19.5,0.3,29.2c-0.7,9.9-0.2,39.8-0.9,49.7c0,0.2-0.2,0.5-0.2,0.7c-5,0-9.7,1.4-14.5,2.2
		c-3.1,0.5-6.2,1.4-9.2,2.4c0-0.2-0.2-0.7-0.3-0.9c-5.1-18.1-10.9-55.9-16.4-74c-5.5-16.9-9.9-34.2-16.4-50.8
		c-10.4-27.9-20.2-56.6-22.7-86.3c-0.5-10.8-0.7-21.7,2.2-32.1C279.3,104.7,282.7,98.3,289,95.9z"/>
	<path class="st3" d="M436.2,218.7c6.2,6.2,10.4,14,15.9,20.7c4.6,5.5,9.4,11.1,14.2,16.4c3.9,3.9,7.2,8.5,11.5,12.1
		c-6.5,11.5-13.7,22.4-19.5,34c-6,10.6-11.1,21.7-15.7,33c-0.2,0.2-6.9,19.2-6.9,19.5c-7-2.1-8.4-1.9-15.4-3.7
		c-3.1-0.7-11.8-2-14.8-2c0-0.3,6.6-19.5,6.6-19.9c-0.2-6,0.5-12,1-17.9c1.9-19.1,4.4-38.3,9.4-56.9
		C425.8,241.7,429.9,229.6,436.2,218.7z"/>
	<path class="st3" d="M398.6,662.3c5.1-0.7,10.3-0.7,15.2-2.1c3.2,0.5,6.2,1.9,8.5,3.9c10.4,6.7,18.6,16.6,22.4,28.4
		c3.8,8.9,4.6,19,2.9,28.4c-1,5.3-3.4,10.1-5.1,15c-2.6,4.8-5.5,9.2-9.1,13.3c-3.2,3.8-7.3,6.5-11.5,9.4c-4.8,2.7-9.6,5.3-15,6.2
		c-9.1,2.7-18.6,2.4-27.7,0c-3.6-0.5-6.8-1.7-9.9-3.6c-7.2-3.1-13.2-8.2-18.5-13.8c-3.9-4.1-6.3-9.2-8.9-14.2
		c-3.1-8-5.5-16.4-4.8-25.1c0.9-11.1,4.3-22,10.8-31.1c4.3-6.2,10.3-10.8,16.4-14.9c2.6,0.9,5.3,0.9,8,0.7
		C381.1,662.2,389.9,663.5,398.6,662.3z"/>
	<path class="st3" d="M284.8,703.7c2.6-3.1,5.6-6.2,9.7-6.5c-2.4,4.4-3.6,9.4-5,14.4c-2.4,9.2-3.6,18.6-4.1,28
		c-6.2,0.9-12.3,0.9-18.5,2.4c-6.7,1.4-12.8,3.9-19,6.8c0.3-2.6,1.9-4.6,3.6-6.5c1.4-1.5,1.5-3.6,2.1-5.5c0.9-3.8,3.6-6.7,5.8-9.7
		c1.7-2.6,5.1-3.1,7.7-4.3c-0.9-3.9-1.7-8,0-12c1.4-3.8,4.6-7,8.7-7.9C278.9,702.2,281.8,703,284.8,703.7z"/>
	<path class="st4" d="M417.5,183.1c2.9-6.3,6-12.5,10.6-17.6c3.1,8.9,6.7,17.6,11.1,26.1c2.2,4.4,4.3,9.1,7.2,13
		c-3.6,3.9-6.8,8-9.6,12.6c-1.4-1.2-2.6-2.4-3.6-3.9C427.5,203.6,421.1,193.9,417.5,183.1z"/>
	<path class="st4" d="M478.2,267c2.4-3.6,4.6-7.3,7-10.9c4.6,6.3,10.1,12,15,18.1c-0.3,0-1.2,0-1.5,0c-3.6-1-6.7,1.5-9.1,3.9
		C485.9,274.2,481.6,271.1,478.2,267z"/>
	<path class="st2" d="M354.8,319.4c7.7-0.5,15.2-2.1,22.9-1.7c0,1.4,0,12.7,0,14.1c-0.3,4.6-0.7,9.4-1.2,14c-0.2,0.3-0.3,1-0.5,1.4
		c-7.2,0.7-14.4,1-21.7,1.5c0-2.2-0.2-4.6-0.2-6.8c0.5-3.9,0.2-7.9,0.5-11.8C354.7,329.9,354.8,319.6,354.8,319.4z"/>
	<path class="st2" d="M395.3,324.7c5.5,0.3,11.1,0.6,16.8,1.1c0,0.3-0.3,4.1-0.3,4.5c-0.2,6.3-0.2,12.8,0,19.1
		c-6.2-1.2-12.6-0.9-18.8-2.2c0.2-3.9,1.7-7.7,1.5-11.6C394.5,332.8,394.7,327.4,395.3,324.7z"/>
	<path class="st2" d="M317.7,336.9c4.3-1,3.4-4.4,7.7-5.6c0,0.2,0.7,3.3,2.9,7.1c2.4,5.5,5.4,9.8,7.3,15.2c-2.1,0.5-3.9,1.2-6,1.4
		c-5.1,0.7-9.9,1.6-14.9,2.6c-2.1-5.6-2.8-13.5-5-19.2C312.2,336.9,315,337.6,317.7,336.9z"/>
	<path class="st2" d="M442.5,334.7c5.1,1.9,10.8,2.1,15.6,4.8c-2.4,5.3-4.1,10.8-6.7,16.1c-0.5,0.7-0.9,1.4-1.4,2.1
		c-5-1.2-9.9-3.2-15-4.1c2.4-6,4.6-12,7-17.8C442.2,335.6,442.3,335.1,442.5,334.7z"/>
	<path class="st4" d="M461.5,638.2c3.9-0.5,7.3-2.6,11.3-3.2c-4.3,3.9-9.6,6.5-14.5,9.7c-13.2,8.2-28.4,12.8-43.6,15.2
		c-2.6-1.2-5.1-2.7-8-3.1c-5-0.7-9.9-1.9-15-1.9c-4.8-0.2-9.6,1-14.2,1.9c-5,0.9-9.1,4.1-13.8,5.3c-10.8-3.2-21.9-6-31.8-11.5
		c-4.4-2.6-9.2-4.8-13.3-7.9c0.2-0.2,0.5-0.7,0.7-1l1.2-0.5c4.1-0.2,8,1.4,12,2.1c7.5,2.1,15.4,2.9,23.1,4.1
		c26.1,2.9,52.8,1.9,78.4-3.6c6.3-1,12.5-2.9,18.5-4.8C455.5,638.2,458.6,638.9,461.5,638.2z"/>
	<path class="st5" d="M446.6,204.6c5.6,7,10.4,14.9,16.1,22c2.7,3.8,5.8,7.2,8.4,11.1c4.4,6.5,9.9,12,14.4,18.3
		c-2.2,3.8-4.4,7.3-7,10.9c-0.2,0.2-0.3,0.5-0.5,0.7c-4.3-3.6-7.5-8-11.5-12.1c-5-5.3-9.6-10.9-14.2-16.4
		c-5.5-6.7-9.9-14.4-15.9-20.7c0.3-0.5,0.5-1,0.9-1.4C439.6,212.7,443,208.4,446.6,204.6z"/>
	<g>
		<path class="st6" d="M287.1,397.6c6-2.6,12.1-5.6,18.8-5.3c1.4-0.2,1.7,1.2,2.2,2.1c-2.4,1.5-5.3,1.7-8,2.6
			c-5.5,1.7-10.8,3.8-15.9,6.3c-6,2.9-12,6.2-17.3,10.4c-2.6,2.1-4.4,4.4-7.3,6.2c0-3.6,2.6-6.2,5-8.4
			C271.1,405.3,279.1,401.4,287.1,397.6z"/>
		<path class="st6" d="M463.7,394.7c5.1-0.7,10.1,1,14.7,2.9c8.2,3.4,16.2,7.2,23.4,12.5c3.1,2.4,6.2,5,8.2,8.2
			c0.9,1.2,1.2,2.6,1,4.1c-3.8-2.7-6.7-6.3-10.4-8.7c-8.7-5.8-18.3-10.4-28.2-13.7c-3.1-1.2-6.7-1.4-9.6-3.1
			C463.2,396.1,463.4,395.4,463.7,394.7z"/>
	</g>
	<g>
		<g>
			<path class="st7" d="M298.8,420c2.1,0.2,3.9-0.2,5.8-0.9l0.9,0.7c0.3-0.2,0.9-0.5,1.2-0.9c1.2,0,2.4,0,3.4,0.5
				c0.5-0.3,1-0.7,1.5-1c0.3,0.3,1,0.9,1.4,1c1.2-1.2,3.1-0.3,4.6-0.3c2.2-0.2,3.9,1.7,6.2,1.2c0.7,0.5,1.2,1,1.9,1.5
				c1.2-0.9,2.6,0.5,3.9,0.2c2.2,1.2,4.1,3.4,6.8,3.4c1.7,1.4,3.2,2.7,4.8,4.3c0.3,0,0.9-0.2,1-0.2c2.7,2.7,5.8,5.3,8.2,8.4
				c1.2,2.4,3.1,4.3,4.8,6.3c0,0.3-0.2,0.9-0.3,1.2c1.2,1.9,2.6,3.6,3.6,5.6c0,0.7,0.2,1.5,0.2,2.2c0,0.3,0,0.9,0,1.2
				c0.5,0.9,1.2,1.7,1.7,2.6c-0.2,0.2-0.7,0.7-0.9,0.9c0.5,0.9,1,1.5,1.5,2.4c0,0.3-0.2,1.2-0.3,1.5c1,2.4,0.3,5,1,7.3
				c0.3,3.1-1.4,6.2-0.9,9.2c-0.2,0.3-0.7,1.2-0.9,1.5c0.2,0.2,0.5,0.9,0.7,1c-1.7,3.2-2.4,7-4.3,10.3c0,0.3,0.2,0.9,0.3,1
				c-1.4,1.5-2.4,3.4-3.8,4.8c0.2,1.4-0.9,2.6-1.7,3.6c-3.6,4.3-7.7,8.2-12.1,11.6c-0.3,0-0.9-0.2-1-0.2c-2.9,3.1-7,3.8-10.3,6.3
				c-0.3,0-0.9-0.2-1.2-0.2c-0.7,0.2-1.4,0.3-2.1,0.5c-2.1,1.5-4.6,0.5-6.5,2.1c-1.4-0.5-2.7-0.3-4.1-0.2c-2.9,0.3-5.8-0.2-8.7,0
				c-1.9-1.2-4.1-0.3-6-1.5c-1.5-0.3-2.9-0.5-4.4-0.7c-1.2-0.9-2.4-1.5-3.6-2.1c-1.7,0.2-2.9-1.2-4.3-2.2c-2.7-0.5-4.6-2.9-7.3-3.4
				c-4.4-3.8-8.4-8-12.5-12.3c0-0.3,0.2-0.9,0.2-1c-0.7-0.9-1.2-1.7-1.7-2.6c0-2.1-1.7-3.6-2.7-5.3c-0.7-1.5-1-3.2-1.9-4.8
				c-0.3-2.6-1.2-5-1.5-7.5c-0.2-1-0.5-2.1-0.7-3.1c0-1.9-0.2-3.8,0.7-5.3c-0.3-0.5-0.9-1.5-1-2.1c0.2-0.3,0.7-0.9,1-1.2
				c-0.2-0.3-0.7-0.9-0.9-1c0.3-1,0.7-2.1,1.2-3.1c0-0.2-0.2-0.7-0.2-0.9c0.3-2.2,1.2-4.4,2.1-6.5c-0.5-1.2,0.5-2.2,1.2-3.1
				c-0.2-0.2-0.3-0.5-0.5-0.7c0.7-1.2,1.4-2.4,1.5-3.8c2.1-2.6,3.9-5.5,5.6-8.4c1.9-2.4,4.3-4.4,6.3-6.7c3.1-3.6,7.9-5,11.3-8.2
				c1.4-0.2,2.7-0.9,3.9-1.7c0.2,0.2,0.5,0.5,0.7,0.7c0.3-0.3,1-1,1.4-1.4c0.7,0,1.4,0.2,2.2,0C296.7,421.4,297.7,420.7,298.8,420z
				 M308.3,439.1v-1c-2.6,2.1-6.3,4.1-6.7,7.7c-0.3,0.9-0.9,1.5-1.2,2.4c0.3,1.7,0.3,3.4,0.2,5.3c0.7,1.5,1.9,2.9,2.9,4.4
				c-2.1,0-3.8,1.2-5.1,2.6c-2.6,2.6-5.6,5-7.2,8.4c-1,2.2-3.2,3.9-3.9,6.5c-0.9,4.6-3.6,9.2-2.4,14c0,10.9,9.6,21,20.5,21.4
				c3.9-0.3,7.7-1,11.6-1.9c2.6-0.9,5-2.1,7.3-3.1c3.8-3.2,8.5-5.3,11.1-9.6c1.7-3.1,4.6-5.5,5.3-9.1c1.9-3.2,2.2-6.8,2.9-10.4
				c0-4.8-0.2-10.1-2.9-14.2c-2.9-6-9.2-8.9-14.9-11.3c0.3-1.4-0.2-2.7-0.7-4.1c-1.2-5.3-6.3-9.2-11.5-9.9c-0.3,0.2-0.9,0.3-1,0.5
				c-0.2-0.2-0.7-0.5-0.9-0.7C310.7,437.6,309.5,438.3,308.3,439.1z"/>
		</g>
		<g>
			<path class="st7" d="M452.6,419.5c1.5,0,3.2-0.9,4.6,0.3c0.3-0.3,1-0.9,1.2-1c0.5,0.3,1,0.7,1.7,1c1-0.5,2.2-0.5,3.4-0.5
				c0.3,0.2,0.9,0.5,1.2,0.9c0.5-1.4,1.7-0.3,2.7-0.2c1.2,0.3,2.7,0.3,3.9,0.3c1,0.7,2.1,1.4,3.2,1.5c0.7,0.2,1.4-0.2,2.2,0
				c0.3,0.3,0.9,0.9,1.2,1.2c1.7-0.3,3.1,1,4.8,1.4c2.6,2.1,5.3,3.8,8,5.3c2.6,1.9,4.4,4.4,6.8,6.5c3.6,3.1,5,7.9,8.4,11.3
				c0,0.2,0,0.7-0.2,1c0.5,0.9,1,1.9,1.5,2.7c-0.2,0.2-0.5,0.7-0.5,0.9c0.5,0.5,1.2,1.2,1.7,1.9c-0.2,0.3-0.5,0.9-0.5,1.2
				c1.2,2.2,2.2,4.8,2.2,7.5c1,1.7,0.5,3.6,0.9,5.5c-1.2,2.4,0.3,4.8-0.2,7.3c-0.2,1-0.5,2.1-0.7,3.1c-0.3,2.6-1.2,5-1.5,7.5
				c-1.2,1.9-1.2,4.4-2.7,6.2c-1.5,1.9-1.7,4.6-3.4,6.5c0,0.3,0.2,0.9,0.2,1c-3.9,4.1-7.7,8.2-12,11.8c-2.7,1-5,3.2-7.9,3.9
				c-1,0.7-2.1,1.5-2.9,2.4c-0.3-0.2-0.9-0.3-1.2-0.3c-1.2,0.7-2.4,1.5-3.6,2.2c-1.5,0.2-3.1,0.3-4.6,0.5c-0.3,0.3-1.2,0.9-1.5,1.2
				c-0.5-0.2-1-0.5-1.7-0.7c-0.9,0.3-1.7,0.7-2.6,1.2c-2.9-0.3-6,0.3-8.9-0.2c-1.4-0.2-2.7-0.5-4.1,0.2c-0.9-0.5-1.7-1-2.4-1.5
				c-0.3,0.2-1,0.5-1.4,0.7c-0.9-0.5-1.7-1-2.6-1.5c-1.2-0.2-2.2-0.2-3.4-0.2c-3.2-2.4-7.3-3.2-10.3-6.2c-0.2,0-0.9,0.2-1,0.3
				c-5-3.9-9.7-8.2-13.3-13.3c-0.7-2.7-2.7-4.6-4.3-6.7c0-0.3,0.2-0.9,0.3-1c-1.9-3.2-2.6-7-4.3-10.3c0.2-0.2,0.5-0.7,0.7-1
				c-0.2-0.3-0.7-1.2-0.9-1.5c0.5-3.6-1.5-6.8-0.7-10.4c0.3-2.1,0-4.3,0.9-6.3c0-0.3-0.2-1.2-0.3-1.5c0.5-0.9,1-1.5,1.5-2.4
				c-0.2-0.2-0.7-0.7-0.9-1c0.5-0.9,1.2-1.7,1.7-2.6c0-0.3,0-0.9,0-1.2c0.2-3.1,2.2-5.5,3.8-7.9c0-0.3-0.2-0.9-0.3-1.2
				c1.7-2.1,3.6-3.9,4.8-6.3c2.2-3.2,5.5-5.6,8.2-8.4c0.3,0,0.9,0.2,1,0.2c1.5-1.5,3.2-2.9,5-4.3c2.7,0,4.4-2.2,6.8-3.4
				c1,0.2,2.1-0.2,3.1-0.7c0.2,0.2,0.5,0.5,0.9,0.7c0.7-0.5,1.2-1.2,1.9-1.7C448.7,421.2,450.4,419.3,452.6,419.5z M450.7,439.1
				c-2.7,1.9-5.5,4.6-6,8c-0.5,1.4-1,2.7-0.7,4.1c-4.3,1.9-8.9,3.6-12.1,7.2c-3.4,3.9-5.8,9.1-5.6,14.2c-0.5,3.8,0.3,7.5,1.2,11.1
				c1.2,2.1,1.9,4.4,2.9,6.5c3.4,4.3,6,9.4,10.9,12.1c2.1,0.9,3.2,2.9,5.3,3.8c1.9,0.9,3.9,1.7,5.8,2.4c3.8,1,7.7,1.2,11.5,2.1
				c10.9-0.2,20.9-9.7,21-20.7c0.3-2.6,0.5-5.3-0.3-7.9c-1.4-3.9-1.7-8.4-4.8-11.5c-2.4-4.6-6.2-8.2-10.1-11.8
				c-1-0.9-2.4-0.9-3.6-1.2c1-1.4,2.1-2.7,2.7-4.4c-0.2-1.7-0.2-3.6,0.2-5.3c-0.9-1.2-1-2.7-1.5-4.1c-1.4-2.2-3.2-3.9-5.5-5.3
				c-1.9,0.3-3.6-2.4-5.3-1c-0.2-0.2-0.7-0.5-1-0.7C454.5,438.1,452.2,437.8,450.7,439.1z"/>
		</g>
	</g>
	<g>
		<g>
			<path class="st8" d="M326.1,451.3c5.8,2.4,12.1,5.3,14.9,11.3c2.7,4.3,2.9,9.4,2.9,14.2c-0.5,3.6-0.9,7.3-2.9,10.4
				c-0.9,3.6-3.8,5.8-5.3,9.1c-2.7,4.3-7.5,6.5-11.1,9.6c-2.4,1-5,2.2-7.3,3.1c-3.8,0.7-7.7,1.4-11.6,1.9
				c-10.9-0.3-20.7-10.4-20.5-21.4c-1.2-5,1.5-9.4,2.4-14c0.7-2.6,2.9-4.1,3.9-6.5c1.5-3.4,4.6-5.8,7.2-8.4c1.4-1.5,3.1-2.7,5.1-2.6
				c0.9,1.7,2.1,3.1,3.8,3.8c2.7,2.1,6.7,2.6,9.9,1c0.2,0,0.7,0.2,1,0.2c2.6-1.9,4.8-3.9,6.5-6.5C325.1,454.7,325.6,453,326.1,451.3
				z M302.2,485.1c-1,1.7-0.2,3.8,0.2,5.6c1.2,1.5,2.6,3.2,4.6,3.6c1.4,0.2,2.6,1.9,3.9,0.7c0.2,0.2,0.7,0.5,0.9,0.7
				c1.9-1.2,3.6-2.7,4.6-4.8c0.3-2.2-0.9-4.1-1-6.3c-1.4-1.7-3.9-3.4-6-2.7C306.5,480.5,303.4,482.7,302.2,485.1z"/>
		</g>
		<g>
			<path class="st8" d="M431.9,458.4c3.1-3.6,7.9-5.3,12.1-7.2c0.3,1.7,0.9,3.4,1.2,5.1c1.7,2.6,3.9,4.8,6.5,6.5
				c0.2,0,0.7-0.2,1-0.2c5,2.2,11.3-0.3,13.7-5c1.2,0.3,2.6,0.2,3.6,1.2c3.8,3.4,7.7,7,10.1,11.8c3.1,3.1,3.2,7.5,4.8,11.5
				c0.9,2.6,0.7,5.3,0.3,7.9c-0.2,10.9-10.1,20.7-21,20.7c-3.8-0.7-7.7-1-11.5-2.1c-2.1-0.7-3.9-1.7-5.8-2.4
				c-2.1-0.9-3.4-2.7-5.3-3.8c-5-2.6-7.5-7.9-10.9-12.1c-1-2.2-1.7-4.4-2.9-6.5c-0.9-3.6-1.7-7.3-1.2-11.1
				C426.1,467.5,428.3,462.4,431.9,458.4z M454.6,484.4c0,0.2,0.2,0.7,0.3,0.9c-1.2,1.5-1,3.4-1,5.3c0.7,1.2,1.5,2.6,2.7,3.4
				c0.9,0.5,1.9,1.7,2.7,0.7c0.3,0.2,0.9,0.5,1,0.7c1-0.7,2.1-1.2,3.1-1.4c1.9-0.3,3.1-2.1,4.3-3.4c0.3-1.9,1.2-3.9,0.2-5.6
				c-1.4-2.4-4.4-4.6-7.2-3.4c-0.2-0.2-0.7-0.3-0.9-0.5C458.1,482,455.8,482.5,454.6,484.4z"/>
		</g>
	</g>
	<g>
		<path class="st9" d="M383.5,556c1.2-0.3,2.2-0.7,3.4-1c0.3,6.2-0.3,12.3,1.4,18.3c1.7,4.4,5.5,8.2,10.1,9.6
			c4.3,0.9,7.7-2.6,10.3-5.5c3.1-3.4,4.3-8,5.1-12.5c0-1,1-1.9,1.4-0.5c1.7,8.5-3.9,16.7-10.9,21.2c-4.4,2.9-10.4,1.5-14.2-1.7
			c-4.1-2.7-6.3-7.5-7.5-12.3c-3.2,5.6-6.7,11.8-12.6,14.7c-4.3,2.6-9.7,2.6-14.2,0.3c-5.1-2.6-10.1-6-12.6-11.1
			c-1.4-2.4-1.7-5.1-1-7.7c1.7,0.3,2.2,2.2,3.1,3.6c2.1,4.8,6.5,8.2,10.9,10.8c3.2,1.9,7.5,2.7,11.1,1.2c4.8-1.9,7.9-6.3,10.6-10.4
			c2.4-4.1,4.6-8.5,5.1-13.3C383,558.4,382.9,557.1,383.5,556z"/>
	</g>
	<g>
		<path class="st10" d="M377.6,656.9c4.8-0.9,9.4-1.9,14.2-1.9c5.1-0.2,9.9,1.2,15,1.9c2.9,0.3,5.5,1.9,8,3.1l-0.9,0.2
			c-5,1.4-10.1,1.4-15.2,2.1c-8.7,1.2-17.4-0.2-26.1,0.7c-2.7,0.2-5.5,0.2-8-0.7l-0.7-0.2C368.5,661,372.6,657.7,377.6,656.9z"/>
		<path class="st10" d="M294.5,697.2c1.7-0.2,3.4-0.3,5.1-0.5c-1.9,5.1-1.2,10.6-2.4,15.9c-1.2,5-1,10.1-2.1,15.2
			c-0.7,3.8-0.9,7.7-1.2,11.6c-0.3,4.3,0.7,8.5,0.5,12.8c-4.4-2.1-9.6-2.4-14.4-3.2c-6.3-0.5-12.6-0.9-18.8,0.2
			c-4.8,0.9-9.7,1.2-13.8,3.8c-0.3-1.4,0-2.7,0.5-4.1c6-2.9,12.3-5.5,19-6.8c6-1.4,12.3-1.5,18.5-2.4c0.7-9.4,1.7-19,4.1-28
			C290.9,706.6,292.1,701.6,294.5,697.2z"/>
	</g>
</g>
</svg>
