<?xml version="1.0" encoding="utf-8"?>
<!-- Generator: Adobe Illustrator 23.0.2, SVG Export Plug-In . SVG Version: 6.00 Build 0)  -->
<svg version="1.1" id="Layer_1" xmlns="http://www.w3.org/2000/svg" xmlns:xlink="http://www.w3.org/1999/xlink" x="0px" y="0px"
	 width="474px" height="647px" viewBox="0 0 474 647" style="enable-background:new 0 0 474 647;" xml:space="preserve">
<style type="text/css">
	.st0{clip-path:url(#SVGID_2_);}
	.st1{clip-path:url(#SVGID_4_);}
	.st2{clip-path:url(#SVGID_6_);fill:#F69977;}
	.st3{clip-path:url(#SVGID_6_);fill:#F37D70;}
	.st4{clip-path:url(#SVGID_6_);fill:#491613;}
	.st5{clip-path:url(#SVGID_6_);fill:none;stroke:#491613;stroke-width:3.911;stroke-miterlimit:10;}
	.st6{clip-path:url(#SVGID_6_);fill:#231F20;}
	.st7{clip-path:url(#SVGID_6_);fill:#FFFFFF;}
	.st8{clip-path:url(#SVGID_8_);fill:url(#SVGID_9_);}
	.st9{clip-path:url(#SVGID_11_);fill:#231F20;}
	.st10{clip-path:url(#SVGID_11_);fill:#491613;}
	.st11{clip-path:url(#SVGID_11_);fill:#FFFFFF;}
	.st12{clip-path:url(#SVGID_13_);fill:url(#SVGID_14_);}
	.st13{clip-path:url(#SVGID_16_);fill:#231F20;}
	.st14{clip-path:url(#SVGID_16_);fill:#491613;}
	.st15{clip-path:url(#SVGID_16_);fill:#F37D70;}
	.st16{clip-path:url(#SVGID_16_);fill:none;stroke:#F37D70;stroke-width:0.25;stroke-miterlimit:10;}
	.st17{clip-path:url(#SVGID_16_);fill:#F26D4E;}
	.st18{clip-path:url(#SVGID_16_);fill:none;stroke:#000000;stroke-width:0.25;stroke-miterlimit:10;}
	.st19{clip-path:url(#SVGID_16_);fill:#FFFFFF;}
	.st20{clip-path:url(#SVGID_16_);fill:#F69977;}
	.st21{clip-path:url(#SVGID_16_);fill:#BBBDBF;}
	.st22{clip-path:url(#SVGID_16_);}
	.st23{clip-path:url(#SVGID_16_);fill:#3B2314;}
	.st24{opacity:0.4;clip-path:url(#SVGID_16_);}
	.st25{clip-path:url(#SVGID_18_);fill:#603813;}
	.st26{clip-path:url(#SVGID_20_);fill:#603813;}
	.st27{clip-path:url(#SVGID_16_);fill:#2A4361;}
	.st28{clip-path:url(#SVGID_16_);fill:#1E354C;}
	.st29{clip-path:url(#SVGID_16_);fill:#603813;}
	.st30{clip-path:url(#SVGID_16_);fill:none;stroke:#8A5D3B;stroke-width:0.989;stroke-miterlimit:10;}
	.st31{clip-path:url(#SVGID_16_);fill:none;stroke:#929497;stroke-width:1.978;stroke-miterlimit:10;}
	.st32{clip-path:url(#SVGID_16_);fill:#929497;}
	.st33{clip-path:url(#SVGID_16_);fill:#AA0C1F;}
	.st34{clip-path:url(#SVGID_16_);fill:#CCCBCB;}
	.st35{clip-path:url(#SVGID_16_);fill:none;stroke:#2A4361;stroke-width:1.762;stroke-miterlimit:10;}
	.st36{clip-path:url(#SVGID_22_);}
	.st37{clip-path:url(#SVGID_24_);}
	.st38{clip-path:url(#SVGID_26_);fill:#F69977;}
	.st39{clip-path:url(#SVGID_26_);fill:#7F0635;}
	.st40{clip-path:url(#SVGID_26_);fill:none;stroke:#7F0635;stroke-linecap:round;stroke-miterlimit:10;}
	.st41{clip-path:url(#SVGID_26_);fill:#F28F00;}
	.st42{clip-path:url(#SVGID_26_);fill:#2A4361;}
	.st43{clip-path:url(#SVGID_26_);fill:#065472;}
	.st44{clip-path:url(#SVGID_26_);fill:#102B3B;}
	.st45{clip-path:url(#SVGID_26_);}
	.st46{clip-path:url(#SVGID_28_);fill:#4A5056;}
	.st47{clip-path:url(#SVGID_30_);fill:#4A5056;}
	.st48{clip-path:url(#SVGID_26_);fill:#FFFFFF;}
	.st49{clip-path:url(#SVGID_26_);fill:#F37D70;}
	.st50{clip-path:url(#SVGID_26_);fill:#CCCBCB;}
	.st51{clip-path:url(#SVGID_26_);fill:#491613;}
	.st52{clip-path:url(#SVGID_26_);fill:#601D30;}
	.st53{clip-path:url(#SVGID_32_);fill:url(#SVGID_33_);}
	.st54{clip-path:url(#SVGID_35_);fill:#231F20;}
	.st55{clip-path:url(#SVGID_35_);fill:#491613;}
	.st56{clip-path:url(#SVGID_35_);fill:#601D30;}
	.st57{clip-path:url(#SVGID_35_);fill:#FFFFFF;}
	.st58{clip-path:url(#SVGID_37_);fill:url(#SVGID_38_);}
	.st59{clip-path:url(#SVGID_40_);fill:#231F20;}
	.st60{clip-path:url(#SVGID_40_);fill:#491613;}
	.st61{clip-path:url(#SVGID_40_);fill:#EA1332;}
	.st62{opacity:0.11;clip-path:url(#SVGID_40_);}
	.st63{clip-path:url(#SVGID_42_);fill:#FFFFFF;}
	.st64{clip-path:url(#SVGID_40_);}
	.st65{clip-path:url(#SVGID_40_);fill:#F37D70;}
	.st66{clip-path:url(#SVGID_40_);fill:#F39500;}
	.st67{opacity:0.2;clip-path:url(#SVGID_40_);}
	.st68{clip-path:url(#SVGID_44_);}
	.st69{filter:url(#Adobe_OpacityMaskFilter);}
	.st70{clip-path:url(#SVGID_46_);fill:url(#SVGID_48_);}
	.st71{clip-path:url(#SVGID_46_);mask:url(#SVGID_47_);fill:url(#SVGID_49_);}
	.st72{clip-path:url(#SVGID_51_);}
	.st73{filter:url(#Adobe_OpacityMaskFilter_1_);}
	.st74{clip-path:url(#SVGID_53_);fill:url(#SVGID_55_);}
	.st75{clip-path:url(#SVGID_53_);mask:url(#SVGID_54_);fill:url(#SVGID_56_);}
</style>
<g id="Man_1_">
	<g>
		<defs>
			<rect id="SVGID_1_" x="249" y="31" width="218.9" height="600.22"/>
		</defs>
		<clipPath id="SVGID_2_">
			<use xlink:href="#SVGID_1_"  style="overflow:visible;"/>
		</clipPath>
		<g class="st0">
			<defs>
				<rect id="SVGID_3_" x="249" y="31" width="218.9" height="600.22"/>
			</defs>
			<clipPath id="SVGID_4_">
				<use xlink:href="#SVGID_3_"  style="overflow:visible;"/>
			</clipPath>
			<g class="st1">
				<defs>
					<rect id="SVGID_5_" x="249" y="31" width="218.9" height="600.22"/>
				</defs>
				<clipPath id="SVGID_6_">
					<use xlink:href="#SVGID_5_"  style="overflow:visible;"/>
				</clipPath>
				<path class="st2" d="M335.63,99.37l-16.24-0.8v9.86c0,0,11.27,13.99,17.94,14.79c0.1,0.01,0.2,0,0.29,0c0.04,0.01,0.1,0,0.15,0
					c0.05,0,0.1,0,0.14,0c0.1,0,0.19,0.01,0.3,0c6.67-0.8,17.94-14.79,17.94-14.79v-9.86l-16.24,0.8H335.63z"/>
				<path class="st3" d="M319.38,99.39v5.69c0,0,16.16,10.16,24.88,4.33C339.6,108.29,319.38,99.39,319.38,99.39"/>
				<path class="st2" d="M364.32,66.2c-0.97-0.11-1.84,1.45-2.48,3.06c-1.84-16.86-11.8-29.74-23.81-29.74
					c-12.09,0-22.1,13.04-23.84,30.06c-0.64-1.72-1.56-3.5-2.6-3.38c-1.97,0.23-2.88,2.11-2.79,4.76c0.08,2.65,0.16,8.31,1.4,9.91
					c1.11,1.45,2.69,4.25,4.61,3.51c2.83,14.91,12.16,25.85,23.23,25.85c11.06,0,20.37-10.91,23.21-25.79
					c1.86,0.55,3.38-2.16,4.47-3.57c1.23-1.61,1.32-7.26,1.4-9.91C367.19,68.31,366.29,66.42,364.32,66.2"/>
				<path class="st4" d="M323.24,34.53c0,0-17.26,0.05-9.2,37.88c1.16-6.73,4.97-23.51,10.65-24.72c0.04-0.03,0.07-0.07,0.1-0.1
					c1.39,3.13,4.84,6.23,12.1,8.41c0,0-7.63-2.89-9.34-8.15c2.21,0.19,5.28,0.62,7.16,1.63c3.21,1.72,10.09,7.88,22.47,7.61
					c4.13,2.99,4.85,13.05,4.82,16.36c1.15-2.31,2.52-7.87,2.52-7.87S374.15,17.87,323.24,34.53"/>
				<path class="st4" d="M361.25,84.44c-4.7,5.19-10.22,9.82-16.48,13.01c-1.91,0.98-4.46,2.47-6.67,2.6
					c-2.4,0.14-5.35-1.25-7.44-2.22c-6.39-2.94-11.71-7.89-15.88-13.48c-0.18,2.89-0.92,6.72-0.09,9.52
					c0.57,1.95,2.53,3.64,3.88,5.08c4.92,5.24,11.9,12.23,19.6,12.23c7.69,0,14.68-6.99,19.6-12.23c1.32-1.4,3.35-3.15,3.87-5.08
					C362.38,91.08,361.52,87.3,361.25,84.44"/>
				<path class="st5" d="M348.89,94.7c-1.72-4.62-11.56-4.85-11.56-4.85s-9.65-0.06-11.65,4.85c-1.93,4.73,3.98,6.8,3.98,6.8
					l7.63,2.07l7.63-2.07C344.91,101.5,350.67,99.49,348.89,94.7z"/>
				<path class="st6" d="M351.9,70.49c-0.63-0.2-1.31-0.34-2.02-0.34c-0.71,0-1.4,0.14-2.02,0.34c-1.97,0.64-3.37,1.96-3.37,1.96
					s1.39,1.32,3.37,1.96c0.63,0.2,1.31,0.34,2.02,0.34c0.72,0,1.4-0.14,2.02-0.34c1.97-0.64,3.37-1.96,3.37-1.96
					S353.87,71.12,351.9,70.49"/>
				<path class="st7" d="M351.9,74.44c1.97-0.58,3.37-1.79,3.37-1.79s-1.39-1.21-3.37-1.79c0.42,0.48,0.69,1.1,0.69,1.79
					S352.32,73.96,351.9,74.44"/>
				<path class="st7" d="M347.86,70.86c-1.97,0.58-3.37,1.79-3.37,1.79s1.39,1.21,3.37,1.79c-0.42-0.48-0.69-1.1-0.69-1.79
					S347.44,71.34,347.86,70.86"/>
				<path class="st7" d="M351.9,74.44c0.42-0.48,0.69-1.1,0.69-1.79c0-0.69-0.26-1.31-0.69-1.79c-0.63-0.18-1.3-0.31-2.02-0.31
					c-0.71,0-1.4,0.13-2.02,0.31c-0.42,0.48-0.69,1.1-0.69,1.79c0,0.69,0.27,1.31,0.69,1.79c0.63,0.18,1.31,0.31,2.02,0.31
					C350.6,74.75,351.28,74.62,351.9,74.44 M348.19,72.65c0-0.93,0.76-1.69,1.69-1.69c0.93,0,1.69,0.76,1.69,1.69
					c0,0.93-0.76,1.69-1.69,1.69C348.95,74.34,348.19,73.58,348.19,72.65"/>
			</g>
			<g class="st1">
				<defs>
					<path id="SVGID_7_" d="M348.19,72.65c0-0.93,0.76-1.69,1.69-1.69c0.93,0,1.69,0.76,1.69,1.69c0,0.93-0.76,1.69-1.69,1.69
						C348.95,74.34,348.19,73.58,348.19,72.65 M347.86,70.86c-0.42,0.48-0.69,1.1-0.69,1.79c0,0.69,0.27,1.31,0.69,1.79
						c0.63,0.18,1.31,0.31,2.02,0.31c0.72,0,1.4-0.13,2.02-0.31c0.42-0.48,0.69-1.1,0.69-1.79c0-0.69-0.26-1.31-0.69-1.79
						c-0.63-0.18-1.3-0.31-2.02-0.31C349.17,70.55,348.48,70.68,347.86,70.86"/>
				</defs>
				<clipPath id="SVGID_8_">
					<use xlink:href="#SVGID_7_"  style="overflow:visible;"/>
				</clipPath>
				
					<radialGradient id="SVGID_9_" cx="0.4483" cy="-387.7344" r="1.0001" gradientTransform="matrix(2.7089 0 0 -2.7089 348.6651 -977.6697)" gradientUnits="userSpaceOnUse">
					<stop  offset="0" style="stop-color:#8A5D3B"/>
					<stop  offset="0.2128" style="stop-color:#855838"/>
					<stop  offset="0.4791" style="stop-color:#77482F"/>
					<stop  offset="0.7727" style="stop-color:#602F21"/>
					<stop  offset="1" style="stop-color:#491613"/>
				</radialGradient>
				<rect x="347.17" y="70.55" class="st8" width="5.42" height="4.2"/>
			</g>
			<g class="st1">
				<defs>
					<rect id="SVGID_10_" x="249" y="31" width="218.9" height="600.22"/>
				</defs>
				<clipPath id="SVGID_11_">
					<use xlink:href="#SVGID_10_"  style="overflow:visible;"/>
				</clipPath>
				<path class="st9" d="M351.57,72.65c0-0.93-0.76-1.69-1.69-1.69c-0.93,0-1.69,0.76-1.69,1.69c0,0.93,0.76,1.69,1.69,1.69
					C350.81,74.34,351.57,73.58,351.57,72.65"/>
				<path class="st10" d="M343.8,68.34c0,0,8.25-2.14,9.78-1.96c1.53,0.18,4.59,1.34,4.59,1.34s-2.9-3.65-3.97-3.65
					c-1.07,0-11.39,1.69-11.39,1.69S342.5,67.8,343.8,68.34"/>
				<path class="st9" d="M325.65,70.49c0.63-0.2,1.3-0.34,2.02-0.34c0.71,0,1.4,0.14,2.02,0.34c1.97,0.64,3.37,1.96,3.37,1.96
					s-1.39,1.32-3.37,1.96c-0.63,0.2-1.31,0.34-2.02,0.34c-0.72,0-1.4-0.14-2.02-0.34c-1.97-0.64-3.37-1.96-3.37-1.96
					S323.68,71.12,325.65,70.49"/>
				<path class="st11" d="M325.65,74.44c-1.97-0.58-3.37-1.79-3.37-1.79s1.39-1.21,3.37-1.79c-0.42,0.48-0.69,1.1-0.69,1.79
					S325.23,73.96,325.65,74.44"/>
				<path class="st11" d="M329.7,70.86c1.97,0.58,3.37,1.79,3.37,1.79s-1.39,1.21-3.37,1.79c0.42-0.48,0.69-1.1,0.69-1.79
					S330.12,71.34,329.7,70.86"/>
				<path class="st11" d="M327.67,74.75c0.72,0,1.4-0.13,2.02-0.31c0.42-0.48,0.69-1.1,0.69-1.79c0-0.69-0.26-1.31-0.69-1.79
					c-0.63-0.18-1.31-0.31-2.02-0.31c-0.72,0-1.4,0.13-2.02,0.31c-0.42,0.48-0.69,1.1-0.69,1.79c0,0.69,0.26,1.31,0.69,1.79
					C326.28,74.62,326.96,74.75,327.67,74.75 M327.67,74.34c-0.93,0-1.69-0.76-1.69-1.69c0-0.93,0.76-1.69,1.69-1.69
					c0.93,0,1.69,0.76,1.69,1.69C329.36,73.58,328.61,74.34,327.67,74.34"/>
			</g>
			<g class="st1">
				<defs>
					<path id="SVGID_12_" d="M325.98,72.65c0-0.93,0.76-1.69,1.69-1.69c0.93,0,1.69,0.76,1.69,1.69c0,0.93-0.76,1.69-1.69,1.69
						C326.74,74.34,325.98,73.58,325.98,72.65 M325.65,70.86c-0.42,0.48-0.69,1.1-0.69,1.79c0,0.69,0.27,1.31,0.69,1.79
						c0.63,0.18,1.3,0.31,2.02,0.31c0.72,0,1.4-0.13,2.02-0.31c0.42-0.48,0.69-1.1,0.69-1.79c0-0.69-0.26-1.31-0.69-1.79
						c-0.63-0.18-1.31-0.31-2.02-0.31C326.96,70.55,326.28,70.68,325.65,70.86"/>
				</defs>
				<clipPath id="SVGID_13_">
					<use xlink:href="#SVGID_12_"  style="overflow:visible;"/>
				</clipPath>
				
					<radialGradient id="SVGID_14_" cx="-290.4484" cy="-387.7344" r="0.9999" gradientTransform="matrix(-2.7089 0 0 -2.7089 -459.1104 -977.6697)" gradientUnits="userSpaceOnUse">
					<stop  offset="0" style="stop-color:#8A5D3B"/>
					<stop  offset="0.2128" style="stop-color:#855838"/>
					<stop  offset="0.4791" style="stop-color:#77482F"/>
					<stop  offset="0.7727" style="stop-color:#602F21"/>
					<stop  offset="1" style="stop-color:#491613"/>
				</radialGradient>
				<rect x="324.97" y="70.55" class="st12" width="5.42" height="4.2"/>
			</g>
			<g class="st1">
				<defs>
					<rect id="SVGID_15_" x="249" y="31" width="218.9" height="600.22"/>
				</defs>
				<clipPath id="SVGID_16_">
					<use xlink:href="#SVGID_15_"  style="overflow:visible;"/>
				</clipPath>
				<path class="st13" d="M325.98,72.65c0-0.93,0.76-1.69,1.69-1.69c0.93,0,1.69,0.76,1.69,1.69c0,0.93-0.76,1.69-1.69,1.69
					C326.74,74.34,325.98,73.58,325.98,72.65"/>
				<path class="st14" d="M333.75,68.34c0,0-8.25-2.14-9.78-1.96c-1.53,0.18-4.59,1.34-4.59,1.34s2.9-3.65,3.97-3.65
					c1.07,0,11.39,1.69,11.39,1.69S335.05,67.8,333.75,68.34"/>
				<path class="st15" d="M337.33,86.48c-1.17,0-2.15-0.52-2.47-1.23c-0.07,0.16-0.13,0.33-0.13,0.51c0,0.96,1.16,1.74,2.6,1.74
					c1.43,0,2.6-0.78,2.6-1.74c0-0.18-0.05-0.34-0.13-0.51C339.47,85.96,338.49,86.48,337.33,86.48"/>
				<path class="st16" d="M334.78,69.56c0,0,2.15,4.59,1.61,7.26c-0.54,2.68-1.22,7.19-1.22,7.19"/>
				<path class="st17" d="M337.97,94.13c0,0-0.13,0.17-0.32,0.44c-0.19-0.27-0.32-0.44-0.32-0.44s-1.25-1.53-7.63,0
					c0.96,1.38,3.75,4.89,7.63,4.89c0.12,0,0.21-0.02,0.32-0.03c0.11,0.01,0.2,0.03,0.32,0.03c3.88,0,6.67-3.52,7.63-4.89
					C339.22,92.6,337.97,94.13,337.97,94.13"/>
				<path class="st18" d="M330.38,94.4c0,0,7.07,4.13,15.21,0"/>
				<polyline class="st19" points="394.11,293.45 291.03,291.08 301.43,269.76 332.92,262.57 363.24,261.94 381.55,261.94 
					394.11,261.94 				"/>
				<path class="st20" d="M286.11,334.71l-15.57-28.22l15.6-5.58l5.8,9.17l9.81,7.73C300.78,327.61,294.34,332.04,286.11,334.71"/>
				<path class="st19" d="M269.89,148.8c-2.94,12.24-8.07,35.82-8.07,51.09c-3.18,8.5-4.94,18.04-4.59,22.28
					c0.35,4.24-5.48,18.51-2.3,28.6c3.18,10.09,17.4,65.95,16.91,66.64c1.02,0.26,3.13,0.58,5.92,0.29
					c4.62-0.47,11.07-2.6,17.39-9.39c-2.59-12.48-5.62-42.68-8.34-55.4c-2.72-12.72-4.31-9.01-4.31-9.01s6.36-3.71,7.95-25.97
					c6.89-11.13,11.13-23.85,11.13-23.85l-20.97-53.2C274.13,140.29,270.63,145.72,269.89,148.8"/>
				<path class="st20" d="M411.43,359.38l0.02-0.03l-0.01-0.09C411.43,359.3,411.43,359.34,411.43,359.38"/>
				<path class="st20" d="M447.3,341.09c-0.46,5.81-2.14,11.01-2.14,11.01l-0.07-0.63c-0.09,0.96-0.29,1.88-0.7,2.62
					c-1.68,3.06-3.88,4.59-3.88,4.59s-4.53,6.73-6.82,7.64c-2.29,0.92-2.19-1.36-2.19-1.36l0,0c-1.06,1.61-2.03,2.81-2.85,2.74
					c-1.68-0.15-1.99,0.61-2.14-3.21c2.6-5.04,3.06-9.78,3.06-15.13c0-5.35-3.67-8.26-5.05-7.7c-1.38,0.56-0.61,10.6,0,13.51
					c-1.38,3.06-3.36,2.45-4.59,1.83c0.15-0.61-1.68-17.12-1.68-22.47c0-3.86,1.74-6.67,2.72-7.95l3.33-7.56l13.23-7.76l6.26,15.82
					L447.3,341.09z"/>
				<path class="st19" d="M405.62,133.22c0,0,22.18,10.98,23.77,29.38c1.59,18.39-0.38,47.81,4.82,67.75
					c5.2,19.94,4.04,31.89,4.04,43.89c0,11.99,6.93,26.38,6.93,35.75v9.37c0,0-20.8,2.25-24.84,0c0.58-12.35-10.4-26.95-9.82-37.62
					c0.58-10.67-1.67-30.26-4.59-41.8c-2.92-11.55-10.09-27.94-10.09-27.94L405.62,133.22z"/>
				<path class="st19" d="M396.44,231.97c-1.21,24.27-2.48,48.65-2.48,48.65h-95.97l-4.34,1.91c0,0-3.68-20.59-7.63-67.54
					c-3.74-44.51-21.28-67.76-10.73-72.95c6.5-3.2,44.09-24.87,44.09-24.87l17.89,7.01l17.89-7.01c0,0,45.39,13.24,51.77,16.66
					c8.69,4.66-5.19,28.61-3.02,66.56L396.44,231.97z"/>
				<path class="st21" d="M400.09,153.86c-0.88,2.24-1.4,4.61-1.72,6.98c-0.33,2.38-0.46,4.78-0.38,7.17
					c0.16,4.8,1.07,9.51,2.29,14.18c0.56,2.38,0.55,4.88,0.31,7.27c-0.11,1.21-0.27,2.4-0.43,3.6c-0.18,1.19-0.38,2.38-0.49,3.57
					c-0.5,4.77-0.24,9.6,0.08,14.4c-0.27-2.39-0.52-4.79-0.66-7.2c-0.12-2.41-0.11-4.83,0.09-7.24c0.08-1.21,0.26-2.41,0.43-3.6
					c0.16-1.19,0.3-2.38,0.4-3.57c0.21-2.39,0.2-4.77-0.36-7.09c-1.17-4.65-2.1-9.46-2.16-14.3
					C397.47,163.2,398.18,158.3,400.09,153.86"/>
				<path class="st21" d="M427.38,231.92c-0.3,2.39-0.91,4.73-1.63,7.02c-0.72,2.3-1.63,4.54-2.72,6.71
					c-1.12,2.14-2.39,4.22-3.95,6.09c-0.82,0.89-1.6,1.83-2.54,2.6c-0.89,0.82-1.92,1.47-2.93,2.11c0.88-0.83,1.83-1.54,2.59-2.46
					c0.85-0.82,1.54-1.8,2.27-2.72c1.37-1.93,2.58-3.96,3.66-6.07c1.09-2.11,2-4.3,2.89-6.51c0.45-1.11,0.85-2.23,1.22-3.36
					C426.67,234.21,427.02,233.07,427.38,231.92"/>
				<path class="st21" d="M289.19,165.92c-1.52,2.96-2.53,6.15-3.14,9.39c-0.63,3.24-0.88,6.55-0.75,9.84
					c0.14,3.29,0.61,6.56,1.32,9.79c0.68,3.24,1.74,6.34,2.78,9.53c1.03,3.24,1.09,6.76,0.65,10.06c-0.2,1.67-0.48,3.31-0.78,4.95
					c-0.33,1.63-0.7,3.25-0.9,4.88c-0.94,6.55-0.4,13.22,0.2,19.83c-0.51-3.29-0.92-6.59-1.16-9.91c-0.21-3.33-0.17-6.68,0.2-10.01
					c0.15-1.68,0.49-3.31,0.81-4.94c0.29-1.63,0.55-3.26,0.73-4.9c0.4-3.28,0.3-6.56-0.71-9.67c-2.11-6.26-3.81-12.87-3.91-19.58
					C284.47,178.49,285.82,171.68,289.19,165.92"/>
				<path class="st21" d="M265.08,217.06c0.36,1.15,0.71,2.29,1.12,3.41c0.38,1.13,0.78,2.25,1.23,3.36c0.88,2.21,1.8,4.4,2.88,6.51
					c1.08,2.11,2.29,4.14,3.66,6.07c0.73,0.92,1.42,1.9,2.27,2.72c0.76,0.92,1.71,1.64,2.59,2.46c-1.01-0.64-2.04-1.29-2.93-2.11
					c-0.94-0.77-1.71-1.71-2.54-2.6c-1.56-1.87-2.82-3.95-3.95-6.09c-1.09-2.16-1.99-4.41-2.72-6.71
					C265.99,221.78,265.39,219.44,265.08,217.06"/>
				<path class="st22" d="M299.75,127.64l7.87-3.64c0,0-3.77,14.28-4.58,25.28c-0.82,11.01,0.1,55.95,2.4,73.53
					c2.29,17.58,8.23,66.29,8.23,66.29l-9.2-0.17c0,0-8.36-80.19-8.51-89.82C295.8,189.48,293.88,157.32,299.75,127.64"/>
				<path class="st22" d="M384.94,125.47l-7.62-2.25c0,0,2.84,15.05,3.66,26.06c0.82,11.01-0.1,55.95-2.39,73.53
					c-2.29,17.58-10.34,68.2-10.34,68.2h7.8c0,0,11.87-82.26,12.02-91.89C388.21,189.48,390.81,155.15,384.94,125.47"/>
				<path class="st23" d="M395.82,601.67c0,0-0.65,11.69,0,12.86c0.65,1.17,6.23,5.46,12.34,4.81c3.9,3.12,9.22,9.87,16.63,10.65
					c7.4,0.78,16.63,3.9,22.34-4.29c0.39-1.95,1.04-1.3-3.64-5.84c-4.68-4.55-10.91-9.09-14.03-14.55
					c-3.12-5.46-21.04-8.05-21.04-8.05L395.82,601.67z"/>
				<g class="st24">
					<g>
						<defs>
							<rect id="SVGID_17_" x="406.74" y="599.98" width="38.58" height="23.63"/>
						</defs>
						<clipPath id="SVGID_18_">
							<use xlink:href="#SVGID_17_"  style="overflow:visible;"/>
						</clipPath>
						<path class="st25" d="M406.74,599.98c0,0,18.97,26.11,38.58,23.25C433.24,624.27,416.74,624.92,406.74,599.98"/>
					</g>
				</g>
				<path class="st23" d="M310.63,602.84c0,0-9.35,14.03-20.78,17.67c-4.16,4.68-1.56,6.23,2.08,7.27
					c3.64,1.04,23.38,4.16,39.49-12.47c7.28,1.04,12.47-3.64,12.47-3.64v-19.74L310.63,602.84z"/>
				<g class="st24">
					<g>
						<defs>
							<rect id="SVGID_19_" x="289.48" y="604.01" width="39.42" height="18.65"/>
						</defs>
						<clipPath id="SVGID_20_">
							<use xlink:href="#SVGID_19_"  style="overflow:visible;"/>
						</clipPath>
						<path class="st26" d="M303.57,622.58c-3.38,0.39-15.04-0.94-14.02-1.82c0.66-0.57,18.18-1.04,39.36-16.76
							C321.59,614.6,313.22,621.08,303.57,622.58"/>
					</g>
				</g>
				<path class="st27" d="M423.88,574.42c1.37-8.06-0.14-13.54-2.71-23.08c-0.03-0.1-0.03-0.21-0.02-0.32
					c1.59-9.94-4.17-25.41-6.75-33.01c-2.6-7.64-1.07-24.15-4.43-36.99c-3.36-12.84-5.04-78.42-4.43-85.3
					c0.61-6.88-5.2-10.55-4.43-19.26c0.57-6.52,4.77-37.53,3.97-60.27c-0.24-6.89-4.1-28.25-10.96-27.62l-20.2,2.29
					c-0.02,0-0.04,0-0.05,0l-5.57,0.14c-0.04,0-0.09,0.01-0.13,0.01l-26.55,5.04c-0.44,0.08-0.72,0.51-0.63,0.94
					c0,0.01,0,0.02,0.01,0.03c0.12,0.57-0.39,1.07-0.96,0.94l-47.09-10.81c-0.52-0.12-1.91,1.42-1.9-0.44l-0.16,43.59
					c0.02,0.25-0.1,0.51-0.29,0.67c-3.73,3.07-5.9,4.46-7.17,5c-0.48,0.21-0.62,0.83-0.29,1.23l8.99,10.85
					c0.1,0.13,0.17,0.28,0.18,0.45l0.22,2.84c0.02,0.31,0.23,0.58,0.52,0.69l5.79,2.13c0.52,0.19,1.07-0.19,1.07-0.75v-5.86
					c0-0.61,0.65-0.99,1.18-0.7l41.39,23.13c0.53,0.3,1.19-0.09,1.19-0.7v-7.55c0-0.57,0.57-0.95,1.1-0.74l10.17,4.14
					c0.25,0.1,0.42,0.31,0.48,0.57c19.23,90.89,51.13,238.74,55.16,239.27c5.67,0.75,16.5,1.63,18.64-0.85
					c0.12-0.14,0.17-0.31,0.16-0.49C429.32,597.92,422.53,582.4,423.88,574.42"/>
				<path class="st27" d="M299.93,377.31l10.21,43.41c0.01,0.05,0.02,0.09,0.02,0.14l3.05,57.21c0,0.03,0,0.06,0,0.09l-4.43,72.36
					c0,0.04,0,0.08,0,0.11l4.23,52.96c0.03,0.37,0.3,0.67,0.67,0.72c1.84,0.27,7.56,1.07,14.21,1.47c7.36,0.44,15.98-6.12,17.5-7.33
					c0.15-0.12,0.25-0.29,0.28-0.48c0.25-1.4,1.35-7.57,2.03-10.9c0.04-0.17,0.01-0.34-0.06-0.49c-1.19-2.34-4.52-14.37-5.94-24.55
					c-1.48-10.55,0.71-76.28,0.1-80.26c-0.61-3.97,1.68-6.42,4.13-16.82c2.33-9.92-1.83-86.77-2.22-93.8
					c-0.02-0.32-0.22-0.59-0.52-0.7l-42.2-15.53c-0.52-0.19-1.07,0.19-1.07,0.75v21.44C299.9,377.19,299.91,377.25,299.93,377.31"/>
				<path class="st27" d="M300.43,354.74l42.85,21.3c0.92,0.34,1.81-17.14-6.54-21.9l-35.66-7.29c-0.53-0.3-1.18,0.09-1.18,0.7v6.44
					C299.91,354.33,300.11,354.62,300.43,354.74"/>
				<path class="st28" d="M407.06,583.44c-0.31-2.9-2.9-9.63-4.89-11.47c-1.99-1.83-2.91-11.92-2.75-14.37
					c0.13-2.12,2.43-5.79,4.46-7.68c0.75-0.7,1.25-1.63,1.42-2.64c0.74-4.41-0.44-11.9-0.84-22.54
					c-7.03-8.25-23.24-82.85-23.39-85.15c-0.15-2.29,1.07-4.89,0.92-10.39c-0.15-5.5-10.09-35.77-11.31-42.8
					c-1.22-7.03-0.46-8.87-0.31-15.44c0.15-6.57-16.66-3.21-16.51-11.01c0.15-7.8,22.01-16.66,22.01-16.66s-4.89-1.07-9.17-1.07
					c-4.18,0-11.56,5.23-22.24,8.47c-4.2-8.32-6.96-43.32-6.96-43.32c0.4,25.56,4.69,40.08,5.86,43.58
					c-12.84,0.65-15.65-5.82-15.65-5.82s-7.49,6.27-11.92,8.41c12.38,0.61,25.53,11.62,27.97,14.06c2.45,2.45,7.18,21.86,7.95,25.99
					c0.77,4.13,3.67,41.12,5.05,44.02c1.38,2.9,12.38,31.03,12.38,36c0,4.97,2.29,17.96,2.75,23.92c0.46,5.96,8.41,24,8.41,24
					s0.61,3.21,0.46,7.03c-0.15,3.82,6.11,18.65,7.03,21.55c0.92,2.9-1.53,22.17-1.53,24.3c0,2.14,5.04,7.8,5.04,7.8
					s1.53,12.23,1.22,17.89c1.22,3.21,18.04,4.89,18.04,4.89S407.37,586.34,407.06,583.44"/>
				<path class="st28" d="M286.15,340.69c0,0,27.67,22.32,25.22,23.08c-2.45,0.76-5.81,0-5.81,0s6.11,14.37,5.35,18.5
					c-1.53,1.38-5.2-2.6-5.2-2.6s-1.83,5.81,0.76,9.94c2.6,4.13,6.42,4.43,7.95,9.32c1.53,4.89,4.89,88.82,4.89,88.82
					s-10.7,17.88-0.92,43.11c2.45,18.8,0.61,24.92-7.49,33.78c6.42,10.24,17.27,15.44,16.05,19.57c-1.22,4.13-9.48,20.79-9.48,20.79
					l-9.63-1.68c0,0,0.4-31.34-1.25-33.02c-1.65-1.68-3.18-0.92-3.18-5.81c0-4.89,2.75-47.69,1.07-56.25
					c-1.68-8.56-4.28-11.01-3.06-60.84c-6.57-45.4-9.94-85.61-8.87-95.54C288.59,346.5,286.15,340.69,286.15,340.69"/>
				<path class="st29" d="M398.93,292.39c-35.25,5.59-72.39,6.48-109.19,1.06l0.92-12.83c28.21,3.67,54.19,4.47,82.4,2.39
					c7.82-0.58,15.64-1.37,23.46-2.39L398.93,292.39z"/>
				<path class="st30" d="M398.93,292.39c-35.25,5.59-72.39,6.48-109.19,1.06l0.92-12.83c28.21,3.67,54.19,4.47,82.4,2.39
					c7.82-0.58,15.64-1.37,23.46-2.39L398.93,292.39z"/>
				<path class="st31" d="M332.12,297.9h15.11c0.55,0,0.99-0.44,0.99-0.99v-14.53c0-0.54-0.44-0.99-0.99-0.99h-15.11
					c-0.54,0-0.99,0.45-0.99,0.99v14.53C331.14,297.45,331.58,297.9,332.12,297.9z"/>
				<path class="st32" d="M356.52,296.9h-0.98c-0.47,0-0.86-0.39-0.86-0.86v-12.66c0-0.47,0.39-0.86,0.86-0.86h0.98
					c0.47,0,0.86,0.39,0.86,0.86v12.66C357.37,296.52,356.99,296.9,356.52,296.9"/>
				<path class="st32" d="M331.15,290.87h5.25c0.54,0,0.99-0.44,0.99-0.99v-0.32c0-0.54-0.44-0.99-0.99-0.99h-5.25
					c-0.54,0-0.99,0.45-0.99,0.99v0.32C330.16,290.42,330.6,290.87,331.15,290.87"/>
				<polyline class="st30" points="377.05,294.89 385.48,288.57 377.05,282.7 				"/>
				<path class="st33" d="M344.43,150.04c-0.11-5.85-3.1-13.18-2.18-14.56c0.92-1.38,6.31-5.73,6.31-5.73l-0.46-5.1l-9.38-0.3
					l-9.86,0.3l-0.46,5.1c0,0,5.39,4.36,6.3,5.73c0.92,1.38-2.06,8.71-2.18,14.56c-0.12,5.85-0.92,106.63-0.92,106.63l6.63,7.37
					l0,0.53l0.24-0.26l0.24,0.26v-0.53l6.63-7.37C345.35,256.67,344.55,155.89,344.43,150.04"/>
				<path class="st34" d="M318.9,109.59l-3.11,7.89c0,0,1.66,22.14,4.72,24.55c1.41,0.46,10.51-18.13,17.25-16.87v-0.78
					C337.76,124.38,324.23,115.78,318.9,109.59"/>
				<path class="st19" d="M319.38,108.42l-3.59,9.06c0,0,2.18,20.98,5.16,23.39c1.38,0.46,10.24-16.97,16.82-15.71v-1.95
					C337.77,123.22,324.58,114.62,319.38,108.42"/>
				<path class="st34" d="M356.51,109.59l3.11,7.89c0,0-1.66,22.14-4.72,24.55c-1.41,0.46-10.51-18.13-17.25-16.87v-0.78
					C337.65,124.38,351.18,115.78,356.51,109.59"/>
				<path class="st19" d="M356.03,108.42l3.59,9.06c0,0-2.18,20.98-5.16,23.39c-1.38,0.46-10.24-16.97-16.82-15.71v-1.95
					C337.65,123.22,350.83,114.62,356.03,108.42"/>
				<path class="st35" d="M283.42,335.98c0,0,7.61,1.81,16.48-11.03c8.87-12.84,4.69-8.56,4.69-8.56"/>
			</g>
		</g>
	</g>
</g>
<g id="Woman_Happy_1_">
	<g>
		<defs>
			<rect id="SVGID_21_" x="47" y="125" width="137.17" height="499.46"/>
		</defs>
		<clipPath id="SVGID_22_">
			<use xlink:href="#SVGID_21_"  style="overflow:visible;"/>
		</clipPath>
		<g class="st36">
			<defs>
				<rect id="SVGID_23_" x="47" y="125" width="137.17" height="499.46"/>
			</defs>
			<clipPath id="SVGID_24_">
				<use xlink:href="#SVGID_23_"  style="overflow:visible;"/>
			</clipPath>
			<g class="st37">
				<defs>
					<rect id="SVGID_25_" x="47" y="125" width="137.17" height="499.46"/>
				</defs>
				<clipPath id="SVGID_26_">
					<use xlink:href="#SVGID_25_"  style="overflow:visible;"/>
				</clipPath>
				<path class="st38" d="M103.01,462.87c0,0-3.68,103.18,2.62,121.92c0.53,1.59,1.36,3.81,1.36,5.49
					c0.01,7.84-0.85,19.68-4.87,21.32c-4.59,1.87-13.38,2.21-14.95,0.11c-1.98-2.64,6.97-34.41,6.97-34.41
					s-26.67-63.88-10.11-102.23c0.51-13.36,0-19.09,0-19.09L103.01,462.87z"/>
				<path class="st39" d="M87.17,611.71c0,0-8.39,7.36-4.85,11.97c8.12,0.2,17.95,0,17.95,0s6.63-2.1,6.57-10.15l-0.06-8.05
					l0.21-15.19c0,0-1.39,18.61-3.86,20.44C100.67,612.56,91.11,612.7,87.17,611.71"/>
				<path class="st40" d="M105.96,600.01c0,0-9.52-4.64-17.34-0.91"/>
				<path class="st38" d="M110.79,463.56c0,0,3.68,103.18-2.62,121.92c-0.53,1.59-1.36,3.81-1.36,5.49
					c-0.01,7.84,0.85,19.68,4.88,21.32c4.59,1.87,13.38,2.21,14.95,0.11c1.98-2.64-6.97-34.41-6.97-34.41s26.68-63.88,10.11-102.23
					c-0.51-13.36,0-19.09,0-19.09L110.79,463.56z"/>
				<path class="st39" d="M126.63,612.39c0,0,8.39,7.37,4.85,11.97c-8.12,0.2-17.95,0-17.95,0s-6.63-2.1-6.57-10.15l0.06-8.05
					l-0.21-15.19c0,0,1.39,18.61,3.86,20.44C113.13,613.25,122.69,613.39,126.63,612.39"/>
				<path class="st40" d="M107.84,600.69c0,0,9.52-4.64,17.34-0.91"/>
				<path class="st41" d="M138.16,172.3c0-29.67-13.68-47.3-30.56-47.3s-30.56,17.63-30.56,47.3c0,29.68,12.75,38.49,29.63,38.49
					C123.54,210.79,138.16,201.98,138.16,172.3"/>
				<path class="st42" d="M137.37,297.89c-1.03-5.17-2.13-10.91-1.31-16.25c-1.74,0.23-3.49,0.47-5.24,0.68
					c-8.28,0.98-16.68,1.45-24.99,2.21c-5.69,0.52-11.4,0.52-17.09,0.98c-1.15,0.09-3.56,0.09-5.82,0.19
					c0.11,15.45-7.79,30.22-13.52,44.38c-9.6,23.73-8.9,50.95-2.09,77.47c6.81,26.52,12.39,55.83,12.39,55.83h55.14
					c0,0-0.7-9.42,0.52-18.32c1.22-8.9,15.88-64.73,16.23-83.58c0.22-11.81-1.81-23.52-5.7-34.66
					C142.57,317.33,139.33,307.76,137.37,297.89"/>
				<path class="st43" d="M150.43,317.76c-0.13,0.05-0.83-0.58-0.93-0.65c-4.58-3.42-7.96-8.52-10.12-13.75
					c-1.94-4.7-2.94-9.74-3.22-14.81c-0.32-5.87-0.54-11.86,1.43-17.5c1.9-5.4,6.49-9.4,8.72-14.68c3.08-7.3,2.38-14.89-0.45-22.13
					c-0.34-0.87-0.71-1.74-0.88-2.66c-0.33-1.72,0.04-3.51,0.63-5.16c0.71-2,1.74-3.89,3.04-5.56c0.82-1.06,1.85-2.91,2.93-3.64
					c-9.08-3.46-17.68-7.94-26.53-11.94c-4.85-2.19-9.73-4.34-14.63-6.43c-5.88,2.17-11.76,4.35-17.63,6.52
					c-4.24,1.57-8.73,2.86-12.83,4.74c-5.27,2.41-11.05,3.6-16.33,6.14c0.54-0.23,4.9,7.28,5.27,7.88c2.7,4.29,6.74,8.86,5.68,14.32
					c-1.18,6.08-3.44,11-1.77,17.32c2.27,8.62,8.97,15.74,9.78,24.8c0.68,7.54-1.22,15.28-3.9,22.28c-1.15,3.01-2.6,5.91-4.43,8.56
					c-0.92,1.32-1.93,2.58-3.05,3.75c-0.38,0.4-3.24,3.45-3.7,3.21c0,0,14.03,7.07,35.98,7.82c2.01-4.24,5.73-13.66,5.73-25.17
					c0,0,0.04,15.1,7.32,24.85C126.8,325.02,138.25,322.64,150.43,317.76"/>
				<path class="st42" d="M125.04,205.29c-0.68-0.31-1.37-0.61-2.05-0.92l-13.1-4.48l-15.94,5.04l-1.18,0.44
					c-4.24,1.57-8.73,2.86-12.83,4.74c-1.84,0.84-3.74,1.53-5.66,2.18l9.82,15.45l13.01,2.68l-7.85,3.68l19.34,30.9l16.46-30.05
					l-6.57-4.61l10.59,0.05l15-16.22C137.68,211.39,131.45,208.19,125.04,205.29"/>
				<polygon class="st44" points="109.58,198.75 142.99,211.06 127.38,229.26 117.56,229.21 123.65,233.82 108.61,265.03 
					90.44,232.97 97.72,229.29 85.66,226.6 75.99,210.2 				"/>
				<g class="st45">
					<g>
						<defs>
							<rect id="SVGID_27_" x="107.55" y="203.05" width="23.81" height="23.18"/>
						</defs>
						<clipPath id="SVGID_28_">
							<use xlink:href="#SVGID_27_"  style="overflow:visible;"/>
						</clipPath>
						<polygon class="st46" points="122.91,203.05 131.35,206.77 115.91,226.23 107.55,213.38 						"/>
					</g>
				</g>
				<g class="st45">
					<g>
						<defs>
							<rect id="SVGID_29_" x="84.25" y="204.05" width="23.3" height="22.19"/>
						</defs>
						<clipPath id="SVGID_30_">
							<use xlink:href="#SVGID_29_"  style="overflow:visible;"/>
						</clipPath>
						<polygon class="st47" points="94.02,204.05 84.25,207.41 99.19,226.23 107.55,213.38 						"/>
					</g>
				</g>
				<polygon class="st48" points="97.97,201.94 89.04,206.06 99.71,221.2 107.55,247.12 114.64,219.81 129.07,205.77 108.35,198.36 
									"/>
				<path class="st38" d="M129.43,205.92l-9.69-3.98l-1.55-0.82c-1.13-2.35-1.83-20.28-1.83-20.28h-15.09c0,0-0.54,15.54-1.75,18.77
					c-0.38,1.02-1.16,1.82-2.02,2.55l-8.46,3.9l10.67,15.15l7.84-7.82c1.69,0.19-1.68,0.15,0,0l7.1,6.43L129.43,205.92z"/>
				<path class="st49" d="M100.47,193.7l17.14,4.8c-0.79-5.65-1.25-17.67-1.25-17.67h-15.09
					C101.27,180.83,101.02,188.08,100.47,193.7"/>
				<path class="st38" d="M62.76,364.34c-2.54-3.4-2.2-12.56-1.23-16.91c2.75-12.26,5.12-24.59,7.24-36.96
					c0.18-1.07,0.39-2.15,0.58-3.23c-5.45-0.88-10.96-1.54-16.5-1.97c-0.28,6.24-0.59,12.48-0.82,18.72c-0.08,2.1-0.15,4.2-0.2,6.3
					c-0.27,10.8-0.34,21.63,0.22,32.42c0.09,1.83,0.21,3.67,0.39,5.5c1.11,11.51-0.29,21.12,16.16,33.59c0,0,0.88-1.16-0.13-3.39
					c-1.24-2.72-5.46-6.43-5.96-7.97c-1.38-4.25,0.89-8.55,0.45-10.4c0,0,2.83,2.66,3.19,5.32c0.35,2.59,0.59,3.24,4.33,4.45
					c0.1,0.03,0.21,0.07,0.31,0.1c0,0-0.45-2.85-1.52-10.34C68.2,372.08,64.57,366.76,62.76,364.34"/>
				<path class="st38" d="M174.5,301.27c-2.42-1.15-6.8-3.93-9.25-5.01c-0.21-0.09-0.44-0.18-0.68-0.26
					c-2.48,6.78-9.68,26.55-11.34,29.06c-0.32,0.48-0.76,1.3-1.32,2.3c-0.26,0.46-0.69,0.72-1.15,0.75
					c-0.45,0.03-0.92-0.16-1.23-0.58c-0.95-1.28-1.77-2.4-2.76-3.73c-1.86-2.51-3.91-4.86-6.19-6.95c-1.81-1.67-5.11-1.21-7.26-0.66
					c-2.81,0.71-5.42,1.84-5.08,3.02c0.34,1.2,2.95,0.04,3.69-0.11c1.36-0.27,3.18-0.63,4.49,0.02c0.27,0.14,0.6,0.34,0.73,0.64
					c0.26,0.6-0.21,0.66-0.72,0.92c-1.35,0.7-2.74,1.32-4.13,1.92c-1.33,0.58-2.67,1.15-3.97,1.78c-1.29,0.63-3.07,1.25-3.96,2.42
					c-1.18,1.53,0.76,1.7,0.76,1.7l12.02-3.91c0,0,0.68,0.61-0.15,1.07c-2.26,1.26-7.67,2.56-9.31,3.16
					c-2.25,0.83-1.8,2.61-0.9,2.85c0.9,0.24,8.65-1.31,11.35-1.66c2.7-0.36,1.5,0.74,1.5,0.74s-5.66,1.64-7.8,1.88
					c-0.73,0.08-1.56,0.47-1.41,1.31c0.1,0.55,0.51,0.74,1.03,0.79c1.5,0.16,3,0.22,4.5,0.4c1.56,0.19,3.1,0.55,4.65,0.77
					c2.1,0.31,3.95,0.69,5.75,1.8c1.4,0.86,2.82,1.92,4.52,1.85c4.17-0.16,6.41-4.42,8.9-7.56c4.79-6.03,9.18-13.88,13.16-20.53
					c1.63-2.71,3.23-5.63,4.76-8.64C176.64,302.3,175.57,301.78,174.5,301.27"/>
				<polygon class="st50" points="122.29,204.05 107.55,213.38 113.85,223.07 114.64,219.81 128.18,206.64 				"/>
				<polygon class="st50" points="86.45,206.65 99.71,221.2 100.66,223.97 107.55,213.38 94.02,204.05 				"/>
				<polygon class="st48" points="119.74,201.94 129.87,205.5 115.9,222.51 107.55,213.2 				"/>
				<polygon class="st48" points="96.01,202.55 85.66,206.36 99.19,222.51 107.55,213.2 				"/>
				<path class="st43" d="M63.61,216.26c0,0-8.27,10.58-8.27,67.13c-3.59,11.01-7.76,20.23-5.74,39.35
					c10.64,2.61,17.89,0.41,17.89,0.41l6.2-37.92l8.54-54.55L63.61,216.26z"/>
				<path class="st44" d="M47,311.45c0.95,0.95,20.36,3.29,24.53,1.43c-1.53,7.39-0.74,11.42-0.74,11.42S54,326.2,47,322.06V311.45z
					"/>
				<path class="st43" d="M151.57,217.23c0,0,28.95,53.47,32.6,68.51c0,0-3.51,17.05-6.47,25.71c-9.28,0-19.24-6.18-19.24-6.18
					l4.69-21.15l-26.11-37.1C137.05,247.02,130.97,229.03,151.57,217.23"/>
				<path class="st44" d="M158.75,297.77c1.38,0,14.43,6.83,23,6.25c-2.75,9.83-5.5,10.83-5.5,10.83s-16.39-4.68-20.25-8.54
					C157.5,299.85,158.75,297.77,158.75,297.77"/>
				<path class="st42" d="M139.47,262.75c-2.98,3.27-4.56,7.73-4.66,12.12c-0.02,0.65,0,1.29,0.04,1.94
					c0.13,1.94,0.52,3.85,1.11,5.71c0-3.88,0.34-7.75,1.64-11.46c1.82-5.18,6.11-9.07,8.42-14.03c0.16-0.36,0.32-0.71,0.46-1.07
					c0.03-0.07,0.06-0.14,0.08-0.21c2.69-6.96,2.01-14.57-0.7-21.48c-0.34-0.87-0.71-1.74-0.89-2.66c-0.33-1.72,0.04-3.51,0.63-5.16
					c0.18-0.52,0.39-1.03,0.62-1.53c0,0,0.01-0.01,0.01-0.01c0.23-0.5,0.47-0.99,0.74-1.46c-0.63,0.69-1.24,1.4-1.78,2.15
					c-1.22,1.7-2.19,3.62-2.65,5.67c-0.8,3.6,2.27,6.47,3.1,9.7c0.95,3.71,1.24,7.95,0.41,11.71
					C145.04,257.12,142.39,259.55,139.47,262.75"/>
				<path class="st42" d="M79.45,265.56c2.98,3.27,4.56,7.73,4.66,12.12c0.01,0.65,0,1.29-0.04,1.94c-0.13,1.94-0.52,3.85-1.11,5.71
					c0-3.88-0.34-7.75-1.64-11.46c-1.82-5.18-6.11-9.07-8.42-14.03c-0.16-0.36-0.32-0.71-0.46-1.07c-0.03-0.07-0.06-0.14-0.08-0.21
					c-2.69-6.96-2.01-14.57,0.7-21.48c0.34-0.87,0.71-1.74,0.89-2.66c0.33-1.72-0.04-3.51-0.63-5.16c-0.18-0.52-0.39-1.03-0.62-1.53
					c0,0-0.01-0.01-0.01-0.01c-0.23-0.5-0.47-0.99-0.74-1.46c0.63,0.69,1.24,1.4,1.78,2.15c1.22,1.7,2.19,3.62,2.65,5.67
					c0.8,3.6-2.27,6.47-3.1,9.7c-0.95,3.71-1.24,7.95-0.4,11.71C73.88,259.93,76.54,262.36,79.45,265.56"/>
				<path class="st48" d="M174.43,307.48c-1.76,0-1.63,2.73,0.13,2.73C176.33,310.21,176.19,307.48,174.43,307.48"/>
				<path class="st48" d="M108.79,285.33c-1.76,0-1.63,2.73,0.13,2.73C110.68,288.06,110.54,285.33,108.79,285.33"/>
				<path class="st48" d="M108.85,296.39c-1.76,0-1.63,2.73,0.13,2.73C110.74,299.12,110.61,296.39,108.85,296.39"/>
				<path class="st48" d="M108.79,273.18c-1.76,0-1.63,2.73,0.13,2.73C110.68,275.91,110.54,273.18,108.79,273.18"/>
				<path class="st48" d="M52.16,316.5c-0.84,0-1.59,0.86-1.51,1.69c0.09,0.9,0.79,1.51,1.69,1.51c0.84,0,1.59-0.86,1.51-1.69
					C53.76,317.1,53.06,316.5,52.16,316.5"/>
				<path class="st38" d="M87.58,165.2c0-15.71,9.2-28.44,20.55-28.44c11.35,0,20.55,12.73,20.55,28.44
					c0,14.41-8.11,21.11-17.88,27.29c-1.55,0.98-3.7,0.86-5.25-0.12C94.29,185.25,87.58,179.8,87.58,165.2"/>
				<path class="st51" d="M113.77,164.23c0,0,3.74-3.18,6.4-2.9c4.62,0.22,6.58,1.94,6.58,1.94l-4.55,1.26L113.77,164.23z"/>
				<path class="st51" d="M124.02,162.98c0,0-0.89-0.7-2.75-0.93c0.47,0.43,0.77,1.04,0.77,1.73c0,0.28-0.06,0.54-0.14,0.78
					C123.53,164.08,124.02,162.98,124.02,162.98"/>
				<path class="st51" d="M117.8,162.38c-1.68,0.59-2.91,1.62-2.91,1.62s1.03,0.34,2.58,0.57c-0.09-0.25-0.15-0.51-0.15-0.79
					C117.33,163.25,117.51,162.77,117.8,162.38"/>
				<path class="st51" d="M121.27,162.04c-0.38-0.05-0.77-0.08-1.23-0.08c-0.79,0-1.55,0.17-2.23,0.42
					c-0.29,0.39-0.47,0.87-0.47,1.4c0,0.28,0.06,0.54,0.15,0.79c0.38,0.06,0.78,0.1,1.21,0.14c-0.23-0.24-0.38-0.57-0.38-0.93
					c0-0.75,0.61-1.37,1.37-1.37c0.75,0,1.37,0.61,1.37,1.37c0,0.39-0.16,0.73-0.42,0.98c0.48-0.03,0.9-0.09,1.26-0.2
					c0.09-0.25,0.14-0.51,0.14-0.78C122.04,163.09,121.74,162.47,121.27,162.04"/>
				<path class="st51" d="M121.27,162.04c-0.38-0.05-0.77-0.08-1.23-0.08c-0.79,0-1.55,0.17-2.23,0.42
					c-0.29,0.39-0.47,0.87-0.47,1.4c0,0.28,0.06,0.54,0.15,0.79c0.38,0.06,0.78,0.1,1.21,0.14c-0.23-0.24-0.38-0.57-0.38-0.93
					c0-0.75,0.61-1.37,1.37-1.37c0.75,0,1.37,0.61,1.37,1.37c0,0.39-0.16,0.73-0.42,0.98c0.48-0.03,0.9-0.09,1.26-0.2
					c0.09-0.25,0.14-0.51,0.14-0.78C122.04,163.09,121.74,162.47,121.27,162.04"/>
				<path class="st51" d="M120.63,164.75c0.26-0.25,0.42-0.6,0.42-0.98c0-0.76-0.61-1.37-1.37-1.37c-0.75,0-1.37,0.61-1.37,1.37
					c0,0.36,0.14,0.69,0.38,0.93c0.5,0.04,1.02,0.08,1.57,0.08C120.4,164.78,120.5,164.76,120.63,164.75"/>
				<path class="st52" d="M113.77,164.23c0,0,3.74-3.18,6.4-2.9c4.62,0.22,6.58,1.94,6.58,1.94l-4.55,1.26L113.77,164.23z"/>
				<path class="st48" d="M124.02,162.98c0,0-0.89-0.7-2.75-0.93c0.47,0.43,0.77,1.04,0.77,1.73c0,0.28-0.06,0.54-0.14,0.78
					C123.53,164.08,124.02,162.98,124.02,162.98"/>
				<path class="st48" d="M117.8,162.38c-1.68,0.59-2.91,1.62-2.91,1.62s1.03,0.34,2.58,0.57c-0.09-0.25-0.15-0.51-0.15-0.79
					C117.33,163.25,117.51,162.77,117.8,162.38"/>
				<path class="st48" d="M121.27,162.04c-0.38-0.05-0.77-0.08-1.23-0.08c-0.79,0-1.55,0.17-2.23,0.42
					c-0.29,0.39-0.47,0.87-0.47,1.4c0,0.28,0.06,0.54,0.15,0.79c0.38,0.06,0.78,0.1,1.21,0.14c-0.23-0.24-0.38-0.57-0.38-0.93
					c0-0.75,0.61-1.37,1.37-1.37c0.75,0,1.37,0.61,1.37,1.37c0,0.39-0.16,0.73-0.42,0.98c0.48-0.03,0.9-0.09,1.26-0.2
					c0.09-0.25,0.14-0.51,0.14-0.78C122.04,163.09,121.74,162.47,121.27,162.04"/>
			</g>
			<g class="st37">
				<defs>
					<path id="SVGID_31_" d="M117.8,162.38c-0.29,0.39-0.47,0.87-0.47,1.39c0,0.28,0.06,0.55,0.15,0.79
						c0.38,0.06,0.78,0.1,1.21,0.14c-0.23-0.24-0.37-0.57-0.37-0.93c0-0.75,0.61-1.37,1.37-1.37c0.75,0,1.37,0.61,1.37,1.37
						c0,0.39-0.16,0.74-0.42,0.98c0.48-0.03,0.9-0.1,1.26-0.2c0.09-0.24,0.14-0.51,0.14-0.78c0-0.69-0.3-1.3-0.77-1.73
						c-0.37-0.05-0.77-0.08-1.23-0.08C119.25,161.96,118.49,162.13,117.8,162.38"/>
				</defs>
				<clipPath id="SVGID_32_">
					<use xlink:href="#SVGID_31_"  style="overflow:visible;"/>
				</clipPath>
				
					<radialGradient id="SVGID_33_" cx="-63.3165" cy="-426.7401" r="1" gradientTransform="matrix(2.3505 0 0 -2.3505 268.5132 -839.2958)" gradientUnits="userSpaceOnUse">
					<stop  offset="0" style="stop-color:#00ADEE"/>
					<stop  offset="0.1845" style="stop-color:#01A9EA"/>
					<stop  offset="0.352" style="stop-color:#049FDF"/>
					<stop  offset="0.513" style="stop-color:#098CCD"/>
					<stop  offset="0.6699" style="stop-color:#1073B3"/>
					<stop  offset="0.8238" style="stop-color:#195291"/>
					<stop  offset="0.9736" style="stop-color:#242A69"/>
					<stop  offset="1" style="stop-color:#262261"/>
				</radialGradient>
				<rect x="117.33" y="161.96" class="st53" width="4.7" height="2.8"/>
			</g>
			<g class="st37">
				<defs>
					<rect id="SVGID_34_" x="47" y="125" width="137.17" height="499.46"/>
				</defs>
				<clipPath id="SVGID_35_">
					<use xlink:href="#SVGID_34_"  style="overflow:visible;"/>
				</clipPath>
				<path class="st54" d="M120.63,164.75c0.26-0.25,0.42-0.6,0.42-0.98c0-0.76-0.61-1.37-1.37-1.37c-0.75,0-1.37,0.61-1.37,1.37
					c0,0.36,0.14,0.69,0.38,0.93c0.5,0.04,1.02,0.08,1.57,0.08C120.4,164.78,120.5,164.76,120.63,164.75"/>
				<path class="st55" d="M104.24,164.36c0,0-3.74-3.18-6.4-2.9c-4.62,0.22-6.58,1.94-6.58,1.94l4.55,1.26L104.24,164.36z"/>
				<path class="st55" d="M93.99,163.1c0,0,0.89-0.7,2.75-0.93c-0.47,0.43-0.77,1.04-0.77,1.73c0,0.28,0.06,0.54,0.14,0.78
					C94.48,164.2,93.99,163.1,93.99,163.1"/>
				<path class="st55" d="M100.21,162.5c1.68,0.59,2.9,1.62,2.9,1.62s-1.03,0.34-2.58,0.57c0.09-0.25,0.15-0.51,0.15-0.79
					C100.68,163.38,100.5,162.9,100.21,162.5"/>
				<path class="st55" d="M96.74,162.17c0.38-0.05,0.77-0.08,1.23-0.08c0.79,0,1.55,0.17,2.24,0.42c0.29,0.39,0.47,0.87,0.47,1.4
					c0,0.28-0.06,0.54-0.15,0.79c-0.38,0.06-0.78,0.1-1.21,0.14c0.23-0.24,0.38-0.57,0.38-0.93c0-0.75-0.61-1.37-1.37-1.37
					c-0.76,0-1.37,0.61-1.37,1.37c0,0.39,0.16,0.73,0.42,0.98c-0.48-0.03-0.9-0.09-1.26-0.2c-0.09-0.25-0.14-0.51-0.14-0.78
					C95.97,163.21,96.27,162.6,96.74,162.17"/>
				<path class="st55" d="M96.74,162.17c0.38-0.05,0.77-0.08,1.23-0.08c0.79,0,1.55,0.17,2.24,0.42c0.29,0.39,0.47,0.87,0.47,1.4
					c0,0.28-0.06,0.54-0.15,0.79c-0.38,0.06-0.78,0.1-1.21,0.14c0.23-0.24,0.38-0.57,0.38-0.93c0-0.75-0.61-1.37-1.37-1.37
					c-0.76,0-1.37,0.61-1.37,1.37c0,0.39,0.16,0.73,0.42,0.98c-0.48-0.03-0.9-0.09-1.26-0.2c-0.09-0.25-0.14-0.51-0.14-0.78
					C95.97,163.21,96.27,162.6,96.74,162.17"/>
				<path class="st55" d="M97.38,164.88c-0.26-0.25-0.42-0.6-0.42-0.98c0-0.76,0.61-1.37,1.37-1.37c0.75,0,1.37,0.61,1.37,1.37
					c0,0.36-0.14,0.69-0.38,0.93c-0.5,0.04-1.02,0.08-1.57,0.08C97.61,164.91,97.51,164.89,97.38,164.88"/>
				<path class="st56" d="M104.24,164.36c0,0-3.74-3.18-6.4-2.9c-4.62,0.22-6.58,1.94-6.58,1.94l4.55,1.26L104.24,164.36z"/>
				<path class="st57" d="M93.99,163.1c0,0,0.89-0.7,2.75-0.93c-0.47,0.43-0.77,1.04-0.77,1.73c0,0.28,0.06,0.54,0.14,0.78
					C94.48,164.2,93.99,163.1,93.99,163.1"/>
				<path class="st57" d="M100.21,162.5c1.68,0.59,2.9,1.62,2.9,1.62s-1.03,0.34-2.58,0.57c0.09-0.25,0.15-0.51,0.15-0.79
					C100.68,163.38,100.5,162.9,100.21,162.5"/>
				<path class="st57" d="M96.74,162.17c0.38-0.05,0.77-0.08,1.23-0.08c0.79,0,1.55,0.17,2.24,0.42c0.29,0.39,0.47,0.87,0.47,1.4
					c0,0.28-0.06,0.54-0.15,0.79c-0.38,0.06-0.78,0.1-1.21,0.14c0.23-0.24,0.38-0.57,0.38-0.93c0-0.75-0.61-1.37-1.37-1.37
					c-0.76,0-1.37,0.61-1.37,1.37c0,0.39,0.16,0.73,0.42,0.98c-0.48-0.03-0.9-0.09-1.26-0.2c-0.09-0.25-0.14-0.51-0.14-0.78
					C95.97,163.21,96.27,162.6,96.74,162.17"/>
			</g>
			<g class="st37">
				<defs>
					<path id="SVGID_36_" d="M96.74,162.17c-0.47,0.43-0.77,1.04-0.77,1.73c0,0.28,0.06,0.54,0.14,0.78c0.36,0.1,0.78,0.17,1.26,0.2
						c-0.26-0.25-0.42-0.6-0.42-0.98c0-0.75,0.61-1.37,1.37-1.37c0.76,0,1.37,0.61,1.37,1.37c0,0.36-0.14,0.69-0.37,0.94
						c0.43-0.04,0.84-0.08,1.21-0.14c0.09-0.25,0.15-0.51,0.15-0.79c0-0.52-0.18-1-0.47-1.39c-0.69-0.24-1.45-0.42-2.23-0.42
						C97.52,162.09,97.12,162.12,96.74,162.17"/>
				</defs>
				<clipPath id="SVGID_37_">
					<use xlink:href="#SVGID_36_"  style="overflow:visible;"/>
				</clipPath>
				
					<radialGradient id="SVGID_38_" cx="-226.6835" cy="-426.7401" r="1" gradientTransform="matrix(-2.3505 0 0 -2.3505 -434.5025 -839.1679)" gradientUnits="userSpaceOnUse">
					<stop  offset="0" style="stop-color:#00ADEE"/>
					<stop  offset="0.1845" style="stop-color:#01A9EA"/>
					<stop  offset="0.352" style="stop-color:#049FDF"/>
					<stop  offset="0.513" style="stop-color:#098CCD"/>
					<stop  offset="0.6699" style="stop-color:#1073B3"/>
					<stop  offset="0.8238" style="stop-color:#195291"/>
					<stop  offset="0.9736" style="stop-color:#242A69"/>
					<stop  offset="1" style="stop-color:#262261"/>
				</radialGradient>
				<rect x="95.97" y="162.09" class="st58" width="4.7" height="2.79"/>
			</g>
			<g class="st37">
				<defs>
					<rect id="SVGID_39_" x="47" y="125" width="137.17" height="499.46"/>
				</defs>
				<clipPath id="SVGID_40_">
					<use xlink:href="#SVGID_39_"  style="overflow:visible;"/>
				</clipPath>
				<path class="st59" d="M97.38,164.88c-0.26-0.25-0.42-0.6-0.42-0.98c0-0.76,0.61-1.37,1.37-1.37c0.75,0,1.37,0.61,1.37,1.37
					c0,0.36-0.14,0.69-0.38,0.93c-0.5,0.04-1.02,0.08-1.57,0.08C97.61,164.91,97.51,164.89,97.38,164.88"/>
				<path class="st60" d="M89.75,158.12c0,0,8.09-1.88,13.04,0.08c0.58,0.26,1.55-0.58,0.58-1.33
					C101.97,155.78,96.36,155.42,89.75,158.12"/>
				<path class="st60" d="M127.95,157.9c0,0-8.14-1.63-13.03,0.49c-0.57,0.28-1.57-0.53-0.62-1.32
					C115.66,155.95,121.25,155.4,127.95,157.9"/>
				<path class="st61" d="M100.01,180.22c0,0,4.89-1.77,6-1.4c1.11,0.37,2.02,0.87,2.3,0.8c0.29-0.07,1.71-1,2.39-0.8
					c0.67,0.19,5.31,1.4,5.31,1.4s-2.96,4.89-7.37,4.93C104.24,185.18,101.83,181.78,100.01,180.22"/>
				<g class="st62">
					<g>
						<defs>
							<rect id="SVGID_41_" x="100.01" y="180.21" width="15" height="4.97"/>
						</defs>
						<clipPath id="SVGID_42_">
							<use xlink:href="#SVGID_41_"  style="overflow:visible;"/>
						</clipPath>
						<path class="st63" d="M115.01,181.22c0,0-1.96,3.93-6.37,3.97c-4.41,0.04-6.81-3.4-8.63-4.97
							C105.19,183.09,110.49,184.51,115.01,181.22"/>
					</g>
				</g>
				<path class="st64" d="M101.82,180.73c0,0,7.19,2.49,12.19,0.21"/>
				<path class="st65" d="M108.24,175.03c-1.15,0-2.11-0.51-2.43-1.21c-0.07,0.16-0.12,0.32-0.12,0.5c0,0.94,1.14,1.71,2.55,1.71
					c1.41,0,2.55-0.77,2.55-1.71c0-0.17-0.05-0.34-0.12-0.5C110.34,174.52,109.39,175.03,108.24,175.03"/>
				<path class="st65" d="M91.53,169.91c0-0.13,0.1-0.23,0.23-0.23c0.13,0,0.23,0.1,0.23,0.23c0,0.13-0.1,0.23-0.23,0.23
					C91.63,170.14,91.53,170.04,91.53,169.91"/>
				<path class="st65" d="M96.4,170.31c0-0.09,0.08-0.17,0.17-0.17c0.1,0,0.17,0.08,0.17,0.17c0,0.1-0.08,0.17-0.17,0.17
					C96.48,170.48,96.4,170.41,96.4,170.31"/>
				<path class="st65" d="M95.97,172.39c0-0.12,0.09-0.21,0.21-0.21c0.12,0,0.21,0.1,0.21,0.21c0,0.12-0.1,0.21-0.21,0.21
					C96.07,172.6,95.97,172.51,95.97,172.39"/>
				<path class="st65" d="M100.36,169.28c0-0.12,0.1-0.21,0.21-0.21c0.12,0,0.21,0.1,0.21,0.21c0,0.12-0.1,0.21-0.21,0.21
					C100.46,169.49,100.36,169.4,100.36,169.28"/>
				<path class="st65" d="M101.45,171.85c0-0.12,0.1-0.21,0.21-0.21c0.12,0,0.21,0.1,0.21,0.21c0,0.12-0.1,0.21-0.21,0.21
					C101.54,172.06,101.45,171.96,101.45,171.85"/>
				<path class="st65" d="M124.87,169.91c0-0.13-0.1-0.23-0.23-0.23c-0.13,0-0.23,0.1-0.23,0.23c0,0.13,0.1,0.23,0.23,0.23
					C124.77,170.14,124.87,170.04,124.87,169.91"/>
				<path class="st65" d="M120,170.31c0-0.09-0.08-0.17-0.17-0.17s-0.17,0.08-0.17,0.17c0,0.1,0.08,0.17,0.17,0.17
					S120,170.41,120,170.31"/>
				<path class="st65" d="M120.43,172.39c0-0.12-0.1-0.21-0.21-0.21c-0.12,0-0.21,0.1-0.21,0.21c0,0.12,0.1,0.21,0.21,0.21
					C120.33,172.6,120.43,172.51,120.43,172.39"/>
				<path class="st65" d="M116.04,169.28c0-0.12-0.1-0.21-0.21-0.21c-0.12,0-0.21,0.1-0.21,0.21c0,0.12,0.1,0.21,0.21,0.21
					C115.94,169.49,116.04,169.4,116.04,169.28"/>
				<path class="st65" d="M114.96,171.85c0-0.12-0.1-0.21-0.21-0.21c-0.12,0-0.21,0.1-0.21,0.21c0,0.12,0.1,0.21,0.21,0.21
					C114.86,172.06,114.96,171.96,114.96,171.85"/>
				<path class="st66" d="M90.95,152.64c0,0-5.26,50.49,5.43,60.3c-10.46-6.43-21.21-26.53-15.84-61.59"/>
				<path class="st66" d="M125.21,149.49c0,0,7.07,35.98-6.79,63.46c10.46-6.66,21.21-27.48,15.83-63.79"/>
				<path class="st66" d="M100.06,141.64c0,0,1.28,20.72,23.84,9.79c0,0-18.44,7.38-18.3-9.36
					C105.59,142.07,100.34,138.52,100.06,141.64"/>
				<path class="st66" d="M101.65,140.78c0,0,0.9,16.07,24.3,9.87c0,0-5.58,2.01-12.06,0c0,0,10.26,1.34,12.24-0.84v-14.39
					c0-7.2-31.5-17.57-29.7,3.01L101.65,140.78z"/>
				<path class="st66" d="M90.44,159.43c0,0,3.75-19.35,15.35-15.83c3.54-14.69,1.51-14.74,1.51-14.74s-10.07-2.98-20.77,12.1
					C75.84,156.04,90.44,159.43,90.44,159.43"/>
				<g class="st67">
					<g>
						<defs>
							<rect id="SVGID_43_" x="80.99" y="135" width="20.35" height="59.88"/>
						</defs>
						<clipPath id="SVGID_44_">
							<use xlink:href="#SVGID_43_"  style="overflow:visible;"/>
						</clipPath>
						<g class="st68">
							<defs>
								<path id="SVGID_45_" d="M101.35,135c0,0-20.56,12.95-13.6,59.88c-11.5-7.99-7.25-49.33,4.7-57.02"/>
							</defs>
							<clipPath id="SVGID_46_">
								<use xlink:href="#SVGID_45_"  style="overflow:visible;"/>
							</clipPath>
							<defs>
								<filter id="Adobe_OpacityMaskFilter" filterUnits="userSpaceOnUse" x="53.74" y="125.57" width="70.11" height="78.75">
									<feColorMatrix  type="matrix" values="1 0 0 0 0  0 1 0 0 0  0 0 1 0 0  0 0 0 1 0"/>
								</filter>
							</defs>
							<mask maskUnits="userSpaceOnUse" x="53.74" y="125.57" width="70.11" height="78.75" id="SVGID_47_">
								<g class="st69">
									
										<linearGradient id="SVGID_48_" gradientUnits="userSpaceOnUse" x1="-131.741" y1="-102.2926" x2="-130.741" y2="-102.2926" gradientTransform="matrix(-18.4382 40.7097 40.7097 18.4382 1833.3977 7393.4878)">
										<stop  offset="0" style="stop-color:#FFFFFF"/>
										<stop  offset="0.0629" style="stop-color:#DADADA"/>
										<stop  offset="0.1601" style="stop-color:#A7A7A7"/>
										<stop  offset="0.2621" style="stop-color:#7B7B7B"/>
										<stop  offset="0.3668" style="stop-color:#555555"/>
										<stop  offset="0.475" style="stop-color:#363636"/>
										<stop  offset="0.5878" style="stop-color:#1E1E1E"/>
										<stop  offset="0.7072" style="stop-color:#0D0D0D"/>
										<stop  offset="0.8376" style="stop-color:#030303"/>
										<stop  offset="1" style="stop-color:#000000"/>
									</linearGradient>
									<polygon class="st70" points="123.85,145.2 97.07,204.32 53.74,184.69 80.52,125.57 									"/>
								</g>
							</mask>
							
								<linearGradient id="SVGID_49_" gradientUnits="userSpaceOnUse" x1="-131.741" y1="-102.2927" x2="-130.741" y2="-102.2927" gradientTransform="matrix(-18.4382 40.7097 40.7097 18.4382 1833.3978 7393.4888)">
								<stop  offset="0" style="stop-color:#FFFFFF"/>
								<stop  offset="1" style="stop-color:#FFFFFF"/>
							</linearGradient>
							<polygon class="st71" points="123.85,145.2 97.07,204.32 53.74,184.69 80.52,125.57 							"/>
						</g>
					</g>
				</g>
				<g class="st67">
					<g>
						<defs>
							<rect id="SVGID_50_" x="110.67" y="133.24" width="23.95" height="53.23"/>
						</defs>
						<clipPath id="SVGID_51_">
							<use xlink:href="#SVGID_50_"  style="overflow:visible;"/>
						</clipPath>
						<g class="st72">
							<defs>
								<path id="SVGID_52_" d="M110.67,133.24c0,0,24.86,11.32,19.37,53.23c7.37-16.22,5.96-39.94-5.13-47.62"/>
							</defs>
							<clipPath id="SVGID_53_">
								<use xlink:href="#SVGID_52_"  style="overflow:visible;"/>
							</clipPath>
							<defs>
								<filter id="Adobe_OpacityMaskFilter_1_" filterUnits="userSpaceOnUse" x="90.66" y="123.19" width="66.75" height="73.33">
									<feColorMatrix  type="matrix" values="1 0 0 0 0  0 1 0 0 0  0 0 1 0 0  0 0 0 1 0"/>
								</filter>
							</defs>
							<mask maskUnits="userSpaceOnUse" x="90.66" y="123.19" width="66.75" height="73.33" id="SVGID_54_">
								<g class="st73">
									
										<linearGradient id="SVGID_55_" gradientUnits="userSpaceOnUse" x1="-125.6691" y1="-97.2591" x2="-124.6691" y2="-97.2591" gradientTransform="matrix(-12.6467 27.9227 27.9227 12.6467 1255.7572 4887.2236)">
										<stop  offset="0" style="stop-color:#FFFFFF"/>
										<stop  offset="0.0629" style="stop-color:#DADADA"/>
										<stop  offset="0.1601" style="stop-color:#A7A7A7"/>
										<stop  offset="0.2621" style="stop-color:#7B7B7B"/>
										<stop  offset="0.3668" style="stop-color:#555555"/>
										<stop  offset="0.475" style="stop-color:#363636"/>
										<stop  offset="0.5878" style="stop-color:#1E1E1E"/>
										<stop  offset="0.7072" style="stop-color:#0D0D0D"/>
										<stop  offset="0.8376" style="stop-color:#030303"/>
										<stop  offset="1" style="stop-color:#000000"/>
									</linearGradient>
									<polygon class="st74" points="157.42,142.3 132.86,196.52 90.66,177.41 115.22,123.19 									"/>
								</g>
							</mask>
							
								<linearGradient id="SVGID_56_" gradientUnits="userSpaceOnUse" x1="-125.6691" y1="-97.2591" x2="-124.6691" y2="-97.2591" gradientTransform="matrix(-12.6467 27.9227 27.9227 12.6467 1255.7574 4887.2236)">
								<stop  offset="0" style="stop-color:#FFFFFF"/>
								<stop  offset="1" style="stop-color:#FFFFFF"/>
							</linearGradient>
							<polygon class="st75" points="157.42,142.3 132.86,196.52 90.66,177.41 115.22,123.19 							"/>
						</g>
					</g>
				</g>
			</g>
		</g>
	</g>
</g>
</svg>
