<?xml version="1.0" encoding="utf-8"?>
<!-- Generator: Adobe Illustrator 23.0.2, SVG Export Plug-In . SVG Version: 6.00 Build 0)  -->
<svg version="1.1" id="Layer_1" xmlns="http://www.w3.org/2000/svg" xmlns:xlink="http://www.w3.org/1999/xlink" x="0px" y="0px" width="1548" height="1225"
	 viewBox="0 0 1548.25 1225.58" style="enable-background:new 0 0 1548.25 1225.58;" xml:space="preserve">
<style type="text/css">
	.st0{fill:#79B6E1;stroke:#000000;stroke-miterlimit:10;}
	.st1{fill:url(#SVGID_1_);}
	.st2{enable-background:new    ;}
	.st3{clip-path:url(#SVGID_3_);}
	.st4{fill:#FFFFFF;}
	.st5{clip-path:url(#SVGID_5_);}
</style>
<rect x="0.32" y="1.88" class="st0" width="1548.25" height="1225.58"/>
<g>
	
		<linearGradient id="SVGID_1_" gradientUnits="userSpaceOnUse" x1="874.8098" y1="506.3207" x2="726.2552" y2="763.6246" gradientTransform="matrix(0.9999 0.0107 -0.0107 0.9999 6.6084 -8.2547)">
		<stop  offset="0" style="stop-color:#59A9DC"/>
		<stop  offset="0.1943" style="stop-color:#559FD1"/>
		<stop  offset="0.5591" style="stop-color:#4A85B4"/>
		<stop  offset="1" style="stop-color:#406190"/>
	</linearGradient>
	<polygon class="st1" points="1674.01,1298.58 -111.61,268.28 -66.99,-38.94 1618.74,946.93 	"/>
	<g>
		<g>
			<g>
				<g class="st2">
					<defs>
						<polygon id="SVGID_2_" class="st2" points="683.48,145.58 753.47,104.9 1204.36,365.22 1134.37,405.9 						"/>
					</defs>
					<clipPath id="SVGID_3_">
						<use xlink:href="#SVGID_2_"  style="overflow:visible;"/>
					</clipPath>
					<g class="st3">
						<g>
							<g>
								<g>
									<polyline class="st4" points="762.24,109.96 686.02,144.1 699.95,152.23 746.92,130.92 729.2,160.41 739.9,166.65 
										790.75,156.52 753.59,183.55 767.5,191.68 827.15,147.87 815.39,141 750.16,154.5 773.82,116.72 762.24,109.96 									
										"/>
									<polyline class="st4" points="848.23,160.18 780.34,199.18 793.98,207.14 861.86,168.13 848.23,160.18 									"/>
									<polyline class="st4" points="878.33,177.75 810.44,216.75 824.07,224.71 866.64,200.26 848.59,239.03 860.84,246.18 
										928.73,207.18 915.1,199.22 873.02,223.39 890.98,185.14 878.33,177.75 									"/>
									<path class="st4" d="M916.01,264.36c-0.04-0.02-0.07-0.04-0.11-0.06l-12.85-7.5l43.66-25.08l12.84,7.5
										c11.28,6.58,6.71,15.91-4.91,22.59C943.06,268.47,927.28,270.87,916.01,264.36 M945.2,216.8l-67.89,39l26.48,15.46
										c0.07,0.04,0.14,0.08,0.22,0.13c19.39,11.2,45.12,9.38,64.27-1.62c19.32-11.1,22.81-26.17,3.4-37.51L945.2,216.8"/>
									<polyline class="st4" points="1028.93,265.69 1016.81,272.65 1035.45,283.53 979.67,315.58 993.31,323.53 1049.08,291.49 
										1067.7,302.37 1079.82,295.41 1028.93,265.69 									"/>
									<polyline class="st4" points="1090.02,301.36 1022.13,340.37 1035.76,348.32 1063.34,332.47 1088.55,347.19 
										1060.95,363.04 1074.59,371 1142.48,331.99 1128.85,324.03 1100.87,340.11 1075.66,325.4 1103.65,309.32 1090.02,301.36 
																			"/>
									<polyline class="st4" points="1158.95,341.61 1091.05,380.61 1134.3,405.86 1146.41,398.9 1116.81,381.61 1131.97,372.89 
										1157.18,387.61 1169.49,380.53 1144.29,365.81 1160.46,356.53 1189.18,373.31 1201.3,366.34 1158.95,341.61 									"/>
								</g>
							</g>
						</g>
					</g>
				</g>
			</g>
		</g>
		<g>
			<g>
				<g>
					<g class="st2">
						<defs>
							<polygon id="SVGID_4_" class="st2" points="466.76,278.86 631.2,183.3 1087.85,446.95 923.42,542.51 							"/>
						</defs>
						<clipPath id="SVGID_5_">
							<use xlink:href="#SVGID_4_"  style="overflow:visible;"/>
						</clipPath>
						<g class="st5">
							<g>
								<g>
									<g>
										<path class="st4" d="M713.58,230.86c-46.12-26.63-118.57-26.23-164.25,0.01c-45.62,26.21-46.73,68.38-0.63,95.29
											c0.23,0.13,0.45,0.26,0.68,0.39c45.98,26.55,104.26,29.65,163.62-4.45l-80.78-47.16l-26.43,15.18l45.39,26.51
											c-1.63,0.67-3.27,1.34-4.9,1.74c-20.9,7.19-47.29,3.41-68.19-8.66c-0.13-0.07-0.25-0.15-0.38-0.22
											c-27.93-16.31-24.79-43.2,3.98-59.73c28.67-16.47,73.97-17.59,101.92-1.45c0.09,0.05,0.19,0.11,0.28,0.16
											c13.97,8.15,20.69,19.13,19.95,30.07l43.86,2.03c1.7-17.16-9.42-35.3-33.63-49.44
											C713.91,231.05,713.74,230.96,713.58,230.86"/>
										<path class="st4" d="M796.7,391.05l-40.73-23.79l80.83-22.98L796.7,391.05 M853.26,314.87l-220.99,57.66l34.45,20.12
											l51.4-14.7l60.06,35.07l-25.56,29.79l33.99,19.84l101.57-127.39L853.26,314.87"/>
										<path class="st4" d="M953.86,461.95c-0.06-0.03-0.11-0.07-0.17-0.1l-31.43-18.35l47.49-27.28l31.89,18.62
											c15.13,8.84,8.78,19.22-2.91,25.94C987.3,467.34,969.41,470.93,953.86,461.95 M966.15,380.79l-161.16,92.6l32.36,18.9
											l56.37-32.39l33.05,19.3c0.14,0.08,0.29,0.17,0.43,0.25c36.22,20.91,77.78,15.49,104.11,0.36
											c26.43-15.19,36.57-39.62,0.26-60.82L966.15,380.79"/>
									</g>
								</g>
							</g>
						</g>
					</g>
				</g>
			</g>
			<polygon class="st4" points="806.24,474.2 806.24,797.21 839.38,816.88 841.51,476.99 			"/>
			<polygon class="st4" points="601.22,342.69 602.14,680.82 512.81,627.95 514.83,284.13 515.11,277.48 515.54,272.31 			"/>
			<polygon class="st4" points="633.27,372.85 632.73,697.76 667.31,718.28 669.29,383.23 			"/>
			<polygon class="st4" points="785.77,786.62 787.79,445.04 753.64,443.72 751.26,766.13 			"/>
		</g>
	</g>
	<polygon class="st4" points="752.72,443.74 754.55,441.43 755.93,445.71 	"/>
</g>
</svg>
