<?xml version="1.0" encoding="utf-8"?>
<!-- Generator: Adobe Illustrator 23.0.2, SVG Export Plug-In . SVG Version: 6.00 Build 0)  -->
<svg version="1.1" id="Layer_1" xmlns="http://www.w3.org/2000/svg" xmlns:xlink="http://www.w3.org/1999/xlink" x="0px" y="0px"
	 width="812px" height="595px" viewBox="0 0 812 595" style="enable-background:new 0 0 812 595;" xml:space="preserve">
<style type="text/css">
	.st0{fill:url(#Huid_1_);}
	.st1{fill:url(#SVGID_1_);}
	.st2{fill:#EC6AA4;}
	.st3{fill:url(#SVGID_2_);}
	.st4{fill:url(#SVGID_3_);}
	.st5{opacity:0.3;fill:#FFFFFF;enable-background:new    ;}
	.st6{fill:url(#SVGID_4_);}
	.st7{fill:url(#SVGID_5_);}
	.st8{fill:url(#SVGID_6_);}
	.st9{fill:url(#SVGID_7_);}
	.st10{fill:#EB6BA5;}
	.st11{fill:url(#SVGID_8_);stroke:#000000;stroke-width:1.0354;stroke-miterlimit:10;}
	.st12{fill:url(#SVGID_9_);}
	.st13{fill:url(#SVGID_10_);}
	.st14{fill:url(#SVGID_11_);}
	.st15{fill:url(#SVGID_12_);}
	.st16{fill:url(#SVGID_13_);}
	.st17{opacity:0.4;fill:#EB6BA5;enable-background:new    ;}
	.st18{opacity:0.15;}
	.st19{fill:#FDFBFC;}
</style>
<radialGradient id="Huid_1_" cx="420.7242" cy="294.6053" r="453.0075" gradientTransform="matrix(0.9645 0 0 -0.9645 0.213 581.6458)" gradientUnits="userSpaceOnUse">
	<stop  offset="0" style="stop-color:#F8C9DF"/>
	<stop  offset="1" style="stop-color:#EA5297"/>
</radialGradient>
<rect id="Huid" y="10.4" class="st0" width="812" height="574.1"/>
<g id="linkeroog">
	<g>
		
			<image style="display:none;overflow:visible;enable-background:new    ;" width="1679" height="1792" xlink:href="5109B319.png"  transform="matrix(0.2307 0 0 0.2307 65.996 49.9626)">
		</image>
		<g>
			
				<radialGradient id="SVGID_1_" cx="295.0168" cy="371.6517" r="80.9479" gradientTransform="matrix(1.0147 0.5224 0.6971 -1.2904 -298.774 581.9991)" gradientUnits="userSpaceOnUse">
				<stop  offset="0" style="stop-color:#FFFFFF"/>
				<stop  offset="0.4636" style="stop-color:#FEFEFE"/>
				<stop  offset="0.6306" style="stop-color:#F9F9F9"/>
				<stop  offset="0.7496" style="stop-color:#F0F0F0"/>
				<stop  offset="0.8458" style="stop-color:#E4E4E4"/>
				<stop  offset="0.9273" style="stop-color:#D4D4D4"/>
				<stop  offset="0.9492" style="stop-color:#CECECE"/>
			</radialGradient>
			<path class="st1" d="M238.3,371.8c-13,0-25.1-2.9-36.2-8.6c-19.1-9.8-32.9-27-39.9-49.5c-9.6-31-4.9-67.7,13-100.7
				c23.5-43.6,65.1-71.7,105.9-71.7c13,0,25.1,2.9,36.2,8.6c19.1,9.8,32.9,27,39.9,49.5c9.6,31,4.9,67.7-13,100.7
				C320.6,343.7,279.1,371.8,238.3,371.8z"/>
			<path class="st2" d="M281.1,144.5c12.1,0,23.9,2.6,34.7,8.2c45.1,23.2,56.5,88.5,25.6,145.9c-23.5,43.6-64.8,70-103,70
				c-12.1,0-23.9-2.6-34.7-8.2c-45.1-23.2-56.5-88.5-25.6-145.9C201.6,170.9,242.8,144.5,281.1,144.5 M281.1,138v6.5V138
				c-20.3,0-41.3,6.8-60.6,19.8c-19.6,13.1-36.2,31.6-48.1,53.6c-18.2,33.8-23.1,71.4-13.2,103.2c7.2,23.4,21.6,41.2,41.5,51.5
				c11.5,5.9,24.2,8.9,37.7,8.9c20.3,0,41.3-6.8,60.6-19.8c19.6-13.1,36.2-31.6,48.1-53.6c18.2-33.8,23.1-71.4,13.2-103.2
				c-7.2-23.4-21.6-41.2-41.5-51.5C307.2,141,294.5,138,281.1,138L281.1,138z"/>
		</g>
	</g>
	<g>
		<g>
			
				<image style="overflow:visible;opacity:0.4;enable-background:new    ;" width="742" height="729" xlink:href="5109B308.png"  transform="matrix(0.2296 0 0 0.2296 173.4926 213.8842)">
			</image>
			<g>
				
					<radialGradient id="SVGID_2_" cx="258.6566" cy="296.9945" r="56.1232" gradientTransform="matrix(1.0681 0 0 -1.0426 -17.6564 607.1622)" gradientUnits="userSpaceOnUse">
					<stop  offset="0" style="stop-color:#47C1F1"/>
					<stop  offset="0.4296" style="stop-color:#42BFEF"/>
					<stop  offset="0.5843" style="stop-color:#30B9EA"/>
					<stop  offset="0.6946" style="stop-color:#00AFE0"/>
					<stop  offset="0.7838" style="stop-color:#00A0D2"/>
					<stop  offset="0.8602" style="stop-color:#008EC0"/>
					<stop  offset="0.9266" style="stop-color:#007AAA"/>
					<stop  offset="0.9492" style="stop-color:#0072A2"/>
				</radialGradient>
				<ellipse class="st3" cx="258.6" cy="297.5" rx="59.9" ry="58.5"/>
			</g>
		</g>
		<g>
			
				<image style="overflow:visible;opacity:0.4;enable-background:new    ;" width="463" height="454" xlink:href="5109B309.png"  transform="matrix(0.229 0 0 0.229 205.6622 245.4761)">
			</image>
			<g>
				
					<radialGradient id="SVGID_3_" cx="258.6566" cy="296.9945" r="34.9296" gradientTransform="matrix(1.0681 0 0 -1.0426 -17.6564 607.1622)" gradientUnits="userSpaceOnUse">
					<stop  offset="0" style="stop-color:#464646"/>
					<stop  offset="0.2483" style="stop-color:#3F3E3F"/>
					<stop  offset="0.7132" style="stop-color:#2A2A2A"/>
					<stop  offset="0.9492" style="stop-color:#1E1E1E"/>
				</radialGradient>
				<ellipse class="st4" cx="258.6" cy="297.5" rx="37.3" ry="36.4"/>
			</g>
		</g>
		<ellipse class="st5" cx="230.5" cy="266" rx="26.4" ry="25.8"/>
	</g>
</g>
<g id="rechteroog">
	<g>
		
			<image style="display:none;overflow:visible;enable-background:new    ;" width="1667" height="1783" xlink:href="5109B30A.png"  transform="matrix(0.2308 0 0 0.2308 347.3949 13.0884)">
		</image>
		<g>
			
				<radialGradient id="SVGID_4_" cx="524.6732" cy="401.7103" r="80.9554" gradientTransform="matrix(1.0908 -0.3886 -0.5408 -1.3302 184.5695 957.0176)" gradientUnits="userSpaceOnUse">
				<stop  offset="0" style="stop-color:#FFFFFF"/>
				<stop  offset="0.4636" style="stop-color:#FEFEFE"/>
				<stop  offset="0.6306" style="stop-color:#F9F9F9"/>
				<stop  offset="0.7496" style="stop-color:#F0F0F0"/>
				<stop  offset="0.8458" style="stop-color:#E4E4E4"/>
				<stop  offset="0.9273" style="stop-color:#D4D4D4"/>
				<stop  offset="0.9492" style="stop-color:#CECECE"/>
			</radialGradient>
			<path class="st6" d="M556.8,333.5c-21.1,0-43.4-8-62.6-22.5c-19.8-14.9-35.4-35.6-45.3-59.8c-13.6-33.3-14-68.9-1.1-97.5
				c9.7-21.6,26.5-37.6,47.3-45c8.7-3.1,18-4.7,27.5-4.7c21.1,0,43.4,8,62.6,22.5c19.8,14.9,35.4,35.6,45.3,59.8
				c13.6,33.3,14,68.9,1.1,97.5c-9.7,21.6-26.5,37.6-47.3,45C575.5,331.9,566.3,333.5,556.8,333.5z"/>
			<path class="st2" d="M522.6,107.2c41.8,0,85.1,31.6,104.9,80.3c24,59.1,4.2,121-44.3,138.3c-8.6,3-17.4,4.5-26.4,4.5
				c-41.8,0-85.1-31.6-104.9-80.3c-24-59.1-4.2-121,44.3-138.3C504.7,108.7,513.6,107.2,522.6,107.2 M522.6,100.8v6.4V100.8
				c-9.9,0-19.5,1.6-28.6,4.9c-21.7,7.7-39.1,24.3-49.2,46.7c-13.2,29.4-12.8,65.9,1.1,100.1c10,24.7,26.1,45.8,46.3,61.1
				c19.8,14.9,42.7,23.2,64.6,23.2c9.9,0,19.5-1.6,28.6-4.9c21.7-7.7,39.1-24.3,49.2-46.7c13.2-29.4,12.8-65.9-1.1-100.1
				c-10-24.7-26.1-45.8-46.3-61.1C567.3,109,544.4,100.8,522.6,100.8L522.6,100.8z"/>
		</g>
	</g>
	<g>
		<g>
			
				<image style="overflow:visible;opacity:0.4;enable-background:new    ;" width="750" height="717" xlink:href="5109B30B.png"  transform="matrix(0.2299 0 0 0.2299 461.701 184.2715)">
			</image>
			<g>
				
					<radialGradient id="SVGID_5_" cx="552.3035" cy="342.836" r="56.1349" gradientTransform="matrix(1.0419 -0.2889 -0.3085 -0.9754 78.2204 760.5499)" gradientUnits="userSpaceOnUse">
					<stop  offset="0" style="stop-color:#47C1F1"/>
					<stop  offset="0.4296" style="stop-color:#42BFEF"/>
					<stop  offset="0.5843" style="stop-color:#30B9EA"/>
					<stop  offset="0.6946" style="stop-color:#00AFE0"/>
					<stop  offset="0.7838" style="stop-color:#00A0D2"/>
					<stop  offset="0.8602" style="stop-color:#008EC0"/>
					<stop  offset="0.9266" style="stop-color:#007AAA"/>
					<stop  offset="0.9492" style="stop-color:#0072A2"/>
				</radialGradient>
				<ellipse class="st7" cx="547.9" cy="266.6" rx="61" ry="57.1"/>
			</g>
		</g>
		<g>
			
				<image style="overflow:visible;opacity:0.4;enable-background:new    ;" width="467" height="446" xlink:href="5109B30C.png"  transform="matrix(0.2299 0 0 0.2299 494.2881 215.4801)">
			</image>
			<g>
				
					<radialGradient id="SVGID_6_" cx="552.3035" cy="342.836" r="34.9365" gradientTransform="matrix(1.0419 -0.2889 -0.3085 -0.9754 78.2204 760.5499)" gradientUnits="userSpaceOnUse">
					<stop  offset="0" style="stop-color:#464646"/>
					<stop  offset="0.2483" style="stop-color:#3F3E3F"/>
					<stop  offset="0.7132" style="stop-color:#2A2A2A"/>
					<stop  offset="0.9492" style="stop-color:#1E1E1E"/>
				</radialGradient>
				<ellipse class="st8" cx="547.9" cy="266.6" rx="38" ry="35.5"/>
			</g>
		</g>
		<ellipse class="st5" cx="511.2" cy="244.7" rx="26.9" ry="25.1"/>
	</g>
</g>
<g id="mond">
	<g>
		
			<image style="overflow:visible;opacity:0.5;enable-background:new    ;" width="1017" height="650" xlink:href="5109B30D.png"  transform="matrix(0.2304 0 0 0.2304 299.4485 402.6185)">
		</image>
		<g>
			
				<radialGradient id="SVGID_7_" cx="431.6695" cy="110.6257" r="127.6253" gradientTransform="matrix(0.9645 -3.077852e-04 -2.991336e-04 -0.9374 0.2787 575.8375)" gradientUnits="userSpaceOnUse">
				<stop  offset="0" style="stop-color:#4A0A05"/>
				<stop  offset="0.4368" style="stop-color:#490A05"/>
				<stop  offset="0.5941" style="stop-color:#450905"/>
				<stop  offset="0.7063" style="stop-color:#3E0704"/>
				<stop  offset="0.7969" style="stop-color:#350502"/>
				<stop  offset="0.8737" style="stop-color:#290100"/>
				<stop  offset="0.9413" style="stop-color:#140000"/>
				<stop  offset="0.9492" style="stop-color:#100000"/>
			</radialGradient>
			<path class="st9" d="M416.6,540.7c-8,0-15.7-0.6-22.9-1.7l-0.2,0c-5.6-0.9-11-2.2-16.1-3.8c-14.6-4.6-27.3-12-37.7-22.2
				c-3.3-3.2-6.3-6.7-9.1-10.4c-28.2-37.2-24.9-89.2-24.8-89.7l0.1-1.7l18.9-0.7l202.6-7.1l0.1,1.9c0,0.5,3.2,53.3-23,92.5
				c-4.7,7.1-10.3,13.4-16.4,18.8c-10.9,9.6-23.9,16.4-38.8,20.3c-5.2,1.4-10.8,2.4-16.5,3l-0.1,0
				C427.5,540.4,422.1,540.7,416.6,540.7z"/>
			<path class="st10" d="M525.5,405.3c0,0,3.5,52.2-22.7,91.3c-4.4,6.6-9.7,12.9-16.1,18.5c-9.9,8.8-22.4,15.8-38,19.9
				c-5.1,1.3-10.5,2.3-16.3,3h0c-5,0.6-10.3,0.9-15.9,0.9c-8.2,0-15.8-0.6-22.8-1.7h0c-5.6-0.9-10.9-2.2-15.8-3.7
				c-15.4-4.8-27.5-12.5-36.9-21.8c-3.3-3.2-6.3-6.6-9-10.2c-28.1-37.1-24.4-88.4-24.4-88.4l17.1-0.6l40.1-1.4l101.6-3.6l6.3-0.2
				l25-0.9l6.9-0.2L525.5,405.3 M529.1,401.3l-3.7,0.1l-20.8,0.7l-6.9,0.2l-25,0.9l-6.3,0.2l-101.6,3.6l-40.1,1.4l-17.1,0.6
				l-3.5,0.1l-0.2,3.5c0,0.5-0.9,13.5,1.7,31.2c2.4,16.4,8.5,40.1,23.5,59.9c2.8,3.8,6,7.3,9.3,10.6c10.6,10.4,23.6,18,38.5,22.7
				c5.2,1.6,10.7,2.9,16.4,3.8l0.3,0h0c7.3,1.1,15,1.7,23.1,1.7c5.5,0,11-0.3,16.1-0.9l0,0l0.2,0c5.8-0.7,11.5-1.7,16.8-3.1
				c15.2-4,28.5-10.9,39.6-20.7c6.2-5.5,11.9-12,16.7-19.2c13.9-20.8,19.5-45.2,21.8-61.9c2.4-18.1,1.6-31.2,1.6-31.7L529.1,401.3
				L529.1,401.3z"/>
		</g>
	</g>
	
		<radialGradient id="SVGID_8_" cx="432.5992" cy="74.9203" r="66.1896" gradientTransform="matrix(0.9645 0 0 -0.9645 0.213 581.6458)" gradientUnits="userSpaceOnUse">
		<stop  offset="0" style="stop-color:#C22133"/>
		<stop  offset="0.4923" style="stop-color:#C22233"/>
		<stop  offset="0.6696" style="stop-color:#BF2333"/>
		<stop  offset="0.796" style="stop-color:#BB2433"/>
		<stop  offset="0.898" style="stop-color:#B52633"/>
		<stop  offset="0.9845" style="stop-color:#AB2833"/>
		<stop  offset="1" style="stop-color:#A92833"/>
	</radialGradient>
	<path class="st11" d="M502.8,496.5c-15.7,23.5-42.1,42.2-86.2,42.2c-42.6,0-68.6-16.4-84.5-37.4c18.2-12.8,51.4-21.4,89.4-21.4
		C454.4,480,483.7,486.5,502.8,496.5z"/>
	
		<linearGradient id="SVGID_9_" gradientUnits="userSpaceOnUse" x1="367.9383" y1="146.4528" x2="350.3024" y2="179.429" gradientTransform="matrix(0.9645 0 0 -0.9645 0.213 581.6458)">
		<stop  offset="0" style="stop-color:#FFFFFF"/>
		<stop  offset="0.2909" style="stop-color:#FDFDFD"/>
		<stop  offset="0.5007" style="stop-color:#F6F6F6"/>
		<stop  offset="0.685" style="stop-color:#EBEBEB"/>
		<stop  offset="0.8537" style="stop-color:#DBDBDB"/>
		<stop  offset="0.9492" style="stop-color:#CECECE"/>
	</linearGradient>
	<path class="st12" d="M364.8,410.9c1,3.1,1.6,6.5,1.6,10.1c0,14.9-9.6,26.9-21.4,26.9c-11.8,0-21.4-12.1-21.4-26.9
		c0-3,0.4-6,1.1-8.7L364.8,410.9z"/>
	
		<linearGradient id="SVGID_10_" gradientUnits="userSpaceOnUse" x1="496.5855" y1="150.2852" x2="509.4463" y2="185.07" gradientTransform="matrix(0.9645 0 0 -0.9645 0.213 581.6458)">
		<stop  offset="0" style="stop-color:#FFFFFF"/>
		<stop  offset="0.2909" style="stop-color:#FDFDFD"/>
		<stop  offset="0.5007" style="stop-color:#F6F6F6"/>
		<stop  offset="0.685" style="stop-color:#EBEBEB"/>
		<stop  offset="0.8537" style="stop-color:#DBDBDB"/>
		<stop  offset="0.9492" style="stop-color:#CECECE"/>
	</linearGradient>
	<path class="st13" d="M507.2,418.6c0,14.7-9.6,26.5-21.4,26.5c-11.8,0-21.4-11.9-21.4-26.5c0-4,0.7-7.9,2-11.3l6.3-0.2l25-0.9
		l6.9-0.2C506.3,409.8,507.2,414.1,507.2,418.6z"/>
	
		<linearGradient id="SVGID_11_" gradientUnits="userSpaceOnUse" x1="472.7356" y1="78.0855" x2="483.9089" y2="60.9942" gradientTransform="matrix(0.9645 0 0 -0.9645 0.213 581.6458)">
		<stop  offset="0" style="stop-color:#FFFFFF"/>
		<stop  offset="0.2909" style="stop-color:#FDFDFD"/>
		<stop  offset="0.5007" style="stop-color:#F6F6F6"/>
		<stop  offset="0.685" style="stop-color:#EBEBEB"/>
		<stop  offset="0.8537" style="stop-color:#DBDBDB"/>
		<stop  offset="0.9492" style="stop-color:#CECECE"/>
	</linearGradient>
	<path class="st14" d="M486.8,515c-9.9,8.8-22.4,15.8-38,19.9c-2.4-3.7-3.8-8.1-3.8-12.9c0-12.6,9.6-22.8,21.4-22.8
		C475.9,499.1,484,505.8,486.8,515z"/>
	
		<linearGradient id="SVGID_12_" gradientUnits="userSpaceOnUse" x1="384.3579" y1="77.1705" x2="371.7954" y2="61.8178" gradientTransform="matrix(0.9645 0 0 -0.9645 0.213 581.6458)">
		<stop  offset="0" style="stop-color:#FFFFFF"/>
		<stop  offset="0.2909" style="stop-color:#FDFDFD"/>
		<stop  offset="0.5007" style="stop-color:#F6F6F6"/>
		<stop  offset="0.685" style="stop-color:#EBEBEB"/>
		<stop  offset="0.8537" style="stop-color:#DBDBDB"/>
		<stop  offset="0.9492" style="stop-color:#CECECE"/>
	</linearGradient>
	<path class="st15" d="M382.6,519.1c0,5.4-1.8,10.4-4.7,14.3c-15.4-4.8-27.5-12.5-36.9-21.8c2.9-8.9,10.9-15.3,20.2-15.3
		C373.1,496.2,382.6,506.4,382.6,519.1z"/>
	
		<linearGradient id="SVGID_13_" gradientUnits="userSpaceOnUse" x1="427.8211" y1="75.5954" x2="428.475" y2="49.9739" gradientTransform="matrix(0.9645 0 0 -0.9645 0.213 581.6458)">
		<stop  offset="0" style="stop-color:#FFFFFF"/>
		<stop  offset="0.2909" style="stop-color:#FDFDFD"/>
		<stop  offset="0.5007" style="stop-color:#F6F6F6"/>
		<stop  offset="0.685" style="stop-color:#EBEBEB"/>
		<stop  offset="0.8537" style="stop-color:#DBDBDB"/>
		<stop  offset="0.9492" style="stop-color:#CECECE"/>
	</linearGradient>
	<path class="st16" d="M434.7,527.7c0,3.6-0.8,7.1-2.2,10.2h0c-5,0.6-10.3,0.9-15.9,0.9c-8.2,0-15.8-0.6-22.8-1.7h0
		c-1.2-2.8-1.8-6-1.8-9.3c0-12.6,9.6-22.8,21.4-22.8C425.2,504.9,434.7,515.1,434.7,527.7z"/>
</g>
<g id="neus">
	
		<ellipse transform="matrix(0.1852 -0.9827 0.9827 0.1852 -22.046 671.6776)" class="st17" cx="394" cy="349.1" rx="16.4" ry="10.9"/>
	
		<ellipse transform="matrix(0.8879 -0.4601 0.4601 0.8879 -106.8025 239.9388)" class="st17" cx="438.8" cy="339.1" rx="10.9" ry="16.4"/>
</g>
<g id="sproetjes" class="st18">
	<circle class="st19" cx="61.7" cy="58.9" r="14.7"/>
	<circle class="st19" cx="54.9" cy="136.5" r="8"/>
	<circle class="st19" cx="120.7" cy="166.2" r="13.7"/>
	<circle class="st19" cx="209.4" cy="47.4" r="7.9"/>
	<circle class="st19" cx="190.7" cy="111.9" r="9.3"/>
	<circle class="st19" cx="134.4" cy="97.8" r="9.6"/>
	<circle class="st19" cx="372.2" cy="45.8" r="10.4"/>
	<circle class="st19" cx="427.1" cy="116.1" r="5.3"/>
	<circle class="st19" cx="393.1" cy="91.1" r="6.6"/>
	<circle class="st19" cx="658.9" cy="74.4" r="12.1"/>
	<circle class="st19" cx="721.5" cy="126.6" r="10.9"/>
	<circle class="st19" cx="715.7" cy="64.3" r="5.7"/>
	<ellipse class="st19" cx="765.2" cy="54.4" rx="12.8" ry="14.4"/>
	<circle class="st19" cx="763" cy="112" r="4"/>
	<circle class="st19" cx="771" cy="196.1" r="6.6"/>
	<circle class="st19" cx="47" cy="476.6" r="12.1"/>
	<circle class="st19" cx="65.5" cy="553.9" r="5.7"/>
	<circle class="st19" cx="145.3" cy="523.9" r="7"/>
	<circle class="st19" cx="190.7" cy="557.1" r="9.9"/>
	<circle class="st19" cx="105.3" cy="508.9" r="4.8"/>
	<circle class="st19" cx="68" cy="395.5" r="5.1"/>
	<circle class="st19" cx="61.3" cy="323.6" r="14.4"/>
	<circle class="st19" cx="36.2" cy="275.3" r="5.9"/>
	<circle class="st19" cx="117.2" cy="446.2" r="3.4"/>
	<circle class="st19" cx="695" cy="502.7" r="12.7"/>
	<circle class="st19" cx="760.9" cy="405.3" r="12.3"/>
	<circle class="st19" cx="632.8" cy="529.5" r="11"/>
	<circle class="st19" cx="751.5" cy="543.3" r="13.8"/>
	<circle class="st19" cx="767" cy="494" r="4"/>
	<circle class="st19" cx="690" cy="428.9" r="7.5"/>
	<circle class="st19" cx="735.7" cy="323.2" r="8.5"/>
	<circle class="st19" cx="444.3" cy="68.8" r="5.7"/>
	<circle class="st19" cx="303.2" cy="89.9" r="5.7"/>
	<circle class="st19" cx="508.4" cy="49.6" r="11.5"/>
	<circle class="st19" cx="209.4" cy="499.9" r="7.9"/>
	<circle class="st19" cx="672" cy="563.8" r="6.7"/>
	<circle class="st19" cx="575.4" cy="557.1" r="5.6"/>
	<circle class="st19" cx="784.4" cy="321.3" r="4.1"/>
	<circle class="st19" cx="796" cy="242.4" r="7.5"/>
	<circle class="st19" cx="276.9" cy="557.8" r="7.9"/>
</g>
</svg>
